<svg xmlns="http://www.w3.org/2000/svg" viewBox="0 0 162 172.8358"><title>bee</title><g id="Layer_2" data-name="Layer 2"><g id="Layer_1-2" data-name="Layer 1"><path d="M133.7286,66.2733c-5.5443,1.7026-11.0363,3.4988-16.0739,6.4975a17.73,17.73,0,0,1-7.2647,1.9448c3.6454-2.4774,7.71-4.1772,11.9009-6.5856-.8092-.1068-1.1582-.2592-1.4289-.171-1.4886.4853-2.9436,1.0759-4.4373,1.543a38.3042,38.3042,0,0,0-7.3267,3.1224,74.074,74.074,0,0,1-7.1743,3.5048A197.0832,197.0832,0,0,0,80.91,86.842c-4.9249,2.8313-9.6192,6.066-14.3867,9.1664a2.9286,2.9286,0,0,1-1.9562.7482A2.27,2.27,0,0,1,62.54,95.4437a2.7957,2.7957,0,0,1,.3834-3.0719,5.401,5.401,0,0,1,1.7187-1.2955,57.8816,57.8816,0,0,1,5.6594-2.42,66.6452,66.6452,0,0,0,10.5841-4.7619c8.1662-4.5072,16.6622-8.338,25.0825-12.3248,2.623-1.2419,5.243-2.4943,7.9063-3.6451,1.5468-.6684,3.1658-1.1786,4.7715-1.7009,5.0521-1.6431,10.2711-2.7262,15.1768-4.8868,2.5219-1.1107,5.3377-1.5268,7.8311-2.8124a3.9638,3.9638,0,0,1,1.4036-.3108,1.9631,1.9631,0,0,1,2.2158,2.2249,4.7026,4.7026,0,0,1-.3027,1.4058,9.8611,9.8611,0,0,1-.9882,1.9317,28.6939,28.6939,0,0,1-13.6693,10.9332,81.0761,81.0761,0,0,1-14.0239,3.6887c-3.3344.5941-6.6738,1.16-10.006,1.7657a42.527,42.527,0,0,0-8.6173,2.6c-.0916.0378-.1334.1961-.1985.2982-.4641.0249-.93.0348-1.3908.0878-.0864.01-.1531.1914-.229.2938.1056.0313.234.1176.3128.0847.4126-.1722.8126-.3746,1.217-.5665q3.0565-.37,6.1129-.7391c3.6053-.4307,7.2055-.9173,10.8184-1.27a41.5623,41.5623,0,0,0,11.6554-2.5672,1.8112,1.8112,0,0,1,2.261.531c.9741,1.0789,1.9162,2.1932,2.96,3.2005a3.8279,3.8279,0,0,1,1.0112,3.9961c-1.1407,4.6061-2.5061,9.1129-5.58,12.887a25.1718,25.1718,0,0,0-1.4287,2.0867c-.0482.0731.0049.2129.0125.3474.5889.3916.8267-.214,1.1116-.47A47.8632,47.8632,0,0,0,133.7909,92.1c.4768-.701.9232-1.4238,1.4218-2.1086.6815-.9359,1.2455-1.0733,2.1408-.4951a25.2708,25.2708,0,0,1,8.859,9.4282,1.9172,1.9172,0,0,1,.0524,1.7152A41.72,41.72,0,0,1,134.64,117.5217c-1.3528,1.198-2.926,2.1456-4.3793,3.2331a3.5147,3.5147,0,0,0-.6652.795.3491.3491,0,0,0,.042.307.4906.4906,0,0,0,.2826.1877.5666.5666,0,0,0,.3555-.0466c3.4109-1.8286,6.9062-3.52,10.2013-5.5387a29.0627,29.0627,0,0,0,8.1017-7.7382c.69-.9368,1.1979-.8958,2.11-.17,2.6647,2.1211,4.0736,5.0922,5.3675,8.091,1.8935,4.3878,1.79,4.886-1.6408,8.162a77.5208,77.5208,0,0,1-11.7776,9.09c-.7856.5041-1.748.8088-2.2476,2.0288,1.6618-.0224,2.8223-.9878,4.1367-1.4539,1.2548-.445,2.5287-.8478,3.75-1.3723,1.3333-.5726,2.6247-1.2466,3.9182-1.9078,1.1858-.6061,2.3725-1.2165,3.518-1.894,1.2444-.7359,2.4416-1.5512,3.7468-2.3879A9.2867,9.2867,0,0,1,162,133.57c-.0005,2.1712-.3131,4.3419-.4776,6.5136a3.4323,3.4323,0,0,1-1.9372,2.8727,32.2558,32.2558,0,0,1-7.6339,3.3208c-.8185.208-1.623.4729-2.4275.7322-.0837.027-.1956.2254-.1678.2885.0715.1624.22.4227.3273.4178,1.8063-.0816,3.6132-.1706,5.4153-.3166,1.0813-.0876,2.1516-.3074,3.2325-.4064a.7942.7942,0,0,1,.8918.8911,15.5652,15.5652,0,0,1-4.58,11.4457,1.6928,1.6928,0,0,1-1.3154.3354,8.0922,8.0922,0,0,1-2.3993-.796c-2.75-1.5255-5.4917-3.0722-8.1583-4.7365a9.465,9.465,0,0,0-3.2334-1.5479c-.5915-.1115-1.1582-.3488-1.7413-.5109a12.492,12.492,0,0,1-8.6081-7.7032,7,7,0,0,0-3.2027-3.7062,15.0353,15.0353,0,0,1-5.1143-5.0716,4.7521,4.7521,0,0,1-.54-4.7867,15.4007,15.4007,0,0,0,.3154-10.3176c-1.3742-5.0159-2.3577-10.1462-4.4537-14.9425a11.9589,11.9589,0,0,0-1.5979-2.8042,1.64,1.64,0,0,0-2.8986.5566,13.8257,13.8257,0,0,0-.5053,3.55,20.8954,20.8954,0,0,1-2.39,9.4147,10.8869,10.8869,0,0,1-.8343,1.163c-1.1595-.2891-1.5-1.2941-1.9066-2.0943a2.6762,2.6762,0,0,0-2.8058-1.7726,9.4446,9.4446,0,0,1-2.5224-.24,8.92,8.92,0,0,1-6.5359-4.6738,50.8409,50.8409,0,0,1-3.5163-7.9535,33.6314,33.6314,0,0,0-3.6938-7.8651A2.3089,2.3089,0,0,1,86.756,90.16a4.5149,4.5149,0,0,0,.6755-1.6628,1.3973,1.3973,0,0,0-.7233-1.0546,7.02,7.02,0,0,0-1.7975-.3335c.1573-.1982.2492-.4182.4117-.5033,3.5363-1.851,6.9916-3.8938,10.6492-5.4647a32.5318,32.5318,0,0,1,10.431-2.87,30.1244,30.1244,0,0,0,14.6851-4.8049,46.08,46.08,0,0,1,9.3452-4.81,16.9727,16.9727,0,0,0,2.87-1.5275c.2244-.1391.2442-.6083.3581-.9257.5822.0635.8353-.1737.7-.766a2.1461,2.1461,0,0,0,.6835.0137c.1028-.03.1373-.2917.2028-.4485-.1166,0-.274-.047-.3416.0108a4.21,4.21,0,0,0-.4485.5131Z"/><path d="M26.7489,103.8062l-2.2992-3.02c1.1691-.3716,1.9695.2687,2.7915.7041.7339.3887,1.4.9046,2.0759,1.3508.5922-.478.3251-.954.0793-1.3413-.4529-.7136-1.0217-1.3546-1.4629-2.0744a1.2389,1.2389,0,0,1,.0006-.9136c.0369-.1122.4578-.2049.6488-.1412.8014.267,1.5654.6538,2.3746.8878.8779.2538.6418-.3646.531-.818-.089-.3643-.109-.7289.39-.6491a3.9582,3.9582,0,0,1,.9711.4652c.7815.3751,1.4947,1.7052,2.3355.9126.7461-.7034-.2279-1.7821-.5-2.6818-.0692-.2291-.2234-.4311-.31-.6565-.4618-1.2018-.3762-1.339,1.1491-1.9952a6.4736,6.4736,0,0,0,.698-.4224,12.1691,12.1691,0,0,1-.7247-2.0047c-.1634-.8905-1.8644-2.106.4262-2.665a3.0867,3.0867,0,0,0-.0669-1.33c-.2952-1.0986-.1415-1.6751,1.173-1.27.0355.0109.3986-.5675.32-.7394-.4452-.9763-.9785-1.9124-1.4764-2.8522.4492-.69,1.8131-.13,1.8206-1.4426.0036-.6271.5787-.5938,1.0906-.5853,1.4715.0243,1.4644.0011,1.9287-1.2988a15.4768,15.4768,0,0,1,.8046-2.02c.1436-.2729.7159-.6387.8081-.5714,1.001.73,1.4481.1086,1.9958-.6264.237-.3181.7766-.4185,1.19-.5912.0944-.0394.2673.0884.3487.042,1.0284-.5853,2.0466-1.1885,3.0675-1.7872,1.0844,1.0241,2.0461-.0365,3.01-.2567a24.01,24.01,0,0,0,3.3832-1.2887,2.7663,2.7663,0,0,1,.6689-.2711.7039.7039,0,0,1,.5544.2027c1.0838,1.487,2.5162,1.1354,3.9474.7739.586-.148,1.1518-.3944,1.744-.491.3059-.05.8749.047.9382.22a1.25,1.25,0,0,0,1.743.8124,7.18,7.18,0,0,1,4.6.448c.8038.2653,1.5943.58,2.3683.9237a3.6158,3.6158,0,0,1,1.4622.8728c.2043.2751-.0462.9093-.1345,1.3748-.1088.5744.079.9576.6723.988.8388.0429,1.6814.0109,2.7973.0109a13.8357,13.8357,0,0,1-.658,1.7809.9215.9215,0,0,0,.4958,1.4508,14.6182,14.6182,0,0,0,1.6527.5511,4.3133,4.3133,0,0,1-2.5348,3.0519c-1.9735.9127-3.9889,1.7355-5.9888,2.5908-2.1131.9037-4.2161,1.8335-6.3474,2.6923-2.3112.9313-2.6767,3.0357-2.8989,5.0531a3.0274,3.0274,0,0,0,3.6488,3.0126,25.083,25.083,0,0,0,4.9482-2.2165c3.3618-1.9244,6.6379-3.9985,9.9594-5.994,2.13-1.28,2.1387-1.2659,5.1805-.1711a11.7659,11.7659,0,0,1-1.4938,1.9409A8.4821,8.4821,0,0,0,79.8014,99.24a24.859,24.859,0,0,0,2.0895,8.42c.5314,1.2152.6856,2.3212-.5938,3.1938-.1913.13-.4276.3555-.4457.5548-.1981,2.1729-1.8429,2.92-3.5067,3.7064a1.6265,1.6265,0,0,0-.872.9995c-.1312,1.0683-.8855,1.3965-1.6927,1.6441-1.04.319-2.1132.5314-3.172.7894-.4687.1143-.9382.2252-1.4062.3421-.7811.1951-1.0709,1.571-2.0941,1.0165a7.109,7.109,0,0,1-1.5342-1.523,9.9234,9.9234,0,0,0-5.1838-3.1279,5.3592,5.3592,0,0,0-4.9771,1.51,2.5836,2.5836,0,0,0-.63,1.6171,8.0672,8.0672,0,0,0,1.5264,5.5043c1.8078,2.41,1.1369,4.5428-.1891,6.6819-1.018,1.6423-2.2307,3.1661-3.3885,4.7188a12.8284,12.8284,0,0,0-2.2524,4.5134,11.7281,11.7281,0,0,0,.0962,6.8013,14.3964,14.3964,0,0,1,.5909,2.4621,2.0016,2.0016,0,0,1-1.2611,2.0112c-2.2869.8476-5.1508-.1649-5.6279-2.5046-.5125-2.5141-2.13-3.9676-3.72-5.6018-1.4351-1.4742-2.8076-3.0094-4.24-4.4861-.1969-.203-.5812-.2242-.8787-.33-.0653.3413-.2579.7177-.1748,1.0179.4509,1.63.9238,3.2574,1.4768,4.8554.7117,2.0566,1.5266,4.0772,2.26,6.1267.734,2.0522,1.4314,4.1177,2.1274,6.1833.7349,2.1811,1.5017,4.3535,2.16,6.558.9,3.0143,1.6007,6.0926,3.225,8.8466a.95.95,0,0,1-.258.8986,1.7464,1.7464,0,0,1-1.3.1114,1.892,1.892,0,0,1-.86-1.0854c-.5759-1.9729-1.0755-3.9684-1.5864-5.96a27.5688,27.5688,0,0,0-.8787-3.5138c-2.3171-5.7265-4.125-11.6335-6.2646-17.4218-.3773-1.0208-.7617-2.0411-1.1975-3.0378a20.5448,20.5448,0,0,1-1.7573-6.6433,6.109,6.109,0,0,0-.3642-2.1178c-.2909-.6076-.8707-1.4074-1.4168-1.4875-.8959-.1313-.9534.8846-1.0564,1.5622-.811,5.3348-3.0155,10.2-5.0685,15.1154a13.8609,13.8609,0,0,1-1.0322,1.9194,4.4966,4.4966,0,0,1-3.0584,2.3784,3.142,3.142,0,0,0-2.3111,1.5482,7.5869,7.5869,0,0,1-1.3222,1.2284c-1.5774,1.4923-3.3681,2.7831-4.4177,4.7748a1.4889,1.4889,0,0,1-.8487.62,1.3911,1.3911,0,0,1-1.0277-.0892c-.2564-.1654-.5536-.654-.4768-.88a6.2954,6.2954,0,0,1,1.0833-2.22,13.4316,13.4316,0,0,1,2.3283-1.7162c1.1883-.8342,2.4437-1.5883,3.5452-2.524a2.7444,2.7444,0,0,0,.9741-1.8174A8.9958,8.9958,0,0,1,20.4,146.9585c1.4851-2.7788,3.013-5.537,4.4081-8.3607a56.4613,56.4613,0,0,0,2.2052-5.3683,1.3771,1.3771,0,0,0-.2058-1.2531,1.7259,1.7259,0,0,0-1.3491.0038,21.8084,21.8084,0,0,0-10.53,8.5087c-1.7152,2.4907-3.5582,4.8929-5.2914,7.3716-1.7347,2.4807-3.3906,5.0164-5.11,7.5077a12.2236,12.2236,0,0,1-1.61,1.9469A1.6711,1.6711,0,0,1,.892,157.5a1.5187,1.5187,0,0,1-.67-2.1451,6.0227,6.0227,0,0,1,.6786-.845,157.982,157.982,0,0,0,15.4318-18.33,7.7573,7.7573,0,0,1,3.674-2.83c2.1429-.806,4.2676-1.661,6.4153-2.454a4.5417,4.5417,0,0,0,2.9249-3.0052.7972.7972,0,0,0-.5609-1.1321c-1.5574-.289-2.694-.9113-3.0353-2.6464a2.0863,2.0863,0,0,0-1.1781-1.2139c-1.0257-.4161-1.6609-.9487-1.4524-2.1443.041-.2353-.0162-.4866.015-.7249.1409-1.0739-1.1954-1.2111-1.3141-1.9885a13.1126,13.1126,0,0,1,.1828-2.4569c.0044-.0967-.368-.2923-.5718-.3011-.6441-.0278-1.2567.0148-1.0324-.9679a1.3034,1.3034,0,0,0-.22-.8719c-.2422-.384-.6862-.669-.8311-1.0726-.0623-.1733.389-.5609.6455-.8116a9.5551,9.5551,0,0,0,1.0726-.972,1.0357,1.0357,0,0,0,.0592-.8944c-.6163-1.2847-.6425-1.28.128-1.83.4906-.35,1.0179-.6525,1.482-1.0332a.7031.7031,0,0,0,.11-.6248c-.3439-.9811.1172-1.2165,1.0035-1.386A20.9743,20.9743,0,0,0,26.7489,103.8062Zm7.8357,9.7659c.1708,5.9827,1.8683,11.1012,6.8374,14.6445a12.2562,12.2562,0,0,0,3.2139,1.6016,3.3919,3.3919,0,0,0,4.095-1.5015,8.4716,8.4716,0,0,0,1.4419-4.7767c.1456-4.76-1.5527-9.0007-3.7476-13.0722-.9465-1.7558-2.6522-2.7154-4.3777-3.6675a4.991,4.991,0,0,0-7.1743,3.6675C34.75,111.5472,34.6708,112.6317,34.5846,113.5721Z"/><path d="M103.1563,52.4352a44.5589,44.5589,0,0,1-10.8172,4.8429,10.0845,10.0845,0,0,1-1.3325.1269c.2934-.407.4006-.6947.6066-.82a15.8433,15.8433,0,0,0,5.14-5.472c.8165-1.3189,1.8437-2.5073,2.7762-3.7543l.7237-.7811.7209-.7509.66-.6791.22-.1034-.1413.1789-.6395.703-.7214.7518c-.49.0281-.8615.1655-.7174.7781a2.4067,2.4067,0,0,0-2.1886,1.0253,13.41,13.41,0,0,0-1.5017,2.0258c-1.9647,3.0842-4.9847,4.6548-8.4174,6.0944a7.2366,7.2366,0,0,1,2.0168-3.9592q3.071-3.5611,6.1316-7.1309c.459-.5363,1.0682-1.0155.8739-1.8639a1.005,1.005,0,0,0,.3234-.0282c.0572-.0244.0756-.14.1113-.2147l-.3487.3352a13.8238,13.8238,0,0,0-1.7113,1.26c-2.06,2.0511-4.0579,4.165-6.1165,6.2178a14.7443,14.7443,0,0,0-3.1048,4.8712,16.4489,16.4489,0,0,1-3.3785,5.1232,22.9377,22.9377,0,0,0-5.3563,8.1311,9.8431,9.8431,0,0,1-.8254,1.6149c-.6475,1.1033-1.0345,1.23-2.4144.8663-1.6371-.4317-3.2712-.8762-4.9135-1.2868a1.5812,1.5812,0,0,1-1.3791-1.4386.9807.9807,0,0,0-1.2882-.8923c-.4756.0854-.9438.2222-1.4222.2777a.727.727,0,0,1-.8186-.8841,9.179,9.179,0,0,1,.6517-1.6647c1.7006-3.0715,3.503-6.0888,5.1311-9.1977a16.7121,16.7121,0,0,1,6.9175-6.7488c2.7309-1.55,5.4944-3.043,8.2481-4.5527a20.041,20.041,0,0,0,5.2234-3.8694l.7686-.7833L90.98,40.66l-.0437.2139-.7628.7892a4.4344,4.4344,0,0,0-1.3845.2221c-4.1642,2.1977-8.3067,4.4366-12.4731,6.6737-.6607-.4068-.0832-.8081.0821-1.1156a20.2811,20.2811,0,0,1,6.4672-7.2424c1.7947-1.232,3.5022-2.5958,5.2061-3.9539a18.09,18.09,0,0,0,4.6331-5.5361,1.1694,1.1694,0,0,0,.0922-.9775c-.3205-.4725-.5647.02-.7882.2282a3.6859,3.6859,0,0,0-.4579.5624,23.7816,23.7816,0,0,1-7.3432,6.3972,7.9215,7.9215,0,0,1-1.1106.4358,4.2617,4.2617,0,0,1,.1314-1.0905,21.4156,21.4156,0,0,1,1.8336-3.932,35.6665,35.6665,0,0,0,4.7437-8.9471,12.52,12.52,0,0,1,2.68-4.2833c3.1357-3.4655,5.0043-7.6845,6.97-11.8412.0841-.1778-.032-.45-.0577-.7072-.6775-.1822-.6064.5094-.8666.7831a6.3592,6.3592,0,0,0-.565.927c-1.3326,2.0219-2.6241,4.0733-4.0266,6.0457a23.483,23.483,0,0,1-2.8047,3.3138A13.7923,13.7923,0,0,0,87.722,22.7a27.3565,27.3565,0,0,1-4.36,7.4917,19.8555,19.8555,0,0,0-2.57,4.36,58.3043,58.3043,0,0,1-5.7929,10.0065c-5.0547,7.095-9.9075,14.3491-13.5251,22.3329a9.3477,9.3477,0,0,1-1.1415,1.8351c-.0873.1127-.679.03-.8315-.1443a7.38,7.38,0,0,1-.7635-1.382c-1.0111.1684-1.6506.9442-2.4619,1.3644-.7.3627-1.4.7267-2.6532,1.3777a84.6425,84.6425,0,0,1,3.2515-7.8378c2.3517-4.5055,4.73-9,7.21-13.4351,3.3673-6.0208,6.8292-11.989,10.273-17.9668A161.4359,161.4359,0,0,1,91.15,7.0381C93.3816,4.4008,96.2376,2.59,99.0924.7633A5.9035,5.9035,0,0,1,100.42.18a2.4989,2.4989,0,0,1,3.518,2.4208,9.4339,9.4339,0,0,1-.4776,2.8323c-.8418,2.9023-1.846,5.76-2.6129,8.6808a26.2458,26.2458,0,0,0-.6866,10.0323c.5184,4.1159.5774,8.2059-1.1725,12.1357-.5587,1.2547-.1659,1.6351,1.3566,1.6414.484.002.9687-.0195,1.4524-.0422,6.2539-.2941,11.178,6.1518,9.9927,11.99-1.0875,5.3566-3.3614,10.0726-7.7583,13.58a5.4023,5.4023,0,0,1-3.9979,1.3614c-.8441-.0751-1.6931-.0931-2.5382-.1582a60.1193,60.1193,0,0,0-14.7777.406c-.714-.7167-.049-1.2.2438-1.5927a10.0969,10.0969,0,0,1,5.7073-3.6224c1.4009-.378,2.8435-.5995,4.25-.9592a24.0433,24.0433,0,0,0,9.5763-5.002c.4849-.407.8488-.8572.5794-1.5459.282.056.65.2242.45-.3465Z"/><path d="M118.5256,125.8062a10.3507,10.3507,0,0,1-2.1649,7.1649,9.6534,9.6534,0,0,0-1.9221,5.3457,23.6171,23.6171,0,0,1-4.1172,11.1283c-1.3616,2.1354-3.0475,3.7929-5.7651,3.8872a2.0124,2.0124,0,0,0-1.8978,1.41c-.2412.5553-.52,1.0944-.7875,1.6381a4.02,4.02,0,0,0-.1431,3.5137c.8269,1.8835,1.73,3.7335,2.5854,5.6045a1.5042,1.5042,0,0,1-.9187,2.3094,5.8415,5.8415,0,0,1-1.04.3156,1.3712,1.3712,0,0,1-1.7463-.9056c-1.0047-2.7242-1.9994-5.4537-2.8983-8.2137A3.063,3.063,0,0,1,97.978,157.3c.4223-1.2575.97-2.4737,1.3764-3.7356a4.0568,4.0568,0,0,0-.6488-4.3328,5.2824,5.2824,0,0,1-.3441-6.4533c2.16-3.6462,4.3081-7.3025,6.5921-10.8707,1.0627-1.66,1.9743-3.1966,1.8692-5.322-.1024-2.0678.82-4.0094,1.6961-5.8807.6673-1.4253,1.3806-2.8293,2.0826-4.2382a19.5471,19.5471,0,0,0,2.1778-9.4624,12.5967,12.5967,0,0,1,.1652-2.1575c.0207-.1458.3242-.27.5177-.3615a.3178.3178,0,0,1,.2765.1359,11.8691,11.8691,0,0,1,.814,2q1.8821,8.1372,3.68,16.2938A24.3255,24.3255,0,0,1,118.5256,125.8062Z"/><path d="M95.047,121.4972q-.1915,2.1666-.3828,4.3332a3.8064,3.8064,0,0,1-2.1667,3.5163,1.581,1.581,0,0,0-1.0444,1.7041c.2581,3.9222-2.0685,6.8507-3.853,9.976a1.3607,1.3607,0,0,1-1.213.4148c-.9163-.2567-1.5815-1.2534-1.3781-1.88a7.0819,7.0819,0,0,1,.62-1.29c.6589-1.1564,1.3987-2.2707,1.9963-3.4572,1.1256-2.2347,1.187-4.4161-.664-6.3472a5.2618,5.2618,0,0,1-1.3488-3.655,37.687,37.687,0,0,1,.5718-9.3993,8.138,8.138,0,0,0-.3486-4.62c-.9343-2.6171-1.7011-5.2937-2.5736-7.9335a11.6238,11.6238,0,0,1-.3773-7.4707,7.0085,7.0085,0,0,1,.8411-1.5845,1.0563,1.0563,0,0,1,1.5915-.0633,16.68,16.68,0,0,1,1.6675,3.1771c.8815,2.6377,1.5654,5.3407,2.3948,7.9967a29.3366,29.3366,0,0,0,3.429,7.9741A12.5278,12.5278,0,0,1,95.047,121.4972Z"/><path d="M77.053,75.0123c1.3789-4.643,3.3821-6.5556,7.8222-7.3047,6.8558-1.1566,13.7088-.7523,20.5518.1649a3.5486,3.5486,0,0,1,1.0208.3581,5.0934,5.0934,0,0,1,.7446.594c-2.1222.996-4.1657,1.9211-6.1794,2.9074Q94.68,74.8341,88.373,77.99c-1.2959.6447-2.5607,1.3536-3.8705,1.9677-.525.2461-1.2374.5687-1.6709.3891-.372-.1542-.4208-1.0019-.706-1.4881-.1458-.2485-.5295-.5658-.7489-.5275-1.0807.1888-1.6274-.07-1.4273-1.2829a6.7573,6.7573,0,0,0,.0481-1.44c-.0341-.6523-.48-.9367-1.2491-.8554-.5908.0625-1.1821.1207-1.7732.1807Z"/><path d="M81.3076,141.793a1.3945,1.3945,0,0,1-.86,1.7118,1.2906,1.2906,0,0,1-1.888-.3538,7.0764,7.0764,0,0,1-.9056-3.828c.0261-4.8517.226-4.2563-4.0552-5.9617a8.3893,8.3893,0,0,1-1.9064-1.0359c-1.55-1.1572-3.0424-2.1767-5.189-2.078A4.0841,4.0841,0,0,1,63.74,128.74c-1.8537-2.2149-3.5279-4.5854-5.1825-6.9577a8.99,8.99,0,0,1-.9222-2.3516,2.1642,2.1642,0,0,1,.6959-2.2957,2.2279,2.2279,0,0,1,2.6624-.5436,9.4742,9.4742,0,0,1,2.6334,1.879c2.3976,2.5383,5.0672,4.8712,6.71,8.03a3.3566,3.3566,0,0,0,2.3391,1.5056,11.4532,11.4532,0,0,1,6.3452,5.1165,4.6627,4.6627,0,0,1,.6686,1.273C80.26,136.8543,80.7741,139.3259,81.3076,141.793Z"/><polygon points="76.975 74.933 76.793 75.148 77.053 75.012 76.975 74.933"/><path d="M36.9227,115.6389A7.2544,7.2544,0,0,1,38,111.3012a2.8311,2.8311,0,0,1,3.7723-1.143,6.6768,6.6768,0,0,1,2.09,1.3675,11.2421,11.2421,0,0,1,3.4822,6.1849c.2172,1.4267.5149,2.8416.7923,4.2586a8.8717,8.8717,0,0,1-.6422,4.5945,2.1152,2.1152,0,0,1-2.9293,1.3029,9.6006,9.6006,0,0,1-2.8007-1.6147C38.8145,123.4122,36.7132,120.12,36.9227,115.6389Zm6.3722.7335a3.5112,3.5112,0,0,0-1.85-3.3968,1.119,1.119,0,0,0-1.5457.9354,3.91,3.91,0,0,0,1.4023,3.1421,1.467,1.467,0,0,0,1.2518.2459C42.92,117.1417,43.1237,116.6042,43.2949,116.3724Z"/></g></g></svg>