<svg xmlns="http://www.w3.org/2000/svg" viewBox="0 0 280.4531 733.1695"><title>hand2</title><g id="Layer_2" data-name="Layer 2"><g id="Layer_1-2" data-name="Layer 1"><path d="M202.183,94.4884a30.1287,30.1287,0,0,1-9.694.8043c-1.0938-.09-7.2641-.3038-4.9322-2.9544.7847-.892,2.8189-.7027,3.8875-.8237,1.6946-.1919,3.3778-.4629,5.05-.7964a82.5593,82.5593,0,0,0,8.873-2.3272c2.6321-.8374,5.1824-1.8928,7.797-2.77l.0485-.0161a1.4267,1.4267,0,0,1,1.27,2.5011C211.4483,90.4235,206.8947,93.356,202.183,94.4884ZM47.9,195.8752a18.3882,18.3882,0,0,1-6.4522-.3814.7229.7229,0,0,1-.074-1.3946,57.8828,57.8828,0,0,0,8.1129-3.1434,45.1,45.1,0,0,0,6.9462-4.5714.607.607,0,0,1,.8815.8057C55.2772,190.3873,51.4684,195.3593,47.9,195.8752ZM85.7407,129.69c.2643-1.618,2.9417-2.4262,4.1765-3.0812a35.8019,35.8019,0,0,0,7.2517-4.5311c2.153-1.9037,4.1636-3.9854,6.2311-5.981.7945-.7668,3.7982-3.4335,3.8856-.42.0494,1.7026-2.7862,4.829-3.7592,6.0978a25.4836,25.4836,0,0,1-4.9887,4.9477C97.1831,127.7258,85.1,133.2006,85.7407,129.69ZM72.9175,146.3533c-.1493,1.9408-2.6441,3.6943-4.1767,4.7014a14.1933,14.1933,0,0,1-7.6328,2.43,58.43,58.43,0,0,1-7.3241-.5538.96.96,0,0,1-.293-1.825,22.7259,22.7259,0,0,1,6.0671-1.6191,30.4731,30.4731,0,0,0,8.2088-2.3356c1.8435-.8458,3.2406-1.7778,5.2368-2.0874A7.2352,7.2352,0,0,1,72.9175,146.3533ZM28.3081,87.1677c4.5994,5.5055,9.5312,10.7391,14.6647,15.8151a213.5424,213.5424,0,0,0,17.3908,14.7888c5.9478,4.7407,12.6531,8.4019,18.5406,13.1583a26.7221,26.7221,0,0,1,4.7687,5.1487c2.8485,3.9249,5.8432,7.7394,8.8519,11.5415,9.6093,12.1428,20.461,22.9923,31.4,33.9224a49.2081,49.2081,0,0,1,7.1026,8.1008c.2743.4293,1.0293,2.3134,1.4431,2.5121.2331.112.8643-.14,1.105-.1082,1.3871.1854,3.13-.3268,4.5077-.4561,7.4522-.6992,14.3337-2.04,21.074-5.4212,1.22-.6121,4.0094-2.7363,5.4572-2.3944,1.722.4066.9972,1.7653.3,2.6452a25.2567,25.2567,0,0,1-8.71,6.8406,30.735,30.735,0,0,1-20.1832,1.0531,1.4468,1.4468,0,0,0-1.6964,1.9606c3.337,8.1148,5.409,16.8009,8.22,25.0795,3.0035,8.8446,6.25,17.6127,9.4986,26.37,1.2508,3.3717,2.5955,6.1542,5.84,7.9084,4.7088,2.5457,10.5293,2.7992,15.707,3.9115a129.9295,129.9295,0,0,1,13.0007,3.2541.6852.6852,0,0,1-.2,1.3333,49.9517,49.9517,0,0,1-9.2738-.4216,102.4587,102.4587,0,0,0-21.8637-.9933,110.4938,110.4938,0,0,0-18.3167,2.8915,41.6937,41.6937,0,0,0-9.801,4.09c-2.14,1.1465-3.5324,2.1431-5.4991,2.05a.8778.8778,0,0,1-.5653-1.5145,42.6673,42.6673,0,0,1,4.7457-3.5448,113.3931,113.3931,0,0,1,9.9131-6.6132,32.8649,32.8649,0,0,1,10.0591-3.1922c3.0977-.5465,1.887-2.76.9976-5.2548-2.6835-7.529-4.6419-15.4611-6.9171-23.1267-2.4191-8.1506-4.7145-16.3336-7.3532-24.4174-1.1795-3.6134-1.9335-7.963-4.3091-10.9915a85.6129,85.6129,0,0,0-8.1085-8.4c-5.7285-5.5434-11.5337-11.0053-16.7707-17.0269C97.87,161.39,92.0974,155.3687,87.0889,148.711c-2.519-3.3485-4.4892-7.0608-6.9944-10.4027-2.342-3.1241-5.0739-4.983-8.3936-6.9586-13.2217-7.8687-25.8995-17.6155-35.83-29.4677-3.4078-4.0675-6.0567-8.845-9.2733-12.8689-.9745-1.2191-2.2165-3.4227-3.5341-4.2552-1.0952-.692-3.4864-.5976-4.8045-.769-1.8494-.2406-3.5045-.4625-5.2425.3132C-3.7707,91.7942,7.2939,114.45,15.37,124.1639a120.5468,120.5468,0,0,0,17.7123,16.9044c3.07,2.4495,6.1727,4.8857,9.385,7.1465,3.0877,2.1731,6.8862,3.6322,9.5862,6.2865,3.1456,3.0923,5.6007,7.1472,8.2386,10.6692,4.9893,6.6615,9.9955,13.336,15.4763,19.6058,4.3381,4.9627,9.2136,9.4134,13.6746,14.2474,2.4553,2.6606,5.3451,4.6864,7.8625,7.2047,2.3531,2.3538,2.3174,6.6472,2.9578,9.7475,3.15,15.25,5.59,30.812,10.57,45.6157.88,2.6152,2.3222,6.8976,3.1259,9.5372.646,2.1217.8131,3.6638-1.6278,5.0386-6.725,3.7876-14.3663,5.3084-21.035,9.1268-.8639.4947-5.2475,4.3135-6.4787,3.276-1.8744-1.58,3.8922-5.4548,4.7218-5.9927a51.8451,51.8451,0,0,1,10.4989-5.0107c2.5057-.9208,7.17-2.8554,7.8331-5.8127.4776-2.1287-.7677-5.0445-1.2229-7.0432-.6817-2.9935-1.385-5.98-2.2926-8.9129-2.9107-9.4054-4.5935-19.03-6.39-28.7077-.3086-1.6623-.9289-4.3571-1.3186-6.0023-.9221-3.8927-1.48-8.3055-4.05-11.5514-4.9066-6.1969-11.105-11.5639-16.3535-17.4969-4.2526-4.8073-8.8091-9.4892-12.631-14.6524-1.7987-2.43-3.6341-4.835-5.475-7.2328-2.3754-3.0942-5.45-5.2849-8.4744-7.7053-6.2147-4.9728-12.0829-10.3963-18.2186-15.4705-5.2436-4.3364-13.885-10.0849-19.31-2.4545-2.3129,3.2531-1.3974,8.4393-.4063,12.0259a61.4725,61.4725,0,0,0,4.3087,11.1719,90.2715,90.2715,0,0,0,13.8664,19.6873c2.7428,3.0338,6.145,5.6035,8.7368,8.7382,2.47,2.9869,3.4924,7.466,5.0656,10.9746,3.454,7.7028,7.4721,15.1836,11.5051,22.5966,1.8958,3.4847,3.7644,7.0058,5.8311,10.3932,1.9633,3.2179,3.7726,5.5232,4.1237,9.3405.7638,8.3024,1.04,16.6141,2.0516,24.8952a119.5825,119.5825,0,0,1,.17,23.8267c-.0955,1.2515,1.7142,7.4112-4.229,16.0151a69.28,69.28,0,0,0-5.0428,9.1074,71.7261,71.7261,0,0,0-6.9779,23.7849A141.7719,141.7719,0,0,1,45.4448,374.42c-1.4,4.4381-3.0675,8.7794-4.8735,13.0665-1.7129,4.0659-3.07,8.3105-4.84,12.338-3.5748,8.1363-8.0685,15.9245-11.8331,23.9863-7.5777,16.227-16.0107,31.9253-19.5,49.6883-1.6824,8.5645-2.3648,17.1554-3.2615,25.8221A123.8088,123.8088,0,0,0,0,512.3128a62.7534,62.7534,0,0,0,1.2293,10.4331c.6987,4.08,1.4993,8.1847,2.5977,12.1774,1.0735,3.9022,2.7057,7.6177,3.8781,11.49,1.3622,4.4988,2.6258,9.0068,4.1866,13.4449,1.5661,4.4533,3.4134,8.6991,4.0927,13.4045,2.3245,16.1017,3.8567,32.5037,7.5554,48.3747,2.1058,9.0359,3.4147,18.2331,5.1555,27.3508,1.6632,8.7118,2.9561,17.4863,4.0989,26.2815.4981,3.8333,1.2051,7.6141,1.989,11.4.77,3.72.5871,8.8072,3.9989,11.1976,2.2773,1.5955,5.0645,2.5666,7.4284,3.8782a79.1106,79.1106,0,0,0,9.5154,4.6108c14.9457,5.846,31.2113,10.66,47.5169,9.3491a8.6011,8.6011,0,0,1,7.0751,2.108c-2.7037.5637-5.4063,1.1306-8.1162,1.6641-1.3236.2605-4.3628.2116-4.6367,1.4951-.1776.8325.5851,2.4093.7273,3.25a11.21,11.21,0,0,0,.5591,2.8575c1.3874,3.08,6.1761,3.9871,9.0754,4.7893a41.3174,41.3174,0,0,0,13.9493,1.1731,38.0426,38.0426,0,0,0,14.1875-3.7591,13.1227,13.1227,0,0,0,4.2793-3.7072c1.57-1.9523,1.553-3.4505,1.2822-5.8494-.0817-.7242.0151-2.7617-.46-3.3008-.2863-.3248-.4084-.0038-.8734-.15-.7867-.2465-2.264.2184-3.14.2885q-2.0378.1631-4.08.2618a59.6812,59.6812,0,0,1-10.8652-.51c5.6582-3.3974,12.8337-3.4227,19.19-5.1253a71.4293,71.4293,0,0,0,22.617-10.7712q3.21-2.235,6.4108-4.4821a69.5317,69.5317,0,0,0,9.3142-8.1063c2.5364-2.5348,6.0461-5.77,6.8375-9.4167.6989-3.22-.9391-6.57-1.7669-9.6414-2.1557-7.9976-4.0413-16.0375-5.7782-24.1359-1.6784-7.8251-3.3288-15.71-4.8391-23.5651-3.2412-16.8584-4.6771-34.3157-2.7389-51.42.4732-4.1758.8585-8.4814,2.2337-12.4746,1.2126-3.5211,2.93-6.8931,4.3167-10.3526,1.5825-3.9488,3.0074-7.9513,4.4934-11.9361,1.2341-3.3093,3.1351-6.3546,4.6962-9.5176,3.8253-7.75,8.1085-15.28,12.2524-22.8624,4.2539-7.7842,9.9228-14.7552,14.4921-22.3637,4.6433-7.7318,9.5252-15.43,14.5055-22.9483,4.5435-6.859,10.2123-12.8768,14.8575-19.658,4.8911-7.14,9.6645-14.04,10.62-22.8551.7162-6.6079.9846-13.2791,1.98-19.8542a59.2721,59.2721,0,0,1,2.1729-10.5439c1.3958-3.9643,3.96-7.7162,6.0039-11.3823,2.0778-3.7276,4.8774-6.8982,7.2538-10.4331,2.2655-3.37,5.0775-6.74,6.2151-10.6987,4.4344-15.4282,3.0092-33.1381.8913-48.8365-1.24-9.1921-2.7985-18.32-3.9952-27.5219-.9869-7.5881-2.654-15.1231-2.7188-22.8025-.1161-13.7387-.8576-27.7065-.22-41.4143.3911-8.4144-.0757-16.7364-.2963-25.1428a217.4833,217.4833,0,0,0-1.9481-24.66c-1.2194-8.6271-4.8621-16.011-8.6071-23.7642q-6.7373-13.948-13.9082-27.6815c-7.4153-14.1767-14.4687-28.4528-21.2562-42.9529-3.6248-7.7437-6.8176-15.2712-12.1-22.0608-5.85-7.5186-10.6061-15.8728-15.12-24.2159-1.683-3.1109-3.5674-6.1054-5.4993-9.0682-1.6913-2.5938-3.2727-5.6815-5.4354-7.919-4.8848-5.0537-13.6765-4.793-18.6839-.319-6.1367,5.4831-6.919,14.2137-6.8752,21.9468a124.4836,124.4836,0,0,0,3.0275,26.463,94.5539,94.5539,0,0,0,9.0526,24.623c2.1272,3.9172,4.51,7.6824,6.802,11.5031,1.96,3.2664,4.2127,6.5735,4.9189,10.3654,1.4611,7.8448,2.471,15.7282,4.37,23.4939,2.1707,8.8779,5.0026,17.5758,7.2858,26.4242,2.0307,7.87,5.2427,15.555,7.802,23.271,4.9167-9.0857,11.2286-17.6348,20.847-22.106,8.0005-3.7192,18.871-3.2945,24.4255,4.318,5.4241,7.4339,7.1334,17.9225,8.38,26.828,1.43,10.2165,2.1793,20.5122,4.2679,30.6216a154.7946,154.7946,0,0,0,3.87,15.1623c.63,2.0029,1.4148,4.05,1.8359,6.0825l.0089.0436a1.1254,1.1254,0,0,1-2.1259.693A131.7588,131.7588,0,0,1,260.2982,217.2c-2.6051-8.5335-3.2877-17.34-4.5579-26.1226-1.3025-9.006-3.053-17.9567-6.3094-26.4842-1.4322-3.75-3.1394-8.0754-6.7489-10.22a12.4465,12.4465,0,0,0-10.2583-1.304c-16.0515,4.4608-24.7646,24.8916-28.1515,39.5505-2.0337,8.802-2.9457,17.8354-3.8772,26.8052a211.2233,211.2233,0,0,0-1.3651,25.2905c.1381,8.6732,2.1484,16.9832,3.7717,25.4465,1.6757,8.7365.4409,18.4662-1.1635,27.1292-3.4275,18.5065-11.7837,35.7793-20.9321,52.0849a134.8459,134.8459,0,0,1-15.2419,22.57,156.2593,156.2593,0,0,1-16.2468,15.68c-6.9368,5.9727-14.7821,10.6662-22.1987,15.99-6.6335,4.7619-13.3391,9.4421-19.9385,14.2493-14.6962,10.705-27.9872,23.2162-41.6262,35.1777-6.7173,5.8912-13.4892,12.1353-17.9644,20.0106-4.36,7.6723-8.201,15.3-10.6638,23.7934l-.0209.0712a1.3647,1.3647,0,0,1-2.6428-.6746c3.7419-18.23,15.5978-35,28.246-47.978,6.4821-6.651,13.4531-12.6634,20.487-18.7225,6.4467-5.5534,13.1213-11.3592,20.1649-16.1026,19.12-12.8759,40.0978-24.1262,56.0672-41.0646,6.8281-7.2425,12.0686-16.382,17.03-24.967q4.1943-7.2573,7.7845-14.8358c2.1342-4.4791,4.6653-8.8311,6.47-13.4595,1.9784-5.0743,3.1515-10.51,4.5206-15.7741a120.8567,120.8567,0,0,0,3.27-16.326,59.2476,59.2476,0,0,0-.3068-17.4518c-.9122-5.0289-2.0934-9.941-2.75-15.0237a125.476,125.476,0,0,1-.7132-14.3421c-.0843-5.797-.3407-11.584-.0494-17.3792.2907-5.7845.8812-11.5822,1.5984-17.3283.6574-5.2674,2.6841-10.7274,1.5313-15.9732a97.1665,97.1665,0,0,0-11.7094-29.4539c-2.9361-4.8067-7.29-9.56-11.2392-13.5782a103.1506,103.1506,0,0,0-10.5494-8.9172c-16.7247-12.9331-32.3892-27.0659-48.6965-40.5A197.9441,197.9441,0,0,0,88.9226,78.724c-5.0373-2.9281-10.1644-5.825-15.4523-8.2765-4.9028-2.273-10.0283-4.03-14.8817-6.4082-7.3545-3.6046-18.0427-13.8275-26.6567-8.2625a17.1643,17.1643,0,0,0-7.7188,11.8708,31.144,31.144,0,0,0,1.0528,14.5049C25.9013,83.9036,27.3168,85.5794,28.3081,87.1677ZM110.4995,205.971a35.6623,35.6623,0,0,1-12.0537-.6373.634.634,0,0,1,.0334-1.2415c5.1738-.9084,10.4257-1.7253,15.3475-3.51,1.2009-.4355,7.4144-4.1877,7.2636-1.03-.0685,1.4339-3.0583,3.241-4.1381,3.9662A14.3382,14.3382,0,0,1,110.4995,205.971ZM85.3139,347.1629a147.2745,147.2745,0,0,0,41.2334-6.126c8.13-2.49,16.106-5.3183,24.0171-8.4285,3.8772-1.5243,7.5878-3.2409,11.3713-4.9611,2.0031-.9107,3.1057-.7154,5.1917-.2911-11.3582,9.5374-26.32,14.9423-40.5347,18.5477-14.1963,3.6006-29.0061,3.6042-43.5581,3.6042l.6992-.2124c-2.1927-.46-4.38-.9479-6.5693-1.4219C79.8614,347.6323,82.6054,347.2043,85.3139,347.1629ZM71.5376,243.5457c-1.0267-.0888-2.8381.04-3.5748-.7115-1.444-1.4726.4135-2.4066,1.5757-2.8344,4.4623-1.6423,7.9088-3.1175,11.6884-6.1064.8272-.6542,2.3339-2.0447,3.2453-.6527.9308,1.4215-1.2923,3.2285-2.0941,4.1615C79.4822,240.7717,76.0931,243.202,71.5376,243.5457ZM167.6626,534.27c-.7782.5562-1.0954,1.7213-1.6895,2.4968-1.45,1.8924-3.0362,3.6937-4.5384,5.5454-2.0014,2.4671-3.9636,4.9713-5.9495,7.4534a101.7832,101.7832,0,0,0-11.73,17.5591c-4.1877,8.4515-6.1087,18.9334-7.0376,28.2453a64.4843,64.4843,0,0,0,.41,14.8635c.29,2.2673,1.06,4.8386.4688,7.0845-.249.9461-2.4941,1.0669-3.62-6.9461-.5731-4.08-.7555-8.2326-1.1072-12.3367-.79-9.2132-.7221-18.3072,2.9806-26.9179,3.82-8.8827,10.1991-15.5572,15.957-23.1381,3.3527-4.4142,7.5015-8.3986,11.36-12.3711a22.5471,22.5471,0,0,1,2.5732-2.6011C166.67,532.5341,168.9619,532.5887,167.6626,534.27Zm81.1641-317.7187c-5.25,1.12-10.8728,1.3767-15.9457-.641-4.7165-1.8759-8.201-5.7013-10.7492-9.9952-2.9258-4.93-4.4339-10.6132-5.708-16.159a29.7515,29.7515,0,0,1-1.1035-8.7926,1.0743,1.0743,0,0,1,2.0025-.4392c1.5826,2.8293,2.3844,5.8835,3.4694,9.1045,1.6425,4.8761,3.4022,10.223,6.09,14.6565,2.8327,4.6724,8,7.3616,13.2089,8.4991,3.85.8408,7.6068.4062,11.41-.0735a1.1326,1.1326,0,0,1,.8957,1.9659A7.3749,7.3749,0,0,1,248.8266,216.5515ZM272.769,287.22c-1.4507,7.6759-3.7945,15.193-5.5844,22.8-2.4137,10.2575-4.4929,20.5682-6.6158,30.888-2.0612,10.02-4.3391,20.0872-5.3645,30.2786-.2937,2.9191-.4761,5.8576-.6353,8.7971a.8276.8276,0,0,1-1.642.0953c-.2266-1.3595-.43-2.7215-.584-4.0873-.88-7.78-.1052-15.8363.5969-23.6149,1.5133-16.7661,6.73-33.0725,11.8247-49.0386,1.7809-5.5813,3.2917-11.4649,5.8094-16.7828a1.1606,1.1606,0,0,1,2.2014.6288Z"/></g></g></svg>