<svg xmlns="http://www.w3.org/2000/svg" viewBox="0 0 268.5793 539.2839"><title>hand-point-up</title><g id="Layer_2" data-name="Layer 2"><g id="Layer_1-2" data-name="Layer 1"><path d="M267.4445,316.571l-16.3486-65.3721-.05-.1514a15.4933,15.4933,0,0,0-1.5137-2.8311,15.0415,15.0415,0,0,0-3.9141-3.95,14.8286,14.8286,0,0,0-10.5645-2.457l-48.0176,9.3682-19.3115,2.2549-14.3066,1.6211a6.4534,6.4534,0,0,0-.708.1025l-.1582.0313a6.0205,6.0205,0,0,0-.7.2217,4.88,4.88,0,0,0-1.21.7354,4.512,4.512,0,0,0-1.4922,2.2734,13.0449,13.0449,0,0,0-.1729,3.6582,16.8119,16.8119,0,0,0,2.4785,7.5254,17.3,17.3,0,0,0,5.6,5.5107c2.5557,1.4893,5.6123,3.2236,8.1855,4.6426a68.8078,68.8078,0,0,0,35.0977,8.4131l.4717-.0127a59.16,59.16,0,0,0,8.6338-.6465,47.4246,47.4246,0,0,0,8.6973-2.3291,49.7844,49.7844,0,0,0,15.7012-9.5781.8864.8864,0,0,1,1.3105,1.1768,41.5355,41.5355,0,0,1-15.043,12.8027,43.7521,43.7521,0,0,1-9.5059,3.52c-.7734.1836-1.5508.35-2.3428.4951a3.9354,3.9354,0,0,0-3.23,3.8213l-.0449,17.6514a1.8813,1.8813,0,0,1-1.0137,1.6689l-.5068.26c-4.8721,2.5215-10.1,4.8867-15.9941,7.2354-5.1768,2.14-10.4385,4.0273-16.292,6.1a57.5436,57.5436,0,0,0-25.29,18.4941,77.39,77.39,0,0,0-8.9326,13.7412,90.0732,90.0732,0,0,0-6.3408,15.416A97.58,97.58,0,0,0,126.04,411.6a.891.891,0,0,1-.8535.9219.8776.8776,0,0,1-.89-.6514,78.8379,78.8379,0,0,1-.9609-35.7061A85.23,85.23,0,0,1,137.79,342.6a69.937,69.937,0,0,1,13.1982-13.502,54.8356,54.8356,0,0,1,8.0479-5.13,51.8292,51.8292,0,0,1,8.957-3.5527c5.7207-1.59,11.2969-2.9463,17.0547-4.1494,3.6133-.7881,7.1885-1.4648,10.627-2.0107a6.3521,6.3521,0,0,0,5.3193-6.4111l-.2168-9.4443a3.8621,3.8621,0,0,0-3.8994-3.7949,70.9931,70.9931,0,0,1-16.2041-1.6426,69.4248,69.4248,0,0,1-18.8086-7.0176c-3.0811-1.72-5.5469-3.1309-8.5039-4.8643a21.2113,21.2113,0,0,1-3.1768-2.3428,3.7493,3.7493,0,0,0-6.0537,1.5693,18.9533,18.9533,0,0,1-3.5068,6.125,19.2837,19.2837,0,0,1-12.3447,6.5957c-.4932.07-.8467.1016-1.2.1338l-.3926.0371c-.3779.0449-.9658.0674-1.5039.0889l-.209.0088a12.815,12.815,0,0,1-1.791-.0381,11.6256,11.6256,0,0,1-1.7656-.2,19.5021,19.5021,0,0,1-6.79-2.4434,19.7031,19.7031,0,0,1-8.8369-11.1924,22.0517,22.0517,0,0,1-.73-3.6064l-3.1436-31.9336-.0156-.1631-8.5-18.8867c-.2812-.6367-.5693-1.2705-.8594-1.9111-.7021-1.5479-1.4277-3.1475-2.1035-4.8809a52.3376,52.3376,0,0,1-3.4639-22.13c.084-1.24.2061-2.4834.3623-3.6924l.4756-3.5908a.8808.8808,0,0,1,1.7539.1279l-.0557,3.6289c-.0127,1.1934.0107,2.35.0723,3.5391a48.5531,48.5531,0,0,0,5.5537,20.0039c.7363,1.3926,1.5947,2.8145,2.5029,4.32.3584.5938.72,1.1924,1.0791,1.7988l11.1826,18.6563a3.0284,3.0284,0,0,1,.43,1.3643l1.5264,24.1133.5762,8.9033a15.0409,15.0409,0,0,0,.3662,2.2822,12.6194,12.6194,0,0,0,5.3994,7.3584,12.4847,12.4847,0,0,0,4.3027,1.7344,6.5807,6.5807,0,0,0,1.2617.1934,7.14,7.14,0,0,0,1.1748.0605l.3164.001a9.3509,9.3509,0,0,0,.96-.0264l.33-.02c.4238-.0244.8516-.0508,1.0537-.08a13.0544,13.0544,0,0,0,8.457-4.1436,12.7724,12.7724,0,0,0,2.5674-4.1182,18.7419,18.7419,0,0,0,1.0654-5.1572l4.3193-35.627a17.5122,17.5122,0,0,0-.3076-5.3848l-9.5674-37.792a43.4716,43.4716,0,0,0-2.8359-7.8867l-3.5879-7.5742a17.9348,17.9348,0,0,0-18.3271-10.1553l-14.584,1.7168a17.9523,17.9523,0,0,0-15.1035,12.6553L75.58,196.778a9.6308,9.6308,0,0,0-.0381,5.4258l8.21,28.6777a21.7,21.7,0,0,1,1.0029,5.667l2.208,33.2949.0381,1.5664a18.74,18.74,0,0,1-.2949,3.1211,19.2376,19.2376,0,0,1-17.665,15.7646,19.5582,19.5582,0,0,1-12.36-3.33,19.7925,19.7925,0,0,1-7.8115-10.4736,15.7052,15.7052,0,0,1-.61-2.4248c-.0518-.2637-.1016-.5166-.1436-.7109l-4.8437-28.0479-6.1641-13.0225c-.1406-.3115-.2871-.625-.4346-.9395-.32-.6855-.6523-1.3936-.9336-2.1221a50.8217,50.8217,0,0,1-2.1475-6.23,52.3159,52.3159,0,0,1-.65-25.5234.8762.8762,0,0,1,.3867-.5518.8953.8953,0,0,1,.6641-.1172.8757.8757,0,0,1,.7021.8105l-.0146.124a49.8863,49.8863,0,0,0,.81,12.0313,48.0238,48.0238,0,0,0,3.6484,11.2373,44.4768,44.4768,0,0,0,2.7705,5.0869c.3379.5713.708,1.1055,1.0664,1.6221.18.2588.3613.5186.5518.8037l8.916,12.7334a3.1621,3.1621,0,0,1,.5586,1.4688l2.3271,21.5215.8926,7.9658c.0322.2988.0654.4932.0967.6787.0186.1045.0361.2061.0488.2969a4.659,4.659,0,0,0,.21,1.0313,12.13,12.13,0,0,0,4.39,6.6875,12.4456,12.4456,0,0,0,7.7266,2.583h.07a12.645,12.645,0,0,0,7.8359-2.7939,12.9781,12.9781,0,0,0,4.5742-7.2393,13.19,13.19,0,0,0,.3252-2.2246l.0293-1.11-.5732-33.3906a17.4146,17.4146,0,0,0-.6025-4.8437L71.47,194.3346a17.9473,17.9473,0,0,0-19.5537-12.1553l-13.2949,1.874A17.9781,17.9781,0,0,0,24.3878,195.33L5.2286,244.6139a28.1581,28.1581,0,0,0-1.8877,8.9395L.0294,326.2389a28.194,28.194,0,0,0,.5762,7.1025l.1758.9824C3.0919,403.3073,34.85,445.8346,36.6847,448.2311a39.88,39.88,0,0,0,15.5029,17.6553H49.8615l5.3047,1.9395c.11.04.2285.084.3232.13a68.1909,68.1909,0,0,0,25.4229,6.7275.8266.8266,0,0,1,.0146,1.6494,70.8627,70.8627,0,0,1-22.7129-2.002,3.47,3.47,0,0,0-3.0039.6221,3.3771,3.3771,0,0,0-1.3086,2.6836v35.293a12.5078,12.5078,0,0,0,7.2051,11.2813,159.2953,159.2953,0,0,0,135.2773,0,12.51,12.51,0,0,0,7.2031-11.2812V477.46a3.391,3.391,0,0,0-1.168-2.5645,3.5036,3.5036,0,0,0-2.7725-.8047,71.0993,71.0993,0,0,1-15.3174.5371.8265.8265,0,0,1,.0156-1.6494,67.9876,67.9876,0,0,0,18.5762-3.8564c.87-.3086,1.7773-.6562,2.8174-1.084a39.8437,39.8437,0,0,0,16.2764-14.02l29.4941-51.2344.0811-.14,9.585-46.668,5.791-19.2314A38.0038,38.0038,0,0,0,267.4445,316.571Z" style="fill:#221f1f"/><path d="M198.6525,211.4264c.7461,5.2188,1.293,19.3223-.0518,26.7051a3.6977,3.6977,0,0,0,4.2256,4.3086l2.4473-.3936,17.1689-1.9365,9.0928-1.4131c.3105-.0449.6074-.0918.9053-.1387.7129-.1123,1.3857-.2187,2.2578-.3047a18.2192,18.2192,0,0,1,10.4453,2.1016,2.11,2.11,0,0,0,2.25-.1387,2.1574,2.1574,0,0,0,.8789-2.127,138.89,138.89,0,0,1-1.8818-22.6416l-3.0625-68.8574c-.001-.9932-.043-1.9932-.124-2.9717l-4.7334-57.6064-.1074-.9551c-.0508-.4482-.1025-.8955-.1484-1.335-.9014-9.501-1.64-19.5166-2.1943-29.7773l-.9453-14.8311-.1826-2.2471c-.3291-4.0889-.67-8.3164-1.1836-12.4482l-.1982-1.4951c-.248-1.8955-.5049-3.8555-.8447-5.7461a27.4942,27.4942,0,0,0-.7187-3.4707,28.607,28.607,0,0,0-1.1592-3.3184,23.8885,23.8885,0,0,0-3.53-6.001,11.1971,11.1971,0,0,0-3.1406-2.6133c-3.5645-1.8975-11.4873-2.9912-17.9453.5186-3.83,2.0811-8.5732,6.6074-9.416,16.375L192.53,130.6257l-3.1416,41.5293-.3408,6.4746a6.3441,6.3441,0,0,0,.5391,2.9053A121.191,121.191,0,0,1,198.6525,211.4264Z" style="fill:#221f1f"/><path d="M142.2706,213.9509l5.1738,17.3457a21.2394,21.2394,0,0,1,.6436,6.5205l-1.0107,12.87,1.8223-.8818c.2461-.1211.4912-.2441.7256-.3311a12.2962,12.2962,0,0,1,1.6426-.4639,14.5048,14.5048,0,0,1,1.5156-.2051l33.4082-2.8877,4.2949-1.4932a3.7178,3.7178,0,0,0,2.998-3.3174c.2393-5.7549.9375-24.3418.1289-27.0693l-3.5479-17.791-.0576-.1895c-.9775-2.3467-9.584-22.9766-10.7441-24.6611a17.8913,17.8913,0,0,0-16.8828-7.6475l-14.584,1.7168a17.854,17.854,0,0,0-14.1357,10.1426,7.3041,7.3041,0,0,0-.4365,5.043Z" style="fill:#221f1f"/></g></g></svg>