<svg xmlns="http://www.w3.org/2000/svg" viewBox="0 0 348.8458 566.5331"><title>hand-prosper</title><g id="Layer_2" data-name="Layer 2"><g id="Layer_1-2" data-name="Layer 1"><path d="M342.6375,211.6528a25.5234,25.5234,0,0,0-21.3431,3.5954L310.55,222.7156a51.59,51.59,0,0,0-21.577,33.7772l-3.6822,21.9244s-19.6393,30.461-30.0411,37.73c-5.2009,3.6346-10.3063,7.3592-15.9356,10.2068a135.235,135.235,0,0,1-17.4578,7.206,112.542,112.542,0,0,0-16.2437,7.02,95.38,95.38,0,0,0-14.6448,9.687,93.4932,93.4932,0,0,0-12.4261,12.2794,82.3915,82.3915,0,0,0-15.9695,30.8785l-.006.0242a1.8365,1.8365,0,0,1-2.2311,1.2795,1.7874,1.7874,0,0,1-1.3555-1.9465,72.8657,72.8657,0,0,1,14.13-34.2788A87.8548,87.8548,0,0,1,186.1309,344.71,95.8459,95.8459,0,0,1,201.94,334.0436a104.7637,104.7637,0,0,1,17.6673-7.245,160.9171,160.9171,0,0,0,16.8786-6.1368,98.8292,98.8292,0,0,0,15.6088-8.4855,54.2942,54.2942,0,0,0,6.942-5.4128.2829.2829,0,0,1,.0308-.0271,8.2828,8.2828,0,0,0,2.5756-6.359L257.41,183.4686V96.5009q0-10.5837-.9922-21.1344l-3.8206-40.776A16.3378,16.3378,0,0,0,237.01,19.9742h-.0214a6.6573,6.6573,0,0,0-7.0311,5.9325c-2.8318,29.3106-6.4857,58.5162-10.4267,87.6825Q216,139.001,212.24,164.3857L208.2721,189.74q-1.3038,8.412-2.684,16.8121a8.0786,8.0786,0,0,0,5.3089,8.9q4.8389,1.7529,9.6594,3.5626a1.7711,1.7711,0,0,1,1.0445,2.3069,1.8507,1.8507,0,0,1-2.2,1.0723c-6.2085-1.7032-12.38-3.5114-18.5545-5.3077a2.3769,2.3769,0,0,1-1.7256-2.508l.0154-.1623c.8782-8.5126,1.8889-17.0043,2.9273-25.4928l3.0811-25.4749q3.2446-25.4478,6.8062-50.86c4.5047-31.6716,9.3359-63.301,15.2086-94.7953v-.1623A17.5015,17.5015,0,0,0,215.2908.9605C204.71-2.5239,194.0865,3.8591,191.9972,13.8526L152.7927,201.08a24.4357,24.4357,0,0,1-46.417,4.842L48.4041,66.9679A20.1675,20.1675,0,0,0,24.026,55.3915a19.0437,19.0437,0,0,0-12.4878,24.802l6.8525,18.3289c3.9285,8.84,7.78,17.71,11.4619,26.6433,5.5152,13.2166,10.7992,26.5171,16.0158,39.8478l7.7089,20.032,7.54,20.0951C65.945,218.6124,70.9949,232,75.57,245.5622l.0587.18a2.2115,2.2115,0,0,1-.8937,2.5562Q69.633,251.66,64.4567,254.91a1.8582,1.8582,0,0,1-2.53-.5407,1.7579,1.7579,0,0,1,.3727-2.337q1.6178-1.3021,3.2476-2.5892a7.9482,7.9482,0,0,0,2.4094-9.3957c-4.5939-10.7836-8.963-21.6481-13.4738-32.4647l-7.9708-19.9358-7.7984-19.999c-5.127-13.3607-10.18-26.7483-15.0083-40.22Q19.9944,117.2,16.52,106.8758a4.8518,4.8518,0,0,0-7.12-2.5082l-.0094.0061A19.37,19.37,0,0,0,.2026,123.6968L6.02,163.4l10.5715,42.4341a222.2662,222.2662,0,0,1,5.4875,31.5785l5.2039,52.0219,13.3506,87.8568a122.8765,122.8765,0,0,0,16.33,45.0592l24.4028,40.4036c3.1735,5.2535,10.6544,12.0029,15.1868,15.8418,2.4865,2.1027,15.7416,5.584,19.3713,5.8123a1.8369,1.8369,0,0,1,.0246,3.6705c-.1943.015-.3883.018-.5824.03-7.256.4715-18.6446-.1111-25.8668-1.7541a3.9336,3.9336,0,0,0-4.8775,3.7486V541.937a12.475,12.475,0,0,0,7.675,11.4562c41.33,17.5149,98.1293,17.5209,139.46.0121a12.5411,12.5411,0,0,0,7.7028-11.5134V491.5a3.9676,3.9676,0,0,0-5.1148-3.74c-6.4827,1.8894-21.5349,4.5177-27.7619,1.1746a1.6618,1.6618,0,0,1-.1907-.8862,1.871,1.871,0,0,1,1.7685-1.7c.3141-.0211.6285-.057.9425-.081,15.31-1.177,9.2343.7681,20.314-4.6618.0865-.0422.1726-.0873.2588-.1322a41.1772,41.1772,0,0,0,18.04-17.8513l33.3716-53.0192L330.935,306.0246a36.14,36.14,0,0,0,3.4016-12.6158l2.8995-35.4712,11.24-35.9218a8.2506,8.2506,0,0,0-5.8384-10.363M132.5654,312.2453c-5.2071,2.325-10.1339,4.8241-15.5629,7.2151-10.7009,4.6528-22.2089,8.0321-34.0251,8.5846a1.7439,1.7439,0,0,1-.4128-3.46l.0216-.0029c11.052-1.9855,21.54-6.08,31.557-10.9788,4.8959-2.5141,10.1153-5.2685,15.2823-7.7466,5.1825-2.5322,10.4974-4.812,15.8279-7.0529a238.7274,238.7274,0,0,1,33.0049-10.9066,184.9531,184.9531,0,0,1,34.37-5.32,1.429,1.429,0,0,1,.416,2.8235l-.0184.0029c-11.1691,2.451-22.1566,5.2806-32.965,8.6418-10.8212,3.3191-21.4326,7.2239-31.9145,11.4654-5.244,2.13-10.4049,4.4365-15.5812,6.7342" style="fill:#221f1f"/></g></g></svg>