<svg xmlns="http://www.w3.org/2000/svg" viewBox="0 0 277.881 568.2772"><title>hand-hope</title><g id="Layer_2" data-name="Layer 2"><g id="Layer_1-2" data-name="Layer 1"><path d="M273.0074,313.7894l-32.8232-58.8525-.1318-.1982a15.8137,15.8137,0,0,0-2.2646-2.4067,15.368,15.368,0,0,0-16.1943-2.4839L177.692,271.4l-18.0371,7.2012-13.3848,5.293a6.5444,6.5444,0,0,0-.6963.3008l-.1641.0811a6.3885,6.3885,0,0,0-.5967.377l-.0879.0635a5.3135,5.3135,0,0,0-1.08,1.1338,5.0945,5.0945,0,0,0-.9414,2.915,14.2406,14.2406,0,0,0,.8174,3.6978,17.3218,17.3218,0,0,0,4.49,6.8247,17.7822,17.7822,0,0,0,7.0479,3.9722c2.8516.7715,6.2588,1.65,9.13,2.354a69.2989,69.2989,0,0,0,36.333-1.0337l.4482-.1343a59.6087,59.6087,0,0,0,8.2393-2.9009,47.159,47.159,0,0,0,7.8691-4.562,50.2316,50.2316,0,0,0,12.7881-13.4712.3873.3873,0,0,1,.6865.3477,41.0233,41.0233,0,0,1-11.0508,16.08,43.2632,43.2632,0,0,1-8.1641,5.8086c-.6924.3745-1.3936.7344-2.1123,1.0786a4.4341,4.4341,0,0,0-2.3887,5.11l4.5566,17.0508a1.3847,1.3847,0,0,1-.3984,1.3794l-.4209.3833c-4.0342,3.6919-8.4531,7.3276-13.5225,11.1265-4.44,3.4136-9.0186,6.6006-14.1211,10.1206a58.039,58.039,0,0,0-19.7676,24.6548,77.8876,77.8876,0,0,0-5.0732,15.689,90.6082,90.6082,0,0,0-2.1152,16.6191,98.088,98.088,0,0,0,4.3545,33.79l.02.0571a.3881.3881,0,0,1-.7119.2861,78.3284,78.3284,0,0,1-10.165-34.002,84.7139,84.7139,0,0,1,5.1719-35.95,69.4758,69.4758,0,0,1,9.1611-16.3657,54.2928,54.2928,0,0,1,6.3623-6.9712,51.3391,51.3391,0,0,1,7.6445-5.7095c5.1084-3.0239,10.1279-5.7817,15.3584-8.4375,3.2813-1.7007,6.5479-3.2812,9.7119-4.6978a6.8563,6.8563,0,0,0,3.7383-8.1733l-2.6709-9.062a4.3715,4.3715,0,0,0-5.3711-2.9858,70.0863,70.0863,0,0,1-15.959,2.6172,68.8837,68.8837,0,0,1-19.8418-1.8584c-3.3994-.8506-6.1445-1.5688-9.4619-2.4751a20.6655,20.6655,0,0,1-3.59-1.4009,4.2495,4.2495,0,0,0-6.1582,3.5073,18.4613,18.4613,0,0,1-1.7432,6.6479,18.7867,18.7867,0,0,1-9.9443,9.3384c-.4385.188-.7617.3071-1.08.4253l-.4023.1509c-.3389.1362-.876.3022-1.37.4575l-.2334.0737a12.9129,12.9129,0,0,1-1.6895.4155,11.1413,11.1413,0,0,1-1.6982.2568,18.963,18.963,0,0,1-7.0068-.5737,19.1958,19.1958,0,0,1-11.15-8.2764,21.624,21.624,0,0,1-1.6074-3.2144L94.1988,286.5912,81.02,270.5126c-.4395-.5439-.8848-1.084-1.334-1.6284-1.0762-1.3052-2.1895-2.6548-3.2842-4.1387A51.861,51.861,0,0,1,67.3785,244.48c-.2373-1.1914-.4414-2.4131-.6064-3.6255l-.4775-3.59a.3846.3846,0,0,1,.3281-.43.3885.3885,0,0,1,.418.2847l.8936,3.5186c.3008,1.165.627,2.2852,1,3.43a49.0929,49.0929,0,0,0,10.6846,18.0483c1.083,1.1621,2.2852,2.3149,3.5586,3.5356.501.48,1.0068.9648,1.5137,1.459l15.6572,15.0938a2.5523,2.5523,0,0,1,.6455,1.0083l7.7578,22.8828,2.8779,8.4478a15.0478,15.0478,0,0,0,.9883,2.1924,13.1255,13.1255,0,0,0,12.1807,6.5029,6.9445,6.9445,0,0,0,1.3262-.1484,7.1227,7.1227,0,0,0,1.2168-.2617l.292-.0781a9.79,9.79,0,0,0,.958-.2861l.3145-.105c.416-.1387.8359-.2812,1.0039-.355a13.5614,13.5614,0,0,0,7.3584-6.4409,13.2819,13.2819,0,0,0,1.46-4.8228,19.0553,19.0553,0,0,0-.3174-5.3838l-5.1172-35.5332a17.9726,17.9726,0,0,0-1.7588-5.2812L112.45,230.5512a44.0188,44.0188,0,0,0-4.8486-6.9551l-5.4385-6.377a18.4464,18.4464,0,0,0-20.9063-5.167L67.6236,217.51a18.4509,18.4509,0,0,0-11.5967,16.604l-.4111,14.2583a10.114,10.114,0,0,0,1.4482,5.52l15.4121,25.5664a21.2588,21.2588,0,0,1,2.39,5.0942l10.8018,31.5493.4395,1.4819a18.0983,18.0983,0,0,1,.5156,3.0132,18.7322,18.7322,0,0,1-12.6172,19.3076A19.0168,19.0168,0,0,1,61.54,339.91a19.3206,19.3206,0,0,1-10.0312-7.8955,15.5413,15.5413,0,0,1-1.1846-2.1235c-.1172-.2383-.23-.4683-.3125-.626L38.023,303.4476l-.0859-.186-9.3252-10.8857c-.2207-.27-.4482-.5391-.6777-.81-.4795-.5679-.9746-1.1553-1.4336-1.78a50.6655,50.6655,0,0,1-3.6611-5.4023,51.8221,51.8221,0,0,1-7.21-24.2393.3821.3821,0,0,1,.3623-.3975.4131.4131,0,0,1,.3789.2217l.0186.1064a50.3307,50.3307,0,0,0,3.957,11.52,48.4972,48.4972,0,0,0,6.5186,10.0024A45.1988,45.1988,0,0,0,30.897,285.82c.4873.4761.9912.9009,1.4785,1.3115.2383.2012.4795.4038.7441.6353l11.9258,9.9688a2.6657,2.6657,0,0,1,.7783,1.0718L53.68,318.9789l2.9375,7.457c.1133.29.1992.4761.2813.6523.042.0918.083.18.11.2432a5.6006,5.6006,0,0,0,.53,1.06,12.6443,12.6443,0,0,0,6.2031,5.4819,12.9519,12.9519,0,0,0,8.4473.5,13.1407,13.1407,0,0,0,7.18-4.9438,13.48,13.48,0,0,0,2.6279-8.4922,13.8458,13.8458,0,0,0-.28-2.335l-.2656-1.1016-9.2549-32.0791a18.0677,18.0677,0,0,0-1.8867-4.627L51.9937,246.9335l-.0664-.1118A18.45,18.45,0,0,0,29.2672,240L16.92,245.2738A18.4749,18.4749,0,0,0,5.817,260.2767L.1656,312.8519a28.596,28.596,0,0,0,.5156,9.2837l15.7471,71.0361a28.6656,28.6656,0,0,0,2.4434,6.812l21.0645,44.6045a91.48,91.48,0,0,0,26.3457,32.8906l1.3477.811.31.1768c.2168.1035.4307.2139.6436.3237.2637.1353.5264.2705.8281.4121,6.7441,2.9751,14.127,5.4443,20.06,7.4277l-.0127.1016.0039.0015c-4.5937-.2339-9.3525-.6792-14.5479-1.3608a6.5316,6.5316,0,0,0-7.38,6.5308l.3682,45.5737a23.049,23.049,0,0,0,16.47,21.8862,227.7839,227.7839,0,0,0,126.1982,0,23.049,23.049,0,0,0,16.47-21.8862l.3428-42.69a6.5309,6.5309,0,0,0-7.3672-6.5337c-7.1582.9331-15.6084,1.7461-24.0264.7l.0146-.1011a84.4575,84.4575,0,0,0,11.5518-2.2285,103.1872,103.1872,0,0,0,11.16-3.5908c.1973-.0806.39-.1641.6553-.28a40.4291,40.4291,0,0,0,13.4414-9.5645c6.3027-6.7319,14.6133-16.2568,18.4092-23.4067L271.64,411.2933a38.7047,38.7047,0,0,0,4.4756-16.9312l1.749-60.7134A38.5174,38.5174,0,0,0,273.0074,313.7894Z"/><path d="M159.1129,21.5863a26.2674,26.2674,0,0,1,3.7627,3.3765l.0029.0029a31.9006,31.9006,0,0,1,2.5234,3.0684,29.8823,29.8823,0,0,1,2.0693,3.3462c1.3359,2.3,2.5527,4.667,3.5791,6.686a245.8028,245.8028,0,0,1,11.1367,27.97c.08.2227.1563.4453.2354.6782a2.8941,2.8941,0,0,0,2.7588,1.9756c.082,0,.165-.0034.248-.01a2.8925,2.8925,0,0,0,2.6475-2.418l7.4277-42.6406c1.8291-10.5-4.55-20.6313-14.5215-23.0649A19.5776,19.5776,0,0,0,156.9918,16.53,5.2351,5.2351,0,0,0,159.1129,21.5863Z"/><path d="M134.4908,262.9808a21.2526,21.2526,0,0,1,2.3223,6.1274l2.3779,12.6885,1.5332-1.3286c.2051-.18.4092-.3618.6094-.5059a12.37,12.37,0,0,1,1.4668-.8755,14.3006,14.3006,0,0,1,1.4092-.5933l31.57-11.5225,22.2129-10.0044,19.6113-8.7568c.29-.125.5674-.249.8447-.3726.6563-.2935,1.2773-.5708,2.0947-.88a18.2184,18.2184,0,0,1,10.63-.6934,2.1323,2.1323,0,0,0,2.4482-2.9692,138.8517,138.8517,0,0,1-7.7344-21.4028L207.88,155.4306c-.2617-.9644-.5625-1.9189-.8945-2.8359l-19.583-54.3813-.377-.9585c-.1582-.3979-.3154-.7964-.4658-1.1865-3.3477-8.936-6.6709-18.4131-9.88-28.1763L171.901,53.82l-.7559-2.1089c-1.3857-3.8657-2.8184-7.8633-4.3926-11.7231l-.5762-1.3833c-.7354-1.7681-1.4961-3.5967-2.3184-5.3364a27.4674,27.4674,0,0,0-1.5986-3.1626,28.2805,28.2805,0,0,0-1.9844-2.9014,23.8686,23.8686,0,0,0-4.9707-4.8735,11.1787,11.1787,0,0,0-3.7139-1.7041c-3.9326-.9048-11.8682.1055-17.1895,5.1768-3.1553,3.0073-6.5547,8.6138-4.8115,18.3125.1494.5879,15.0059,58.8984,17.0732,68.3257l8.9854,40.5776,8.7529,40.6294,4.3486,20.313,4.1553,20.0737a4.0649,4.0649,0,0,1-2.5605,4.75,3.85,3.85,0,0,1-3.1377-.3535,3.9117,3.9117,0,0,1-1.84-2.6089l-3.9111-20.4038-3.7715-20.4336-7.4922-40.874-7.26-40.9272q-.5713-3.197-1.1348-6.3979a2.4913,2.4913,0,0,0-2.4541-2.105,2.5362,2.5362,0,0,0-2.54,2.0034L111.814,221.1361a9.6039,9.6039,0,0,0,1.2178,7.1255Z"/></g></g></svg>