<svg xmlns="http://www.w3.org/2000/svg" viewBox="0 0 539.2839 268.5793"><title>hand-point-right</title><g id="Layer_2" data-name="Layer 2"><g id="Layer_1-2" data-name="Layer 1"><path d="M222.7129,1.1348,288.085,17.4835l.1514.05a15.4934,15.4934,0,0,1,2.8311,1.5137,15.0415,15.0415,0,0,1,3.95,3.9141,14.8286,14.8286,0,0,1,2.457,10.5645L288.1064,81.543l-2.2549,19.3115L284.23,115.1612a6.4534,6.4534,0,0,1-.1025.708l-.0312.1582a6.0206,6.0206,0,0,1-.2217.7,4.88,4.88,0,0,1-.7354,1.21,4.512,4.512,0,0,1-2.2734,1.4922,13.0449,13.0449,0,0,1-3.6582.1729,16.8119,16.8119,0,0,1-7.5254-2.4785,17.3,17.3,0,0,1-5.5107-5.6c-1.4893-2.5557-3.2236-5.6123-4.6426-8.1855a68.8078,68.8078,0,0,1-8.4131-35.0977l.0127-.4717a59.16,59.16,0,0,1,.6465-8.6338,47.4246,47.4246,0,0,1,2.3291-8.6973,49.7844,49.7844,0,0,1,9.5781-15.7012.8864.8864,0,0,0-1.1768-1.3105A41.5355,41.5355,0,0,0,249.7031,48.47a43.7521,43.7521,0,0,0-3.52,9.5059c-.1836.7734-.35,1.5508-.4951,2.3428a3.9354,3.9354,0,0,1-3.8213,3.23l-17.6514.0449a1.8813,1.8813,0,0,0-1.6689,1.0137l-.26.5068c-2.5215,4.8721-4.8867,10.1-7.2354,15.9941-2.14,5.1768-4.0273,10.4385-6.1,16.292a57.5436,57.5436,0,0,1-18.4941,25.29,77.39,77.39,0,0,1-13.7412,8.9326,90.0732,90.0732,0,0,1-15.416,6.3408,97.58,97.58,0,0,1-33.6172,4.5752.891.891,0,0,0-.9219.8535.8776.8776,0,0,0,.6514.89,78.8379,78.8379,0,0,0,35.7061.9609,85.23,85.23,0,0,0,33.5645-14.4541,69.937,69.937,0,0,0,13.502-13.1982,54.8356,54.8356,0,0,0,5.13-8.0479,51.8292,51.8292,0,0,0,3.5527-8.957c1.59-5.7207,2.9463-11.2969,4.1494-17.0547.7881-3.6133,1.4648-7.1885,2.0107-10.627a6.3521,6.3521,0,0,1,6.4111-5.3193l9.4443.2168a3.8621,3.8621,0,0,1,3.7949,3.8994,70.9931,70.9931,0,0,0,1.6426,16.2041,69.4248,69.4248,0,0,0,7.0176,18.8086c1.72,3.0811,3.1309,5.5469,4.8643,8.5039a21.2113,21.2113,0,0,0,2.3428,3.1768,3.7493,3.7493,0,0,1-1.5693,6.0537,18.9533,18.9533,0,0,0-6.125,3.5068A19.2837,19.2837,0,0,0,246.2559,140.3c-.07.4932-.1016.8467-.1338,1.2l-.0371.3926c-.0449.3779-.0674.9658-.0889,1.5039l-.0088.209a12.815,12.815,0,0,0,.0381,1.791,11.6256,11.6256,0,0,0,.2,1.7656,19.5021,19.5021,0,0,0,2.4434,6.79,19.7031,19.7031,0,0,0,11.1924,8.8369,22.0517,22.0517,0,0,0,3.6064.73l31.9336,3.1436.1631.0156,18.8867,8.5c.6367.2813,1.2705.5693,1.9111.8594,1.5479.7021,3.1475,1.4277,4.8809,2.1035a52.3376,52.3376,0,0,0,22.13,3.4639c1.24-.084,2.4834-.2061,3.6924-.3623l3.5908-.4756a.8808.8808,0,0,0-.1279-1.7539l-3.6289.0557c-1.1934.0127-2.35-.0107-3.5391-.0723a48.5531,48.5531,0,0,1-20.0039-5.5537c-1.3926-.7363-2.8145-1.5947-4.32-2.5029-.5937-.3584-1.1924-.72-1.7988-1.0791l-18.6562-11.1826a3.0284,3.0284,0,0,0-1.3643-.43l-24.1133-1.5264-8.9033-.5762a15.0409,15.0409,0,0,1-2.2822-.3662,12.6194,12.6194,0,0,1-7.3584-5.3994,12.4847,12.4847,0,0,1-1.7344-4.3027,6.5807,6.5807,0,0,1-.1934-1.2617,7.14,7.14,0,0,1-.0605-1.1748l-.001-.3164a9.3509,9.3509,0,0,1,.0264-.96l.02-.33c.0244-.4238.0508-.8516.08-1.0537a13.0544,13.0544,0,0,1,4.1436-8.457,12.7724,12.7724,0,0,1,4.1182-2.5674,18.7419,18.7419,0,0,1,5.1572-1.0654l35.627-4.3193a17.5122,17.5122,0,0,1,5.3848.3076l37.792,9.5674a43.4716,43.4716,0,0,1,7.8867,2.8359l7.5742,3.5879a17.9348,17.9348,0,0,1,10.1553,18.3271l-1.7168,14.584a17.9523,17.9523,0,0,1-12.6553,15.1035l-13.6572,4.1133a9.6308,9.6308,0,0,1-5.4258.0381l-28.6777-8.21a21.7,21.7,0,0,0-5.667-1.0029l-33.2949-2.208-1.5664-.0381a18.74,18.74,0,0,0-3.1211.2949,19.2376,19.2376,0,0,0-15.7646,17.665,19.5582,19.5582,0,0,0,3.33,12.36A19.7925,19.7925,0,0,0,262.792,219.71a15.7052,15.7052,0,0,0,2.4248.61c.2637.0518.5166.1016.7109.1436l28.0479,4.8438,13.0225,6.1641c.3115.1406.625.2871.9395.4346.6855.32,1.3936.6523,2.1221.9336a50.8217,50.8217,0,0,0,6.23,2.1475,52.3159,52.3159,0,0,0,25.5234.65.8762.8762,0,0,0,.5518-.3867.8953.8953,0,0,0,.1172-.6641.8757.8757,0,0,0-.8105-.7021l-.124.0146a49.8863,49.8863,0,0,1-12.0312-.81,48.0238,48.0238,0,0,1-11.2373-3.6484,44.4768,44.4768,0,0,1-5.0869-2.7705c-.5713-.3379-1.1055-.708-1.6221-1.0664-.2588-.18-.5186-.3613-.8037-.5518l-12.7334-8.916a3.1621,3.1621,0,0,0-1.4687-.5586L275.043,213.251l-7.9658-.8926c-.2988-.0322-.4932-.0654-.6787-.0967-.1045-.0186-.2061-.0361-.2969-.0488a4.659,4.659,0,0,1-1.0312-.21,12.13,12.13,0,0,1-6.6875-4.39,12.4456,12.4456,0,0,1-2.583-7.7266v-.07a12.645,12.645,0,0,1,2.7939-7.8359,12.9781,12.9781,0,0,1,7.2393-4.5742,13.19,13.19,0,0,1,2.2246-.3252l1.11-.0293,33.3906.5732a17.4145,17.4145,0,0,1,4.8438.6025l37.5469,8.8818a17.9473,17.9473,0,0,1,12.1553,19.5537l-1.874,13.2949a17.9781,17.9781,0,0,1-11.2764,14.2334L294.67,263.3506a28.1581,28.1581,0,0,1-8.9395,1.8877L213.0449,268.55a28.194,28.194,0,0,1-7.1025-.5762l-.9824-.1758C135.9766,265.4874,93.4492,233.73,91.0527,231.8946a39.88,39.88,0,0,1-17.6553-15.5029v2.3262l-1.9395-5.3047c-.04-.11-.084-.2285-.13-.3232a68.1909,68.1909,0,0,1-6.7275-25.4229.8266.8266,0,0,0-1.6494-.0146,70.8627,70.8627,0,0,0,2.002,22.7129,3.47,3.47,0,0,1-.6221,3.0039,3.3771,3.3771,0,0,1-2.6836,1.3086H26.3545a12.5078,12.5078,0,0,1-11.2812-7.2051,159.2953,159.2953,0,0,1,0-135.2773,12.51,12.51,0,0,1,11.2813-7.2031h35.47a3.391,3.391,0,0,1,2.5645,1.168,3.5036,3.5036,0,0,1,.8047,2.7725A71.0993,71.0993,0,0,0,64.6563,84.25a.8265.8265,0,0,0,1.6494-.0156,67.9876,67.9876,0,0,1,3.8564-18.5762c.3086-.87.6563-1.7773,1.084-2.8174a39.8437,39.8437,0,0,1,14.02-16.2764L136.5,17.07l.14-.0811,46.668-9.585,19.2314-5.791A38.0038,38.0038,0,0,1,222.7129,1.1348Z" style="fill:#221f1f"/><path d="M327.8574,69.9268c-5.2187-.7461-19.3223-1.293-26.7051.0518a3.6977,3.6977,0,0,1-4.3086-4.2256l.3936-2.4473,1.9365-17.1689,1.4131-9.0928c.0449-.3105.0918-.6074.1387-.9053.1123-.7129.2188-1.3857.3047-2.2578a18.2192,18.2192,0,0,0-2.1016-10.4453,2.11,2.11,0,0,1,.1387-2.25,2.1574,2.1574,0,0,1,2.127-.8789,138.89,138.89,0,0,0,22.6416,1.8818l68.8574,3.0625c.9932.001,1.9932.043,2.9717.124l57.6064,4.7334.9551.1074c.4482.0508.8955.1025,1.335.1484,9.501.9014,19.5166,1.64,29.7773,2.1943l14.8311.9453,2.2471.1826c4.0889.3291,8.3164.67,12.4482,1.1836l1.4951.1982c1.8955.248,3.8555.5049,5.7461.8447a27.4942,27.4942,0,0,1,3.4707.7188,28.607,28.607,0,0,1,3.3184,1.1592,23.8885,23.8885,0,0,1,6.001,3.53A11.1971,11.1971,0,0,1,537.51,44.462c1.8975,3.5645,2.9912,11.4873-.5186,17.9453-2.0811,3.83-6.6074,8.5732-16.375,9.416l-111.958,4.2256L367.1289,79.19l-6.4746.3408a6.3441,6.3441,0,0,1-2.9053-.5391A121.1911,121.1911,0,0,0,327.8574,69.9268Z" style="fill:#221f1f"/><path d="M325.333,126.3087l-17.3457-5.1738a21.2394,21.2394,0,0,0-6.5205-.6436l-12.87,1.0107.8818-1.8223c.1211-.2461.2441-.4912.3311-.7256a12.2962,12.2962,0,0,0,.4639-1.6426,14.5048,14.5048,0,0,0,.2051-1.5156l2.8877-33.4082,1.4932-4.2949a3.7178,3.7178,0,0,1,3.3174-2.998c5.7549-.2393,24.3418-.9375,27.0693-.1289l17.791,3.5479.1895.0576c2.3467.9775,22.9766,9.584,24.6611,10.7441a17.8913,17.8913,0,0,1,7.6475,16.8828l-1.7168,14.584a17.854,17.854,0,0,1-10.1426,14.1357,7.3041,7.3041,0,0,1-5.043.4365Z" style="fill:#221f1f"/></g></g></svg>