<svg xmlns="http://www.w3.org/2000/svg" viewBox="0 0 322.9539 557"><title>hand-rock</title><g id="Layer_2" data-name="Layer 2"><g id="Layer_1-2" data-name="Layer 1"><path d="M304.2829,329.3026q-6.9414-7.8261-13.8546-15.6739l-11.4109-13.1965-5.7055-6.6013-2.8049-3.2528-1.31-1.5414c-.4572-.4819-.9452-.9082-1.4116-1.3654a29.0936,29.0936,0,0,0-13.6074-7.2068,31.2729,31.2729,0,0,0-7.7134-.6394,30.1617,30.1617,0,0,0-7.5743,1.44,26.9717,26.9717,0,0,0-6.9072,3.3856l-1.6094,1.1059-1.73,1.319-3.4629,2.6381-13.8884,10.5059a3.757,3.757,0,0,1-1.0349.55l-36.38,12.2606a4.5866,4.5866,0,0,0-3.1664,4.42,10.7723,10.7723,0,0,0,.5375,3.0427,11.0136,11.0136,0,0,0,4.0282,5.5016,45.8824,45.8824,0,0,0,22.8777,9.5391,75.4841,75.4841,0,0,0,8.6092.4015l8.9429.1576,4.47.105a21.7491,21.7491,0,0,0,3.9633-.278,20.1641,20.1641,0,0,0,7.4138-2.8543,20.8028,20.8028,0,0,0,5.8227-5.5851l5.2854-7.2191a1.7712,1.7712,0,0,1,2.9224,1.9985l-4.8159,7.54a24.6754,24.6754,0,0,1-6.0452,6.5458c.0741.2965.1544.5962.247.8618.2534.8093.5715,1.628.8835,2.4465.6518,1.6372,1.4241,3.25,2.24,4.8467,1.671,3.1786,3.5306,6.2863,5.4336,9.3691a2.7086,2.7086,0,0,1-.89,3.7255,2.6563,2.6563,0,0,1-.9329.3583l-.244.0432a71.5677,71.5677,0,0,0-26.5784,10.6573,90.5932,90.5932,0,0,0-21.2341,19.5384A114.0094,114.0094,0,0,0,178.48,413.1338a101.2959,101.2959,0,0,0-8.2385,28.1507l-.0062.04a1.77,1.77,0,0,1-3.5246-.2378,87.8844,87.8844,0,0,1,5.999-30.3285,106.4608,106.4608,0,0,1,15.2012-27.1,89.0189,89.0189,0,0,1,23.1279-21.0891,69.1685,69.1685,0,0,1,25.8772-9.6224c-1.0255-2.1809-2.0017-4.39-2.8449-6.6724-.658-1.7855-1.27-3.5957-1.767-5.4676a24.0936,24.0936,0,0,1-.5251-2.5362,24.8984,24.8984,0,0,1-6.6787,2.5237,26.49,26.49,0,0,1-4.924.5839l-4.47.105-8.9429.1606a80.8305,80.8305,0,0,1-9.2487-.1853,51.9614,51.9614,0,0,1-18.1915-5.1588A52.6009,52.6009,0,0,1,171.2,331.323a17.5814,17.5814,0,0,1-6.5056-8.5907c-.38-1.0843-3.5369-.0927-5.3009,1.14a20.7183,20.7183,0,0,1-5.44,2.7833,36.5291,36.5291,0,0,1-5.7426,1.3437,32.9933,32.9933,0,0,1-22.76-5.1957,33.5461,33.5461,0,0,1-8.6741-8.2941l-1.6373-2.5454c-.5189-.8649-.9391-1.7855-1.4086-2.6813a51.148,51.148,0,0,1-2.1068-5.4553l-6.8052-20.6412q-6.7558-20.6566-12.9894-41.4831l-1.5385-5.2144-.766-2.6381a28.9864,28.9864,0,0,1-.6672-2.9686,27.25,27.25,0,0,1,.4944-11.1793L62.1894,168.0749,33.0872,87.756A17.0519,17.0519,0,0,0,.72,98.4566L39.1047,231.3947,55.6129,350.1539a207.1013,207.1013,0,0,0,15.8006,55.43L98.3839,466.43A38.8055,38.8055,0,0,0,116.9183,485.6h-.5745c.1422.0525.2934.1112.42.173a66.8156,66.8156,0,0,0,25.0431,6.626,1.8268,1.8268,0,0,1,.0279,3.6452,72.0832,72.0832,0,0,1-23.0321-2.03,2.4347,2.4347,0,0,0-3.0676,2.3354v35.2931a11.4655,11.4655,0,0,0,6.6291,10.3762,158.2822,158.2822,0,0,0,134.43,0,11.4678,11.4678,0,0,0,6.6261-10.3762V496.1742a2.4182,2.4182,0,0,0-2.7987-2.3786,71.9293,71.9293,0,0,1-15.5319.5438,1.8268,1.8268,0,0,1,.0247-3.6452,67.09,67.09,0,0,0,18.3059-3.7995c.92-.3275,1.8287-.68,2.7276-1.0473a38.8063,38.8063,0,0,0,15.8345-13.6135l13.9534-20.9315a44.0623,44.0623,0,0,0,6.0175-13.4684l16.8168-65.26a33.1413,33.1413,0,0,0-3.71-25.3891Z" style="fill:#221f1f"/><path d="M95.3424,232.03l.8865,2.5362,1.81,5.1248q7.1356,20.5362,13.7958,41.2236l6.589,20.7091a43.5456,43.5456,0,0,0,1.6927,4.7169c.3614.7136.6672,1.4581,1.0658,2.1531l1.2572,2.0511a27.26,27.26,0,0,0,6.7032,6.9009,28.2921,28.2921,0,0,0,18.4788,5.2144,31.6281,31.6281,0,0,0,4.9055-.7476,16.123,16.123,0,0,0,4.3587-1.8194,17.1209,17.1209,0,0,0,5.65-5.6592,23.8865,23.8865,0,0,1-3.0334-1.3715,24.727,24.727,0,0,1-6.7928-5.3071,20.72,20.72,0,0,1-4.4545-7.8277,16.1233,16.1233,0,0,1-.4942-2.3137l-.1546-1.1708-.09-.9793-.3522-3.9231c-.8618-10.4627-1.5815-20.9315-2.0943-31.4128-.5405-10.4812-.9915-20.9655-1.2387-31.459-.003-.1483-.0062-.2935-.0092-.4418a10.1031,10.1031,0,0,0-1.4612-5.0444l-6.6044-10.8272a20.92,20.92,0,0,0-24.9627-8.7792s-2.8017,1.1245-5.2729,2.1871a17.4141,17.4141,0,0,0-7.0122,5.4028.3374.3374,0,0,1-.0309.04,23.1206,23.1206,0,0,0-3.917,8.9584,22.056,22.056,0,0,0,.1329,9.5668,22.8167,22.8167,0,0,0,.6488,2.2982" style="fill:#221f1f"/><path d="M152.4342,259.74c.6022,10.4782.9978,20.9656,1.248,31.4591l.0649,3.9385.0185.9854.0494.7846a9.9918,9.9918,0,0,0,.2038,1.5538,17.7087,17.7087,0,0,0,2.7246,6.0392,11.6812,11.6812,0,0,0,8.4455,5.3193l.0679-.1606a42.3815,42.3815,0,0,1,8.8009-4.2351l17.8362-6.141a1.64,1.64,0,0,0,1.109-1.6187c-.26-7.1265-.2349-14.2374-.099-21.3393.204-8.5784.556-17.1444,1.1122-25.7011.5281-8.56,1.146-17.11,1.9676-25.6516.8062-8.5413,1.7206-17.0764,3.018-25.59a1.7746,1.7746,0,0,1,3.5278.2131c.2719,8.603.1637,17.1876-.0494,25.7658-.204,8.5753-.6086,17.1413-1.1028,25.7011-.47,8.5629-1.14,17.11-1.9554,25.6517-.6211,6.1688-.12,12.1338-.2873,17.895a1.51,1.51,0,0,0,1.9985,1.492l6.1813-2.1253L220.7519,283.85l3.4844-2.61,1.7423-1.3036,1.9831-1.3531a34.2357,34.2357,0,0,1,8.705-4.17,35.3211,35.3211,0,0,1,35.6325,8.6154c.55.5746,1.1275,1.1368,1.65,1.73l1.4457,1.8256,2.7491,3.4505,5.4306,6.79,10.8643,13.5734q2.5809,3.3083,5.1774,6.6075a2.7538,2.7538,0,0,0,4.9115-1.4735l10.8766-132.57,2.9162-38.7493,4.6119-123.676A19.6235,19.6235,0,0,0,304.8858.0618C294.7568-.76,285.8077,6.7125,283.92,16.6964c-10.3174,54.67-36.4664,173.2155-37.3993,176.0142-.4695,1.4117-2.4558,11.5747-4.6274,23.0166-2.2272,11.7323-17.9382,14.2066-23.6529,3.7193L207.435,192.3893a24.6128,24.6128,0,0,0-24.6107-15.4238l-12.6219.902a24.5811,24.5811,0,0,0-22.4945,20.4774,11.2839,11.2839,0,0,0-.0247,3.0953q1.5707,13.4282,2.6473,26.8842c.868,10.4627,1.5291,20.9377,2.1037,31.4158" style="fill:#221f1f"/></g></g></svg>