<svg xmlns="http://www.w3.org/2000/svg" viewBox="0 0 373 565.067"><title>hand-ok</title><g id="Layer_2" data-name="Layer 2"><g id="Layer_1-2" data-name="Layer 1"><path d="M367.1417,252.3163l-15.835-27.0183-15.5411-41.3067a7.0491,7.0491,0,0,0-10.9408-3.4226c-4.4282,3.3758-8.99,8.6248-10.5655,15.28a111.585,111.585,0,0,0,2.8385,51.8485l6.1519,20.5817a35.1,35.1,0,0,0,3.8372,4.3452c1.9419,1.8266,4.102,3.516,6.3584,5.2615,2.2592,1.7548,4.6262,3.4817,6.9235,5.6293l.0231.0218a1.6684,1.6684,0,0,1,.14,2.2443,1.4469,1.4469,0,0,1-1.246.5362,29.5175,29.5175,0,0,1-13.6077-5.1151,3.5512,3.5512,0,0,0-5.2318,1.5118l-8.7022,17.7015c-3.6947,7.5183-10.8477,12.6738-18.7844,12.7143-9.9948.053-18.3651-7.16-20.6883-17.1124-4.67-19.9926-12.4346-48.4042-12.79-56.5677-.32-7.3624,3.383-42.0112,4.9-59.9527a2.7638,2.7638,0,0,0-3.0276-3.0578,25.91,25.91,0,0,1-12.0767-1.8172,30.4767,30.4767,0,0,1-9.9276-6.5114,27.9411,27.9411,0,0,1-6.7109-9.9464,1.9308,1.9308,0,0,1,.9667-2.4562,1.6727,1.6727,0,0,1,1.869.374l.0526.053a56.1412,56.1412,0,0,0,7.75,6.6205,42.67,42.67,0,0,0,8.5185,4.635,35.2392,35.2392,0,0,0,9.13,2.2474,38.8012,38.8012,0,0,0,7.1822.0623,12.1606,12.1606,0,0,0,2.798-.5548L277.04,167.2a5.5044,5.5044,0,0,0,3.6247-6.3088q-.2442-1.211-.4133-2.4313a38.4627,38.4627,0,0,1-.0231-10.361,1.1787,1.1787,0,0,1,1.31-1.0629,1.1991,1.1991,0,0,1,.9812.9943l.0146.0686c.585,3.2386,1.0509,6.3868,1.8719,9.4446.6056,2.266,1.3189,4.4761,2.1107,6.6517l.0931-.0281c4.408,12.0442,15.3374,19.8243,27.3324,19.6061a7.9914,7.9914,0,0,0,2.4746-.4333,29.7647,29.7647,0,0,0,10.4-6.767,7.8947,7.8947,0,0,0,.9752-9.9277l-18.8424-28.3524a27.2916,27.2916,0,0,0-8.95-8.5l-2.2941-1.3373a25.1507,25.1507,0,0,0-16.22-3.2386l-32.66,4.5913c-16.3507,2.3-29.3091,15.9-31.778,33.3584l-5.8139,41.0791a11.5085,11.5085,0,0,1-1.8228,4.4293l-2.1338,3.0984c-2.6029,3.784-7.1125,5.7571-11.34,4.4822a10.8829,10.8829,0,0,1-7.4971-9.164l-11.0485-85.3189,5.1619-62.8391a2.0256,2.0256,0,0,0-2.8183-2.1383,36.73,36.73,0,0,1-6.2246,2.54,15.4317,15.4317,0,0,1-5.9189.0436,1.0891,1.0891,0,0,1-.2678-1.9917l.0174-.0094c1.7091-.9382,3.3628-1.6613,4.9873-2.4157l4.8185-2.2287c1.1849-.5642,2.3552-1.1657,3.5285-1.7892a11.9605,11.9605,0,0,0,5.6275-6.7421l1.8228-5.3425a17.5459,17.5459,0,0,0,.9343-5.6512v-16.18a17.87,17.87,0,0,0-3.9157-11.5455,14.683,14.683,0,0,0-19.8673-2.8147l-1.939,1.35a16.2689,16.2689,0,0,0-5.8489,7.5711C152.994,23.35,141.6366,52.955,140.5216,54.741c-1.3917,2.2348-9.7387,54.37-9.7387,54.37l.003,77.8163a29.1312,29.1312,0,0,0,3.1209,13.2536c.594,1.1595,1.1966,2.3034,1.8139,3.4225a65.8916,65.8916,0,0,0,4.8561,7.671,15.5064,15.5064,0,0,0,6.2043,5.3083l.2212.0935a1.583,1.583,0,0,1,.8092,2.0011,1.492,1.492,0,0,1-1.0248.9382,9.6587,9.6587,0,0,1-5.753-.427,12.133,12.133,0,0,1-2.6-1.2936,16.0221,16.0221,0,0,1-2.2914-1.705,30.9679,30.9679,0,0,1-6.6438-8.6965,49.5049,49.5049,0,0,1-4.0439-9.8684c-.0466-.159-.0844-.3242-.1311-.4831-.029-.0686-.0757-.1122-.099-.184l-8.83-26.0925A74.8317,74.8317,0,0,1,112.68,152.581l-3.4617-45.7048-7.0718-83.9225c-.6578-7.802-6.2594-14.4256-13.5525-15.077C80.06,7.1161,72.8257,14.1232,72.517,23.1l-2.8764,83.0841q-.0741,2.1788.032,4.3607L75.99,239.1c-.134,3.4537,4.2564,5.5078,6.9407,6.7047,5.7092,2.5,11.98,4.0178,18.5077,5.539l.0874.0218a1.5664,1.5664,0,0,1,1.1151,1.8578,1.5285,1.5285,0,0,1-.9491,1.1408,25.64,25.64,0,0,1-10.8333,1.3185,31.6339,31.6339,0,0,1-10.7111-2.7617,27.452,27.452,0,0,1-9.38-6.82,56.6194,56.6194,0,0,1-4.6786-7.3967l-33.0793-91.79a37.9885,37.9885,0,0,1-1.5723-5.7384L22.84,96.294c-.9956-5.19-4.8124-9.429-9.7183-10.149C6.05,85.1039,0,90.9576,0,98.3294V139.29a29.4689,29.4689,0,0,0,.4512,5.1368l9.6047,54.3078a411.8236,411.8236,0,0,0,22.7672,80.3069l1.68,4.2266a409.4617,409.4617,0,0,1,14.7462,44.3645l16.4813,61A320.1458,320.1458,0,0,0,91.805,454.8975l9.3631,17.6766c11.0663,19.9645,29.3848,19.7869,41.5777,20.1578a1.9644,1.9644,0,0,1,.6872,3.834c-6.3235,1.7829-8.9353,2.64-15.5967,2.5154a5.204,5.204,0,0,0-5.1182,5.3832v31.8684a10.2425,10.2425,0,0,0,5.4356,9.1391c50.6876,26.1268,100.3054,26.1268,150.99,0a10.2427,10.2427,0,0,0,5.4354-9.1391V495.0144a5.158,5.158,0,0,0-5.9859-5.3083l-13.2485-.3032a1.8274,1.8274,0,0,1-2.1253-1.5523,1.9593,1.9593,0,0,1,1.2517-2.2255l.1137-.0374,14.86-4.8252,3.5664-1.16a38.2133,38.2133,0,0,0,16.4232-10.6913l44.37-48.7315a98.9057,98.9057,0,0,0,25.2217-61.8167l3.9243-82.1521a43.2642,43.2642,0,0,0-5.8082-23.8951M266.4977,326.7226a1.3931,1.3931,0,0,1,1.8459.851,1.59,1.59,0,0,1-.5765,1.8608C250.5518,340.88,233.8582,352.79,220.34,368.2756a163.3364,163.3364,0,0,0-18.0011,25.22,286.0728,286.0728,0,0,0-14.2279,28.3493,1.6839,1.6839,0,0,1-2.3.8977,1.9169,1.9169,0,0,1-.9228-2.2318,169.3008,169.3008,0,0,1,11.9656-30.4657,133.8516,133.8516,0,0,1,18.2282-27.05,128.1616,128.1616,0,0,1,23.9551-21.283,153.6156,153.6156,0,0,1,27.46-14.99M111.5183,367.5618a1.4451,1.4451,0,0,1-1.5605-1.3465,1.511,1.511,0,0,1,1.0626-1.63l.0727-.0218a283.2873,283.2873,0,0,0,35.5308-12.6738,290.7973,290.7973,0,0,0,33.72-17.1778c5.4706-3.195,10.7342-6.7266,15.9514-10.32,5.1767-3.6594,10.1551-7.6087,15.1075-11.7107,4.9261-4.1144,9.8928-8.4471,15.346-12.253a73.1337,73.1337,0,0,1,17.483-9.0705,1.7055,1.7055,0,0,1,2.1835,1.1813,1.9141,1.9141,0,0,1-.9027,2.2537,82.48,82.48,0,0,0-15.7476,10.23c-4.8856,3.9773-9.4709,8.5344-14.3445,12.9419a186.4867,186.4867,0,0,1-31.56,23.4867,208.594,208.594,0,0,1-35.0095,16.8412,164.4154,164.4154,0,0,1-37.3329,9.27"/></g></g></svg>