<svg xmlns="http://www.w3.org/2000/svg" viewBox="0 0 282.2114 735.204"><title>hand1</title><g id="Layer_2" data-name="Layer 2"><g id="Layer_1-2" data-name="Layer 1"><path d="M268.6453,233.8806c-.2537-1.0677-.42-2.1655-.7747-3.1986a173.62,173.62,0,0,1-6.5981-27.4127c-.1235-.7262-.1863-1.4639-.2517-2.1985-.5322-5.9707-1.1924-11.9259-2.1042-17.852-.2805-1.8237-.4793-3.6607-.792-5.4785-.2806-1.6322-.6558-3.2486-1.0109-4.8673-.1381-.63-.3915-1.2372-.4962-1.8706a47.7022,47.7022,0,0,0-4.3955-12.7746,15.043,15.043,0,0,0-13.5254-9.0291,23.3908,23.3908,0,0,0-13.0213,2.9529,38.915,38.915,0,0,0-13.0936,11.6909,91.2023,91.2023,0,0,0-5.4128,8.6882c-.3448.6286-.77,1.2132-1.297,2.0352a14.0309,14.0309,0,0,1-.6835-1.4214c-1.2213-3.6774-2.4087-7.3661-3.642-11.0394-.4691-1.397-1.0745-2.7483-1.5431-4.1455-.9964-2.9714-2.1412-5.9125-2.8614-8.9522-.8948-3.7769-1.9714-7.4924-3.083-11.2037a231.531,231.531,0,0,1-5.8477-22.7811c-1.0069-5.252-1.8146-10.5426-2.6669-15.8232a10.11,10.11,0,0,0-1.0106-3.12c-2.8018-5.4158-6.2129-10.4708-9.23-15.7583a87.8113,87.8113,0,0,1-7.2915-15.7995,117.732,117.732,0,0,1-4.9134-20.9877,122.5255,122.5255,0,0,1-1.2431-21.8005,35.886,35.886,0,0,1,1.8654-10.0439,18.8285,18.8285,0,0,1,8.1664-10.1563A6.6377,6.6377,0,0,1,173.65.7443c3.8436-1.0027,7.6541-1.1874,11.3269.6816a21.8541,21.8541,0,0,1,2.655,1.4862A7.7666,7.7666,0,0,1,189.65,4.7594c2.6419,3.8907,5.3206,7.7653,7.7565,11.7847,2.4854,4.101,4.6917,8.3706,7.0465,12.5515.8593,1.5256,1.7742,3.0209,2.7013,4.5066.6836,1.0957,1.4659,2.13,2.1387,3.2321A91.7544,91.7544,0,0,0,216.4869,46.98a49.7824,49.7824,0,0,1,4.8957,7.6892c1.4091,2.5863,2.49,5.35,3.7336,8.028q2.2729,4.8955,4.5771,9.7765,5.38,11.3877,10.7873,22.7628c.9141,1.9137,1.9291,3.7813,2.9505,5.6411q7.8639,14.3186,15.07,28.9785c2.6383,5.3866,5.2152,10.8032,7.8577,16.1877a53.9565,53.9565,0,0,1,5.0889,17.7312c.9452,8.16,1.64,16.3361,1.79,24.5546.0439,2.3961.2062,4.79.3216,7.1848a186.9392,186.9392,0,0,1-.2556,20.476,64.0522,64.0522,0,0,0,.2072,10.4931c.0471.4575.0377.9215.0408,1.3826q.09,13.7034.1888,27.4067c.01,1.1949.1794,2.3888.2832,3.5825.4325,4.968,1.27,9.8777,2.0392,14.8009.6541,4.1889.9882,8.4267,1.55,12.6313.3663,2.7409.8559,5.4667,1.3442,8.19a191.0551,191.0551,0,0,1,2.9093,24.998,136.1437,136.1437,0,0,1,.1214,16.8642c-.1725,2.2033-.3509,4.4108-.66,6.5977-.3857,2.7326-.9091,5.4457-1.3721,8.1674a17.86,17.86,0,0,1-3.0408,7.36c-2.71,3.843-5.07,7.9309-8.1417,11.5245a21.7637,21.7637,0,0,0-2.28,3.4567c-1.6821,2.97-3.2414,6.0108-4.9614,8.9582a16.8728,16.8728,0,0,0-2.2794,6.4745,8.8952,8.8952,0,0,1-.1659,1.0941c-1.56,6.11-1.9379,12.3778-2.4935,18.6223-.2453,2.7567-.4818,5.515-.79,8.265a31.3562,31.3562,0,0,1-4.7358,13.1808c-2.0971,3.3657-4.2843,6.6788-6.5316,9.9462-1.4093,2.0489-2.9786,3.99-4.52,5.9454-3.941,4.9994-8.0547,9.89-11.33,15.3573-4.5068,7.5235-9.5847,14.685-13.9954,22.2593-2.887,4.9577-6.319,9.5249-9.5268,14.2549a69.9571,69.9571,0,0,0-4.82,8.0773c-2.3442,4.72-5.0956,9.2014-7.6333,13.8065-1.6454,2.9859-3.0689,6.0937-4.61,9.1375-.6654,1.314-1.394,2.5959-2.0629,3.9081a25.8022,25.8022,0,0,0-1.4113,2.9928c-2.48,6.9566-5.098,13.855-8.1272,20.5963a27.8535,27.8535,0,0,0-2.1257,7.4285,143.7534,143.7534,0,0,0-1.7308,19.0011c-.0574,4.71.0869,9.4073.2523,14.1062.0811,2.3006.44,4.5906.6441,6.8879a192.4978,192.4978,0,0,0,3.3781,21.8686c.4283,2.0762,1.0641,4.1089,1.524,6.18.3994,1.7984.6875,3.6215,1.0193,5.4348.4146,2.2661.7647,4.5458,1.2468,6.7974,1.0814,5.0508,2.1674,10.102,3.3653,15.1259.9622,4.0357,2.0812,8.0343,3.1526,12.0435.3334,1.2474.7572,2.47,1.1075,3.7135a9.0966,9.0966,0,0,1-1.3227,8.1541,46.094,46.094,0,0,1-5.5743,6.5059c-1.2611,1.2159-2.4442,2.5123-3.6941,3.74a19.5759,19.5759,0,0,1-2.2709,2.011c-3.3025,2.3589-6.6421,4.6659-9.9654,6.9957a73.48,73.48,0,0,1-11.6437,6.9042,65.2343,65.2343,0,0,1-8.0106,3.0436,143.3465,143.3465,0,0,1-19.1812,4.1668c-.1292.0206-.2429.1384-.4908.2869a43.2207,43.2207,0,0,0,7.8475.1276q3.5878-.17,7.1648-.546c1.6084-.1663,1.8907.2909,2.0639,1.51.246,1.7314.4634,3.47.5942,5.2135a5.1436,5.1436,0,0,1-1.235,3.5892c-1.8505,2.3342-3.8642,4.4878-6.9182,5.2537a2.5033,2.5033,0,0,0-.52.1884c-5.5276,2.8018-11.4774,3.137-17.5228,3.151-4.9979.0115-9.6352-1.4135-14.249-3.062-.1733-.0619-.3321-.1638-.5052-.2262a6.1136,6.1136,0,0,1-4.4879-5.6825,39.2374,39.2374,0,0,0-.8277-4.0638c-.2065-1.1289.0653-1.5589,1.1626-1.7945,2.1641-.4648,4.3412-.87,6.5115-1.3061,1.1663-.2345,2.33-.4833,3.7592-.7808a4.1254,4.1254,0,0,0-3.3659-.6848,50.2611,50.2611,0,0,1-9.6668.1664c-1.2857-.1275-2.5739-.2316-3.8577-.3756-3.1144-.3494-6.2292-.6972-9.34-1.08a66.6492,66.6492,0,0,1-16.25-4.3989c-1.7151-.6742-3.4924-1.1885-5.2308-1.8055-1.5637-.5549-3.1626-1.0444-4.6594-1.7474-4.6759-2.196-9.3138-4.4729-13.9586-6.7345-.9119-.4441-1.79-.9583-2.6818-1.443a7.1041,7.1041,0,0,1-3.9031-5.3689c-.4695-2.9132-1.0545-5.81-1.6694-8.697a137.5669,137.5669,0,0,1-2.3961-16.9765c-.1247-1.4586-.5637-2.8877-.8033-4.3395-.3606-2.1844-.6225-4.3858-1.0158-6.5639-.8689-4.8113-1.821-9.6075-2.688-14.4192-.8833-4.9024-1.7013-9.8165-2.5573-14.7239a31.8208,31.8208,0,0,0-.6439-3.2569,124.8289,124.8289,0,0,1-2.8284-14.3768c-1.0151-6.2815-2.1554-12.5431-3.1271-18.8311-.6618-4.2824-1.1257-8.5953-1.6807-12.8942-.2481-1.9213-.4849-3.8442-.7592-5.7618a30.126,30.126,0,0,0-1.7293-6.6842,185.5092,185.5092,0,0,1-6.0267-18.1055c-.83-3.0189-1.9307-5.97-3.0207-8.91a80.138,80.138,0,0,1-3-11.49C1.4762,525.5376.967,522.252.4368,518.974a43.5408,43.5408,0,0,1-.0215-12.1325C1.15,500.6131,1.75,494.366,2.2612,488.1148c.3095-3.7839,1.0526-7.4819,1.6867-11.21a133.96,133.96,0,0,1,9.4334-30.328c2.108-4.9126,4.6424-9.6424,6.9921-14.4507.3645-.7459.8282-1.4468,1.1521-2.2084,3.0358-7.1385,6.659-13.9977,9.9766-21.0019,1.0262-2.1664,2.2238-4.2509,3.2971-6.3957a26.6739,26.6739,0,0,0,1.6888-3.7843c1.2883-4.0567,3.044-7.9237,4.6775-11.8389a123.312,123.312,0,0,0,7.2358-22.9291q1.2667-6.2351,2.3071-12.5154c.3793-2.27.5088-4.5815.8217-6.8645a34.6492,34.6492,0,0,1,.8483-4.62,85.5481,85.5481,0,0,1,7.5171-19.2948,119.1382,119.1382,0,0,1,6.2726-10.43,15.2367,15.2367,0,0,1,1.6761-2.194,34.41,34.41,0,0,0,4.2429-5.4465c.8851-1.2943,1.8552-2.5305,2.7423-3.8235a5.73,5.73,0,0,0,.4838-1.2385c.0809-.0353.2308-.1376.0652.067a11.7518,11.7518,0,0,0-1.48.6648c-.6262.3864-1.1892.8737-1.7963,1.2931a.66.66,0,0,1-1.0882-.3355c-.1106-.4471-.1937-.9019-.2706-1.3563-.8768-5.1844-1.8357-10.3567-2.5993-15.5577-.71-4.8353-1.2783-9.6943-1.778-14.5563-.3012-2.93-.3169-5.8886-.5244-8.83-.2526-3.5825-.5336-7.1641-.8959-10.7366a5.2008,5.2008,0,0,0-.8851-1.9916c-1.1963-1.9725-2.5131-3.8743-3.6558-5.8763-2.1494-3.7657-4.2384-7.5667-6.298-11.3824-1.7094-3.167-3.32-6.3873-5.0109-9.5645a180.1521,180.1521,0,0,1-8.7713-19.1138,9.0838,9.0838,0,0,0-2.5147-3.5576A102.6238,102.6238,0,0,1,18.45,173.3552a62.5816,62.5816,0,0,1-6.815-15.995,24.32,24.32,0,0,1-.734-8.4929,7.7881,7.7881,0,0,1,3.0891-5.651,12.08,12.08,0,0,1,5.5286-2.4143,7.9785,7.9785,0,0,1,4.0885.39,22.2338,22.2338,0,0,1,5.8328,3.1332c1.6988,1.2659,3.3267,2.6295,4.9541,3.9881q4.0356,3.3691,8.0283,6.7895c2.5248,2.1573,5.027,4.3413,7.5445,6.5072.489.4207,1.0011.8149,1.5056,1.2174,1.8028,1.438,3.6311,2.8453,5.3992,4.3247a14.2273,14.2273,0,0,1,2.1089,2.1714c2.2605,2.9166,4.4675,5.8748,6.6923,8.819.3338.4417.6242.92.9875,1.3351q6.198,7.081,12.421,14.14c1.9589,2.2084,3.9725,4.3694,5.9995,6.5159q4.1822,4.4289,8.4283,8.797a13.7429,13.7429,0,0,1,3.4561,6.1979c2.1112,7.8363,3.5279,15.8164,5.04,23.7776.9456,4.9791,2.0637,9.9117,3.4733,14.7867,1.4063,4.8639,2.6221,9.7836,3.879,14.69a32.817,32.817,0,0,1,.54,3.2715,3.6376,3.6376,0,0,1-1.1,3.2511,18.0829,18.0829,0,0,1-7.4374,4.626,44.7278,44.7278,0,0,0-11.3634,5.6317,30.9682,30.9682,0,0,0-3.27,2.9534c-.0694.0649-.0023.2756.0013.4185.17-.0085.3736.0395.5045-.0368a9.62,9.62,0,0,0,.897-.6465,40.0665,40.0665,0,0,1,10.4891-5.5233c1.8212-.6594,3.6483-1.3044,5.4866-1.9142a59.24,59.24,0,0,0,9.4846-4.5067c.9636-.5229,1.1234-.9128.8162-2.06-.38-1.42-.8506-2.8162-1.2948-4.2187-.4734-1.4949-.9213-2.9995-1.45-4.4749-3.3707-9.41-5.4718-19.1473-7.4916-28.9064-.0561-.2711-.088-.5486-.1622-.8144a102.5176,102.5176,0,0,1-2.3436-11.0927c-.5788-3.5485-1.3831-7.06-2.0779-10.59-.178-.9045-.3285-1.8149-.4712-2.7258a5.1228,5.1228,0,0,0-2.2275-3.6626,35.7928,35.7928,0,0,1-7.1-6.5535,9.6118,9.6118,0,0,0-.7434-.8206c-3.3121-3.082-6.3717-6.4078-9.4864-9.6843a87.9722,87.9722,0,0,1-6.3641-7.2937c-1.2833-1.6871-2.7-3.2724-4.06-4.9017-.4727-.5667-.98-1.1071-1.4222-1.6963q-6.8136-9.0755-13.61-18.1636a14.2882,14.2882,0,0,0-4.939-4.34,65.4175,65.4175,0,0,1-9.7-6.3876,169.8431,169.8431,0,0,1-16.7377-14.0548,86.1708,86.1708,0,0,1-10.5229-12.102c-3.488-5.0395-6.2658-10.4346-7.3186-16.5816a28.5117,28.5117,0,0,1-.0729-9.0694A14.134,14.134,0,0,1,7.2732,89.348a12.2472,12.2472,0,0,1,2.4924-2.5545,35.1674,35.1674,0,0,1,3.7545-2.34,6.7561,6.7561,0,0,1,4.31-.6353c2.1041.2485,4.2015.557,6.2981.8647,1.1236.1649,1.398-.0861,1.1987-1.12-.4011-2.081-.8121-4.161-1.1566-6.2518a29.6993,29.6993,0,0,1,.7921-12.3264,4.4959,4.4959,0,0,1,.3514-1.0448,23.6912,23.6912,0,0,1,7.7832-8.4723,5.4285,5.4285,0,0,1,1.5543-.55,17.7058,17.7058,0,0,1,6.5951-.4247,10.5471,10.5471,0,0,1,2.8851.8859A57.7308,57.7308,0,0,1,52.623,60.021a80.9621,80.9621,0,0,0,13.5592,6.845A125.329,125.329,0,0,1,80.78,73.52a186.4438,186.4438,0,0,1,16.4742,9.6513c3.0327,2.1025,6.1164,4.1312,9.1723,6.2a166.0814,166.0814,0,0,1,16.9058,13.4052c2.3467,2.0791,4.7939,4.049,7.2531,5.9958a84.9773,84.9773,0,0,1,6.532,5.547c1.5868,1.54,3.2834,2.9705,4.9791,4.3926,5.372,4.5053,10.7335,9.0243,16.1659,13.456,2.7859,2.2727,5.7567,4.3175,8.5657,6.5633,2.7382,2.1892,5.3852,4.493,8.0527,6.7695a18.4184,18.4184,0,0,1,1.9813,1.9316c3.0174,3.487,6.0347,6.9752,8.987,10.5171a24.064,24.064,0,0,1,2.3023,3.4459c1.2866,2.24,2.51,4.5163,3.7192,6.799a25.7265,25.7265,0,0,1,1.653,3.4976c1.672,4.7895,3.3168,9.59,4.8677,14.42a55.4583,55.4583,0,0,1,1.507,6.1729,8.9787,8.9787,0,0,1,.0017,2.7438,29.9823,29.9823,0,0,1-.7075,4.0882,68.9679,68.9679,0,0,0-1.3376,8.4649c-.34,2.5586-.52,5.138-.79,7.7061a133.3371,133.3371,0,0,0-.7883,18.2365c.1758,5.53.1642,11.066.32,16.597.0518,1.8362.343,3.6681.5677,5.4966a103.24,103.24,0,0,0,2.1211,11.98,52.443,52.443,0,0,1,1.4035,13.7206,99.247,99.247,0,0,1-3.5418,22.3449c-.8672,3.3952-1.8332,6.7654-2.6841,10.1646a53.46,53.46,0,0,1-5.0028,12.8608c-.9772,1.7768-1.8223,3.6272-2.705,5.4549-3.0517,6.3185-6.2107,12.5883-9.8023,18.6131a146.6574,146.6574,0,0,1-8.9871,13.96,9.2882,9.2882,0,0,0-.6233.9141c-3.3667,5.732-8.0651,10.2711-12.9733,14.6473a172.7779,172.7779,0,0,1-17.33,13.772c-4.3385,2.9684-8.85,5.6828-13.249,8.5647q-9.8407,6.4469-19.6269,12.9768c-.9975.6629-1.9462,1.405-2.8785,2.1588q-8.2881,6.7014-16.5572,13.4264c-.0716.0581-.15.11-.216.1731-5.0785,4.8392-10.8569,8.8882-15.7664,13.9142-4.0621,4.1584-8.1807,8.2722-12.0406,12.6136a70.784,70.784,0,0,0-6.2314,8.46,111.1685,111.1685,0,0,0-9.0908,16.1455,117.1672,117.1672,0,0,0-5.7345,16.7347,9.8719,9.8719,0,0,0-.1365,1.3288,6.8187,6.8187,0,0,0,1.4266-3.2437,68.29,68.29,0,0,1,7.2165-17.3059c.8316-1.4373,1.6481-2.8879,2.3815-4.3767a45.8813,45.8813,0,0,1,7.2344-10.4263c1.4824-1.6445,2.903-3.3447,4.3523-5.019,2.4935-2.8809,5.6687-5,8.4479-7.5617,1.0854-1,2.2066-1.9646,3.2535-3.0038,3.0815-3.059,6.3235-5.9308,9.68-8.6868,3.9219-3.22,7.7178-6.5938,11.631-9.8249,2.9873-2.4666,6.1881-4.6838,9.0881-7.245a153.7088,153.7088,0,0,1,16.7228-12.2734c1.15-.7679,2.2921-1.5565,3.377-2.4125,5.2213-4.1193,10.6614-7.9258,16.2121-11.5867A116.6233,116.6233,0,0,0,153.1176,384.67c1.8-1.7219,3.6586-3.3836,5.4977-5.0647A94.2448,94.2448,0,0,0,173.8793,361.42c3.5391-5.4153,6.7626-11.0018,9.79-16.71,1.2539-2.3641,2.5589-4.7047,3.718-7.115a211.4162,211.4162,0,0,0,10.0782-23.3651,118.6429,118.6429,0,0,0,5.2948-23.1421,131.9887,131.9887,0,0,0,.6864-13.5338c.0914-3.5233-.7669-6.9563-1.531-10.3768a129.6281,129.6281,0,0,1-2.7227-17.4722c-.1934-2.3111-.1471-4.6038-.1961-6.9036a169.5158,169.5158,0,0,1,1.2816-21.2512c.576-5.5049,1.1014-11.0222,1.9251-16.4924,1.016-6.7474,2.1282-13.5054,4.554-19.9289a95.5608,95.5608,0,0,1,6.53-14.3459A42.6776,42.6776,0,0,1,228.02,155.311a21.8621,21.8621,0,0,1,8.3173-2.85,8.3007,8.3007,0,0,1,4.0823.4519,14.7717,14.7717,0,0,1,5.5731,2.9461,11.0563,11.0563,0,0,1,2.419,3c.8881,1.8215,1.8773,3.6056,2.61,5.4887a104.1383,104.1383,0,0,1,5.391,19.4176c1.207,6.72,2.1,13.4809,2.8216,20.2674.0876.8241.2222,1.6454.38,2.4593.2811,1.4493.6284,2.8862.892,4.3384,1.1432,6.3021,3.4216,12.2428,5.7576,18.1651.5075,1.2869,1.0409,2.5655,1.6208,3.821a5.0278,5.0278,0,0,0,.8307,1.0051c.004.1767-.0026.3545.0166.53a.9176.9176,0,0,0,.103.2441c.0627-.1235.2059-.2825.1705-.3627C268.9424,234.09,268.7712,233.9955,268.6453,233.8806Zm-100.77,300.7951-.588.5159c-.7316.7013-1.493,1.3744-2.19,2.1088-2.9831,3.1448-5.9676,6.2888-8.9078,9.4735a34.3942,34.3942,0,0,0-3.1622,3.8318,62.1375,62.1375,0,0,1-4.6495,5.8357,66.5293,66.5293,0,0,0-5.2371,6.4292,60.7132,60.7132,0,0,0-7.1,14.3455,15.2968,15.2968,0,0,0-.8093,3.2093c-.65,5.7656-1.3462,11.536-.4642,17.3449.0276.1815.0194.3682.0344.5519.3149,3.851.595,7.7055.9644,11.5512a34.2353,34.2353,0,0,0,.755,4.3483c.3061,1.3369.7558,2.6411,1.1422,3.96a2.8806,2.8806,0,0,0,.1793-1.41c-.2195-1.7373-.5045-3.4667-.7057-5.206a67.6714,67.6714,0,0,1-.7855-7.97,75.9553,75.9553,0,0,1,.7438-10.1923c.5348-3.8233,1.356-7.6116,2.1783-11.3877.5089-2.3371,1.2719-4.6179,1.8849-6.9335a38.5518,38.5518,0,0,1,5.6765-12.21c2.1039-3.0293,4.1627-6.09,6.2863-9.1056a56.7386,56.7386,0,0,1,3.6721-4.8473,30.8389,30.8389,0,0,0,3.2416-4.12,12.7181,12.7181,0,0,1,.9952-1.3251q2.5278-3.1088,5.0711-6.2051a3.2383,3.2383,0,0,0,1.12-2.1433l.5867-.5178C167.9259,534.5351,168.0329,534.4723,167.8754,534.6758ZM28.2864,88.8073c-.1417-.1889-.074-.1659.0683-.0675a1.7494,1.7494,0,0,0,1.079,1.6718,8.3132,8.3132,0,0,0,.6279,1.5c.7647,1.1511,1.593,2.2607,2.4127,3.3744,1.8038,2.4509,3.4735,5.0189,5.4575,7.3149a146.0055,146.0055,0,0,0,14.17,13.9847c1.3814,1.216,2.8939,2.2845,4.3592,3.4037,1.6112,1.23,3.275,2.395,4.8475,3.6723a50.6361,50.6361,0,0,0,6.5365,4.64c2.7149,1.57,5.3648,3.2529,8.0958,4.793a19.2217,19.2217,0,0,1,5.6493,5.22,32.6411,32.6411,0,0,1,2.327,3.4352c3.6726,6.2353,8.3125,11.7327,13.046,17.1563,2.0622,2.3628,4.2994,4.5764,6.3049,6.9846a178.6473,178.6473,0,0,0,13.7024,14.453c3.3925,3.2569,6.7829,6.5169,10.1242,9.826,1.11,1.1,2.0718,2.3511,3.09,3.5431a9.0126,9.0126,0,0,1,1.6932,3.1469c1.5851,4.9165,3.2518,9.8078,4.7622,14.747,1.8879,6.1738,3.6323,12.3913,5.4755,18.5789,1.2639,4.2427,2.7065,8.4357,3.8538,12.7087a103.4869,103.4869,0,0,0,3.2915,10.84,7.3759,7.3759,0,0,1,.4895,2.4158c.0564,1.9161-.39,2.3672-2.3505,2.68-.3643.058-.7344.0826-1.097.1491a27.7913,27.7913,0,0,0-11.27,4.3364c-2.9406,2.0692-5.9584,4.0287-8.9064,6.0877a17.5611,17.5611,0,0,0-3.4426,2.5468,1.6762,1.6762,0,0,0,1.4641-.1789c1.7847-.9666,3.5409-1.99,5.3565-2.8945a35.7559,35.7559,0,0,1,8.225-3.2287,104.5619,104.5619,0,0,1,14.6936-2.63,85.4722,85.4722,0,0,1,11.879-.4233c5.5129.37,11.0473.4981,16.5,1.5756a21.5588,21.5588,0,0,0,5.4632.0838c-.7552-.2965-.9847-.47-1.2056-.46a15.9292,15.9292,0,0,1-4.3555-.6741c-1.7948-.4165-3.5522-1.0019-5.3541-1.3794-3.8812-.8131-7.7637-1.6472-11.6786-2.2642a19.1046,19.1046,0,0,1-6.8333-2.8571,7.0619,7.0619,0,0,1-1.4217-1.2893,15.6777,15.6777,0,0,1-3.0464-5.5384c-1.9129-5.1942-3.8489-10.38-5.6989-15.5969-2.0652-5.8235-4.2284-11.6219-6.0146-17.5322-2.0293-6.715-4.186-13.3763-6.6877-19.9275a29.624,29.624,0,0,0-6.8652-10.5983c-4.5843-4.55-9.1218-9.1462-13.7011-13.7009A236.7947,236.7947,0,0,1,94.683,151.7029c-4.126-5.2053-8.264-10.3916-12.1023-15.8135a7.5052,7.5052,0,0,0-1.2535-1.4648,54.3665,54.3665,0,0,0-6.5912-5.0228A93.4365,93.4365,0,0,1,65.72,123.481c-6.057-4.6786-11.9537-9.5648-17.9087-14.375-.501-.4046-.9559-.8682-1.4162-1.3208C40.806,102.29,35.2131,96.7975,30.06,90.88a2.5172,2.5172,0,0,0-.7-.402A1.6889,1.6889,0,0,0,28.2864,88.8073ZM254.71,379.513c.129-2.1082.2037-4.2214.3968-6.3237a210.3632,210.3632,0,0,1,3.4167-21.2571c1.3838-7.0482,2.9-14.069,4.2755-21.1206,1.6559-8.4925,3.6928-16.913,5.672-25.3395,1.3676-5.8222,3.2043-11.53,4.3174-17.4169a3.96,3.96,0,0,0-.0763-.8206,6.34,6.34,0,0,0-.5593.9444c-.5448,1.66-1.0279,3.341-1.6026,4.99-4.6089,13.2273-8.5607,26.653-12.1623,40.1848a123.7954,123.7954,0,0,0-3.0039,16.0122c-.4367,3.3787-.6752,6.7871-.8911,10.1893C254.0735,366.17,253.5423,372.7886,254.71,379.513ZM90.7745,349.5246c.8151,0,1.6315.0289,2.4452-.0055,2.39-.1011,4.7779-.3178,7.1673-.3277a109.992,109.992,0,0,0,27.8926-3.4821,111.9116,111.9116,0,0,0,16.5414-5.381c3.3725-1.4845,6.7482-2.9618,10.1106-4.469a21.5642,21.5642,0,0,0,2.6948-1.4005c2.493-1.5728,4.9544-3.1958,7.4215-4.8092a9.9683,9.9683,0,0,0,.8527-.71c-.2979-.0607-.4938-.1687-.6282-.1169a19.94,19.94,0,0,0-2.5479,1.065c-3.9649,2.2038-8.2553,3.6234-12.4351,5.3228-7.3513,2.9887-14.87,5.4544-22.4424,7.7978a139.46,139.46,0,0,1-30.39,5.4181A31.23,31.23,0,0,0,90.7745,349.5246ZM217.2428,181.4164a9.2218,9.2218,0,0,0,.123,4.0265,104.8141,104.8141,0,0,0,3.3071,13.4244,32.6011,32.6011,0,0,0,7.51,13.0681,17.9759,17.9759,0,0,0,11.2651,5.3428,31.3456,31.3456,0,0,0,10.1741-.6877,5.7218,5.7218,0,0,0,3.5475-1.9661c-.7215.0787-1.1671.0884-1.5953.18a25.4041,25.4041,0,0,1-14.9249-1.3219c-4.8049-1.8973-8.6288-4.942-10.7252-9.817-1.3478-3.1342-2.7283-6.2594-3.928-9.4509-1.1678-3.1064-2.1225-6.2929-3.1743-9.443A10.19,10.19,0,0,0,217.2428,181.4164Zm-81.4617,12.5349a28.51,28.51,0,0,0,8.4208,1.7024,33.55,33.55,0,0,0,12.6744-2.3187,9.502,9.502,0,0,0,2.79-1.7347c2.0464-1.7058,4.0147-3.5054,6.0013-5.2819a.4387.4387,0,0,0,.0209-.4263.5865.5865,0,0,0-.4947-.11c-.6687.3017-1.3147.6529-1.9732.9776-1.98.9761-3.9206,2.0445-5.95,2.9026a50.9766,50.9766,0,0,1-16.3227,3.7906C139.2225,193.5767,137.5032,193.7828,135.7812,193.9513Zm80.9356-106.803a5.822,5.822,0,0,0-1.2579.0865c-1.0438.3591-2.0658.7807-3.1021,1.1624-6.9284,2.5513-13.9654,4.6628-21.3717,5.2862a10.0076,10.0076,0,0,0-1.61.2946c-.1106.028-.2339.2866-.2236.43.01.1349.1757.271.2968.38a.5233.5233,0,0,0,.2635.0707c4.584.6448,9.1587,1.0648,13.6726-.46A15.8909,15.8909,0,0,1,205,94.0306,22.1824,22.1824,0,0,0,216.7168,87.1483ZM87.9238,131.0535a3.09,3.09,0,0,0,.534-.0508q2.6551-.7181,5.3054-1.4534a19.0729,19.0729,0,0,0,8.7961-5.9437,57.336,57.336,0,0,0,4.5986-6.5268,1.2192,1.2192,0,0,0,.14-.5169.336.336,0,0,0-.1037-.2337c-.05-.0512-.172-.1065-.2117-.0811a5.5964,5.5964,0,0,0-.8787.6176c-2.3226,2.2266-4.6124,4.4877-6.9539,6.6941a24.5531,24.5531,0,0,1-5.9241,3.998c-1.8009.9034-3.5618,1.8871-5.3288,2.8566-.1123.0616-.14.3057-.1692.4715C87.72,130.9282,87.8546,130.9965,87.9238,131.0535Zm13.0338,74.7708c3.7078,1.05,7.071.5315,10.4391.1691,3.9779-.4279,6.9174-2.6962,9.6492-5.3522a.4217.4217,0,0,0,.0919-.2445c-.1445-.0888-.3132-.2265-.4572-.2084a2.2813,2.2813,0,0,0-.767.2566,48.3926,48.3926,0,0,1-15.179,4.6661C103.5758,205.3,102.426,205.5452,100.9576,205.8244ZM54.7464,152.8888c2.6649.2411,4.759.5089,6.8608.6017a12.9623,12.9623,0,0,0,8.0071-2.5263,25.1877,25.1877,0,0,0,3.218-3.0069c.1329-.1317.0686-.4625.0956-.7011a1.3148,1.3148,0,0,0-.4731.0772,29.0623,29.0623,0,0,1-8.6246,3.5921c-1.9623.4587-3.9822.6756-5.98.9754A6.5311,6.5311,0,0,0,54.7464,152.8888Zm17.72,90.6767a13.1045,13.1045,0,0,0,8.48-3.954c1.29-1.2937,2.4177-2.75,3.6054-4.1443a1.08,1.08,0,0,0,.16-.5019.3264.3264,0,0,0-.1014-.2263c-.0513-.0552-.1681-.1265-.2074-.1043a5.97,5.97,0,0,0-1.151.7036A27.825,27.825,0,0,1,70.78,241.9877a5.1993,5.1993,0,0,0-1.0321.3576.5958.5958,0,0,0-.2583.4313c-.01.1266.1249.3672.2253.3845C70.6129,243.3155,71.5178,243.4316,72.4665,243.5655ZM43.5772,195.76a16.59,16.59,0,0,0,8.8155-.7215,3.7851,3.7851,0,0,0,1.2026-.6459,13.0283,13.0283,0,0,0,4.04-5.9123c-1.3692,1.0277-2.3209,1.8231-3.3531,2.4946a34.4018,34.4018,0,0,1-3.3439,1.8925c-1.225.6141-2.4791,1.18-3.7543,1.6811C46.0052,195.011,44.7814,195.36,43.5772,195.76ZM88.188,349.2365c-.6184-.0214-1.2372-.0665-1.8552-.0569-.51.0079-1.0188.0805-1.5281.1245A4.817,4.817,0,0,0,88.188,349.2365Z"/></g></g></svg>