<?xml version="1.0" encoding="utf-8"?>
<!-- Generator: Adobe Illustrator 21.1.0, SVG Export Plug-In . SVG Version: 6.00 Build 0)  -->
<svg version="1.1" id="Layer_1" xmlns="http://www.w3.org/2000/svg" xmlns:xlink="http://www.w3.org/1999/xlink" x="0px" y="0px"
	 viewBox="0 0 88 86.2" style="enable-background:new 0 0 88 86.2;" xml:space="preserve">
<path d="M19.3,28.7c15.7,4.5,19.2,8,23.7,23.7c0.1,0.4,0.5,0.7,1,0.7s0.8-0.3,1-0.7c4.5-15.7,8-19.2,23.7-23.7
	c0.4-0.1,0.7-0.5,0.7-1s-0.3-0.8-0.7-1C53,22.2,49.5,18.7,45,3c-0.1-0.4-0.5-0.7-1-0.7S43.2,2.6,43,3c-4.5,15.7-8,19.2-23.7,23.7
	c-0.4,0.1-0.7,0.5-0.7,1S18.9,28.5,19.3,28.7z"/>
<path d="M14.7,68.7c0.1,0.4,0.5,0.7,1,0.7c0.4,0,0.8-0.3,1-0.7c2.1-7.2,3.6-8.7,10.7-10.7c0.4-0.1,0.7-0.5,0.7-1s-0.3-0.8-0.7-1
	c-7.2-2.1-8.7-3.6-10.7-10.7c-0.1-0.4-0.5-0.7-1-0.7c-0.4,0-0.8,0.3-1,0.7C12.6,52.5,11.1,54,4,56.1c-0.4,0.1-0.7,0.5-0.7,1
	s0.3,0.8,0.7,1C11.1,60.1,12.6,61.6,14.7,68.7z"/>
<path d="M84,66.7c-8.3-2.4-10-4.1-12.4-12.4c-0.1-0.4-0.5-0.7-1-0.7s-0.8,0.3-1,0.7c-2.4,8.3-4.1,10-12.4,12.4
	c-0.4,0.1-0.7,0.5-0.7,1s0.3,0.8,0.7,1c8.3,2.4,10,4.1,12.4,12.4c0.1,0.4,0.5,0.7,1,0.7s0.8-0.3,1-0.7C74,72.7,75.8,71,84,68.6
	c0.4-0.1,0.7-0.5,0.7-1S84.5,66.8,84,66.7z"/>
</svg>
