<svg xmlns="http://www.w3.org/2000/svg" viewBox="0 0 126.8456 129.126"><title>icon-brand-system</title><g id="Layer_2" data-name="Layer 2"><g id="Layer_1-2" data-name="Layer 1"><path d="M63.4956,10.8247a.3025.3025,0,0,0-.0169-.1238C63.4808,10.79,63.4891,10.85,63.4956,10.8247Z"/><path d="M83.2488,22.9615a8.428,8.428,0,0,1-2.9427-3.2808,25.3659,25.3659,0,0,0-.2781,3.5341c.0013.7574.0424,1.5111.1078,2.26.0332.3745.0845.7481.1315,1.1185a3.2877,3.2877,0,0,0,.2073.7338,1.5308,1.5308,0,0,0,1.3511.9818l1.1978-.0239a16.4847,16.4847,0,0,0,3.5547-.2524,24.5753,24.5753,0,0,1,.926-3.6749,8.0251,8.0251,0,0,1-1.2612-.1549A8.61,8.61,0,0,1,83.2488,22.9615Z"/><path d="M108.5217,24.2144,108.93,6.2958S104.5068.55,100.1144.0675s-9.2776,1.7811-9.2776,1.7811L89.43,9.3917S76.5929,1.6463,63.0936,2.1254C50.9857,2.5547,40.4649,5.1963,31.75,13.8625c-5.3476,5.3184-8.3473,13.4475-4.9332,18.74,0,0-25.1625,23.4916-26.6772,48.2786a81.0193,81.0193,0,0,0,9.809,43.31s28.8687,11.5159,54.4279-.6386S99.6431,96.0583,99.6431,96.0583a17.209,17.209,0,0,0,14.0117-2.5841c6.9444-4.8053,16.4965-16.2046,12.0561-38.9874S108.5217,24.2144,108.5217,24.2144Zm-73.6035,29.48a127.7137,127.7137,0,0,1,8.6267-11.3952A77.62,77.62,0,0,1,53.7442,32.242a.77.77,0,0,1,1.0506,1.1209l-.0062.0069c-3.1832,3.4481-6.2183,6.99-9.0472,10.7118-1.4275,1.8475-2.7966,3.7442-4.169,5.6383-1.3379,1.9211-2.6971,3.8277-4.0041,5.7774L29.689,67.2226A90.486,90.486,0,0,0,22.3485,79.11a.6319.6319,0,0,1-1.1811-.4355c1.2747-4.6866,3.7214-8.9319,6.1313-12.98C29.7352,61.6447,32.226,57.6138,34.9181,53.6945ZM8.4146,71.8a35.7112,35.7112,0,0,1,1.8781-5.1648.7815.7815,0,0,1,1.4885.3808c-.114,1.8239-.3527,3.6033-.602,5.3783-.2431,1.7759-.54,3.5345-.8406,5.2942-.2783,1.763-.6345,3.5125-1.0046,5.2655a48.77,48.77,0,0,1-1.405,5.2489.6473.6473,0,0,1-1.2541-.1208,29.3679,29.3679,0,0,1-.1524-5.51,43.3933,43.3933,0,0,1,.6588-5.4365A50.7577,50.7577,0,0,1,8.4146,71.8ZM2.4781,84.849a10.401,10.401,0,0,1-.1116-2.4681A12.4935,12.4935,0,0,1,2.76,79.9415a8.67,8.67,0,0,1,.9762-2.3306.8326.8326,0,0,1,1.5132.2352l.0033.0129a12.6568,12.6568,0,0,1,.33,2.393,22.2843,22.2843,0,0,1-.0035,2.3122,15.9037,15.9037,0,0,1-.26,2.2987,9.5481,9.5481,0,0,1-.74,2.3457l-.0042.0079a.7123.7123,0,0,1-1.254.0525A7.1327,7.1327,0,0,1,2.4781,84.849Zm24.6269,34.4577a8.1893,8.1893,0,0,1-.1976,3.7615.64.64,0,0,1-1.2469-.1431l-.0017-.0211a12.0482,12.0482,0,0,0-2.2021-5.74,25.1345,25.1345,0,0,0-4.2149-4.7063,26.2219,26.2219,0,0,0-5.2463-3.5934,10.7859,10.7859,0,0,0-5.856-1.4209l-.0615.0069a.7731.7731,0,0,1-.4056-1.4714,7.7576,7.7576,0,0,1,3.8129-.5677,13.6078,13.6078,0,0,1,3.6345.8573,20.5467,20.5467,0,0,1,6.2258,3.7723,18.652,18.652,0,0,1,4.57,5.7062A12.7182,12.7182,0,0,1,27.1049,119.3067ZM13.19,85.0219a.6431.6431,0,0,1-1.2152-.33,28.0541,28.0541,0,0,1,1.1378-6.1341,37.55,37.55,0,0,1,2.2525-5.8123,41.6943,41.6943,0,0,1,3.0883-5.415,32.5094,32.5094,0,0,1,3.922-4.838.7788.7788,0,0,1,1.2485.896C22.73,65.22,21.79,66.9863,20.89,68.7676c-.8947,1.783-1.7846,3.5575-2.63,5.3544l-2.4874,5.4224C14.9389,81.3591,14.1293,83.191,13.19,85.0219Zm30.3674,17.4915a25.8474,25.8474,0,0,1-2.95,2.7442c-1.0287.8537-2.111,1.6309-3.2129,2.3784a34.7737,34.7737,0,0,1-3.4259,2.0568,20.3089,20.3089,0,0,1-3.7442,1.5472.6569.6569,0,0,1-.6952-1.0381l.0208-.0267a20.6414,20.6414,0,0,1,2.87-2.8641,33.94,33.94,0,0,1,3.1888-2.354c1.1029-.7233,2.2252-1.4172,3.4015-2.0339a26.0367,26.0367,0,0,1,3.6647-1.6678l.0339-.0116a.7885.7885,0,0,1,.8486,1.27Zm-16.6387-2.275c1.5479-2.239,3.1639-4.3776,4.7464-6.5341,1.5971-2.1452,3.1606-4.3038,4.7183-6.4674,1.5488-2.1706,3.05-4.3734,4.5485-6.5878l4.4712-6.7042a.7739.7739,0,0,1,1.3717.6919l-.0024.0057a54.6951,54.6951,0,0,1-3.4211,7.4717,69.031,69.031,0,0,1-4.3539,6.9775,64.2561,64.2561,0,0,1-5.1428,6.4173,47.4751,47.4751,0,0,1-6.0248,5.5994.6376.6376,0,0,1-.9111-.87ZM50.7875,84.8422a43.9374,43.9374,0,0,1-4.1372,6.51,53.7938,53.7938,0,0,1-5.0885,5.8158,51.0805,51.0805,0,0,1-5.8587,5.0387,61.1947,61.1947,0,0,0-5.901,4.473l-.009.0086a.6377.6377,0,0,1-.9987-.7639,23.2319,23.2319,0,0,1,5.1077-5.9106c1.8377-1.682,3.629-3.3916,5.4041-5.1227,1.7652-1.7414,3.4788-3.5317,5.174-5.3534,1.6986-1.8191,3.3344-3.7011,5.0408-5.5664l.0044-.0047a.7749.7749,0,0,1,1.2621.8757Zm4.6277-33.6607c-2.7609,3.4254-5.4911,6.8451-8.1114,10.3438-2.6161,3.5015-5.1543,7.0533-7.5749,10.6849q-3.6173,5.4547-6.9835,11.08c-2.2534,3.7463-4.4038,7.5583-6.5975,11.3845A.6327.6327,0,0,1,25,94.1567a91.6264,91.6264,0,0,1,5.265-12.2447,114.4172,114.4172,0,0,1,6.8-11.485A119.7121,119.7121,0,0,1,45.09,59.7636a101.9814,101.9814,0,0,1,9.206-9.6363.7709.7709,0,0,1,1.1189,1.0542ZM58.93,37.1446q-5.5469,6.3736-10.6489,13.0526c-3.3869,4.4655-6.6187,9.04-9.6525,13.7436q-4.5367,7.0644-8.5743,14.4417c-2.6992,4.9132-5.21,9.933-7.6719,15.0111a.6314.6314,0,0,1-1.1718-.4614,115.23,115.23,0,0,1,6.3206-15.8489A136.5382,136.5382,0,0,1,35.9374,62.2,141.2981,141.2981,0,0,1,46.0693,48.4345,126.74,126.74,0,0,1,57.83,36.0719.77.77,0,0,1,58.93,37.1446Zm47.5431,42.5229a15.6557,15.6557,0,0,1,.178,1.9494,14.7894,14.7894,0,0,1-.0127,2.01,19.38,19.38,0,0,1-.754,3.87,16.1617,16.1617,0,0,1-3.9282,6.7661.6281.6281,0,0,1-.92-.8545l.0409-.0474a13.4215,13.4215,0,0,0,1.8783-2.9829,16.2614,16.2614,0,0,0,1.1929-3.3574,17.5627,17.5627,0,0,0,.46-3.5144,13.1017,13.1017,0,0,0-.1018-1.7342c-.0733-.5894-.1277-1.1774-.2548-1.7729a50.1879,50.1879,0,0,0-4.845-13.7408,73.0712,73.0712,0,0,0-7.8884-12.348c-.7555-.962-1.5755-1.8741-2.359-2.8137-.7683-.9547-1.6291-1.8271-2.4833-2.705L85.4,47.0714l-.636-.6633-.6746-.6244-2.7049-2.4888c-.4411-.4275-.9207-.81-1.4012-1.1914l-1.433-1.1543c-.9689-.7517-1.8769-1.583-2.9071-2.2567-2.0234-1.3912-3.9723-2.89-6.102-4.1347-1.0493-.6415-2.0788-1.3236-3.1451-1.9319l-3.2356-1.751c-1.0621-.6239-2.1944-1.0742-3.2956-1.6059l-1.662-.7727c-.5637-.2294-1.1369-.4284-1.7045-.6435a32.8438,32.8438,0,0,0-14.0846-2.4273,20.23,20.23,0,0,0-6.8075,1.8824,25.1985,25.1985,0,0,0-5.8841,4.1717A.7691.7691,0,0,1,28.65,30.3782,24.7326,24.7326,0,0,1,34.6952,25.56a22.3679,22.3679,0,0,1,7.4584-2.4534,34.562,34.562,0,0,1,15.2953,2.1156A68.533,68.533,0,0,1,71.1734,31.915c2.2057,1.257,4.2617,2.7636,6.3521,4.21,1.0666.696,2.0148,1.5533,3.022,2.3308l1.4906,1.1932c.4993.395.9974.7913,1.4573,1.2332A82.31,82.31,0,0,1,93.9906,51.981l2.26,3.0906c.7311,1.0455,1.3821,2.1471,2.0759,3.2175.7141,1.0578,1.2754,2.2118,1.91,3.3177.6444,1.1021,1.1784,2.2644,1.72,3.4214A52.5845,52.5845,0,0,1,106.4734,79.6675Zm.1861-48.8909a15.3064,15.3064,0,0,1-4.7844.8052,9.292,9.292,0,0,1-4.975-1.354,8.9058,8.9058,0,0,1-3.403-4.0819,10.6242,10.6242,0,0,1-.75-2.5262c-.0122-.0713-.0195-.1438-.03-.2155a16.6429,16.6429,0,0,1-3.31.8733c-.2023.0277-.4086.0465-.6156.0631a.6029.6029,0,0,1,.0062.0859,36.6564,36.6564,0,0,0-.2544,4.6175,11.0131,11.0131,0,0,0,.2493,2.1282,4.0006,4.0006,0,0,0,.7326,1.6172,3.7087,3.7087,0,0,0,3.1282.8394,6.7235,6.7235,0,0,0,3.4742-1.32,1.5823,1.5823,0,0,1,2.5806,1.498l-.0058.0317c-.3824,1.972-.9211,3.7269-1.175,5.4715a11.2539,11.2539,0,0,0-.1445,2.4316,3.3992,3.3992,0,0,0,.2008.9342,1.63,1.63,0,0,0,.1692.3258,1.1854,1.1854,0,0,0,.1.1264.7693.7693,0,0,0,.1459.1452,7.4145,7.4145,0,0,0,4.372,1.5713,9.76,9.76,0,0,0,4.9665-.9536l.0232-.0111a.7716.7716,0,0,1,.8325,1.2874,10.069,10.069,0,0,1-5.82,2.1374,9.4427,9.4427,0,0,1-6.2836-1.7538,2.8709,2.8709,0,0,1-.3837-.3289,4.2378,4.2378,0,0,1-.3639-.4113,4.7223,4.7223,0,0,1-.5416-.9031,6.3492,6.3492,0,0,1-.4995-1.813,11.9542,11.9542,0,0,1,.0733-3.24c.1229-.8641.2941-1.7019.4775-2.52a11.0445,11.0445,0,0,1-2.0122.2824,8.07,8.07,0,0,1-2.8662-.3723,5.0531,5.0531,0,0,1-2.5887-1.891,6.0548,6.0548,0,0,1-.9624-2.7841,10.8156,10.8156,0,0,1-.0636-1.36c-.1541.0769-.308.1546-.4663.2207a12.5834,12.5834,0,0,1-2.5923.7176l-.61.1051-.2982.0518c-.109.0151-.1657.0316-.3508.0473a4.2615,4.2615,0,0,1-1.8742-.2227,4.5186,4.5186,0,0,1-2.6365-2.5053,5.7823,5.7823,0,0,1-.4314-1.6413c-.0466-.4483-.0731-.8935-.0811-1.341a14.7334,14.7334,0,0,1,.1864-2.6731,13.7887,13.7887,0,0,1,.6672-2.5914,10.224,10.224,0,0,1-2.215.7816,7.0353,7.0353,0,0,1-2.744.0976,4.4738,4.4738,0,0,1-1.57-.6,4.5693,4.5693,0,0,1-1.2339-1.1994,6.6127,6.6127,0,0,1-1.0313-2.68A10.6043,10.6043,0,0,1,68.96,14.25a14.0353,14.0353,0,0,1,.48-2.82c-.5107.2168-1.0273.4147-1.548.5975a31.1557,31.1557,0,0,1-3.6652,1.0021l-.464.0989-.2332.0458-.3323.0447a3.0752,3.0752,0,0,1-.9277-.032A2.2813,2.2813,0,0,1,60.97,12.45a2.2178,2.2178,0,0,1-.5227-1.2926,3.3662,3.3662,0,0,1,.0314-.7417A7.82,7.82,0,0,1,60.72,9.3175,6.6824,6.6824,0,0,1,63.13,5.77a.7906.7906,0,0,1,1.191.9495l-.0193.0446a9.879,9.879,0,0,0-.8107,3.1174c-.0006.0059,0,.0118,0,.0181l.14-.0323a29.4333,29.4333,0,0,1,3.639-.6119,19.558,19.558,0,0,1,3.3119-.0662.782.782,0,0,1,.5351.0276c.0151.0066.0265.0177.0411.0253a.6539.6539,0,0,1,.5446.7141.6444.6444,0,0,1-.09.2493c.1236,1.406.17,2.7307.2965,4.009a9.1407,9.1407,0,0,0,.847,3.4618,1.2692,1.2692,0,0,0,.8223.67,5.5969,5.5969,0,0,0,1.7378.1991,13.1994,13.1994,0,0,0,3.885-.6749.7668.7668,0,0,1,.3963-.19,8.5343,8.5343,0,0,1,.03-3.7322c-.2363.0157-.4743.0286-.7164.0327a8.4763,8.4763,0,0,1-3.4151-.56,5.5518,5.5518,0,0,1-2.7289-2.4145,4.52,4.52,0,0,1-.5738-1.7807,3.5888,3.5888,0,0,1,.3318-1.8917.77.77,0,0,1,1.4315.5539l-.0087.0277c-.3987,1.3747.9481,2.944,2.3341,3.3158a6.6181,6.6181,0,0,0,2.4841.1557,26.8146,26.8146,0,0,0,2.7685-.5064,1.3884,1.3884,0,0,1,1.53,1.99l-.0417.082a5.9177,5.9177,0,0,0-.4248,4.0967A5.5557,5.5557,0,0,0,84.99,20.286a5.8649,5.8649,0,0,0,4.0087.8259A20.983,20.983,0,0,0,93.62,19.7684c.0488-.0209.1087-.0437.1865-.07a1.6062,1.6062,0,0,1,.8058-.03,1.5105,1.5105,0,0,1,.99,2.1846c-.0107.1093-.0174.2353-.0182.3667a7.3878,7.3878,0,0,0,.0608.9624,9.7381,9.7381,0,0,0,.4514,1.9248A6.6722,6.6722,0,0,0,98.2808,28.21a7.6869,7.6869,0,0,0,3.7175,1.4219,17.0465,17.0465,0,0,0,4.38-.0831l.0048-.0007a.6321.6321,0,0,1,.2763,1.2285Z"/></g></g></svg>