<?xml version="1.0" encoding="utf-8"?>
<!-- Generator: Adobe Illustrator 21.1.0, SVG Export Plug-In . SVG Version: 6.00 Build 0)  -->
<svg version="1.1" id="Layer_1" xmlns="http://www.w3.org/2000/svg" xmlns:xlink="http://www.w3.org/1999/xlink" x="0px" y="0px"
	 viewBox="0 0 474.9 529" style="enable-background:new 0 0 474.9 529;" xml:space="preserve">
<style type="text/css">
	.st0{enable-background:new    ;}
</style>
<path d="M348.8,485.7c-66.7,0-156.1,0-222.7,0c-20.6,0-37.7,15.9-39.5,41.9h301.7C386.5,501.6,369.4,485.7,348.8,485.7z"/>
<path d="M329.1,447.9H145.8c-16.4,0-16,24.6,0,24.6h183.4C345.5,472.5,345.1,447.9,329.1,447.9z"/>
<path d="M282.1,221c-22.2,0-67.1,0-89.3,0c-19.4,0-19.3,28.5-1.2,29.6h91.7C301.8,249.4,301,221,282.1,221z"/>
<polygon points="273.4,263.8 201.6,263.8 160.8,434.7 314.1,434.7 "/>
<path d="M237.5,113.8l12.8-39.1c0.5-1.7,1.9-3.3,3.8-3.8l41.5-12.8L254,45.3c-1.7-0.5-3.1-1.7-3.8-3.8L237.5,0l-12.8,41.5
	c-0.5,1.7-1.9,3.3-3.8,3.8l-41.5,12.8L221,70.8c1.7,0.5,3.3,1.9,3.8,3.8L237.5,113.8z"/>
<path d="M200.7,122.2c-0.9,12-7.9,22.7-18.3,28.4l19.5,57.1h71.2l19.5-57.1c-10.4-5.7-17.4-16.4-18.3-28.4H200.7z"/>
<text transform="matrix(1 0 0 1 73.3 10091.8359)" style="font-family:'HelveticaNeue-BoldOutline'; font-size:5px;">Created by joni</text>
<text transform="matrix(1 0 0 1 73.3 10096.8359)" style="font-family:'HelveticaNeue-BoldOutline'; font-size:5px;">from the Noun Project</text>
</svg>
