<?xml version="1.0" encoding="utf-8"?>
<!-- Generator: Adobe Illustrator 21.1.0, SVG Export Plug-In . SVG Version: 6.00 Build 0)  -->
<svg version="1.1" id="Layer_1" xmlns="http://www.w3.org/2000/svg" xmlns:xlink="http://www.w3.org/1999/xlink" x="0px" y="0px"
	 viewBox="0 0 102.7 92.9" style="enable-background:new 0 0 102.7 92.9;" xml:space="preserve">
<g>
	<polygon points="36.3,61.2 22.2,52.8 22.2,68.7 50.4,85.6 50.4,52.8 	"/>
	<polygon points="66.3,61.2 52.2,52.8 52.2,85.6 80.4,68.7 80.4,52.8 	"/>
	<polygon points="52.2,49.7 65.4,41.8 79.5,33.3 65.4,24.8 52.2,16.9 	"/>
	<polygon points="23.1,33.3 37.2,41.8 50.4,49.7 50.4,16.9 37.2,24.8 	"/>
	<polygon points="8.1,42.3 36.3,59.2 49.6,51.3 21.4,34.3 	"/>
	<polygon points="94.5,42.3 81.2,34.3 53,51.3 66.3,59.2 	"/>
	<polygon points="21.4,32.3 49.6,15.3 36.3,7.4 8.1,24.3 	"/>
	<polygon points="81.2,32.3 94.5,24.3 66.3,7.4 53,15.3 	"/>
</g>
</svg>
