<?xml version="1.0" encoding="utf-8"?>
<!-- Generator: Adobe Illustrator 21.1.0, SVG Export Plug-In . SVG Version: 6.00 Build 0)  -->
<svg version="1.1" id="Layer_1" xmlns="http://www.w3.org/2000/svg" xmlns:xlink="http://www.w3.org/1999/xlink" x="0px" y="0px"
	 viewBox="0 0 100 125" style="enable-background:new 0 0 100 125;" xml:space="preserve">
<g>
	<polygon points="65,64 50,55 50,55 50,55 35,64 20.5,55.3 20.5,72.2 50,89.9 79.5,72.2 79.5,55.3 	"/>
	<polygon points="79.1,36.5 64.5,27.8 50,19.1 35.5,27.8 20.9,36.5 35.5,45.3 50,54 64.5,45.3 	"/>
	<polygon points="35,63 49.2,54.5 20.1,37 6,45.5 	"/>
	<polygon points="94,45.5 79.9,37 50.8,54.5 65,63 	"/>
	<polygon points="20.1,36 49.2,18.6 35,10.1 6,27.6 	"/>
	<polygon points="79.9,36 94,27.6 65,10.1 50.8,18.6 	"/>
</g>
</svg>
