<?xml version="1.0" encoding="utf-8"?>
<!-- Generator: Adobe Illustrator 21.1.0, SVG Export Plug-In . SVG Version: 6.00 Build 0)  -->
<svg version="1.1" id="Layer_1" xmlns="http://www.w3.org/2000/svg" xmlns:xlink="http://www.w3.org/1999/xlink" x="0px" y="0px"
	 viewBox="0 0 83.7 84" style="enable-background:new 0 0 83.7 84;" xml:space="preserve">
<polygon points="78.2,22.5 61.1,5.5 56.9,5.5 52.7,9.8 73.9,31 78.2,26.7 "/>
<path d="M11.6,72.1c-1.1-1.1-3-2.4-5.2-1.4l-1.1,7.7l7.7-1.1C14,75.1,12.7,73.1,11.6,72.1z"/>
<path d="M26,62.7c-3.1-0.3-6.2-0.6-9.3-0.8c-0.3-3.1-0.6-6.2-0.8-9.3l-5.4-0.5c-0.5,0.5-1,1-1.6,1.6L6.7,68.4c4.5-1,9.5,4,8.5,8.5
	l14.8-2.1l2.3-2.3l-5.4-0.5C26.6,69,26.3,65.8,26,62.7z"/>
<rect x="54.2" y="10" transform="matrix(0.7071 -0.7071 0.7071 0.7071 -0.4637 48.8317)" width="9" height="30"/>
<polygon points="43.5,19 12.3,50.2 17.7,50.7 18.6,60 27.9,60.9 28.7,70.2 34.2,70.7 64.7,40.2 "/>
</svg>
