<svg xmlns="http://www.w3.org/2000/svg" viewBox="0 0 250.0591 162.3789"><title>icon-prin-design</title><g id="Layer_2" data-name="Layer 2"><g id="Layer_1-2" data-name="Layer 1"><path d="M249.5284,20.7147l-8.537-14.87c-4.406-3.8545-15.972-8.8125-46.572-3.58-28.3958,4.854-56.2251,21.8018-75.7118,36.1523a56.0606,56.0606,0,0,0-13.3212-19.8916s-8.261-5.7832-14.595-9.4321-12.667-4.832-20.378-4.7393c-12.392.1484-24.7841,9.7651-29.466,13.0693s-26.712,19.001-37.514,61.41,6.672,66.6416,14.107,73.251,21.204,12.668,41.858,9.3638,38.002-22.8569,50.119-43.5112a90.0962,90.0962,0,0,0,9.4689-23.5654,80.5111,80.5111,0,0,0,19.8391-.957c15.146-2.7529,41.307-6.8828,79.585-32.769S249.5284,20.7147,249.5284,20.7147ZM125.0417,41.8642A141.1189,141.1189,0,0,1,141.75,30.23a187.862,187.862,0,0,1,18.054-9.3481c12.409-5.3691,25.124-10.16,38.471-12.8833a106.0537,106.0537,0,0,1,20.278-2.3228,63.9688,63.9688,0,0,1,20.164,3.0889l.027.0093a.9633.9633,0,0,1-.5239,1.8525,65.7029,65.7029,0,0,0-19.604-1.9395,103.55,103.55,0,0,0-19.567,2.835c-3.227.7329-6.412,1.6631-9.603,2.5576-1.593.458-3.162,1.0093-4.744,1.5093-1.58.5078-3.161,1.0107-4.715,1.606l-4.688,1.6958c-1.568.55-3.096,1.2183-4.645,1.8223l-4.631,1.8618c-1.522.665-3.056,1.3052-4.568,1.9912a171.2779,171.2779,0,0,0-34.287,19.9888c-1.9072,1.459-3.7587,2.9893-5.5787,4.5562q-.2845-1.8918-.7032-3.6855Q122.929,43.6034,125.0417,41.8642ZM10.5174,71.9467l.004-.0142A137.472,137.472,0,0,1,22.4794,43.3109c5.113-9.0571,11.755-17.4868,20.281-23.8853a70.83,70.83,0,0,1,13.867-7.625,47.9428,47.9428,0,0,1,15.471-3.7148,31.4244,31.4244,0,0,1,15.723,3.021,29.38,29.38,0,0,1,11.475,10.8667.7728.7728,0,0,1-1.264.8833l-.02-.0249a33.366,33.366,0,0,0-5.137-5.3872c-.485-.3818-.946-.79-1.444-1.1489l-1.552-.9883-.772-.4927-.825-.4-1.637-.8081a29.6644,29.6644,0,0,0-14.298-2.0493,47.02,47.02,0,0,0-14.244,3.7954,73.3479,73.3479,0,0,0-13.019,7.2446,69.8135,69.8135,0,0,0-10.832,10.2285l-2.391,2.9L29.63,38.7645c-.768.9951-1.418,2.0791-2.134,3.1152l-1.047,1.5762-.983,1.6191A170.8743,170.8743,0,0,0,12.2994,72.56a.943.943,0,0,1-1.782-.6133ZM24.91,135.143l.006.0278a.79.79,0,0,1-1.527.3975,21.0343,21.0343,0,0,1-.199-10.2725,19.0289,19.0289,0,0,1,.716-2.5366,10.27,10.27,0,0,1,1.277-2.5249,6.3482,6.3482,0,0,1,.525-.624l.341-.3032a1.8717,1.8717,0,0,0,.261-.2339,1.7784,1.7784,0,0,1,.2271-.2363c.095-.1157.2-.2759.3-.4106a8.7,8.7,0,0,0,.599-.9263c.202-.3179.39-.6606.574-1.0146,1.486-2.793,2.758-5.8223,3.998-8.8223.611-1.5078,1.203-3.0269,1.761-4.5508l.828-2.28c.25-.7339.5359-1.5669.679-2.1548a10.2987,10.2987,0,0,1,.6187-2.1191,2.81,2.81,0,0,1-.3127.0649,3.0358,3.0358,0,0,1-1.698-.2759c-.199-.106-.396-.2241-.583-.3491a4.8363,4.8363,0,0,1-.407-.35c-.11-.1035-.291-.2754-.334-.3271l-.202-.2173-.406-.43-.863-.8921a6.46,6.46,0,0,1-.565-.66,4.29,4.29,0,0,1-.5421-1.0059c-.1219-.3232-.178-.55-.245-.7852l-.0106-.04a3.2063,3.2063,0,0,1-.2623-.2139,2.846,2.846,0,0,1-.393-.4619,3.17,3.17,0,0,1-.224-.4009,4.1272,4.1272,0,0,1-.2271-.6294l-.1-.4648c-.042-.271-.083-.5449-.1-.7778-.045-.4839-.06-.9272-.073-1.37-.02-1.7432-.047-3.2-.109-4.9263a11.3712,11.3712,0,0,1,.237-2.9365c.105-.4893.237-.92.365-1.35a6.63,6.63,0,0,0,.219-.9,2.0046,2.0046,0,0,0,.007-.6313,5.6423,5.6423,0,0,0-.234-.8638c-.248-.729-.548-1.584-.787-2.4189-.469-1.6924-.851-3.2109-1.272-4.8281l-.004-.0151a1.9707,1.9707,0,0,1-.06-.5728l.331-6.97a53.2094,53.2094,0,0,1,.932-7.1519,27.0159,27.0159,0,0,1,2.402-7.0459,17.72,17.72,0,0,1,1.028-1.6821l.984-1.3911c.647-.93,1.267-1.8682,1.848-2.813.582-.9478,1.101-1.9028,1.61-2.9229.515-1.0269,1.037-2.103,1.669-3.167a21.862,21.862,0,0,1,4.768-5.6621,23.0692,23.0692,0,0,1,9.743-4.8638l3.377-.832A.964.964,0,0,1,55.93,24.88l-3.307,1.0771a24.6631,24.6631,0,0,0-3.109,1.1821,20.023,20.023,0,0,0-9.291,8.77c-.516.95-.971,1.978-1.454,3.041-.484,1.0732-1.029,2.1777-1.621,3.228-.588,1.0562-1.224,2.0659-1.873,3.0562l-.985,1.4736a14.1261,14.1261,0,0,0-.744,1.3042,23.6188,23.6188,0,0,0-1.885,6.1279,49.4233,49.4233,0,0,0-.76,6.6362l-.213,6.6064,1.193,4.4385c.216.7471.465,1.4448.749,2.2729a9.4028,9.4028,0,0,1,.397,1.519A6.0841,6.0841,0,0,1,33.03,77.44a10.6732,10.6732,0,0,1-.35,1.5c-.106.3579-.212.7148-.277,1.0317a7.2947,7.2947,0,0,0-.137,1.9712c.069,1.564.103,3.397.0959,4.9458.007.3789.018.76.047,1.0952.006.1172.0187.2144.0312.3076a2.7234,2.7234,0,0,1,.4019.3779,3.4041,3.4041,0,0,1,.307.4375c.061.1167.119.2368.172.3579a4.9664,4.9664,0,0,1,.188.57l.071.2852c.043.1621.09.334.115.395.03.0737.014.043.037.08a2.7843,2.7843,0,0,0,.238.2754l.846.89.3951.4277a6.7659,6.7659,0,0,1,.78-.7637,2.6913,2.6913,0,0,1,2.048-.61,2.74,2.74,0,0,1,1.732,1.0811,3.6206,3.6206,0,0,1,.751,2.4229,5.652,5.652,0,0,1-.424,1.78c-.181.4609-.362.853-.524,1.2148-.157.354-.297.6851-.403.9878-.046.1494-.101.2993-.13.4341l-.152.6069c-.274,1.0039-.559,1.7173-.854,2.5352-.302.7832-.598,1.5693-.919,2.3369-.632,1.5449-1.293,3.07-1.976,4.5889a84.7858,84.7858,0,0,1-4.554,8.9663c-.215.3667-.443.7329-.699,1.0991a11.41,11.41,0,0,1-.802,1.105c-.155.187-.288.3647-.464.5581-.22.207-.448.4077-.68.5977l-.205.1719-.13.0942a3.2305,3.2305,0,0,0-.29.3013,11.6275,11.6275,0,0,0-1.837,3.9668,23.0833,23.0833,0,0,0-.81,4.6318A16.76,16.76,0,0,0,24.91,135.143Zm1.2382-8.1421a.96.96,0,0,1,1.067-.6377l.118.02a3.62,3.62,0,0,0,1.493-.2119,13.2716,13.2716,0,0,0,1.736-.6548c1.162-.5327,2.328-1.1411,3.472-1.8032,2.302-1.3037,4.55-2.7666,6.818-4.2061l6.803-4.4058a68.2463,68.2463,0,0,1,7.216-4.2148,27.5387,27.5387,0,0,1,5.51-2.0176,8.9761,8.9761,0,0,1-2.44-1.7466,16.0312,16.0312,0,0,1-2.083-2.627l-.446-.6924-.408-.8066a9.33,9.33,0,0,1-.624-1.6763,17.565,17.565,0,0,1-.37-6.7368,41.7321,41.7321,0,0,1,1.276-6.34l.879-2.9951c.052-.2012.141-.4941.159-.6094.021-.0566.042-.28.095-.6719l.042-.2129a2.0034,2.0034,0,0,1,.095-.3242,2.6529,2.6529,0,0,1,.107-.2466,1.26,1.26,0,0,1,.078-.145,2.2893,2.2893,0,0,1,.179-.2451,2.0131,2.0131,0,0,1,1.01-.6621,2.2944,2.2944,0,0,1,.2661-.06l.13-.0151c.087-.0068.174-.0107.261-.0107l.216.0107.156.0093a1.39,1.39,0,0,0,.315-.04,5.2642,5.2642,0,0,0,1.035-.376c.4-.1772.877-.415,1.31-.6309.885-.4473,1.759-.9253,2.605-1.4272s1.667-1.0327,2.425-1.5937a12.1675,12.1675,0,0,0,1.939-1.7222c.129-.14.192-.2632.285-.3809a2.446,2.446,0,0,0,.157-.3472,3.92,3.92,0,0,0,.228-1.0059,4.8463,4.8463,0,0,0-.028-1.0869,5.15,5.15,0,0,0-.106-.5459c-.035-.1562-.119-.3994-.129-.4263l-.053-.145a1.971,1.971,0,0,1,.963-2.439c.031-.0161.246-.1519.368-.2451a4.86,4.86,0,0,0,.403-.3418,3.2943,3.2943,0,0,0,.584-.7422,2.7,2.7,0,0,0,.164-.3779,4.6377,4.6377,0,0,0,.139-.4971,1.7275,1.7275,0,0,0,.04-.2739l.031.106a.8631.8631,0,0,0,.09.1919,1.1534,1.1534,0,0,0,.112.1611l.1.1108.079.0752a1.5838,1.5838,0,0,0,.197.15l-.536-2.7388,1.0259-1.4829-.0009-.0083c-.0359-.188-.193-.6519-.2889-1.1812a5.8482,5.8482,0,0,1-.063-1.6826,5.329,5.329,0,0,1,.465-1.71,4.0052,4.0052,0,0,1,1.363-1.5981,6.8124,6.8124,0,0,1,1.357-.6733c.171-.0669.285-.1177.38-.1626l.0132-.0073a2.77,2.77,0,0,0-.2672-1.123,4.1212,4.1212,0,0,0-.389-.6846,5.0521,5.0521,0,0,0-.578-.6572,16.0284,16.0284,0,0,1-1.666-1.8931,9.815,9.815,0,0,1-1.804-5.0356c-.071-.8872-.055-1.6094-.068-2.3721l-.04-2.2573c-.038-1.4976-.112-2.9849-.27-4.4419a16.3228,16.3228,0,0,0-.881-4.127l-.019-.0469a.9634.9634,0,0,1,1.743-.8154,13.0188,13.0188,0,0,1,.9073,2.2017,10.7936,10.7936,0,0,0,.1379-3.2114,20.3075,20.3075,0,0,0-1.387-5.4473c-.184-.4287-.364-.8672-.559-1.2681a2.7713,2.7713,0,0,0-.537-.73,2.5711,2.5711,0,0,0-1.575-.6489,9.7625,9.7625,0,0,0-4.79,1.18,5.7449,5.7449,0,0,0-3.189,3.168,21.2939,21.2939,0,0,0-.915,5.4717,16.5832,16.5832,0,0,1-1.647,6.53,8.8269,8.8269,0,0,1-2.291,2.7461,10.5475,10.5475,0,0,1-2.985,1.6357.9675.9675,0,0,1-.849-1.7271l.0211-.0132a7.9382,7.9382,0,0,0,3.454-3.9019,15.9259,15.9259,0,0,0,.754-5.437,20.7026,20.7026,0,0,1,.802-6.6436A8.5129,8.5129,0,0,1,59.0747,24.1a11.3979,11.3979,0,0,1,3.057-2.124,15.3654,15.3654,0,0,1,3.259-1.2109,10.1487,10.1487,0,0,1,3.781-.2539,6.59,6.59,0,0,1,2.048.605,5.9159,5.9159,0,0,1,1.786,1.3628,6.5424,6.5424,0,0,1,1.143,1.8223c.215.5371.403,1.0557.559,1.5918a19.6552,19.6552,0,0,1,.849,6.582A9.9114,9.9114,0,0,1,73.2655,38.58c.249,1.4009.4339,2.7974.5789,4.1846l.221,2.29c.07.7534.132,1.5513.213,2.1753a6.5652,6.5652,0,0,0,1.398,3.3667,14.8806,14.8806,0,0,0,1.426,1.4443,8.6506,8.6506,0,0,1,.958,1.022,7.7059,7.7059,0,0,1,.789,1.26,5.951,5.951,0,0,1,.674,3.1631,3.3152,3.3152,0,0,1-1.077,2.2012,5.579,5.579,0,0,1-1.449.8647,3.41,3.41,0,0,0-.675.3452c-.07.0659-.045.043-.084.123a1.7713,1.7713,0,0,0-.1.4829,2.0237,2.0237,0,0,0,.04.583c.041.2188.139.4731.281,1.0239a3.7656,3.7656,0,0,1-.1151,2.2573,4.8339,4.8339,0,0,1-.469.8906l-.313.4751-.0588.0889c.0182.1147.0336.2275.0418.332a4.9961,4.9961,0,0,1-.0811,1.269,7.5653,7.5653,0,0,1-.253,1.0039,6.5937,6.5937,0,0,1-.449,1.0469,7.2663,7.2663,0,0,1-1.307,1.7061c-.1087.104-.2269.1929-.3392.291.0265.1406.0626.28.0842.4214a8.8981,8.8981,0,0,1,.059,2.0078,7.9525,7.9525,0,0,1-.444,2.0151,6.4,6.4,0,0,1-.493,1.0586,8.1258,8.1258,0,0,1-.628.8711,14.234,14.234,0,0,1-2.684,2.3975c-.916.6558-1.845,1.2339-2.785,1.7759s-1.892,1.043-2.86,1.5161c-.496.2378-.948.459-1.496.6929a8.672,8.672,0,0,1-1.909.5879c-.0165.0029-.0361.0034-.0529.0063-.0549.1855-.1074.3394-.1631.53l-.973,2.9312a41.6884,41.6884,0,0,0-1.477,5.752,15.6823,15.6823,0,0,0-.108,5.6,6.5169,6.5169,0,0,0,.363,1.2593l.23.6069.337.6489a13.7208,13.7208,0,0,0,1.547,2.3911,6.4871,6.4871,0,0,0,2.011,1.7329,7.3008,7.3008,0,0,0,1.28.5288,9.118,9.118,0,0,1,1.616.6182l.0063.0054a11.6133,11.6133,0,0,1,3.4791.6929,14.3958,14.3958,0,0,1,4.029,2.3037,47.584,47.584,0,0,1,5.695,6.2261,64.8261,64.8261,0,0,1,4.799,6.7114.7919.7919,0,0,1-1.256.9507l-.021-.0229c-1.815-1.937-3.711-3.8721-5.62-5.75-.947-.9512-1.92-1.877-2.887-2.8062a23.0753,23.0753,0,0,0-2.861-2.4761,11.708,11.708,0,0,0-3.077-1.5557,9.0356,9.0356,0,0,0-3.295-.3452,21.0851,21.0851,0,0,0-6.994,2.1753c-2.238,1.0449-4.545,2.5327-6.861,3.8809-2.311,1.394-4.642,2.7949-7.021,4.1318-2.373,1.3521-4.796,2.6372-7.324,3.7881a34.4477,34.4477,0,0,1-3.934,1.5259,14.0565,14.0565,0,0,1-2.152.5054,5.2747,5.2747,0,0,1-2.527-.1421A.961.961,0,0,1,26.1479,127.0009Zm14.8256,29.7764a31.482,31.482,0,0,1-6.918-.9751,29.1525,29.1525,0,0,1-6.491-2.5874,30.4067,30.4067,0,0,1-5.701-3.9565c-.895-.731-1.689-1.563-2.511-2.3652-.762-.854-1.56-1.6821-2.242-2.5952a47.3779,47.3779,0,0,1-3.838-5.6128l-1.602-2.9487-.793-1.4771-.699-1.5249a66.8615,66.8615,0,0,1-4.506-12.6055,62.9233,62.9233,0,0,1-1.851-13.2266,50.7677,50.7677,0,0,1,1.176-13.311.7682.7682,0,0,1,1.506.2969l-.012.0747a59.2012,59.2012,0,0,0,1.835,25.4653A63.9461,63.9461,0,0,0,12.97,131.38l.706,1.44.8,1.3926,1.606,2.7773a44.1709,44.1709,0,0,0,3.705,5.1157c.648.8262,1.402,1.5483,2.101,2.3232.757.7119,1.484,1.458,2.297,2.0991a26.83,26.83,0,0,0,5.108,3.4365,26.3919,26.3919,0,0,0,11.763,2.9795,32.8689,32.8689,0,0,0,6.143-.53,41.3829,41.3829,0,0,0,6.016-1.646,57.1876,57.1876,0,0,0,11.261-5.7329,87.0111,87.0111,0,0,0,18.922-17.186l1.952-2.5449a31.2444,31.2444,0,0,0,1.888-2.5942l1.753-2.6938c.574-.9038,1.204-1.7749,1.697-2.7319,1.021-1.8872,2.169-3.709,3.112-5.6421l1.41-2.9048c.466-.97.964-1.9253,1.354-2.9321a125.1613,125.1613,0,0,0,5.8507-16.5674q1.1241-4.02,2.0323-8.0986c.0237-.1021.0428-.2056.0662-.3076.8427-3.6909,1.4734-7.4282,1.9931-11.1792.0608-.439.1269-.877.1848-1.3164l.363-3.2285.0693-.8657.19-2.3706c.048-.6646.0695-1.3276.0991-1.9917.0664-1.4907.1026-2.979.068-4.4565v-.0356a.9388.9388,0,0,1,1.875-.0884c.0466.6621.0618,1.3208.0878,1.98.0526,1.3354.0731,2.6675.0515,3.9951-.0206,1.2622-.0633,2.522-.1385,3.7788q-.106,1.7717-.2677,3.5391-.1924,1.9709-.4311,3.938c-.3234,2.7061-.7216,5.4033-1.2182,8.084-.0677.3652-.126.7324-.1977,1.0967q-.3247,1.6992-.6934,3.3906-.6708,3.09-1.4857,6.1494a128.3417,128.3417,0,0,1-5.353,15.894c-.382,1.043-.875,2.041-1.336,3.0522l-1.397,3.0288c-.437,1.0229-1.007,1.9829-1.526,2.9692l-1.593,2.938c-.506.9937-1.155,1.9067-1.748,2.853l-1.812,2.8159a33.4658,33.4658,0,0,1-1.957,2.7207l-2.027,2.6733A90.7138,90.7138,0,0,1,66.61,148.2841a57.3709,57.3709,0,0,1-12.076,6.166,45.11,45.11,0,0,1-6.643,1.7749A36.7313,36.7313,0,0,1,40.9734,156.7772Zm67.1418-48.6738a91.0686,91.0686,0,0,1-22.934,33.9316,89.851,89.851,0,0,1-16.63,12.0854,69.9006,69.9006,0,0,1-9.339,4.3169,33.967,33.967,0,0,1-10.097,2.4219.7886.7886,0,0,1-.131-1.5708l.044-.0054a23.914,23.914,0,0,0,4.717-1.1416c1.559-.5293,3.107-1.1084,4.6151-1.793a73.7234,73.7234,0,0,0,8.7729-4.6611,86.8,86.8,0,0,0,15.604-12.2241,91.6593,91.6593,0,0,0,12.565-15.2661,93.28,93.28,0,0,0,5.004-8.5347c1.46-2.959,2.892-5.937,4.067-9.0259a104.5337,104.5337,0,0,0,4.3606-13.9761q.5348-2.2207.9924-4.4722c.0432-.21.09-.4189.132-.63.1606-.7905.3021-1.5845.4538-2.377a165.3355,165.3355,0,0,0,2.4592-17.3862c.0495-.6064.089-1.2129.129-1.82.1208-1.8359.2015-3.6733.2311-5.5107.0175-1.085.0143-2.1689-.0016-3.2524q-.03-2.01-.1364-4.0151c-.0963-1.7637-.2364-3.5244-.43-5.2788-.17-1.4365-.3826-2.8672-.6282-4.2925-.3163-1.8354-.6922-3.66-1.1527-5.4644a60.3836,60.3836,0,0,0-3.254-9.3662.9643.9643,0,0,1,1.733-.8433,57.5841,57.5841,0,0,1,5.035,13.7729q.6851,2.8821,1.166,5.8c.136.9053.2541,1.8125.36,2.7207.1478,1.2705.26,2.5435.3532,3.8174.078,1.0713.1411,2.1436.1833,3.2158q.096,2.4368.0787,4.874-.0168,2.9414-.168,5.875a145.0065,145.0065,0,0,1-2.4733,19.6294c-.0419.22-.0761.4419-.1188.6616-.1148.6289-.24,1.2573-.3661,1.8857q-.3359,1.68-.7211,3.356A104.848,104.848,0,0,1,108.1152,108.1034ZM132.76,92.2475a46.6157,46.6157,0,0,1-12.534-.0688c-.2272-.0371-.4536-.0854-.6805-.127q.2467-1.0774.4711-2.1572c.1984.0454.3948.0972.5944.1392a49.3338,49.3338,0,0,0,12.017.6948l.011-.001a.7628.7628,0,0,1,.121,1.52ZM243.3344,31.202a63.3169,63.3169,0,0,1-8.5581,11.4644l-1.1859,1.332-1.2531,1.2642-2.51,2.5269c-1.75,1.5972-3.4719,3.2378-5.291,4.7588l-2.7479,2.2583c-.918.751-1.822,1.5229-2.79,2.208-1.922,1.3828-3.797,2.8418-5.762,4.166l-5.94,3.9048-6.136,3.5781-1.535.8931-1.576.8159-3.158,1.6177-3.163,1.6084c-1.055.5371-2.151.981-3.225,1.4756l-6.486,2.8623-6.622,2.5146c-4.387,1.751-8.954,2.9785-13.443,4.3975-1.118.3721-2.264.6479-3.411.918l-3.434.832q-3.4275.8459-6.866,1.6187a.7893.7893,0,0,1-.44-1.5127l.041-.0161c4.404-1.5928,8.877-2.91,13.2469-4.5293l6.539-2.4458c1.088-.4087,2.192-.7759,3.2661-1.22l3.211-1.3564,6.4319-2.6733,6.301-2.95c1.047-.498,2.119-.9463,3.145-1.4834l3.079-1.6108,3.083-1.6021,1.546-.793,1.504-.8662A169.36,169.36,0,0,0,222.28,49.8114c.9351-.6841,1.7791-1.4712,2.671-2.2061l2.656-2.2271,2.55-2.3433,1.276-1.1738,1.2289-1.2178a70.4215,70.4215,0,0,0,8.999-10.397l.0381-.0562a.9625.9625,0,0,1,1.635,1.0117ZM169.5171,38.34a1.9918,1.9918,0,0,1,.552-2.7617,2.0357,2.0357,0,0,1,.475-.2334l.019-.0059,9.4951-3.1138.01-.0034a2.0042,2.0042,0,0,1,2.528,1.2793,2.1274,2.1274,0,0,1,.091.439l.17,1.8247a31.8868,31.8868,0,0,1,3.7364-.77,52.8665,52.8665,0,0,1,5.446-.3555c1.7177-.0352,3.4146-.0508,5.1348-.0127,1.7823-.584,3.5594-1.1821,5.3462-1.751l.124-.04a1.3337,1.3337,0,0,1,1.251,2.3018l-4.261,3.5-.2925.24c-.3717,1.1929-.7733,2.3784-1.1644,3.5664a.7916.7916,0,0,1-1.529-.3979c.259-1.3457.502-2.6978.789-4.0381a.8984.8984,0,0,1,.0873-.2324l-.1013.0049c-.54.0259-1.0858.0552-1.63.0835-1.1946.062-2.392.13-3.5792.2241-1.725.1411-3.4579.3052-5.087.5581a36.8367,36.8367,0,0,0-4.848,1.2539c-1.631.5239-3.29,1.09-4.887,1.6792a1.9456,1.9456,0,0,1-.6425.1133c-.0151.0063-.03.0166-.0446.0225-1.754.6709-3.553,1.4453-5.284,2.2549a54.1067,54.1067,0,0,0-5.064,2.6313c-1.611.9741-3.239,2.0649-4.83,3.1587-1.591,1.0991-3.162,2.2744-4.687,3.4282l-.108.082a1.2258,1.2258,0,0,1-.473.2168l-.3415.0728a1.9934,1.9934,0,0,1,.6632.9365,2.3437,2.3437,0,0,1,.07.2666l3.207,16.9663a.8174.8174,0,0,1-1.578.4121l-5.501-16.3672a2.0087,2.0087,0,0,1-.09-.3945l-2.26-.8965a1.2466,1.2466,0,0,1,.1-2.3521l.1021-.03,4.5511-1.3447c1.4362-1.2793,2.9033-2.4585,4.4-3.6372,1.584-1.2334,3.177-2.4092,4.899-3.5293a57.8886,57.8886,0,0,1,5.308-3c.3108-.1533.6238-.293.9345-.4419Zm.2724,15.9829a2.1562,2.1562,0,0,1,0,.3677l-1.186,12.9082a.8179.8179,0,0,1-1.629,0l-1.12-12.19c-2.3737.623-4.77,1.1807-7.2216,1.5781a.8012.8012,0,0,1-.512-1.4941,86.4635,86.4635,0,0,1,8.56-3.9819c2.907-1.1733,5.839-2.271,8.806-3.2651,2.9641-1.0059,5.943-1.9668,8.958-2.8223,3.013-.8618,6.045-1.67,9.144-2.2808a.9724.9724,0,0,1,.625,1.8228c-2.0948,1.0542-4.2263,2-6.375,2.8955a2.1609,2.1609,0,0,1,0,.3242l-1.186,13.0122a.8184.8184,0,0,1-1.63,0L183.95,49.413q-2.3049.8987-4.6321,1.7324L178.1352,65.352a.8179.8179,0,0,1-1.63,0l-1.0688-12.8545q-2.807.9543-5.6527,1.7949C169.7848,54.3026,169.7885,54.3124,169.79,54.3227ZM245.8126,20.49a.9111.9111,0,0,1-1.194-.0786l-.2119-.2124a5.29,5.29,0,0,0-.9091-.8457l-.546-.418c-.194-.1289-.415-.2393-.62-.3589a11.7425,11.7425,0,0,0-1.272-.6812l-1.348-.5723c-.8979-.38-1.875-.61-2.804-.9258-.951-.2661-1.942-.4219-2.9081-.64l-.729-.1523-.745-.085-1.49-.1719-1.486-.1719c-.4969-.0474-1.0031-.0391-1.5031-.0625l-3.007-.0928c-1.004.0049-2.012.085-3.016.123a111.0779,111.0779,0,0,0-23.851,4.1768c-3.882,1.2051-7.788,2.31-11.59,3.7813-1.913.6909-3.841,1.3408-5.742,2.0649l-5.656,2.3169c-3.798,1.4751-7.479,3.2432-11.185,4.9453-3.733,1.6479-7.346,3.5488-10.984,5.396-7.277,3.6929-14.3329,7.7637-21.172,12.1318-3.2667,2.2031-6.4882,4.4985-9.5394,6.9629q-.1273-2.261-.3235-4.4531l.185-.1519,1.217-.9912,1.268-.9077,5.091-3.6177a215.29,215.29,0,0,1,21.517-12.3975c3.694-1.8477,7.361-3.75,11.153-5.397,3.764-1.7026,7.498-3.4687,11.367-4.9468l5.754-2.3184c1.938-.7246,3.906-1.377,5.858-2.0679,3.886-1.4321,7.914-2.4678,11.897-3.6157a110.2619,110.2619,0,0,1,24.652-3.7334c1.048-.0029,2.092-.0479,3.139-.0156l3.1439.208c.5231.043,1.047.0537,1.569.123l1.5651.2358,1.562.2378.78.1191.7729.188c1.027.2671,2.064.4712,3.077.7949,1.001.3794,2.0289.65,2.999,1.1221a19.4545,19.4545,0,0,1,2.856,1.542c.23.15.464.2852.688.45l.652.5479a6.6211,6.6211,0,0,1,1.2421,1.3413A.9082.9082,0,0,1,245.8126,20.49Z" style="fill:#221f1f"/><path d="M31.9639,87.9945a.3026.3026,0,0,0-.0443-.0225Z" style="fill:#221f1f"/><polygon points="32.484 88.569 32.484 88.568 32.483 88.568 32.484 88.569" style="fill:#221f1f"/><path d="M60.1634,84.6088l-.0056.0327.0035-.0117C60.1634,84.6239,60.1654,84.6,60.1634,84.6088Z" style="fill:#221f1f"/></g></g></svg>