<svg xmlns="http://www.w3.org/2000/svg" viewBox="0 0 260.7211 153.7678"><title>icon-print-design</title><g id="Layer_2" data-name="Layer 2"><g id="Layer_1-2" data-name="Layer 1"><path d="M260.5442,44.1191l-6.1355-16.0111c-3.7571-4.4893-14.4176-11.1758-45.4587-10.7365-28.8048.4057-58.92,12.8474-80.3906,24.0128a56.0606,56.0606,0,0,0-10.0859-21.7119s-7.2676-6.9908-12.9613-11.5751S93.7445,1.3651,86.1119.2647C73.8459-1.5045,60.1161,6.0809,54.98,8.6215S25.6513,23.2644,8.4228,63.4938s-3.7108,66.8719,2.613,74.5512,18.9907,15.7938,39.9072,15.7223,41.0788-16.7071,56.2431-35.24a90.0962,90.0962,0,0,0,12.9983-21.8182,80.5111,80.5111,0,0,0,19.7486,2.1216c15.3895-.3783,41.8745-.4141,83.6942-20.0714S260.5442,44.1191,260.5442,44.1191Zm-126.26,1.65A141.1189,141.1189,0,0,1,152.59,36.858a187.862,187.862,0,0,1,19.2822-6.4446c13.09-3.3862,26.3926-6.1539,40-6.7809a106.0537,106.0537,0,0,1,20.3933.84,63.9688,63.9688,0,0,1,19.444,6.169l.0252.0133a.9633.9633,0,0,1-.804,1.7493,65.7029,65.7029,0,0,0-19.0685-4.9469,103.55,103.55,0,0,0-19.77-.2241c-3.3015.2252-6.592.6518-9.883,1.0423-1.6446.2062-3.28.5083-4.92.7577-1.64.2574-3.2793.51-4.9066.8577l-4.8938.9507c-1.6342.3013-3.2471.725-4.8709,1.0822l-4.8631,1.1235c-1.6065.4217-3.2211.817-4.8209,1.2611a171.2779,171.2779,0,0,0-36.965,14.4478c-2.11,1.1466-4.1756,2.3722-6.216,3.6389q.0114-1.9131-.125-3.75Q131.9283,47.1606,134.2844,45.7689ZM16.4864,57.7846l.0062-.0134a137.472,137.472,0,0,1,16.239-26.4288c6.4518-8.1578,14.3171-15.4593,23.73-20.4627A70.83,70.83,0,0,1,71.34,5.49,47.9428,47.9428,0,0,1,87.2,4.2118a31.4244,31.4244,0,0,1,15.067,5.4154,29.38,29.38,0,0,1,9.6571,12.51.7728.7728,0,0,1-1.3853.6773l-.0159-.0277A33.366,33.366,0,0,0,106.28,16.67c-.42-.4522-.8125-.9268-1.249-1.3583l-1.3806-1.2163-.6865-.6061-.7533-.5226-1.4924-1.0515A29.6644,29.6644,0,0,0,86.9091,7.68,47.02,47.02,0,0,0,72.25,9.2279a73.3479,73.3479,0,0,0-13.9825,5.1448A69.8135,69.8135,0,0,0,45.984,22.8036L43.1734,25.299l-2.674,2.6571c-.9126.8644-1.7223,1.8349-2.59,2.7479l-1.2781,1.3954L35.41,33.5471A170.8743,170.8743,0,0,0,18.1521,58.666a.943.943,0,0,1-1.6657-.8814Zm4.4492,64.6615.0016.0284a.79.79,0,0,1-1.57.1566,21.0343,21.0343,0,0,1,1.3915-10.18,19.0289,19.0289,0,0,1,1.1-2.3954,10.27,10.27,0,0,1,1.652-2.2971,6.3482,6.3482,0,0,1,.6151-.5354l.3838-.2469a1.8717,1.8717,0,0,0,.294-.1907,1.7784,1.7784,0,0,1,.2609-.1984c.1117-.1.24-.2417.36-.3593a8.7,8.7,0,0,0,.735-.8225c.2487-.2828.4875-.5924.7239-.9137,1.9-2.53,3.6249-5.3259,5.3138-8.0981.8368-1.3952,1.6565-2.8045,2.4434-4.2238l1.1706-2.1249c.36-.6864.7717-1.4652,1.0039-2.0239a10.2987,10.2987,0,0,1,.9389-1.998,2.81,2.81,0,0,1-.319.0158,3.0358,3.0358,0,0,1-1.6349-.5351c-.18-.1355-.3566-.2826-.522-.4351a4.8363,4.8363,0,0,1-.348-.4083c-.0927-.1193-.2449-.3171-.2795-.3749L34.484,84.04l-.3347-.4873-.7147-1.0148a6.46,6.46,0,0,1-.4562-.74,4.29,4.29,0,0,1-.38-1.0776c-.0705-.3382-.0908-.5707-.1207-.8136l-.0043-.0412a3.2063,3.2063,0,0,1-.2261-.2519,2.846,2.846,0,0,1-.3169-.5171,3.17,3.17,0,0,1-.1593-.4307,4.1272,4.1272,0,0,1-.127-.6569l-.0269-.4747c0-.2742.0022-.5512.0215-.7839.03-.485.0841-.9254.14-1.3649.25-1.7253.4482-3.1685.6539-4.8839a11.3712,11.3712,0,0,1,.6881-2.8646c.1794-.4671.3764-.8722.5693-1.2774a6.63,6.63,0,0,0,.3555-.8552,2.0046,2.0046,0,0,0,.1045-.6227,5.6423,5.6423,0,0,0-.0977-.89c-.1323-.7586-.2966-1.65-.4036-2.5115-.2017-1.7445-.3444-3.3039-.51-4.9667l-.0016-.0156a1.9707,1.9707,0,0,1,.0293-.5751L34.57,49.0881a53.2094,53.2094,0,0,1,2.0265-6.9218,27.0159,27.0159,0,0,1,3.4624-6.59,17.72,17.72,0,0,1,1.2757-1.503l1.1872-1.2223c.7829-.8185,1.5405-1.65,2.2606-2.4935.7216-.8464,1.3819-1.71,2.0425-2.6388.6676-.9349,1.35-1.9174,2.1386-2.8709a21.862,21.862,0,0,1,5.586-4.8569,23.0692,23.0692,0,0,1,10.3778-3.299l3.465-.3a.964.964,0,0,1,.2363,1.9121l-3.4338.5529a24.6631,24.6631,0,0,0-3.2544.6873,20.023,20.023,0,0,0-10.5351,7.2282c-.6567.859-1.2651,1.8041-1.9066,2.78-.6441.9855-1.3533,1.9925-2.1006,2.9386-.7442.9525-1.5287,1.8519-2.3229,2.73l-1.201,1.3036a14.1261,14.1261,0,0,0-.9367,1.1735,23.6188,23.6188,0,0,0-2.81,5.7628A49.4233,49.4233,0,0,0,38.3514,49.9L37.12,56.3937l.4925,4.57c.0979.7715.236,1.4993.3886,2.3614a9.4028,9.4028,0,0,1,.1574,1.5622,6.0841,6.0841,0,0,1-.28,1.8056A10.6732,10.6732,0,0,1,37.301,68.12c-.16.3372-.32.6735-.4332.9765a7.2947,7.2947,0,0,0-.44,1.9263c-.1736,1.5558-.4234,3.3721-.67,4.9012-.0516.3754-.1.7539-.1229,1.0893-.0121.1167-.0147.2147-.0167.3087a2.7234,2.7234,0,0,1,.3386.4355,3.4041,3.4041,0,0,1,.2357.48c.0422.1247.0809.2524.1146.38a4.9664,4.9664,0,0,1,.0976.592l.026.2927c.0175.1668.0373.3439.0525.408.0183.0775.0072.0446.0242.0844a2.7843,2.7843,0,0,0,.1926.3089l.6983,1.01.3242.4837a6.7659,6.7659,0,0,1,.8886-.6339,2.6913,2.6913,0,0,1,2.1176-.2859,2.74,2.74,0,0,1,1.544,1.3358,3.6206,3.6206,0,0,1,.3674,2.51,5.652,5.652,0,0,1-.6941,1.6933c-.25.4274-.49.7868-.7055,1.1192-.21.3255-.3993.6309-.5509.9136-.0686.1405-.1461.28-.1955.4088l-.244.5761c-.4259.9495-.8178,1.61-1.2357,2.3727-.4195.7271-.8334,1.458-1.2692,2.1667-.8633,1.4286-1.7521,2.8335-2.6617,4.2282a84.7858,84.7858,0,0,1-5.8854,8.1545c-.2691.3291-.551.6556-.86.9778a11.41,11.41,0,0,1-.9632.9677c-.182.1608-.341.3158-.5447.48-.2494.1705-.5056.3336-.7642.4853l-.2291.1381-.143.073a3.2305,3.2305,0,0,0-.3331.2528,11.6275,11.6275,0,0,0-2.4282,3.6351,23.0833,23.0833,0,0,0-1.5163,4.4509A16.76,16.76,0,0,0,20.9356,122.4461Zm2.4821-7.8528a.96.96,0,0,1,1.1528-.4651l.1136.0375a3.62,3.62,0,0,0,1.5078.0214,13.2716,13.2716,0,0,0,1.8163-.3785c1.23-.3467,2.4764-.7675,3.7091-1.2448,2.4759-.9322,4.923-2.03,7.3863-3.1014l7.4023-3.3011a68.2463,68.2463,0,0,1,7.7809-3.0486,27.5387,27.5387,0,0,1,5.756-1.1414,8.9761,8.9761,0,0,1-2.14-2.1028A16.0312,16.0312,0,0,1,56.25,96.9512l-.3336-.753-.2784-.86a9.33,9.33,0,0,1-.3574-1.7526,17.565,17.565,0,0,1,.6759-6.713,41.7321,41.7321,0,0,1,2.2408-6.0664l1.3315-2.8232c.0825-.1907.2157-.4664.2513-.5775.03-.0527.0847-.27.1977-.6491l.0744-.2038a2.0034,2.0034,0,0,1,.144-.3056A2.6529,2.6529,0,0,1,60.34,76.02a1.26,1.26,0,0,1,.0995-.1312,2.2894,2.2894,0,0,1,.2148-.2145,2.0131,2.0131,0,0,1,1.1-.498,2.2944,2.2944,0,0,1,.2721-.0182l.1307.0051c.087.0067.1736.0163.26.03l.2117.044.1527.0333a1.39,1.39,0,0,0,.3174.0091,5.2642,5.2642,0,0,0,1.0807-.2115c.4226-.1133.9306-.2745,1.3918-.4208.9435-.3051,1.8809-.6422,2.7943-1.0074s1.8066-.7626,2.6423-1.2A12.1675,12.1675,0,0,0,73.19,71.0383c.1491-.1185.23-.23.34-.3322a2.446,2.446,0,0,0,.2088-.3187,3.92,3.92,0,0,0,.3807-.9585,4.8463,4.8463,0,0,0,.14-1.0782,5.15,5.15,0,0,0-.02-.5557c-.01-.16-.0558-.413-.0616-.4411l-.03-.1515a1.971,1.971,0,0,1,1.3285-2.2608c.0331-.0111.2665-.112.4015-.1853a4.86,4.86,0,0,0,.451-.2754,3.2943,3.2943,0,0,0,.6917-.643,2.7,2.7,0,0,0,.22-.348,4.6377,4.6377,0,0,0,.2142-.47,1.7275,1.7275,0,0,0,.0818-.2645l.0143.1095a.8631.8631,0,0,0,.0592.2035,1.1534,1.1534,0,0,0,.0857.1765l.0817.125.0664.0865a1.5838,1.5838,0,0,0,.1715.1786L77.91,60.8467,79.1533,59.54l0-.0083c-.0065-.1913-.09-.6739-.1029-1.2116a5.8482,5.8482,0,0,1,.1978-1.6721,5.329,5.329,0,0,1,.7238-1.6175,4.0052,4.0052,0,0,1,1.5937-1.3682,6.8124,6.8124,0,0,1,1.4448-.4555c.1793-.04.3-.0722.4006-.1019l.0142-.0052a2.77,2.77,0,0,0-.09-1.1509,4.1212,4.1212,0,0,0-.2785-.7365,5.0521,5.0521,0,0,0-.4694-.7387,16.0284,16.0284,0,0,1-1.3533-2.1279,9.815,9.815,0,0,1-1.0038-5.254c.067-.8875.1945-1.5985.3-2.3541l.3094-2.2364c.194-1.4854.3508-2.9663.42-4.43a16.3228,16.3228,0,0,0-.2324-4.2135l-.0115-.0492a.9634.9634,0,0,1,1.8481-.5362,13.0188,13.0188,0,0,1,.5561,2.3155,10.7936,10.7936,0,0,0,.6327-3.1515A20.3075,20.3075,0,0,0,83.524,22.84c-.1155-.452-.2256-.913-.3563-1.3392a2.7713,2.7713,0,0,0-.4177-.8042,2.5711,2.5711,0,0,0-1.4558-.8846,9.7625,9.7625,0,0,0-4.9148.4255,5.7449,5.7449,0,0,0-3.64,2.6369,21.2939,21.2939,0,0,0-1.75,5.2644,16.5832,16.5832,0,0,1-2.6368,6.1971,8.8269,8.8269,0,0,1-2.688,2.3589,10.5475,10.5475,0,0,1-3.202,1.1546.9675.9675,0,0,1-.5718-1.8375l.0228-.01a7.9382,7.9382,0,0,0,4.0157-3.321,15.9259,15.9259,0,0,0,1.5855-5.2551,20.7026,20.7026,0,0,1,1.8194-6.44,8.5129,8.5129,0,0,1,2.523-2.9669,11.3979,11.3979,0,0,1,3.3486-1.6259,15.3654,15.3654,0,0,1,3.4071-.6925,10.1487,10.1487,0,0,1,3.7748.3337,6.59,6.59,0,0,1,1.93.9143,5.9159,5.9159,0,0,1,1.5539,1.6225,6.5424,6.5424,0,0,1,.8475,1.9771c.1293.5639.235,1.1053.3062,1.6591a19.6552,19.6552,0,0,1-.1788,6.6342A9.9114,9.9114,0,0,1,83.6385,34.52c.0294,1.4225-.0038,2.8308-.075,4.2238L83.4278,41.04c-.0473.7552-.1094,1.553-.1258,2.1821a6.5652,6.5652,0,0,0,.8607,3.5424,14.8806,14.8806,0,0,0,1.1855,1.6474,8.6506,8.6506,0,0,1,.7885,1.1578,7.7059,7.7059,0,0,1,.5848,1.3666,5.951,5.951,0,0,1,.1769,3.2293,3.3152,3.3152,0,0,1-1.4043,2.0082,5.579,5.579,0,0,1-1.5653.63,3.41,3.41,0,0,0-.72.2367c-.0794.0543-.0511.0355-.102.1086a1.7713,1.7713,0,0,0-.1735.4616,2.0237,2.0237,0,0,0-.0506.5822c.0066.2225.0642.4889.1193,1.0551a3.7656,3.7656,0,0,1-.4626,2.2124,4.8339,4.8339,0,0,1-.601.8074l-.3827.421-.0718.0787c0,.1162-.002.23-.01.3345a4.9961,4.9961,0,0,1-.2763,1.2413,7.5653,7.5653,0,0,1-.4052.9527,6.5937,6.5937,0,0,1-.6054.9649,7.2663,7.2663,0,0,1-1.555,1.4835c-.1235.0859-.254.1555-.38.2351.0044.143.0186.2861.018.4293a8.8981,8.8981,0,0,1-.2521,1.9928,7.9525,7.9525,0,0,1-.75,1.9223,6.4,6.4,0,0,1-.6507.97,8.1258,8.1258,0,0,1-.7551.7635,14.234,14.234,0,0,1-3.0224,1.9537c-1.0064.5063-2.0135.9338-3.026,1.324s-2.0305.7379-3.06,1.0557c-.5268.1583-1.0076.3069-1.5851.4533a8.672,8.672,0,0,1-1.9769.2857c-.0167,0-.0362-.0022-.0532-.0019-.083.1748-.1585.3187-.2431.4982L61.48,82.3715a41.6884,41.6884,0,0,0-2.3485,5.4545,15.6823,15.6823,0,0,0-.9724,5.5156,6.5169,6.5169,0,0,0,.1639,1.3l.1334.6352.2327.6932a13.7208,13.7208,0,0,0,1.1587,2.6015,6.4871,6.4871,0,0,0,1.7189,2.023,7.3008,7.3008,0,0,0,1.1829.72,9.118,9.118,0,0,1,1.501.8606l.0054.0063a11.6133,11.6133,0,0,1,3.33,1.2224,14.3958,14.3958,0,0,1,3.6244,2.8989,47.584,47.584,0,0,1,4.664,7.0317,64.8261,64.8261,0,0,1,3.7037,7.3727.7919.7919,0,0,1-1.3879.7451l-.0172-.0259c-1.4937-2.1943-3.0678-4.3992-4.6635-6.55-.7886-1.0861-1.6068-2.1512-2.4185-3.2187a23.0754,23.0754,0,0,0-2.4438-2.8886,11.708,11.708,0,0,0-2.7995-2.0127,9.0356,9.0356,0,0,0-3.2021-.85A21.0851,21.0851,0,0,0,55.4,106.9744c-2.3727.6864-4.882,1.8-7.3785,2.7735-2.4987,1.02-5.0182,2.0437-7.5754,2.9967-2.5535.9689-5.1461,1.864-7.8216,2.61a34.4477,34.4477,0,0,1-4.1226.8993,14.0565,14.0565,0,0,1-2.2042.1666,5.2747,5.2747,0,0,1-2.4747-.5311A.961.961,0,0,1,23.4177,114.5933Zm10.044,31.71a31.482,31.482,0,0,1-6.6841-2.0329,29.1525,29.1525,0,0,1-6.0129-3.56,30.4067,30.4067,0,0,1-5.0208-4.79c-.7713-.8605-1.4271-1.8053-2.1152-2.725-.6208-.9615-1.2812-1.9031-1.8138-2.9106a47.3778,47.3778,0,0,1-2.9241-6.1387l-1.1269-3.1609-.5551-1.5819-.4548-1.6146a66.8615,66.8615,0,0,1-2.5031-13.1505,62.9233,62.9233,0,0,1,.2161-13.3537,50.7677,50.7677,0,0,1,3.22-12.9692.7682.7682,0,0,1,1.442.5261l-.0234.072a59.2012,59.2012,0,0,0-2.124,25.4429,63.9461,63.9461,0,0,0,2.7405,12.5259l.4748,1.5323.5751,1.5,1.1573,2.9922a44.1709,44.1709,0,0,0,2.87,5.627c.5125.9164,1.1458,1.7465,1.7166,2.62.6379.82,1.2408,1.67,1.9449,2.429a26.83,26.83,0,0,0,4.5153,4.1849,26.3919,26.3919,0,0,0,11.161,4.7622,32.8689,32.8689,0,0,0,6.1511.4258,41.3829,41.3829,0,0,0,6.1981-.6961,57.1876,57.1876,0,0,0,12.0119-3.9231A87.0111,87.0111,0,0,0,79.8488,124.282l2.322-2.2125a31.2444,31.2444,0,0,0,2.2664-2.2712l2.1484-2.39c.7068-.8042,1.4639-1.5674,2.0989-2.4367,1.3-1.7067,2.7163-3.3291,3.9468-5.0932l1.8422-2.6519c.61-.8865,1.25-1.7531,1.791-2.6876a125.1613,125.1613,0,0,0,8.3416-15.4637q1.732-3.7974,3.26-7.6871c.0392-.0972.0741-.1965.1129-.2937,1.4031-3.5163,2.6041-7.1111,3.6974-10.7367.1279-.4243.2609-.8468.386-1.272l.8577-3.1336.2023-.8446.5539-2.3128c.15-.6491.2739-1.3009.4058-1.9524.2961-1.4625.5619-2.9273.7561-4.3925l.0055-.0352a.9388.9388,0,0,1,1.8661.2026c-.0563.6614-.1431,1.3145-.2195,1.97-.1545,1.3275-.34,2.6467-.5668,3.955-.2155,1.2439-.4524,2.4819-.7211,3.712q-.3786,1.734-.8116,3.4551-.4947,1.9175-1.0347,3.824c-.7379,2.6235-1.5483,5.2268-2.4533,7.7985-.1233.35-.2378.7041-.3649,1.0529q-.5835,1.6286-1.2093,3.2427-1.14,2.9492-2.4185,5.8458a128.3417,128.3417,0,0,1-7.7458,14.8754c-.5386.9714-1.18,1.8812-1.7918,2.809l-1.8484,2.7764c-.59.9431-1.3015,1.8034-1.9667,2.6976l-2.0281,2.6564c-.6535.9035-1.4359,1.7053-2.168,2.5485l-2.2256,2.5019a33.4658,33.4658,0,0,1-2.3541,2.3855l-2.416,2.3278A90.7138,90.7138,0,0,1,60.1034,141.876a57.3709,57.3709,0,0,1-12.8841,4.225,45.11,45.11,0,0,1-6.8375.7266A36.7313,36.7313,0,0,1,33.4616,146.3037Zm73.8594-37.7087a91.0686,91.0686,0,0,1-27.904,29.9782,89.851,89.851,0,0,1-18.2985,9.3692,69.9006,69.9006,0,0,1-9.8941,2.8212,33.967,33.967,0,0,1-10.35.8318.7886.7886,0,0,1,.1134-1.5722l.0443.0015a23.914,23.914,0,0,0,4.8368-.3986c1.6221-.2819,3.241-.6147,4.8368-1.0579a73.7234,73.7234,0,0,0,9.3881-3.2488A86.8,86.8,0,0,0,77.4,135.6544a91.6593,91.6593,0,0,0,14.774-13.14,93.28,93.28,0,0,0,6.2633-7.6584c1.9-2.6977,3.775-5.4185,5.4135-8.2886A104.5337,104.5337,0,0,0,110.32,93.4334q.8716-2.1113,1.6718-4.265c.0752-.2012.1535-.4.2278-.6019.2809-.7562.5434-1.5187.8158-2.2782a165.3355,165.3355,0,0,0,5.1175-16.797c.1427-.5915.2754-1.1846.4088-1.778.4032-1.7952.767-3.598,1.08-5.4088.185-1.0692.3495-2.1407.5013-3.2136q.2814-1.99.486-3.9879c.1775-1.7574.3113-3.5186.3911-5.2818.0541-1.4455.0652-2.8919.0429-4.338-.0288-1.8623-.118-3.7232-.2941-5.5769A60.3836,60.3836,0,0,0,119.002,30.15a.9643.9643,0,0,1,1.8426-.5652A57.5841,57.5841,0,0,1,123.69,43.97q.2313,2.9533.2553,5.9108c-.0055.9154-.0292,1.83-.0651,2.7436-.05,1.2781-.1358,2.5532-.2412,3.8261q-.1328,1.6057-.316,3.2055-.2818,2.4223-.6758,4.8276-.4714,2.9034-1.0743,5.7784a145.0065,145.0065,0,0,1-5.4782,19.011c-.0754.2111-.1435.4248-.22.6353-.2107.6036-.4319,1.205-.6532,1.8065q-.5916,1.608-1.2312,3.2041A104.848,104.848,0,0,1,107.3211,108.595ZM134.1205,96.74a46.6157,46.6157,0,0,1-12.3727-2.0057c-.2188-.0718-.4349-.1545-.6527-.2306q.41-1.0263.799-2.0585c.189.0755.375.157.5658.2294a49.3338,49.3338,0,0,0,11.7651,2.5443l.0111.0007a.7628.7628,0,0,1-.1155,1.52ZM252.8034,53.5227a63.3169,63.3169,0,0,1-10.2276,10.0035l-1.3776,1.1327-1.4334,1.0552-2.87,2.1084c-1.9759,1.3074-3.9307,2.6621-5.9631,3.8836l-3.064,1.8063c-1.0231.6-2.0356,1.223-3.0978,1.75-2.1127,1.0691-4.1907,2.2206-6.3367,3.2251l-6.4723,2.94-6.6154,2.5865-1.6546.645-1.6832.5625-3.37,1.11-3.3736,1.1c-1.1253.3676-2.2768.6366-3.4144.9593l-6.85,1.8252-6.9312,1.4607c-4.605,1.0517-9.3068,1.5584-13.9612,2.2663-1.1621.1948-2.337.29-3.5119.38l-3.5214.2911c-2.3447.2039-4.6893.3876-7.0337.5377a.7893.7893,0,0,1-.2009-1.5625l.043-.01c4.5973-.8928,9.22-1.5028,13.7879-2.4269l6.8385-1.4055c1.1381-.2356,2.2856-.4277,3.4154-.7006l3.3821-.8437,6.7679-1.6468,6.6813-1.94c1.1114-.33,2.24-.6073,3.3365-.9794l3.291-1.1155,3.2936-1.1062,1.65-.5444,1.62-.6233a169.36,169.36,0,0,0,25.18-11.5933c1.03-.5313,1.9851-1.1785,2.98-1.7666l2.9684-1.79,2.8817-1.9209,1.4421-.9624L240.8,61.2007A70.4215,70.4215,0,0,0,251.2981,52.32l.0463-.05a.9625.9625,0,0,1,1.4589,1.2523Zm-74.0333-4.36a1.9918,1.9918,0,0,1,.9723-2.6432,2.0357,2.0357,0,0,1,.5053-.1572l.02-.0029L190.13,44.751l.01-.0018a2.0042,2.0042,0,0,1,2.3,1.6547,2.1274,2.1274,0,0,1,.022.4478l-.1145,1.829a31.8868,31.8868,0,0,1,3.81-.1826,52.8665,52.8665,0,0,1,5.4355.4907c1.7025.2308,3.3814.4777,5.0751.7813,1.8512-.3014,3.6993-.6176,5.5526-.9034l.1287-.02a1.3337,1.3337,0,0,1,.88,2.4675l-4.751,2.8-.3262.1921c-.5517,1.1211-1.1317,2.23-1.7018,3.3435a.7916.7916,0,0,1-1.4491-.63c.464-1.2895.913-2.5877,1.4038-3.8676a.8984.8984,0,0,1,.1222-.2161l-.1008-.0108c-.5379-.058-1.0812-.1133-1.6231-.1695-1.19-.1234-2.3833-.2415-3.5708-.3319-1.7261-.1273-3.4636-.2331-5.1121-.235a36.8367,36.8367,0,0,0-4.9836.4893c-1.6924.2655-3.419.5686-5.0878.9035a1.9456,1.9456,0,0,1-.6522.0126c-.0159.0039-.0319.0118-.0475.0153-1.8367.3917-3.7337.8787-5.5691,1.4109a54.1067,54.1067,0,0,0-5.41,1.8168c-1.7422.7134-3.5192,1.5394-5.26,2.374-1.7418.84-3.4757,1.7582-5.1607,2.6624l-.1194.0643a1.2258,1.2258,0,0,1-.5008.1411l-.3486.0191a1.9934,1.9934,0,0,1,.51,1.0278,2.3437,2.3437,0,0,1,.0279.2742l.5455,17.2581a.8174.8174,0,0,1-1.6227.1632L159.5376,63.8a2.0087,2.0087,0,0,1-.0275-.4036l-2.0944-1.2351a1.2466,1.2466,0,0,1,.4624-2.3083l.1054-.0137,4.7043-.625c1.6167-1.0419,3.2484-1.98,4.9092-2.9133,1.7556-.9737,3.5113-1.8891,5.3857-2.7295a57.8886,57.8886,0,0,1,5.708-2.1433c.3308-.1034.6616-.193.9916-.2921Zm-2.2018,15.8329a2.1562,2.1562,0,0,1-.0568.3633l-3.1674,12.57a.8179.8179,0,0,1-1.6094-.2518l.778-12.217c-2.4415.2486-4.8953.429-7.3788.4427a.8012.8012,0,0,1-.2748-1.5553,86.4635,86.4635,0,0,1,9.0727-2.6107c3.0534-.71,6.12-1.341,9.2049-1.8645,3.0839-.5355,6.1756-1.0244,9.2866-1.4034,3.11-.3857,6.23-.7153,9.3867-.84a.9724.9724,0,0,1,.3357,1.8975c-2.2326.7177-4.4846,1.3226-6.746,1.8751a2.1609,2.1609,0,0,1-.05.32l-3.1834,12.6724a.8184.8184,0,0,1-1.61-.252l.7615-11.8079q-2.4162.5315-4.8443.9955l-3.3644,13.853a.8179.8179,0,0,1-1.61-.252l.9313-12.8652q-2.9208.5089-5.8622.8994C176.5667,64.975,176.5689,64.9852,176.5683,64.9955Zm80.34-21.6728A.9111.9111,0,0,1,255.74,43.06l-.1765-.2426a5.29,5.29,0,0,0-.7674-.9761l-.4748-.4974c-.1717-.1573-.3731-.3005-.5571-.45a11.7425,11.7425,0,0,0-1.1514-.87l-1.2433-.7738c-.8284-.5141-1.7582-.8924-2.6271-1.3481-.8985-.41-1.8534-.717-2.7742-1.0815l-.6967-.2632-.7229-.1991-1.4455-.4-1.4415-.4c-.4837-.1236-.985-.1937-1.4753-.2941l-2.9565-.5565c-.9927-.15-2.0009-.2271-2.9988-.3447a111.0779,111.0779,0,0,0-24.21.4392c-4.0216.59-8.0515,1.0783-12.0353,1.944-1.9968.3869-4.0021.7309-5.9922,1.1524l-5.9462,1.4146c-3.98.87-7.89,2.0479-11.8151,3.1567-3.9429,1.051-7.8063,2.37-11.6862,3.633-7.76,2.5235-15.3609,5.4545-22.793,8.7128-3.568,1.6716-7.1057,3.4414-10.5012,5.4044q.2238-2.2535.3688-4.45l.2062-.1214,1.3556-.7912,1.3931-.7008,5.5891-2.7871a215.29,215.29,0,0,1,23.175-8.9219c3.9352-1.2544,7.8522-2.5669,11.8532-3.6079,3.982-1.1,7.9442-2.2679,11.9951-3.13l6.0433-1.4009c2.0267-.4163,4.0719-.7565,6.1072-1.1374,4.0607-.8141,8.2-1.2146,12.313-1.733a110.2619,110.2619,0,0,1,24.9328.1226c1.0358.1591,2.0743.2761,3.1037.47l3.074.6915c.51.1233,1.0261.2149,1.5311.3641l1.51.475,1.5065.4764.7522.2383.7346.3052c.9733.4226,1.9663.7846,2.9171,1.2611.93.53,1.9041.9558,2.7895,1.5722a19.4545,19.4545,0,0,1,2.5832,1.965c.204.1837.4143.3535.61.5511l.5594.6421a6.6211,6.6211,0,0,1,1.02,1.5172A.9082.9082,0,0,1,256.9078,43.3227Z"/><path d="M35.1941,76.955a.3026.3026,0,0,0-.04-.029Z"/><polygon points="35.619 77.603 35.619 77.602 35.619 77.602 35.619 77.603"/><path d="M63.578,77.97l-.0105.0315.0053-.011C63.5757,77.9845,63.5813,77.9612,63.578,77.97Z"/></g></g></svg>