<svg xmlns="http://www.w3.org/2000/svg" viewBox="0 0 129.1086 187.9301"><title>icon-illu</title><g id="Layer_2" data-name="Layer 2"><g id="Layer_1-2" data-name="Layer 1"><path d="M128.6983,156.1718l-35.445-50.5041L66.29,100.4391a.915.915,0,0,1,.2982-1.8049l25.8136,3.5417a2.187,2.187,0,0,1,.3023-.4041l27.0174-27.8135a2.2,2.2,0,0,0-1.2669-3.71l-28.9-4.1288L66.1357,80.5741a.9147.9147,0,0,1-1.0031-1.5289L86.9189,63.8741a2.18,2.18,0,0,1,.08-.6681L104.94,2.8393a2.1993,2.1993,0,0,0-3.8725-1.94L65.6137,48.5385a2.169,2.169,0,0,1-.8754.6948L56.0889,68.1624a.9151.9151,0,0,1-1.6871-.7072L61.797,48.1087,49.6312,29.6423a2.2,2.2,0,0,0-3.9706.6762L37.5039,62.9829a2.1873,2.1873,0,0,1-.6651,1.1038l2.2866,15.3345a.9148.9148,0,0,1-1.7986.33l-3.3582-15.4-31.19-8.4051A2.2,2.2,0,0,0,.3058,59.1772l19.753,33.9244,10.6279,1.0847a.9161.9161,0,0,1-.0916,1.8273l-9.7913.0179a2.1889,2.1889,0,0,1-.3531.6091L.943,120.1655a2.1992,2.1992,0,0,0,1.2033,3.5475l17.588,4.024L30.276,113.1039a.9153.9153,0,0,1,1.5257,1.0088l-9.29,15.3481a2.1843,2.1843,0,0,1,.0308,1.2936L7.068,185.1164a2.2,2.2,0,0,0,3.8161,1.997l30.2221-36.85.5709-26.333a.9151.9151,0,0,1,1.8293-.0155l1.0175,25.7666a2.1573,2.1573,0,0,1,.5458.6992L58.74,179.2268a2.2,2.2,0,0,0,4.141-.4937L70.6,141.6611,56.8855,120.07A.9154.9154,0,0,1,58.4,119.0427l14.3184,19.7862a2.1741,2.1741,0,0,1,1.0687.1277l52.3073,20.5273A2.2,2.2,0,0,0,128.6983,156.1718ZM65.333,87.647q6.6732-2.4137,13.4223-4.59c4.4983-1.4542,9.0117-2.8671,13.5555-4.1814,4.5423-1.3206,9.1016-2.5908,13.719-3.6784a.89.89,0,0,1,.549,1.6871c-4.3746,1.837-8.8075,3.4921-13.2574,5.0971C88.8731,83.5917,84.3936,85.105,79.9,86.5756q-6.7334,2.2252-13.5536,4.1865c-4.55,1.2963-9.1211,2.5282-13.77,3.521a.7308.7308,0,0,1-.45-1.3823C56.4709,90.9693,60.8914,89.2752,65.333,87.647ZM42.5251,69.738c.1935-2.7627.4322-5.5218.7728-8.2734.3342-2.7524.7215-5.5014,1.2991-8.2373a.8964.8964,0,0,1,1.7708.1189c.2077,2.7887.2242,5.565.1882,8.3366-.0291,2.7732-.1615,5.5393-.3385,8.3028-.1634,2.7633-.429,5.52-.7676,8.2724a73.4681,73.4681,0,0,1-1.4645,8.2264.7381.7381,0,0,1-1.45-.097,73.4851,73.4851,0,0,1-.3541-8.3486C42.2131,75.2662,42.3181,72.4985,42.5251,69.738Zm-5.64,31.047a65.0959,65.0959,0,0,1-6.1343,4.9174c-2.125,1.511-4.2879,2.9621-6.5056,4.3246-2.2106,1.375-4.4453,2.7119-6.7329,3.961-2.2862,1.2553-4.6,2.4653-7.0145,3.5132a.8972.8972,0,0,1-.9416-1.504c1.9968-1.7147,4.0951-3.2677,6.2218-4.7771,2.1237-1.5128,4.3018-2.94,6.5026-4.3295,2.1951-1.4,4.444-2.7136,6.7315-3.9652a65.0046,65.0046,0,0,1,7.1012-3.373.74.74,0,0,1,.7718,1.2326Zm15.9957,31.7c.8268,4.49,1.6107,8.988,2.2936,13.5047.6886,4.5149,1.3248,9.0415,1.7735,13.6011a.89.89,0,0,1-1.7441.3252c-1.2226-4.4156-2.2583-8.8672-3.2405-13.3283-.9887-4.46-1.8769-8.9379-2.7206-13.4259-.8575-4.4835-1.6136-8.987-2.2988-13.5038-.6637-4.5195-1.2607-9.0525-1.6122-13.6309a.7315.7315,0,0,1,1.43-.2662c1.3214,4.3979,2.3957,8.8422,3.4034,13.2974C51.1509,123.5192,52.0659,127.9933,52.8806,132.4854Zm58.4414,14.8652-66.9-48.2256L20.3907,156.38a.9148.9148,0,0,1-1.6968-.6834l22.75-59.0015L11.9388,68.9373a.9152.9152,0,0,1,1.2234-1.3608L43.24,93.4249,87.9927,22.9716a.9146.9146,0,0,1,1.5544.964L46.0925,95.7934l66.3152,50.0854a.9145.9145,0,0,1-1.0857,1.4717Z"/></g></g></svg>