<svg xmlns="http://www.w3.org/2000/svg" viewBox="0 0 382.0089 270.4498"><title>icon-brand-design</title><g id="Layer_2" data-name="Layer 2"><g id="Layer_1-2" data-name="Layer 1"><path d="M219.5088,236.5423c-3.4013-2.3718-10.99-5.0489-10.99-5.0489s3.7432-8.69,2.7416-15.0975c-.5694-3.6433-.8895-6.84-1.06-8.9241-2.8461-1.1386-5.6881-2.355-8.42-3.5336-1.6095-.6714-3.4056-1.3273-5.1383-1.9615l-5.2393-1.9577c-1.1766-.43-2.355-.873-3.5327-1.3156l2.6869,28.5276,5.1083,17.6577,1.4478,10.8835s-.4394,2.846,10.4274-4.2052S222.9088,238.9146,219.5088,236.5423Zm-.7936,2.1064-.0171.0113c-1.5259,1.0775-3.0245,2.0614-4.459,3.1241-1.4293,1.0657-2.8229,2.1445-4.1545,3.2966-1.3338,1.1492-2.6182,2.3516-3.8969,3.59-1.2848,1.2342-2.5247,2.53-3.9029,3.8382l-.0083.0078a.8189.8189,0,0,1-1.3567-.8008,17.0589,17.0589,0,0,1,2.54-5.335,22.4581,22.4581,0,0,1,4.0054-4.3682,24.0866,24.0866,0,0,1,4.94-3.2637,19.7259,19.7259,0,0,1,5.5788-1.8785.9869.9869,0,0,1,.7316,1.7785Z"/><path d="M379.6205,167.1361c-4.5279-2.8022-11.8849-4.96-21.3364-2.7508a28.1307,28.1307,0,0,1-27.0979-7.96c-7.1857-7.6893-13.44-17.8223-16.4008-23.04s-22.3525-28.3205-37.8078-34.6411-24.02-7.0034-36.9786-4.6247-14.5807,6.0668-35.5392-1.0616c-19.4621-6.6181-30.5832-9.3137-44.6633-6.02a9.3432,9.3432,0,0,1-6.5487-.8191c-3.4631-1.85-7.0644-4.259-8.2125-8.92-1.52-6.1763-11.524-14.94-21.8888-13.7232s-21.874,5.4379-21.874,5.4379L98.769,67.8992a13.9461,13.9461,0,0,0-8.8907-.8234L59.6738,74.25s-8.05-4.5547-13.0174-11.8762a9.9677,9.9677,0,0,0-6.8537,2.468l-.014.0114A.9963.9963,0,0,1,38.3376,63.5a12.6306,12.6306,0,0,1,6.4606-4.326c-.2573-.5318-.4984-1.0725-.7119-1.6263-1.8149-4.6975-3.62-9.0287-4.5524-13.7724a8.0222,8.0222,0,0,0-4.7631.1661l-.0272.0095a1,1,0,0,1-.897-1.7684,10.6835,10.6835,0,0,1,5.1891-1.78,37.3773,37.3773,0,0,1,2.12-15.8262c2.8708-8.529,5.5925-13.5391,7.3469-16.2189A21.1378,21.1378,0,0,0,51.4609,1.342,1.1005,1.1005,0,0,0,49.8668.1335L44.9449,2.7761l-3.7788-1.44a1.0994,1.0994,0,0,0-1.4916,1.0216L39.66,5.1536a6.8354,6.8354,0,0,1-1.4815,4.23c-4.4848,5.6235-17.3307,24.1908-10.98,45.6017C33.504,76.2406,44.0628,85.1517,47.5424,87.6081c1.2038-.0878,2.4071-.2,3.6072-.3553a85.8748,85.8748,0,0,0,8.8444-1.5907.79.79,0,0,1,.436,1.518,66.8705,66.8705,0,0,1-8.923,2.3471,61.2419,61.2419,0,0,1-9.2246,1.0214,54.4505,54.4505,0,0,1-9.2071-.4778A35.4368,35.4368,0,0,1,7.6548,75.913l-5.5627-7.48a1.16,1.16,0,0,0-2.0871.7925A23.8524,23.8524,0,0,0,3.8735,80.3139l1.4206,2.1467a35.4451,35.4451,0,0,0,26.48,15.75l1.9464.1691a58.4449,58.4449,0,0,0,13.2318-.3517,30.35,30.35,0,0,0,14.81.9565s13.23-1.3049,13.8544-1.3983a2.72,2.72,0,0,1,3.0841,3.1873l-.7176,3.8483a2.72,2.72,0,0,1-1.3683,1.8885l-10.4132,5.6983a1.7022,1.7022,0,0,0,.0663,3.0215,12.1032,12.1032,0,0,0,5.23,1.4082c3.884-.0262,9.5492,4.6862,12.2061,6.3745,5.2937,3.3595,42.212,25.3431,48.0185,35.5192s1.6,13.31,4.0237,22.1965a79.236,79.236,0,0,1,2.428,10.6839c.0318.04.0573.0851.09.1252a9.96,9.96,0,0,0,2.8114,2.347,25.4236,25.4236,0,0,0,3.6844,1.6431c1.3162.5283,2.7327.9025,4.1943,1.5322l.05.021a.8073.8073,0,0,1,.4229,1.061.817.817,0,0,1-.5394.4633,12.6991,12.6991,0,0,1-4.9247.314,12.5631,12.5631,0,0,1-4.8906-1.6288,9.767,9.767,0,0,1-3.4451-3.3938l-24.67,20.2318a25.2982,25.2982,0,0,0-4.3959,4.6515l-1.6143,2.2112a23.8446,23.8446,0,0,1-12.0224,8.6654l-6.9482,2.2172a3.2955,3.2955,0,0,0-1.4506,5.3446,41.5443,41.5443,0,0,0,23.9179,13.1813l.4685.0793a4.3519,4.3519,0,0,0,4.9374-5.4071l-.8756-3.2929a3.9131,3.9131,0,0,1,.282-2.7561,7.1776,7.1776,0,0,1,3.4831-3.3378l8.0454-3.6049L149.05,215.2853l7.9654-4.8467a35.1268,35.1268,0,0,0,13.0916-14.1579l1.5892-3.142,9.5775,1.176c1.2153.0854,2.4.2412,3.5678.438q.7563.1268,1.5028.2775c2.0948.4227,4.1407.9668,6.1873,1.53a102.0041,102.0041,0,0,1,10.8448,3.6792c3.5071,1.6,6.8348,3.1683,10.2012,4.8876q1.8736.9508,3.73,1.9425a55.4959,55.4959,0,0,0,11.0834,1.6492,57.6127,57.6127,0,0,0,14.08-1.4036,15.7363,15.7363,0,0,1-.4961-2.0274,29.5414,29.5414,0,0,1-.28-6.9857c.1262-2.2939.4443-4.5409.7722-6.7658l1.1691-6.5575c.2174-1.0505.3208-2.1137.4764-3.1706.0878-1.0613.21-2.1221.256-3.1845a44.5563,44.5563,0,0,0-.0694-6.3659,30.7578,30.7578,0,0,0-3.3355-12.1219l-.019-.0318a.9674.9674,0,0,1,1.5769-1.102,20.8346,20.8346,0,0,1,3.5543,6.067,32.04,32.04,0,0,1,1.7914,6.7558,37.7745,37.7745,0,0,1,.4331,6.9477,44.8117,44.8117,0,0,1-.692,6.8951c-.1852,1.1569-.4316,2.2413-.6531,3.3138l-.644,3.2368c-.46,2.15-.8225,4.3006-1.15,6.4311-.5261,3.6512-.7437,7.2391.264,10.6732a71.5636,71.5636,0,0,0,5.47,5.6715c2.4187,1.262,4.9388,2.418,7.4957,3.5294,2.8473,1.27,5.7231,2.53,8.5588,3.9461a53.5672,53.5672,0,0,1,8.3521,4.904c.3345.2539.6717.4979,1.002.7628l.9739.8592a9.003,9.003,0,0,1,.9372.9524c.296.3354.6288.6891.8487,1,.9945,1.2768,1.9056,2.5646,2.8244,3.8491l5.3384,7.6812a58.8589,58.8589,0,0,0,5.5876,7.064l.748.6906c.2557.1884.4709.3623.7514.5529l2,1.1595a10.9572,10.9572,0,0,1,3.8084,3.8056,10.6207,10.6207,0,0,1,1.0664,2.436,14.6707,14.6707,0,0,0,.7158,2.0557c.0091.02.0209.0393.03.06a18.6636,18.6636,0,0,0,3.37,3.56c2.4613,2.0135,6.1032,3.1868,8.163-3.3464s4.29-23.1167,1.92-28.7545c-2.2231-5.2873-4.4541-5.0915-7.5861-3.1212-.3651.4785-.7209.9516-1.0594,1.4319-.7024,1.023-1.3734,2.0365-1.9736,3.0948-.602,1.0571-1.1517,2.1372-1.7,3.2533-.5541,1.1166-1.0614,2.2709-1.6985,3.5184l-.0125.0245a.8427.8427,0,0,1-1.5613-.1488,9.7858,9.7858,0,0,1-.1217-4.4739,13.0356,13.0356,0,0,1,1.6028-4.197,13.84,13.84,0,0,1,2.8545-3.4713c.11-.0965.2293-.1833.3426-.2765-.2054-1.2916-1.1282-4.36-5.2392-8.0327-5.4586-4.8782-7.5166-7.3853-10.7738-10.1327a38.86,38.86,0,0,0-6.3086-4.341s7.1614-9.7541,10.4643-15.5982a41.0845,41.0845,0,0,1,2.3478-3.6628c.4974-2.4409,1.14-4.759,1.5015-7.1044a38.558,38.558,0,0,0,.7034-7.2732,26.6971,26.6971,0,0,0-1-7.074,31.0192,31.0192,0,0,0-2.9862-6.7236.9762.9762,0,0,1,1.4893-1.2231,19.0787,19.0787,0,0,1,4.8284,6.7281,19.5835,19.5835,0,0,1,.7612,2.1106,47.6374,47.6374,0,0,0-1.4775-10.0551,50.6,50.6,0,0,0-1.9455-6.0876,24.9865,24.9865,0,0,0-2.8827-5.5466l-.0358-.0492a.9639.9639,0,0,1,1.4354-1.2755,21.4352,21.4352,0,0,1,4.08,5.667,42.572,42.572,0,0,1,4.8384,19.93,34.1321,34.1321,0,0,1-.4418,4.5423,82.5842,82.5842,0,0,0,5.5262-18.923,53.119,53.119,0,0,1,1.5225-7.3838s15.7259,16.2245,26.228,20.974c7.3247,3.3121,12.5741,3.7159,22.6426.452,10.0695-3.2662,16.8253,1.03,19.17,2.7857S384.1488,169.9374,379.6205,167.1361ZM92.42,82.9081a3.4639,3.4639,0,0,1-1.9974,1.8656.9361.9361,0,0,1-1.1753-.6115.9062.9062,0,0,1-.039-.1842l-.0191-.1912c-.0761-.7663-.1519-1.2723-.2212-1.7559-.07-.4752-.1114-.901-.1531-1.3391-.0435-.4362-.1014-.8684-.1673-1.3356-.0679-.4732-.15-.9613-.307-1.62l-.0536-.23a1.0651,1.0651,0,0,1,.7922-1.284,1.0766,1.0766,0,0,1,.439-.0119,3.8522,3.8522,0,0,1,2.2755,1.4787,5.2036,5.2036,0,0,1,1.0285,2.524A4.8023,4.8023,0,0,1,92.42,82.9081ZM147.8371,121.86a14.3118,14.3118,0,0,1-5.9164,5.6031,9.0968,9.0968,0,0,1-.9629.443l-1.0163.3108a8.9679,8.9679,0,0,1-2.0686.4014c-.34.0377-.7169.0951-1.0255.11l-.9061.0356-1.812.0681c-9.6754.289-19.3121.519-29.1238-.4767q-1.8445-.2021-3.7338-.5645c-.6562-.1764-1.2619-.2693-1.9538-.5231l-1.0312-.3857-.8085-.3693c-2.1567-.9793-4.3953-1.9427-6.6-2.9934a41.5419,41.5419,0,0,1-6.5555-3.6878,10.5772,10.5772,0,0,1-1.6041-1.3957,4.8934,4.8934,0,0,1-.7709-1.0688,3.42,3.42,0,0,1-.306-.7865,2.8838,2.8838,0,0,1-.0523-1.0363,2.8327,2.8327,0,0,1,.929-1.7016,4.5311,4.5311,0,0,1,1.1326-.7394c.3988-.2012.6158-.26.9245-.39l.8616-.3373c2.2906-.866,4.5191-1.6391,6.6569-2.5984a52.581,52.581,0,0,0,6.2025-3.2847,68.4431,68.4431,0,0,0,11.0581-8.8981l.0072-.0077a.7529.7529,0,0,1,1.0832,1.0441,63.0224,63.0224,0,0,1-10.8021,9.8861,43.7127,43.7127,0,0,1-6.3793,3.7738c-2.2184,1.0921-4.5143,1.9832-6.6943,2.8987l-.8068.3509c-.2417.1117-.5958.249-.7267.337a1.3881,1.3881,0,0,0-.1794.1041,1.3924,1.3924,0,0,0,.2185.2427,7.4743,7.4743,0,0,0,1.1566.9216,45.7857,45.7857,0,0,0,6.12,3.1936c2.1615.978,4.3629,1.876,6.61,2.841l.84.3642.6684.226c.4362.161,1.0322.2455,1.539.376,1.1053.2,2.2428.3657,3.4074.483,4.6607.4715,9.4557.5569,14.23.6067q7.1724.0757,14.365-.1324l1.7971-.054.8972-.0291c.2936-.0124.51-.06.7686-.0849a5.6922,5.6922,0,0,0,1.4664-.27l.714-.2055a5.7825,5.7825,0,0,0,.6737-.31,10.6844,10.6844,0,0,0,4.4126-4.1733,18.7429,18.7429,0,0,0,2.3024-6.1,14.6427,14.6427,0,0,0-.0405-6.3293l-.0267-.1011a1.6379,1.6379,0,0,1,.1227-1.1645,10.9151,10.9151,0,0,0,1.2361-3.9648,10.2234,10.2234,0,0,0-.5324-4.1319,57.4,57.4,0,0,0-4.0656-8.4069l-1.1421-2.13a18.998,18.998,0,0,0-1.178-1.8959,9.0466,9.0466,0,0,0-3.0779-2.8834,8.1709,8.1709,0,0,0-4.0979-.8643c-1.5057.014-3.0518.35-4.8718.3128a.9179.9179,0,0,1-.0134-1.835l.06-.0023c1.4-.0463,3.0118-.47,4.7184-.6038a10.267,10.267,0,0,1,5.2657.8861c3.3856,1.6044,5.2241,5.0328,6.7648,7.64.8271,1.3734,1.6516,2.7677,2.4367,4.2119a31.0681,31.0681,0,0,1,2.1276,4.59,13.3774,13.3774,0,0,1,.8123,5.349,13.7261,13.7261,0,0,1-1.1885,4.62,18.2537,18.2537,0,0,1,.17,7.3262A21.0463,21.0463,0,0,1,147.8371,121.86Zm24.2061,67.5a.7956.7956,0,0,1-1.5048-.446l.0071-.0522c.1048-.8395.23-1.6667.3652-2.4856.1377-.8191.3124-1.6257.39-2.449.2083-1.6361.4751-3.2458.5708-4.87.0136-.1.0187-.1993.03-.2988a55.5388,55.5388,0,0,0-1.2959-6.2,46.5969,46.5969,0,0,0-3.3946-9.0833,43.9077,43.9077,0,0,0-5.4036-8.0719c-2.0783-2.5578-4.5094-4.8863-6.7235-7.6552a.9686.9686,0,0,1,1.34-1.3784l.0332.0252a71.7344,71.7344,0,0,1,7.9688,6.6171,34.2655,34.2655,0,0,1,6.19,8.3288c-.1165-.4452-.2252-.8916-.3546-1.3344q-.6857-2.3118-1.5905-4.5958c-.5795-1.54-1.28-3.0242-1.8594-4.7187a.9688.9688,0,0,1,1.72-.8545l.0265.04c.8934,1.3286,1.8924,2.7508,2.7528,4.25a35.264,35.264,0,0,1,4.699,14.9689,39.9994,39.9994,0,0,1,.0864,5.2767,41.8161,41.8161,0,0,1-.7048,5.1962A38.3835,38.3835,0,0,1,172.0432,189.36ZM312.177,230.1581a.9768.9768,0,0,1,1.6995.9069l-.0038.01c-.8129,2.4022-1.548,4.7635-2.1057,7.1589a57.1614,57.1614,0,0,0-1.2075,7.2311,65.9891,65.9891,0,0,0-.2613,7.3263c.04,2.4627.2422,4.9269.4567,7.4865l.0007.0065a.8059.8059,0,0,1-1.5118.4511,24.2313,24.2313,0,0,1-2.4874-7.6141,30.097,30.097,0,0,1-.1949-8.0609,31.9828,31.9828,0,0,1,1.8106-7.8561A26.7051,26.7051,0,0,1,312.177,230.1581Z"/><path d="M30.1874,86.39c1.0728.2453,2.1509.47,3.2383.6516a56.89,56.89,0,0,0,8.8236.75c.0971,0,.1943-.0033.2913-.0029l-4.7057-2.4273a20.2608,20.2608,0,0,1-8.2236-7.8215l-3.56-6.1233a.7057.7057,0,0,0-1.2987.51l1.3816,6.1324A20.2639,20.2639,0,0,0,30.1874,86.39Z"/><path d="M298.7718,259.0529a9.0285,9.0285,0,0,0-1.013-1.7562,8.0962,8.0962,0,0,0-3-2.5058l-2.1335-1.054c-.3845-.2181-.8092-.4965-1.1946-.7547l-1.0352-.83a51.652,51.652,0,0,1-6.3534-7.3684c-1.8765-2.5509-3.6741-5.1182-5.4391-7.6726-.8929-1.2626-1.7819-2.5326-2.7016-3.7276a8.8621,8.8621,0,0,0-.6657-.7888,6.69,6.69,0,0,0-.688-.733l-.7644-.7151-.847-.6782a61.9185,61.9185,0,0,0-7.6377-4.8606l-6.5809-3.5773c7.2139,6.8133,8.5716,11.0518,11.9373,19.8012,3.7837,9.8368,5.4036,10.6689,4.1144,14.0517s-4.243,5.4858-3.895,10.7838,4.7346,3.9558,9.6387,2.3819,13.5331-3.8826,16.6026-5.7252a28.04,28.04,0,0,0,2.8225-1.9268c-.018-.03-.0406-.0568-.0584-.0865A15.5342,15.5342,0,0,1,298.7718,259.0529Z"/></g></g></svg>