<?xml version="1.0" encoding="utf-8"?>
<!-- Generator: Adobe Illustrator 21.1.0, SVG Export Plug-In . SVG Version: 6.00 Build 0)  -->
<svg version="1.1" id="Layer_1" xmlns="http://www.w3.org/2000/svg" xmlns:xlink="http://www.w3.org/1999/xlink" x="0px" y="0px"
	 viewBox="0 0 71.3 72.3" style="enable-background:new 0 0 71.3 72.3;" xml:space="preserve">
<path d="M49.4,50.6h12.8L49.7,63.1c-0.1,0.1-0.2,0.2-0.3,0.2L49.4,50.6L49.4,50.6z M63.1,48.2H49.4V24.4l13.7-13.7V48.2z M23.6,8.6
	h38.2L48,22.4H23.6V8.6z M21.1,22.4H8.9c-0.2-0.1-0.2-0.2-0.2-0.3L21.1,9.6V22.4z M47,48.2H23.6V24.8H47V48.2z M47,50.6v12.9h-37
	l12.9-12.9C22.8,50.6,47,50.6,47,50.6z M21.1,48.9L8.2,61.8v-37h12.9V48.9z"/>
<rect x="-88.8" y="49.6" width="27.9" height="3.6"/>
<rect x="-88.8" y="57.1" width="30.8" height="3.6"/>
<rect x="-88.8" y="64.6" width="26.5" height="3.6"/>
<rect x="-53" y="49.6" width="26.5" height="3.6"/>
<rect x="-53" y="57.1" width="30.8" height="3.6"/>
<rect x="-53" y="64.6" width="22.3" height="3.6"/>
<g>
	<polygon points="-86.8,0 -55.3,17.3 -23.7,0 	"/>
	<polygon points="-58,18.8 -88.8,1.9 -88.8,35.7 	"/>
	<polygon points="-52.5,18.8 -20.8,36.2 -20.8,1.4 	"/>
	<polygon points="-55.3,20.3 -88,38.2 -22.5,38.2 	"/>
</g>
<rect x="88" y="52" width="25.8" height="11.9"/>
<rect x="116.2" y="52" width="22.8" height="11.9"/>
<rect x="108.1" y="8.6" width="23.6" height="11.9"/>
<rect x="88" y="37.6" width="12.3" height="11.9"/>
<rect x="115" y="23.2" width="29.3" height="11.9"/>
<rect x="88.3" y="23.2" width="24" height="11.9"/>
<rect x="103" y="37.6" width="24" height="11.9"/>
<rect x="129.6" y="37.6" width="14.7" height="11.9"/>
<rect x="88.3" y="8.6" width="17" height="11.9"/>
</svg>
