<svg xmlns="http://www.w3.org/2000/svg" viewBox="0 0 156.4201 224.038"><title>icon-packaging</title><g id="Layer_2" data-name="Layer 2"><g id="Layer_1-2" data-name="Layer 1"><path d="M152.6906,211.4129l3.658-21.2719a4.9511,4.9511,0,0,0-2.3152-5.0715l-6.6152-4.0017S156.6052,119.6834,124.1,59.683,49.01-2.1443,37.3687.848-3.3353,15.3116.3148,80.3567c3.2358,57.6869,33.5906,112.0978,40.417,123.671a3.41,3.41,0,0,0,3.86,1.5532l22.629-6.36a3.4082,3.4082,0,0,0,1.4659-.8494l11.0138-10.82a3.4091,3.4091,0,0,0,.72-3.831L68.3717,156.9615a3.409,3.409,0,0,0-2.55-1.962l-4.1318-.6873s-15.987-32.4627-18.9831-45.2737C39.7106,96.2258,33.02,61.1991,45.7231,50.7556s38.9923,5.1737,52.4236,29.5159,13.3569,74.3511,10.6257,99.4881c-1.6056,14.7627-2.2415,21.9723-2.4946,25.4106a4.9406,4.9406,0,0,0,2.2721,4.5244l21.249,13.5663a4.9482,4.9482,0,0,0,5.0622.156l15.3527-8.5155A4.9483,4.9483,0,0,0,152.6906,211.4129Zm-13.463-56.5136a10.2445,10.2445,0,0,1,2.5675,4.653,10.4675,10.4675,0,0,1-.031,5.4554,7.376,7.376,0,0,1-1.4483,2.6931,5.2922,5.2922,0,0,1-6.4134,1.3467,7.456,7.456,0,0,1-2.4309-1.8958,10.3432,10.3432,0,0,1-2.2349-5.0336,10.07,10.07,0,0,1,.59-5.34,6.6274,6.6274,0,0,1,1.6018-2.3076,4.4152,4.4152,0,0,1,2.6172-1.1648l-.0334-.166a4.7165,4.7165,0,0,1,2.9025.2013A6.8324,6.8324,0,0,1,139.2276,154.8993Zm-7.888-41.6907a4.036,4.036,0,0,1,2.6067-.739,6.4478,6.4478,0,0,1,2.4226.6695,10.0154,10.0154,0,0,1,3.6025,3.07,10.2138,10.2138,0,0,1,1.91,4.4708,6.9078,6.9078,0,0,1-.1406,2.7692,4.7713,4.7713,0,0,1-1.91,2.71,4.228,4.228,0,0,1-.4161.2173c.2006,1.7714.2839,3.5059.31,5.2344.0243,1.9728-.0285,3.9321-.1385,5.8849a77.57,77.57,0,0,1-1.4787,11.6231.7948.7948,0,0,1-1.5677-.25l.0021-.01a75.57,75.57,0,0,0,.3019-11.3849c-.0822-1.8958-.2219-3.7869-.4332-5.6577a47.8771,47.8771,0,0,0-.8473-5.1751,7.8215,7.8215,0,0,1-1.615-.7149,10.034,10.034,0,0,1-3.4067-3.535,9.7588,9.7588,0,0,1-1.35-4.5906,6.2105,6.2105,0,0,1,.4422-2.4935,3.78,3.78,0,0,1,1.7977-1.9574ZM120.793,76.097a4.0269,4.0269,0,0,1,2.6413-.5981,6.397,6.397,0,0,1,2.3835.7972,10.0064,10.0064,0,0,1,3.4347,3.2568,10.2041,10.2041,0,0,1,1.6689,4.5662,6.9086,6.9086,0,0,1-.2879,2.7581,4.8062,4.8062,0,0,1-.99,1.6948c1.04,3.2141,2.0252,6.4589,2.8443,9.76a61.5175,61.5175,0,0,1,1.7895,10.6931.7952.7952,0,0,1-1.5759.1935l-.001-.01a59.39,59.39,0,0,0-2.8358-10.076c-1.1171-3.0472-2.3925-6.0455-3.7262-9.0269a4.585,4.585,0,0,1-.842-.0833,6.9952,6.9952,0,0,1-2.5761-1.0874,10.0345,10.0345,0,0,1-3.2132-3.7105,9.775,9.775,0,0,1-1.105-4.6561,6.2443,6.2443,0,0,1,.5762-2.4668,3.7849,3.7849,0,0,1,1.9-1.86Zm-21.88-38.0707.0839.1459a3.7758,3.7758,0,0,1,2.5546-.7329,6.2423,6.2423,0,0,1,2.4306.7176,9.7612,9.7612,0,0,1,3.5021,3.26,10.0369,10.0369,0,0,1,1.6382,4.6278,8.0541,8.0541,0,0,1-.0322,1.4464,62.1966,62.1966,0,0,1,6.6948,10.3839A66.8128,66.8128,0,0,1,120.4865,69.25a.7943.7943,0,0,1-1.4945.5327l-.0052-.0094a64.6744,64.6744,0,0,0-5.5732-10.52,61.2332,61.2332,0,0,0-6.28-8.153,4.3222,4.3222,0,0,1-.431.3118,4.7733,4.7733,0,0,1-3.278.496,6.915,6.915,0,0,1-2.54-1.112A10.1851,10.1851,0,0,1,97.74,47.0891a9.9987,9.9987,0,0,1-1.1363-4.5952,6.419,6.419,0,0,1,.4845-2.4664A4.0271,4.0271,0,0,1,98.9132,38.0263ZM30.4585,123.8289a5.9764,5.9764,0,0,1,3.389-1.6359,8.1877,8.1877,0,0,1,3.3757.2774,11.4627,11.4627,0,0,1,5.14,3.3244,11.17,11.17,0,0,1,2.6923,5.3408,7.3341,7.3341,0,0,1-.0955,3.1111,4.9388,4.9388,0,0,1-1.7083,2.6565l.1172.12a5.2364,5.2364,0,0,1-2.81,1.5417,7.5592,7.5592,0,0,1-3.0923-.0615,11.346,11.346,0,0,1-5.2091-2.8212,11.5594,11.5594,0,0,1-3.2252-5.1384,8.0955,8.0955,0,0,1-.2407-3.3527A5.979,5.979,0,0,1,30.4585,123.8289Zm6.6433,33.5167,10.4236,1.7375,14.3561-2.1425a.796.796,0,0,1,.3575,1.5462l-12.1282,3.8355,5.9751,12.74c2.054,4.3478,4.0549,8.7213,6.0685,13.0888l14.75-3.0689a.7959.7959,0,0,1,.4353,1.5266l-14.8953,5.4517a1.935,1.935,0,0,1-.47.1026q-7.5545,5.2426-15.14,10.4413a.93.93,0,0,1-1.083-1.5124q7.026-5.2882,14.1077-10.5012a1.932,1.932,0,0,1,.081-1.0161c-2.1985-4.3986-4.4128-8.7888-6.5706-13.2075L46.6188,162.65a1.9393,1.9393,0,0,1-.44-.3993l-10.6154-1.5662a1.7415,1.7415,0,0,1-1.3334-1.0026l-.0154-.0345c-2.6927-6.0279-5.1165-12.1142-7.5035-18.24-2.3679-6.128-4.6331-12.2963-6.7481-18.5228a242.9656,242.9656,0,0,1-10.15-38.2167c-.52-3.28-.9007-6.5938-1.1083-9.9379l-.1042-2.5182-.0371-2.4722c-.0132-1.6479-.0215-3.2954,0-4.946A167.2757,167.2757,0,0,1,9.92,45.0228a86.3651,86.3651,0,0,1,4.6248-19.3521A47.9288,47.9288,0,0,1,25.0066,8.7461.762.762,0,0,1,26.12,9.7853a48.0429,48.0429,0,0,0-9.3,16.6994,91.7053,91.7053,0,0,0-3.9071,18.9019,169.3533,169.3533,0,0,0-.847,19.4182c.002,1.6238.0319,3.2488.0679,4.8724l.0693,2.4368L12.3376,74.5c.24,3.1853.658,6.3744,1.1972,9.554a190.532,190.532,0,0,0,4.3288,18.9424q2.598,9.3952,5.71,18.6691C27.6121,133.7169,32.1858,145.6383,37.1017,157.3456ZM26.9385,82.48a11.4334,11.4334,0,0,1,5.14,3.3237,11.167,11.167,0,0,1,2.6936,5.3407,7.3573,7.3573,0,0,1-.0969,3.1112,4.9358,4.9358,0,0,1-1.7076,2.6557l.1165.121a5.225,5.225,0,0,1-2.7443,1.5232,31.7385,31.7385,0,0,0,.49,4.1239c.2745,1.5443.6184,3.0975.9989,4.6458.7666,3.098,1.6767,6.1848,2.6774,9.24a.7948.7948,0,0,1-1.4746.5869c-1.3742-2.951-2.66-5.9436-3.8212-9.01-.5773-1.5358-1.1238-3.0885-1.6078-4.6844a33.531,33.531,0,0,1-1.1678-5.002c-.0068-.0477-.0026-.0938-.0055-.1414a11.8681,11.8681,0,0,1-7.68-7.7621,8.084,8.084,0,0,1-.2407-3.3527,5.7941,5.7941,0,0,1,5.0552-4.9983A8.1737,8.1737,0,0,1,26.9385,82.48Zm-1.0724-3.7437,0,.0092a.7944.7944,0,0,1-1.5845.0883c-.414-3.8845-.6329-7.7687-.6755-11.689-.0169-1.9583.0137-3.9253.1386-5.9084a39.6852,39.6852,0,0,1,.7446-5.7467,11.4077,11.4077,0,0,1-2.33-1.6663,10.6606,10.6606,0,0,1-3.0685-5.0622,7.8194,7.8194,0,0,1-.1217-3.2691,5.89,5.89,0,0,1,4.8747-4.8227,7.9131,7.9131,0,0,1,3.2933.1577,9.3153,9.3153,0,0,1,1.6463.6042,65.8136,65.8136,0,0,1,2.8824-9.0586c.6983-1.7507,1.4607-3.4814,2.3322-5.1865a32.3,32.3,0,0,1,2.73-4.4947,10.7416,10.7416,0,0,1-1.78-3.9963,7.4918,7.4918,0,0,1-.0122-2.9962,4.8933,4.8933,0,0,1,5.29-3.9542,7.5857,7.5857,0,0,1,2.8949.8606,11.0347,11.0347,0,0,1,3.9361,3.6282,10.7149,10.7149,0,0,1,1.7875,4.9155,6.7569,6.7569,0,0,1-.3061,2.7378,4.0975,4.0975,0,0,1-1.8015,2.2425l.1007.1351a4.355,4.355,0,0,1-2.7726.9408,6.9623,6.9623,0,0,1-2.6712-.5935,9.654,9.654,0,0,1-1.9966-1.1624,30.4206,30.4206,0,0,0-2.5246,3.3952c-.9715,1.4961-1.8712,3.065-2.7139,4.6689a62.8241,62.8241,0,0,0-3.8216,8.8322,12.0372,12.0372,0,0,1,1.867,1.6459,10.2582,10.2582,0,0,1,2.5308,5.25,7.042,7.042,0,0,1-.2035,3.0126,4.9743,4.9743,0,0,1-1.707,2.513l.1172.12a5.3,5.3,0,0,1-2.6656,1.5438,6.89,6.89,0,0,1-2.08.1569,36.53,36.53,0,0,0-1.1542,5.0193c-.3031,1.8563-.5233,3.7475-.6962,5.6478C26.0092,71.0557,25.8405,74.9075,25.8661,78.7359ZM129.5032,174.642a18.7122,18.7122,0,0,1-6.2969-.8336,8.9272,8.9272,0,0,1-1.5781-.7286,6.6274,6.6274,0,0,1-.7534-.519l-.3607-.3015a3.9864,3.9864,0,0,1-.3915-.4266,7.0685,7.0685,0,0,1-1.2392-3.4586,32.5691,32.5691,0,0,1-.0253-6.2254c.2989-4.0325.8487-7.9679,1.3443-11.899.4988-3.9272.9913-7.836,1.3633-11.7361a79.0866,79.0866,0,0,0,.3826-11.6032A102.1543,102.1543,0,0,0,120.62,115.33a158.75,158.75,0,0,0-5.676-22.7478,129.4905,129.4905,0,0,0-9.2349-21.5008A84.2689,84.2689,0,0,0,92.064,52.328,61.8886,61.8886,0,0,0,83.2193,44.87a37.6722,37.6722,0,0,0-4.9347-2.8954,29.4609,29.4609,0,0,0-5.2757-2.0445,21.19,21.19,0,0,0-11.0873-.1953,26.9015,26.9015,0,0,0-10.0365,5.3021.93.93,0,0,1-1.1965-1.4234l.0139-.0119a27.8863,27.8863,0,0,1,10.5881-6.1462,23.7824,23.7824,0,0,1,12.4084-.2188,29.7537,29.7537,0,0,1,5.8579,2.0621,40.5245,40.5245,0,0,1,5.3712,3.0045,64.8626,64.8626,0,0,1,9.469,7.6479,81.5151,81.5151,0,0,1,14.5351,19.3451A133.3308,133.3308,0,0,1,118.5659,91.37a144.8247,144.8247,0,0,1,5.8362,23.3355,102.6292,102.6292,0,0,1,1.2939,12.036,82.7561,82.7561,0,0,1-.58,12.1293c-.8168,7.9672-2.47,15.7829-3.3023,23.5282a30.18,30.18,0,0,0-.1522,5.6424,4.7529,4.7529,0,0,0,.6,2.12,1.26,1.26,0,0,0,.1031.1262l.2054.18a4.1485,4.1485,0,0,0,.46.3364,6.3021,6.3021,0,0,0,1.0917.5619,16.3923,16.3923,0,0,0,5.4011.9293,34.8983,34.8983,0,0,0,5.7263-.3174l.0625-.0076a.9922.9922,0,0,1,.6964.1646q4.4343,3.0613,8.8285,6.1846a.7626.7626,0,0,1-.8421,1.2708q-4.403-2.7278-8.782-5.4934A36.8932,36.8932,0,0,1,129.5032,174.642Zm19.2016,38.3312-18.7273-10.5019c-1.13.457-2.2593.9186-3.4,1.3513-1.6288.6419-3.2719,1.2463-4.918,1.8451-1.6435.6048-3.3029,1.1727-4.9668,1.7318-1.6641.5532-3.3363,1.0881-5.033,1.5664a.9363.9363,0,0,1-.71-1.719c1.54-.8582,3.1034-1.6576,4.6734-2.44,1.5731-.7782,3.15-1.5439,4.7411-2.2743,1.59-.7374,3.1814-1.4671,4.79-2.1615,1.2726-.5686,2.5582-1.1085,3.8436-1.6461.2548-1.506.5187-3.01.8086-4.51.3309-1.849.75-3.6817,1.1305-5.5234.8349-3.6665,1.7153-7.3269,2.8909-10.9365a.77.77,0,0,1,1.502.2614c-.1118,3.7931-.5167,7.5365-.9677,11.2707-.2637,1.8606-.4874,3.7279-.8,5.58q-.3778,2.4516-.8233,4.8918l16.8118,11.8708a.7945.7945,0,0,1-.846,1.3427Z"/><path d="M31.7592,53.6778a4.33,4.33,0,0,0,.315-3.8555,8.3727,8.3727,0,0,0-2.3225-3.4287,7.8807,7.8807,0,0,0-3.5024-1.877,3.2746,3.2746,0,0,0-2.9186.5476,3.2438,3.2438,0,0,0-.6908,2.9235,7.7059,7.7059,0,0,0,1.7865,3.6164,8.16,8.16,0,0,0,3.451,2.3844,4.0277,4.0277,0,0,0,3.7646-.431Z"/><path d="M131.9,117.5055a8.4258,8.4258,0,0,0,1.513,3.0034,7.7379,7.7379,0,0,0,2.4165,2.12,3.1844,3.1844,0,0,0,1.2055.3993,1.3693,1.3693,0,0,0,.6776-.1012,1.2088,1.2088,0,0,0,.4043-.5663,3.1659,3.1659,0,0,0,.1546-1.2874,7.4571,7.4571,0,0,0-.9536-3.1251,8.0239,8.0239,0,0,0-2.2208-2.5838,2.8989,2.8989,0,0,0-2.7372-.6l-.0921-.1406A3.21,3.21,0,0,0,131.9,117.5055Z"/><path d="M132.6,161.43a7.8169,7.8169,0,0,0,1.7129,3.2054,3.6084,3.6084,0,0,0,1.2093.8938,2.0162,2.0162,0,0,0,1.053.17,1.948,1.948,0,0,0,.9366-.5389,3.6312,3.6312,0,0,0,.8074-1.3011,7.6107,7.6107,0,0,0,.368-3.6725,8.1015,8.1015,0,0,0-1.3792-3.589,3.5056,3.5056,0,0,0-2.9249-1.6354l-.0338-.1638a3.8041,3.8041,0,0,0-1.9382,2.841A8.3925,8.3925,0,0,0,132.6,161.43Z"/><path d="M121.1238,80.4179a8.4241,8.4241,0,0,0,1.3507,3.079,7.7483,7.7483,0,0,0,2.2993,2.2466,3.1636,3.1636,0,0,0,1.1845.4619,1.3534,1.3534,0,0,0,.68-.0636,1.1951,1.1951,0,0,0,.4346-.5449,3.1673,3.1673,0,0,0,.2231-1.2772,7.46,7.46,0,0,0-.7853-3.1708,8.0335,8.0335,0,0,0-2.08-2.699,2.9023,2.9023,0,0,0-2.702-.7452l-.0846-.1451A3.2118,3.2118,0,0,0,121.1238,80.4179Z"/><path d="M22.2692,89.6684a8.7136,8.7136,0,0,0,1.9715,3.8035,9.1626,9.1626,0,0,0,3.62,2.5693,5.7989,5.7989,0,0,0,.748.21,1.9415,1.9415,0,0,1,.3208.0651,3.6491,3.6491,0,0,0,2.8543-.6147l.1166.121a4.3959,4.3959,0,0,0,.2282-4.0152,9.4607,9.4607,0,0,0-2.5042-3.6028,8.92,8.92,0,0,0-3.689-2.0654,4.3505,4.3505,0,0,0-1.8022-.1064,2.51,2.51,0,0,0-1.2567.5679,2.4666,2.4666,0,0,0-.64,1.2363A4.38,4.38,0,0,0,22.2692,89.6684Z"/><path d="M99.1619,42.3517a8.027,8.027,0,0,0,1.3188,3.142,7.48,7.48,0,0,0,2.3677,2.249,3.2,3.2,0,0,0,1.2211.4384,1.1939,1.1939,0,0,0,.689-.11,1.3476,1.3476,0,0,0,.3921-.5594,3.1622,3.1622,0,0,0,.183-1.2573,7.7416,7.7416,0,0,0-.8167-3.11,8.4419,8.4419,0,0,0-2.01-2.6954,3.216,3.216,0,0,0-2.7423-.96l.084.146A2.8977,2.8977,0,0,0,99.1619,42.3517Z"/><path d="M42.5381,24.3179a3.2983,3.2983,0,0,0,3.1946.4506l.0994.1353a3.598,3.598,0,0,0,.3255-3.3083,9.4135,9.4135,0,0,0-1.86-3.3209,8.74,8.74,0,0,0-2.868-2.2726,3.7616,3.7616,0,0,0-1.4422-.3922,1.64,1.64,0,0,0-.8822.1962,1.529,1.529,0,0,0-.4885.7747,3.7672,3.7672,0,0,0-.0853,1.5178,8.4569,8.4569,0,0,0,1.3077,3.4733A8.9933,8.9933,0,0,0,42.5381,24.3179Z"/><path d="M32.5547,129.66a8.699,8.699,0,0,0,1.9709,3.8043,9.17,9.17,0,0,0,3.6188,2.5687,4.0985,4.0985,0,0,0,3.9238-.3393l.1173.12a4.397,4.397,0,0,0,.2276-4.0145,9.452,9.452,0,0,0-2.5042-3.6028,8.9052,8.9052,0,0,0-3.689-2.0654,4.3619,4.3619,0,0,0-1.8015-.1071,2.5136,2.5136,0,0,0-1.2567.5679,2.4613,2.4613,0,0,0-.64,1.237A4.3545,4.3545,0,0,0,32.5547,129.66Z"/></g></g></svg>