<?xml version="1.0" encoding="utf-8"?>
<!-- Generator: Adobe Illustrator 21.1.0, SVG Export Plug-In . SVG Version: 6.00 Build 0)  -->
<svg version="1.1" id="Layer_1" xmlns="http://www.w3.org/2000/svg" xmlns:xlink="http://www.w3.org/1999/xlink" x="0px" y="0px"
	 viewBox="0 0 105.4 95.8" style="enable-background:new 0 0 105.4 95.8;" xml:space="preserve">
<style type="text/css">
	.st0{stroke:#FFFFFF;stroke-width:2;stroke-miterlimit:10;}
	.st1{stroke:#000000;stroke-width:2.4236;stroke-miterlimit:10;}
	.st2{fill:#FFFFFF;}
	.st3{enable-background:new    ;}
</style>
<rect x="133.7" y="-24.1" class="st0" width="9.1" height="9.1"/>
<g>
	<path d="M-75-52.4c-0.2-0.5-0.4-1.1-0.5-1.7c-0.5-1.9-0.8-3.9-1.1-6c-0.2-2.1-0.4-4.2-0.5-6.3s-0.2-3.8-0.3-5.4
		c-0.2-2.4-0.5-4.9-1-7.3c-0.5-2.5-1.3-4.7-2.4-6.8c-1.1-2.1-2.5-3.9-4.3-5.4c-1-0.9-2.1-1.6-3.4-2.2v1.3c0,0,0.1,0,0.1,0.1h-0.1
		v0.3v1.4h-1.4h-4.2h-1.4v-1.4V-96v-1.4h1.4h4.2h1.4v0.9v0.5v0.9c3.8-2.1,6.7-4.8,8.7-8.1c1-1.7,1.7-3.5,2.3-5.4v18.4
		c-0.9,0.3-1.5,1.1-1.5,2c0,1.2,1,2.1,2.1,2.1c1.2,0,2.1-1,2.1-2.1c0-1-0.6-1.7-1.4-2v-22.7h-1.2h-0.1h-0.2h-1.1h-1.4v-1.4v-4.2
		v-1.4h1.4h1.3h0.1h1.2v-22.9c0.9-0.3,1.5-1.1,1.5-2c0-1.2-1-2.1-2.1-2.1c-1.2,0-2.1,1-2.1,2.1c0,1,0.6,1.8,1.5,2v16.3
		c-0.2-0.7-0.5-1.4-0.8-2.1c-0.5-1.2-1.1-2.4-1.8-3.5v0.3h-1.2h-0.2h-4.2H-87v-1.4v-4.2v-0.9v-0.5h1.2c-2.1-1.7-4.4-3.1-7.1-4.2
		c-1.7-0.7-3.4-1.2-5.3-1.5v1.2v0.9v1.4h-1.4h-4.2h-1.4v-1.4v-1.5v-1.2h-47.7v1.2v1.5v1.4h-1.4h-1.4h-1.2v88.6h1.2h1.4h1.4v1.4v1.5
		v1.2v1.4h14.1v-1.4v-1.2V-51v-1.4h1.4h1.5h1.2v-30.4h-1.2h-1.5h-1.4v-1.4v-4.2v-1.4h1.4h4.2h1.4v1.4v1.5v1.2v0.3h16.5
		c4.5,0,7.9,0.6,10.1,1.9v-0.3v-0.5h1.4l0,0h4.2h1.4v1.4v4.2v1.4H-99h-0.6h-0.7h-0.7c0.5,2,0.8,4.5,0.8,7.5l0.1,9.1
		c0,2.9,0.3,5.7,0.9,8.5c0.3,1.3,0.7,3.1,1.4,5.3c0,0,0.2,0,0.6,0v0.1h4.2v-0.1c4.3,0,10.6,0,15.5,0v-1.4v-1.2V-51v-1.4h1.2h0.2H-75
		z M-133.2-97.9h-4.2h-1.4v-1.4v-4.2v-1.4h1.4h1.5h1.2v-19.8h-1.2h-1.5h-1.4v-1.4v-4.2v-1.4h1.4h4.2h1.4v1.4v1.5v1.2h19.3v-1.2v-1.5
		v-1.4h1.4h4.2h1.4v1.4v2.3v1.3c1.5,0.6,2.6,1.2,3.7,2.1c1.3,1.2,2.3,2.7,2.8,4.7h1.3h2h1.4v1.4v4.2v1.4h-1.4h-1.6h-1.2
		c-0.3,3.5-1.4,6.2-3.4,8c-1,0.9-2.2,1.5-3.6,2v1.3v2.3v1.4h-1.4h-4.2h-1.4v-1.4v-1.4v-1.2h-19.3v1.2v1.4v1.4
		C-131.8-97.9-133.2-97.9-133.2-97.9z"/>
	<rect x="-76.1" y="-51" width="4.2" height="4.2"/>
	<rect x="-94.1" y="-96" width="4.2" height="4.2"/>
	<rect x="-137.4" y="-51" width="4.2" height="4.2"/>
	<rect x="-158.5" y="-51" width="4.2" height="4.2"/>
	<rect x="-103.8" y="-146.6" width="4.2" height="4.2"/>
	<rect x="-85.6" y="-137.4" width="4.2" height="4.2"/>
	<rect x="-158.5" y="-146.6" width="4.2" height="4.2"/>
	<rect x="-137.4" y="-130.3" width="4.2" height="4.2"/>
	<rect x="-137.4" y="-103.5" width="4.2" height="4.2"/>
	<rect x="-137.4" y="-88.4" width="4.2" height="4.2"/>
	<rect x="-103.8" y="-82.9" width="4.2" height="4.2"/>
	<rect x="-99.9" y="-118.5" width="4.2" height="4.2"/>
	<rect x="-111.1" y="-130.3" width="4.2" height="4.2"/>
	<rect x="-111.1" y="-103.5" width="4.2" height="4.2"/>
	<polygon points="-77.4,-118.5 -78.8,-118.5 -78.8,-114.3 -77.4,-114.3 -76.2,-114.3 -74.6,-114.3 -74.6,-118.5 -76.2,-118.5 	"/>
</g>
<path class="st1" d="M82.7-87.9"/>
<path d="M83-100.1c1.6,1.4,3,3.1,4,5s1.8,4.1,2.3,6.5s0.8,4.8,1,7.1c0.1,1.5,0.2,3.3,0.3,5.3c0.1,2.1,0.2,4.2,0.5,6.3
	c0.2,2.2,0.6,4.2,1.1,6.2c0.1,0.5,0.3,0.9,0.4,1.4h1.3c-0.2-0.5-0.4-1.1-0.5-1.7c-0.5-1.9-0.8-3.9-1.1-6c-0.2-2.1-0.4-4.2-0.5-6.3
	c-0.1-2.1-0.2-3.8-0.3-5.4c-0.2-2.4-0.5-4.9-1-7.3c-0.5-2.5-1.3-4.7-2.4-6.8s-2.5-3.9-4.3-5.4c-1-0.9-2.2-1.6-3.5-2.2v1.3
	C81.3-101.3,82.2-100.7,83-100.1z"/>
<path d="M75.5-151.8c2.5,1,4.7,2.3,6.7,3.8v-0.5h1.2c-2.2-1.8-4.6-3.3-7.4-4.4c-1.7-0.7-3.5-1.2-5.4-1.5v1.2
	C72.3-152.9,73.9-152.4,75.5-151.8z"/>
<path d="M88-113.7c-1.7,3-4.3,5.5-7.7,7.4v1.4c3.9-2.1,6.8-4.8,8.8-8.2c1.7-2.9,2.7-6.2,3.3-9.8h-1.2
	C90.6-119.5,89.6-116.5,88-113.7z"/>
<rect x="15.9" y="-155" width="48" height="1.2"/>
<rect x="12" y="-151.1" width="1.2" height="88.9"/>
<path d="M72.3-69.7c-0.3-4.2-0.7-8.2-1.2-12.1c-0.3-2.1-0.8-3.9-1.3-5.6h-1.3c0.6,1.7,1.1,3.6,1.4,5.8c0.5,3.8,0.9,7.9,1.2,12
	c0.2,2.7,0.5,5.2,1.1,7.5h1.3C72.9-64.4,72.5-66.9,72.3-69.7z"/>
<rect x="33" y="-92.8" width="1.2" height="30.7"/>
<path d="M65.3-94.1c-2.5-1.8-6-2.7-10.7-2.7H36.9v1.2h17.7c4,0,7,0.7,9.3,2v-0.5H65.3z"/>
<rect x="15.9" y="-59.4" width="14.4" height="1.2"/>
<rect x="77.2" y="-59.4" width="14.4" height="1.2"/>
<path d="M67.1-134.5c1.3,1.2,2.3,2.8,2.8,4.8h1.3c-0.6-2.4-1.7-4.4-3.3-5.8c-1.2-1.1-2.8-1.9-4.6-2.4v1.3
	C64.8-136,66-135.4,67.1-134.5z"/>
<rect x="36.9" y="-111.8" width="19.7" height="1.2"/>
<rect x="36.9" y="-138.7" width="19.7" height="1.2"/>
<rect x="33" y="-134.7" width="1.2" height="20.2"/>
<path d="M67-114.8c-1,0.9-2.3,1.6-3.8,2.1v1.3c1.8-0.6,3.4-1.4,4.6-2.5c2.2-2,3.5-5,3.8-9h-1.2C70.1-119.3,69-116.6,67-114.8z"/>
<rect x="71.7" y="-60.9" width="4.2" height="4.2"/>
<path d="M94.3-124.2v-4.2h-1.6v-24.3c0.9-0.3,1.5-1.1,1.5-2c0-1.2-1-2.1-2.1-2.1c-1.2,0-2.1,1-2.1,2.1c0,1,0.6,1.8,1.5,2v16.3
	c-0.2-0.7-0.5-1.4-0.8-2.1c-0.5-1.3-1.2-2.5-1.9-3.7v0.3h-1.2c0.8,1.2,1.4,2.5,2,3.8c1.1,2.6,1.7,5.4,1.8,8.4l0,0v1.2H90v4.2h1.4
	v24.2c-0.9,0.3-1.5,1.1-1.5,2c0,1.2,1,2.1,2.1,2.1c1.2,0,2.1-1,2.1-2.1c0-1-0.6-1.8-1.5-2v-24.1C92.6-124.2,94.3-124.2,94.3-124.2z"
	/>
<g>
	<rect x="92.1" y="-61.6" width="5.6" height="5.6"/>
	<path class="st2" d="M97-60.9v4.2h-4.2v-4.2H97 M98.4-62.3H97h-4.2h-1.4v1.4v4.2v1.4h1.4H97h1.4v-1.4v-4.2V-62.3L98.4-62.3z"/>
</g>
<g>
	<rect x="74.1" y="-106.6" width="5.6" height="5.6"/>
	<path class="st2" d="M79-105.9v4.2h-4.2v-4.2H79 M80.4-107.3H79h-4.2h-1.4v1.4v4.2v1.4h1.4H79h1.4v-1.4v-4.2V-107.3L80.4-107.3z"/>
</g>
<g>
	<rect x="30.8" y="-61.6" width="5.6" height="5.6"/>
	<path class="st2" d="M35.7-60.9v4.2h-4.2v-4.2H35.7 M37.1-62.3h-1.4h-4.2h-1.4v1.4v4.2v1.4h1.4h4.2h1.4v-1.4v-4.2V-62.3L37.1-62.3z
		"/>
</g>
<g>
	<rect x="9.7" y="-61.6" width="5.6" height="5.6"/>
	<path class="st2" d="M14.6-60.9v4.2h-4.2v-4.2H14.6 M16-62.3h-1.4h-4.2H9v1.4v4.2v1.4h1.4h4.2H16v-1.4v-4.2V-62.3L16-62.3z"/>
</g>
<g>
	<rect x="64.4" y="-157.2" width="5.6" height="5.6"/>
	<path class="st2" d="M69.3-156.5v4.2h-4.2v-4.2H69.3 M70.7-157.9h-1.4h-4.2h-1.4v1.4v4.2v1.4h1.4h4.2h1.4v-1.4v-4.2V-157.9
		L70.7-157.9z"/>
</g>
<g>
	<rect x="82.6" y="-148" width="5.6" height="5.6"/>
	<path class="st2" d="M87.5-147.3v4.2h-4.2v-4.2H87.5 M88.9-148.7h-1.4h-4.2h-1.4v1.4v4.2v1.4h1.4h4.2h1.4v-1.4v-4.2V-148.7
		L88.9-148.7z"/>
</g>
<g>
	<rect x="9.7" y="-157.2" width="5.6" height="5.6"/>
	<g>
		<path class="st2" d="M14.6-156.5v4.2h-4.2v-4.2H14.6 M16-157.9h-1.4h-4.2H9v1.4v4.2v1.4h1.4h4.2H16v-1.4v-4.2V-157.9L16-157.9z"/>
	</g>
</g>
<g>
	<rect x="30.8" y="-140.9" width="5.6" height="5.6"/>
	<path class="st2" d="M35.7-140.2v4.2h-4.2v-4.2H35.7 M37.1-141.6h-1.4h-4.2h-1.4v1.4v4.2v1.4h1.4h4.2h1.4v-1.4v-4.2V-141.6
		L37.1-141.6z"/>
</g>
<g>
	<rect x="30.8" y="-114.1" width="5.6" height="5.6"/>
	<path class="st2" d="M35.7-113.4v4.2h-4.2v-4.2H35.7 M37.1-114.8h-1.4h-4.2h-1.4v1.4v4.2v1.4h1.4h4.2h1.4v-1.4v-4.2V-114.8
		L37.1-114.8z"/>
</g>
<g>
	<rect x="30.8" y="-99" width="5.6" height="5.6"/>
	<path class="st2" d="M35.7-98.3v4.2h-4.2v-4.2H35.7 M37.1-99.7h-1.4h-4.2h-1.4v1.4v4.2v1.4h1.4h4.2h1.4v-1.4v-4.2V-99.7L37.1-99.7z
		"/>
</g>
<g>
	<rect x="64.4" y="-93.5" width="5.6" height="5.6"/>
	<path class="st2" d="M69.3-92.8v4.2h-4.2v-4.2H69.3 M70.7-94.2h-1.4h-4.2h-1.4v1.4v4.2v1.4h1.4h4.2h1.4v-1.4v-4.2V-94.2L70.7-94.2z
		"/>
</g>
<g>
	<rect x="68.3" y="-129.1" width="5.6" height="5.6"/>
	<path class="st2" d="M73.2-128.4v4.2H69v-4.2H73.2 M74.6-129.8h-1.4H69h-1.4v1.4v4.2v1.4H69h4.2h1.4v-1.4v-4.2V-129.8L74.6-129.8z"
		/>
</g>
<g>
	<rect x="89.4" y="-129.1" width="5.6" height="5.6"/>
	<path class="st2" d="M94.3-128.4v4.2h-4.2v-4.2H94.3 M95.7-129.8h-1.4h-4.2h-1.4v1.4v4.2v1.4h1.4h4.2h1.4v-1.4v-4.2V-129.8
		L95.7-129.8z"/>
</g>
<g>
	<rect x="57.1" y="-140.9" width="5.6" height="5.6"/>
	<path class="st2" d="M62-140.2v4.2h-4.2v-4.2H62 M63.4-141.6H62h-4.2h-1.4v1.4v4.2v1.4h1.4H62h1.4v-1.4v-4.2V-141.6L63.4-141.6z"/>
</g>
<g>
	<rect x="57.1" y="-114.1" width="5.6" height="5.6"/>
	<path class="st2" d="M62-113.4v4.2h-4.2v-4.2H62 M63.4-114.8H62h-4.2h-1.4v1.4v4.2v1.4h1.4H62h1.4v-1.4v-4.2V-114.8L63.4-114.8z"/>
</g>
<g>
	<rect x="91.5" y="-153.5" width="1.2" height="54.2"/>
</g>
<text transform="matrix(0.9067 0 0 1 207.177 -40.5176)" style="font-family:'CircularStd-Bold'; font-size:90px;">Aa</text>
<rect x="229.2" y="-19.5" class="st0" width="9.1" height="9.1"/>
<rect x="213" y="79.9" class="st0" width="9.1" height="9.1"/>
<rect x="-60.6" y="77.7" class="st0" width="9.1" height="9.1"/>
<rect x="-43.6" y="77.7" class="st0" width="9.1" height="9.1"/>
<g>
	<rect x="23.7" y="145" width="6.9" height="6.9"/>
	<path class="st2" d="M29.6,146v4.9h-4.9V146H29.6 M31.6,144h-2h-4.9h-2v2v4.9v2h2h4.9h2v-2V146V144L31.6,144z"/>
</g>
<g>
	<polygon points="133.9,250.4 134.2,250.5 137,250.5 141.6,236.8 148.3,236.8 148.3,233.8 139.4,233.8 	"/>
	<polygon points="116.9,250.3 117.3,250.5 119.9,250.5 144.7,186 148.3,186 148.3,183 142.7,183 	"/>
	<polygon points="148.3,221.3 148.3,210.2 144.1,221.3 	"/>
	<path d="M160.6,183h-6.2v-19h-3v95.8h3v-23.5h9.4l5.3,14.6h17.5L160.6,183z M154.5,220.9v-10.5l3.8,10.5H154.5z"/>
</g>
<circle cx="45" cy="71.6" r="4.5"/>
<path d="M15.3,31.9C25,31.9,33,24,33,14.3v0v0c0,9.8,7.9,17.7,17.7,17.7h0h0c-9.8,0-17.7,7.9-17.7,17.7v0v0
	C33,39.9,25,31.9,15.3,31.9L15.3,31.9L15.3,31.9z"/>
<path d="M59.6,53.2c7.6,0,13.8-6.2,13.8-13.8v0v0c0,7.6,6.2,13.8,13.8,13.8h0h0c-7.6,0-13.8,6.2-13.8,13.8v0v0
	C73.5,59.4,67.3,53.2,59.6,53.2L59.6,53.2L59.6,53.2z"/>
</svg>
