<svg xmlns="http://www.w3.org/2000/svg" viewBox="0 0 235.308 152.7958"><title>icon-web-build</title><g id="Layer_2" data-name="Layer 2"><g id="Layer_1-2" data-name="Layer 1"><path d="M228.1324,47.8548c-9.144-8.2339-21.7731-19.1108-35.36-29.3364L172.8194,4.11a21.71,21.71,0,0,0-29.442,3.769L110.4083,47.7694l-.0668-.0278c-1.1062,1.3213-2.2162,2.64-3.2961,3.978q-1.1842,1.467-2.3419,2.9521c-2.2068,2.8311-4.3331,5.7163-6.3261,8.6807a81.3065,81.3065,0,0,0-7.05,12.481,39.4022,39.4022,0,0,0-2.2689,6.625,20.2916,20.2916,0,0,0-.568,6.67,11.9052,11.9052,0,0,0,2.1379,5.8677c.285.4038.67.8579,1.0541,1.31.3829.4473.7439.9053,1.1439,1.3418.808.8711,1.582,1.7612,2.4341,2.6055,3.3319,3.4189,6.9159,6.66,10.5619,9.84,4.718,4.127,9.5734,8.0972,14.4038,12.187q1.0269.8694,2.0518,1.7461l.0424-.0986,32.8389,25.8345a14.1673,14.1673,0,0,0,17.332.146l4.406-3.3491a48.4161,48.4161,0,0,0,9.5569-9.6606l44.567-59.9731A21.7,21.7,0,0,0,228.1324,47.8548Zm-90.5065-26.19a53.9294,53.9294,0,0,1,11.95-10.2715A30.7964,30.7964,0,0,1,156.99,8.0511a22.0127,22.0127,0,0,1,8.2731-.88,25.0373,25.0373,0,0,1,8.0129,2.0229,46.7367,46.7367,0,0,1,6.989,3.88c2.187,1.4453,4.2791,2.9692,6.349,4.502,2.064,1.5439,4.1271,3.0684,6.1691,4.6431l.0039.0044a.73.73,0,0,1-.7689,1.2324c-4.662-2.292-9.066-5.0757-13.462-7.5938-4.384-2.5249-8.864-4.6631-13.5859-5.001-4.692-.4512-9.4231,1.063-13.7731,3.3721a76.757,76.757,0,0,0-12.34,8.71.89.89,0,0,1-1.231-1.2783Zm40.702,71.88a9.18,9.18,0,0,0-1.926-1.4429,9.8663,9.8663,0,0,0-2.2539-.8535,8.938,8.938,0,0,0-4.827.3193,9.2612,9.2612,0,0,0-5.936,7.7666l-.0029.0293a.8889.8889,0,0,1-1.771-.0293,11.0556,11.0556,0,0,1,.2209-3.2466,11.4547,11.4547,0,0,1,1.236-3.082,11.2692,11.2692,0,0,1,5.0021-4.4541,11.5589,11.5589,0,0,1,12.875,2.376,12.1078,12.1078,0,0,1,2.075,2.8032,12.59,12.59,0,0,1,1.139,3.2939,11.5667,11.5667,0,0,1-.833,6.78,12.4894,12.4894,0,0,1-1.874,2.8462,12.2169,12.2169,0,0,1-2.614,2.1118,11.4875,11.4875,0,0,1-3.08,1.188,10.7356,10.7356,0,0,1-3.22.1514.7309.7309,0,0,1-.0229-1.4521l.0229-.002a9.478,9.478,0,0,0,7.7611-6.0981A8.6572,8.6572,0,0,0,178.3279,93.5453ZM169.87,28.0414a9.2017,9.2017,0,0,0-1.9249-1.4429,9.8941,9.8941,0,0,0-2.255-.8535,8.938,8.938,0,0,0-4.827.3193,9.2586,9.2586,0,0,0-5.9351,7.7666l-.0029.0293a.8894.8894,0,0,1-1.772-.0293,11.0556,11.0556,0,0,1,.2209-3.2466,11.4547,11.4547,0,0,1,1.236-3.082,11.2692,11.2692,0,0,1,5.0021-4.4541,11.5589,11.5589,0,0,1,12.875,2.376,12.1078,12.1078,0,0,1,2.075,2.8032,12.59,12.59,0,0,1,1.139,3.2939,11.5667,11.5667,0,0,1-.833,6.78,12.4894,12.4894,0,0,1-1.874,2.8462,12.2169,12.2169,0,0,1-2.614,2.1118,11.4875,11.4875,0,0,1-3.08,1.188,10.7356,10.7356,0,0,1-3.22.1514.7309.7309,0,0,1-.0229-1.4521l.0229-.002a9.478,9.478,0,0,0,7.7611-6.0981A8.6572,8.6572,0,0,0,169.87,28.0414ZM158.058,63.1107a11.4486,11.4486,0,0,1,1.236-3.0811,11.255,11.255,0,0,1,5.0031-4.4541,11.5573,11.5573,0,0,1,12.874,2.375,12.0926,12.0926,0,0,1,2.075,2.8042,12.5707,12.5707,0,0,1,1.139,3.293,11.5648,11.5648,0,0,1-.833,6.78,12.4681,12.4681,0,0,1-1.874,2.8462,12.16,12.16,0,0,1-2.614,2.1118,11.455,11.455,0,0,1-3.08,1.188,10.7038,10.7038,0,0,1-3.22.1514.7309.7309,0,0,1-.0229-1.4521l.0229-.002a9.4763,9.4763,0,0,0,7.7611-6.0981,8.66,8.66,0,0,0-1.97-9.0049,9.2673,9.2673,0,0,0-1.9259-1.4429,9.95,9.95,0,0,0-2.254-.8535,8.9276,8.9276,0,0,0-4.827.32,9.258,9.258,0,0,0-5.936,7.7666l-.0029.0283a.8894.8894,0,0,1-1.772-.0283A11.06,11.06,0,0,1,158.058,63.1107Zm-21.7372,62.32a.7269.7269,0,1,1-1.1429-.8984c-.192.126-.155.1724-.266.0605l-.141-.1553c-.046-.0527-.105-.1143-.176-.1812-.234-.2568-.547-.5278-.84-.7939-.604-.5347-1.2471-1.0708-1.897-1.5962l-3.9381-3.17q-1.2725-1.0078-2.5626-1.9858c-.4823-.3667-.9645-.7349-1.4484-1.0918-.68-.481-1.348-.9849-2.0249-1.4131-.327-.2183-.677-.4209-.973-.583a1.8527,1.8527,0,0,0-.214-.11c-.06-.0312-.1471-.0713-.167-.084-.125-.0762-.0271-.0215.125-.2983a.8878.8878,0,0,1-1.396-1.0972,1.5364,1.5364,0,0,1,.7279-.5337,2.1245,2.1245,0,0,1,.6121-.13,2.651,2.651,0,0,1,.484-.0044,3.63,3.63,0,0,1,.427.0381,8.873,8.873,0,0,1,1.4879.3394,16.9339,16.9339,0,0,1,2.6051,1.084c.3782.1855.7453.3862,1.1075.5938q.65.3721,1.2754.7788c.775.4824,1.5081,1.0215,2.229,1.5742a25.425,25.425,0,0,1,3.9611,3.7783,16.3941,16.3941,0,0,1,1.627,2.3086,9.0075,9.0075,0,0,1,.64,1.3779,3.5569,3.5569,0,0,1,.12.4053,3.0678,3.0678,0,0,1,.0909.46A1.6427,1.6427,0,0,1,136.3208,125.4305Zm30.3868,23.1621a.7268.7268,0,0,1-1.422-.2861l.0071-.0459a8.7975,8.7975,0,0,0-1.499-5.311,34.4794,34.4794,0,0,0-3.579-4.8218c-1.313-1.5469-2.72-3.0332-4.1481-4.51-.71-.7363-1.434-1.4922-2.155-2.2-.709-.6782-1.4359-1.353-2.2229-2.0142-6.2151-5.3149-12.826-10.3638-19.3291-15.4668q-2.2248-1.7234-4.4606-3.437c-5.0707-3.9106-10.1547-7.8071-15.2694-11.63-3.31-2.458-6.6429-4.8184-10.1479-6.9233a55.609,55.609,0,0,0-5.3461-2.9126,19.49,19.49,0,0,0-5.554-1.8262l-.054-.0049a.8874.8874,0,0,1,.124-1.7686,19.0263,19.0263,0,0,1,6.376,1.5044,57.9906,57.9906,0,0,1,5.7749,2.66,100.6448,100.6448,0,0,1,10.7261,6.6133c5.0281,3.4736,9.94,7.0762,14.7978,10.751q2.6591,2.0112,5.3,4.0479c6.575,5.1084,13.07,10.2622,19.265,15.9692.77.71,1.531,1.481,2.283,2.2749.724.7813,1.4,1.5562,2.095,2.3457,1.3721,1.584,2.71,3.2114,3.9811,4.91a34.1424,34.1424,0,0,1,3.3839,5.4731,15.1017,15.1017,0,0,1,1.1111,3.1392A7.6508,7.6508,0,0,1,166.7077,148.5926Zm61.72-80.269c-.719,5.4917-3.033,10.4829-5.651,15.043A149.2194,149.2194,0,0,1,214.03,96.3592c-6.186,8.2061-12.295,16.7334-20.3721,23.8232a44.004,44.004,0,0,1-6.6189,4.835,24,24,0,0,1-8.062,3.0679,27.1518,27.1518,0,0,1-8.4611-.1011,31.4606,31.4606,0,0,1-8.089-2.42,100.74,100.74,0,0,1-13.892-7.6406c-4.411-2.8032-8.6331-5.832-12.8041-8.9111q-2.794-2.0757-5.5414-4.2026-3.3968-2.6162-6.7435-5.2886c-2.0171-1.6147-4.009-3.2588-5.998-4.9048a49.4541,49.4541,0,0,1-5.928-5.4521,28.1719,28.1719,0,0,1-4.624-6.939,24.2867,24.2867,0,0,1-2.14-8.12A32.1225,32.1225,0,0,1,107.93,58.1986,59.8746,59.8746,0,0,1,113.266,48.98q1.4765-2.12,3.0792-4.1284,2.4406-3.0615,5.074-5.9248c1.728-1.9082,3.608-3.7661,5.2-5.627l.036-.042a.8862.8862,0,0,1,1.384,1.1055c-1.613,2.1631-3.2871,4.0371-4.88,6.0586-1.6021,1.9907-3.165,4.002-4.63,6.0728q-1.2781,1.8142-2.4682,3.6816a57.3656,57.3656,0,0,0-4.9359,9.3911,37.1743,37.1743,0,0,0-2.072,7.0264,24.41,24.41,0,0,0-.2579,7.105,21.855,21.855,0,0,0,6.0649,12.416,45.0287,45.0287,0,0,0,5.5541,4.834l6.0649,4.7207q2.8042,2.1753,5.6389,4.3032,3.3,2.4814,6.64,4.896c4.147,2.9761,8.354,5.8579,12.626,8.5776a96.0181,96.0181,0,0,0,13.1479,7.1792,26.5141,26.5141,0,0,0,6.65,2,23.2485,23.2485,0,0,0,6.906.1621c4.3049-.6948,8.422-3.4253,12.144-6.5889a100.6233,100.6233,0,0,0,10.4769-10.731c3.271-3.8311,6.422-7.9312,9.603-11.9321a145.0219,145.0219,0,0,0,8.899-12.3159c2.653-4.2231,4.948-8.6821,5.771-13.4131a21.69,21.69,0,0,0,.089-7.1318,25.142,25.142,0,0,0-2.2251-6.9321,54.1525,54.1525,0,0,0-8.6549-12.3369l-.01-.0122a.7272.7272,0,0,1,1.048-1.0068,72.9665,72.9665,0,0,1,5.4041,5.6558,44.2651,44.2651,0,0,1,4.5389,6.501,27.4217,27.4217,0,0,1,2.913,7.56A24.0469,24.0469,0,0,1,228.4281,68.3236Z"/><path d="M92.2854,103.0584c-.856-.896-1.658-1.8662-2.481-2.8047-.408-.4741-.79-.9834-1.186-1.4731-.392-.4893-.7849-.9731-1.1859-1.5752a15.6579,15.6579,0,0,1-2.587-7.7817,23.8028,23.8028,0,0,1,.897-7.8062,42.7,42.7,0,0,1,2.687-7.1079,84.196,84.196,0,0,1,7.719-12.709c2.88-3.999,5.9771-7.811,9.173-11.519.9854-1.1445,1.994-2.2627,2.9963-3.3882C82.0007,35.9,48.6538,23.683,35.8582,25.65c-3.62.5586-15.2451,4.8345-27.144,39.7871s-17.848,46.1084,24.541,60.2363c42.3889,14.13,48.339,17.4766,58.006,20.4521,9.668,2.9736,18.275,4.1206,24.924-8.8364,1.192-2.3232,2.5278-5.1733,3.9423-8.3428-5.6613-5.1738-11.584-10.2251-17.3-15.5063C99.22,110.1146,95.6575,106.7147,92.2854,103.0584Zm-5.99-.5859a.7453.7453,0,0,1-.3409,1.3936l-.07.002a5.6276,5.6276,0,0,0-4.0371,2.0708,11.4212,11.4212,0,0,0-2.2959,4.2,10.7674,10.7674,0,0,0-.3511,4.7764,5.3154,5.3154,0,0,0,2.32,3.7739l.0709.0439A.8985.8985,0,0,1,81.02,120.39a5.439,5.439,0,0,1-3.1531-1.6108,7.736,7.736,0,0,1-1.816-3.002,11.2988,11.2988,0,0,1-.063-6.689,10.9716,10.9716,0,0,1,3.6741-5.5908,7.661,7.661,0,0,1,3.172-1.4854A5.1672,5.1672,0,0,1,86.2958,102.4725ZM64.1252,57.5516a6.474,6.474,0,0,0-1.527-3.1035c-1.4181-1.5381-3.45-1.2642-5.192.2715a10.1662,10.1662,0,0,0-3.0491,6.4312c-.235,2.4243.46,5.0791,2.58,6.1611l.0549.0278a.8926.8926,0,0,1-.5559,1.6748,6.11,6.11,0,0,1-4.0991-3.0937,9.9127,9.9127,0,0,1-1.2439-4.8789,12.3432,12.3432,0,0,1,.948-4.88,11.3429,11.3429,0,0,1,2.895-4.1982A7.8053,7.8053,0,0,1,60.0171,49.81a6.2425,6.2425,0,0,1,5.115,2.561,8.49,8.49,0,0,1,1.578,4.9009,10.4283,10.4283,0,0,1-1.005,4.6519.7358.7358,0,0,1-1.3979-.377l.0029-.0332A12.6092,12.6092,0,0,0,64.1252,57.5516ZM51.2791,88.9647a8.4879,8.4879,0,0,1,1.578,4.9009,10.4283,10.4283,0,0,1-1.005,4.6519.7357.7357,0,0,1-1.3979-.377l.0029-.0342a12.6336,12.6336,0,0,0-.1849-3.9609,6.474,6.474,0,0,0-1.527-3.1035c-1.4181-1.5381-3.45-1.2642-5.192.2715a10.1639,10.1639,0,0,0-3.0491,6.4312c-.235,2.4243.46,5.0791,2.58,6.1611l.0549.0278a.892.892,0,0,1-.5559,1.6738,6.1053,6.1053,0,0,1-4.0991-3.0928A9.9127,9.9127,0,0,1,37.24,97.6356a12.3449,12.3449,0,0,1,.948-4.88,11.339,11.339,0,0,1,2.895-4.1982,7.8053,7.8053,0,0,1,5.0809-2.1538A6.2425,6.2425,0,0,1,51.2791,88.9647ZM45.2076,76.0624a.7358.7358,0,0,1-1.3979-.377l.0029-.0342a12.6107,12.6107,0,0,0-.1849-3.9619,6.4828,6.4828,0,0,0-1.527-3.1035c-1.4181-1.5371-3.45-1.2642-5.192.2725a10.1686,10.1686,0,0,0-3.0491,6.43c-.235,2.4253.46,5.08,2.58,6.1621l.0549.0269a.8925.8925,0,0,1-.5559,1.6748A6.1053,6.1053,0,0,1,31.84,80.0594a9.9137,9.9137,0,0,1-1.2439-4.88,12.3435,12.3435,0,0,1,.948-4.8789,11.339,11.339,0,0,1,2.895-4.1982A7.8053,7.8053,0,0,1,39.52,63.9486a6.2442,6.2442,0,0,1,5.116,2.561,8.493,8.493,0,0,1,1.577,4.9A10.43,10.43,0,0,1,45.2076,76.0624ZM38.5633,53.6073a.7357.7357,0,0,1-1.3979-.377l.0029-.0342a12.64,12.64,0,0,0-.1849-3.9619,6.4828,6.4828,0,0,0-1.527-3.1035c-1.4181-1.5371-3.45-1.2642-5.192.2725a10.1637,10.1637,0,0,0-3.0491,6.43c-.235,2.4253.46,5.08,2.58,6.1621l.0549.0269a.8925.8925,0,0,1-.5559,1.6748,6.1053,6.1053,0,0,1-4.0991-3.0928,9.9164,9.9164,0,0,1-1.2439-4.88,12.3516,12.3516,0,0,1,.948-4.88,11.3435,11.3435,0,0,1,2.895-4.1973,7.8,7.8,0,0,1,5.0809-2.1538,6.24,6.24,0,0,1,5.115,2.561,8.4872,8.4872,0,0,1,1.578,4.9A10.43,10.43,0,0,1,38.5633,53.6073ZM11.0461,84.4383a11.3548,11.3548,0,0,1,2.895-4.1982,7.8049,7.8049,0,0,1,5.0819-2.1528,6.2411,6.2411,0,0,1,5.115,2.561,8.4908,8.4908,0,0,1,1.577,4.9A10.4122,10.4122,0,0,1,24.71,90.2a.7358.7358,0,0,1-1.3979-.376l.0029-.0342A12.6107,12.6107,0,0,0,23.13,85.828a6.4784,6.4784,0,0,0-1.527-3.1035c-1.4181-1.5371-3.45-1.2642-5.192.2725a10.1686,10.1686,0,0,0-3.0491,6.43c-.235,2.4253.46,5.08,2.58,6.1621l.0549.0269a.8926.8926,0,0,1-.5559,1.6748,6.1053,6.1053,0,0,1-4.0991-3.0928,9.9164,9.9164,0,0,1-1.2439-4.88A12.3516,12.3516,0,0,1,11.0461,84.4383ZM64.5011,97.3417c-.744,1.8276-1.5221,3.6528-2.385,5.46a43.21,43.21,0,0,1-6.583,10.3848,19.8427,19.8427,0,0,1-11.275,6.481,21.911,21.911,0,0,1-6.516.1289,37.3087,37.3087,0,0,1-6.012-1.3408c-3.74-1.0469-7.5021-2.062-11.264-3.2549-1.882-.5933-3.769-1.2251-5.631-2.002a29.7669,29.7669,0,0,1-5.438-2.8242,18.3848,18.3848,0,0,1-4.5131-4.29,20.4007,20.4007,0,0,1-2.788-5.4077.7289.7289,0,0,1,1.334-.5791l.0031.0059a21.7979,21.7979,0,0,0,3.1239,4.6123A15.9435,15.9435,0,0,0,10.849,108a45.7775,45.7775,0,0,0,10.6211,3.604c3.736.8872,7.541,1.6982,11.3429,2.5649a38.4263,38.4263,0,0,0,5.415.9692A17.1047,17.1047,0,0,0,43.33,114.87c6.5869-1.3369,11.192-7.55,14.797-14.1108a113.5226,113.5226,0,0,0,4.981-10.36c1.5551-3.5449,3.0231-7.1611,4.422-10.7378A114.5292,114.5292,0,0,0,73.9311,57.61a35.8907,35.8907,0,0,0,.292-11.125,6.904,6.904,0,0,0-2.609-4.002,22.8652,22.8652,0,0,0-4.674-2.89,100.5281,100.5281,0,0,0-10.713-4.2192L50.71,33.5c-1.853-.6279-3.657-1.2349-5.509-1.7271a35.6042,35.6042,0,0,0-5.554-1.0977,13.8417,13.8417,0,0,0-5.399.36c-3.447.9888-6.011,4.0059-8.4969,6.9209l-.005.0073a.8878.8878,0,0,1-1.36-1.1416,45.8066,45.8066,0,0,1,3.9919-4.42,13.8439,13.8439,0,0,1,5.299-3.23,15.8274,15.8274,0,0,1,6.161-.5254,37.5478,37.5478,0,0,1,5.902,1.0723c1.916.4829,3.8151,1.0791,5.6591,1.66l5.574,1.7651a103.01,103.01,0,0,1,11.08,4.1089A25.4494,25.4494,0,0,1,73.34,40.39a12.0854,12.0854,0,0,1,2.276,2.3711,8.5466,8.5466,0,0,1,1.387,3.1807,38.5475,38.5475,0,0,1-.032,12.1172A117.5474,117.5474,0,0,1,70.86,80.9032c-1.348,3.7041-2.7821,7.3081-4.1691,10.9673C65.9881,93.6952,65.2631,95.52,64.5011,97.3417ZM104.48,142.4032a9.9369,9.9369,0,0,0,3.5031-1.0859,16.4331,16.4331,0,0,0,1.666-.9385c.541-.35,1.057-.752,1.59-1.127l.0339-.0229a.7271.7271,0,0,1,.9121,1.1284,14.9161,14.9161,0,0,1-7.401,4.1006,11.5912,11.5912,0,0,1-4.406-.0576,24.6963,24.6963,0,0,1-4.067-1.1992l-7.54-2.9951a63.8193,63.8193,0,0,1-7.376-3.7148,48.4546,48.4546,0,0,1-6.817-4.814,24.419,24.419,0,0,1-5.6021-6.6069,19.3122,19.3122,0,0,1-2.011-8.6011,41.5275,41.5275,0,0,1,.7471-8.3843,101.54,101.54,0,0,1,4.4189-15.7939c1.814-5.1172,3.8461-10.127,5.962-15.0859A135.5281,135.5281,0,0,1,85.0524,62.48a35.2673,35.2673,0,0,1,4.901-6.749,14.7636,14.7636,0,0,1,3.369-2.6987,12.0858,12.0858,0,0,1,4.109-1.4331.8874.8874,0,0,1,.337,1.7417,11.3594,11.3594,0,0,0-6.1421,3.9355,32.8875,32.8875,0,0,0-4.215,6.5059c-2.441,4.6592-4.286,9.6748-6.295,14.6621-1.9569,4.9907-3.8779,9.9849-5.5969,15.0239a108.4254,108.4254,0,0,0-4.1631,15.2661,41.2846,41.2846,0,0,0-.6969,7.6509,15.7485,15.7485,0,0,0,1.516,6.9868,22.2388,22.2388,0,0,0,4.698,5.6929,48.0808,48.0808,0,0,0,6.23,4.63,60.6211,60.6211,0,0,0,6.889,3.7856l7.303,3.313C99.6824,141.828,102.0774,142.722,104.48,142.4032Z"/></g></g></svg>