<?xml version="1.0" encoding="utf-8"?>
<!-- Generator: Adobe Illustrator 21.1.0, SVG Export Plug-In . SVG Version: 6.00 Build 0)  -->
<svg version="1.1" id="Layer_1" xmlns="http://www.w3.org/2000/svg" xmlns:xlink="http://www.w3.org/1999/xlink" x="0px" y="0px"
	 viewBox="0 0 68 65" style="enable-background:new 0 0 68 65;" xml:space="preserve">
<path d="M68,16v34c0,1.1-0.9,2-2,2H2c-1.1,0-2-0.9-2-2V16H68z M30.2,41.4L41,27c0.3-0.4,0.2-1.1-0.2-1.4l-1.6-1.2
	c-0.4-0.3-1.1-0.2-1.4,0.2L27,39c-0.3,0.4-0.2,1.1,0.2,1.4l1.6,1.2C29.2,41.9,29.9,41.8,30.2,41.4z M46.3,40.3l1.4,1.4
	c0.4,0.4,1,0.4,1.4,0l7.3-7.3c0.8-0.8,0.8-2,0-2.8l-7.3-7.3c-0.4-0.4-1-0.4-1.4,0l-1.4,1.4c-0.4,0.4-0.4,1,0,1.4l5.9,5.9l-5.9,5.9
	C45.9,39.3,45.9,39.9,46.3,40.3z M21.7,25.7l-1.4-1.4c-0.4-0.4-1-0.4-1.4,0l-7.3,7.3c-0.8,0.8-0.8,2,0,2.8l7.3,7.3
	c0.4,0.4,1,0.4,1.4,0l1.4-1.4c0.4-0.4,0.4-1,0-1.4L15.8,33l5.9-5.9C22.1,26.7,22.1,26.1,21.7,25.7z M2,0h64c1.1,0,2,0.9,2,2v10H0V2
	C0,0.9,0.9,0,2,0z M7,8c1.1,0,2-0.9,2-2S8.1,4,7,4S5,4.9,5,6S5.9,8,7,8z M14,8c1.1,0,2-0.9,2-2s-0.9-2-2-2s-2,0.9-2,2S12.9,8,14,8z
	 M21,8c1.1,0,2-0.9,2-2s-0.9-2-2-2s-2,0.9-2,2S19.9,8,21,8z"/>
</svg>
