<?xml version="1.0" encoding="utf-8"?>
<!-- Generator: Adobe Illustrator 21.1.0, SVG Export Plug-In . SVG Version: 6.00 Build 0)  -->
<svg version="1.1" id="Layer_1" xmlns="http://www.w3.org/2000/svg" xmlns:xlink="http://www.w3.org/1999/xlink" x="0px" y="0px"
	 viewBox="0 0 96 120" style="enable-background:new 0 0 96 120;" xml:space="preserve">
<path d="M48,26.4c-21,0-38.6,18.4-41.5,21.7C9.4,51.3,27.1,69.7,48,69.7c20.9,0,38.6-18.4,41.5-21.7C86.6,44.8,68.9,26.4,48,26.4z
	 M48,56.2c-4.5,0-8.1-3.6-8.1-8.1c0-4.5,3.6-8.1,8.1-8.1c4.5,0,8.1,3.6,8.1,8.1C56.1,52.5,52.5,56.2,48,56.2z"/>
<path d="M48,41.4c-3.7,0-6.6,3-6.6,6.6c0,3.7,3,6.6,6.6,6.6c3.7,0,6.6-3,6.6-6.6C54.6,44.4,51.7,41.4,48,41.4z"/>
<polygon points="65,67.5 71.1,78.6 72.4,77.9 66.4,66.9 "/>
<rect x="47.2" y="71.2" width="1.5" height="12.6"/>
<polygon points="23.2,77.9 24.5,78.6 30.6,67.4 29.2,66.8 "/>
<polygon points="29.3,29.3 30.7,28.7 24.5,17.3 23.2,18.1 "/>
<rect x="47.2" y="12.2" width="1.5" height="12.7"/>
<polygon points="66.4,29.1 72.4,18.1 71.1,17.3 65,28.6 "/>
</svg>
