<?xml version="1.0" encoding="utf-8"?>
<!-- Generator: Adobe Illustrator 21.1.0, SVG Export Plug-In . SVG Version: 6.00 Build 0)  -->
<svg version="1.1" id="Layer_1" xmlns="http://www.w3.org/2000/svg" xmlns:xlink="http://www.w3.org/1999/xlink" x="0px" y="0px"
	 viewBox="0 0 60 85" style="enable-background:new 0 0 60 85;" xml:space="preserve">
<path d="M59.7,27.4L59.7,27.4L30,44.3L0.3,27.4v-8.6l29,16.4c0.5,0.3,1,0.3,1.5,0l29-16.4V27.4z M59.7,39.4L30,56.3L0.3,39.4v-8.6
	l29,16.4c0.5,0.3,1,0.3,1.5,0l29-16.4V39.4z M59.7,42.9V50c0,0.7-0.4,1.4-1,1.7L31,67.7c-0.6,0.4-1.4,0.4-2,0l-27.7-16
	c-0.6-0.4-1-1-1-1.7v-7.1l29,16.4c0.5,0.3,1,0.3,1.5,0L59.7,42.9z M58.5,16.1L30,32.3L1.5,16.1L29,0.3c0.6-0.4,1.4-0.4,2,0
	L58.5,16.1z"/>
</svg>
