<?xml version="1.0" encoding="utf-8"?>
<!-- Generator: Adobe Illustrator 21.1.0, SVG Export Plug-In . SVG Version: 6.00 Build 0)  -->
<svg version="1.1" id="Layer_1" xmlns="http://www.w3.org/2000/svg" xmlns:xlink="http://www.w3.org/1999/xlink" x="0px" y="0px"
	 viewBox="0 0 65.8 76.4" style="enable-background:new 0 0 65.8 76.4;" xml:space="preserve">
<polygon points="64,35.9 63.5,36.5 62.9,37.1 28.9,73.5 3.8,51 3.2,50.5 2.6,50 1.5,49 0.8,49.7 1.9,50.7 2.5,51.2 3.1,51.8 
	29.2,75.1 63.9,37.9 64.5,37.3 65,36.8 65.8,35.9 64.8,35.1 "/>
<polygon points="28.5,68.3 5.5,47.8 4.9,47.2 4.3,46.7 3.2,45.7 2.6,45.2 2,44.6 1.1,43.7 0.4,44.5 1.4,45.3 2,45.9 2.6,46.4 
	3.7,47.4 4.3,47.9 4.9,48.5 28.8,69.9 65.4,30.7 60.5,25.9 60,34.1 57.6,36.5 "/>
<polygon points="1.6,40.6 2.2,41.2 3.1,42.1 3.7,42.6 4.3,43.1 5.4,44.1 6,44.7 6.6,45.2 28.3,64.7 56.2,34.2 56.3,33.7 49,23.2 
	50,22.6 50.7,22.2 51.4,21.8 52.5,21.2 53.2,20.8 53.9,20.4 54.8,19.9 55.6,19.4 56.3,19 57.2,18.5 36.6,0 0,39.2 1,40.1 "/>
<polygon points="56.1,21 55.2,21.5 54.5,21.9 53.7,22.3 52.7,22.9 51.9,23.3 51.3,23.7 51.6,24.1 56.4,31.1 56.7,28.7 56.8,27.7 
	56.9,26.7 57.1,25.3 57.2,24.3 57.3,23.4 57.4,22.2 57.5,21.2 57.6,20.2 57.6,20.1 57.6,20.2 56.8,20.6 "/>
</svg>
