<?xml version="1.0" encoding="utf-8"?>
<!-- Generator: Adobe Illustrator 21.1.0, SVG Export Plug-In . SVG Version: 6.00 Build 0)  -->
<svg version="1.1" id="Layer_1" xmlns="http://www.w3.org/2000/svg" xmlns:xlink="http://www.w3.org/1999/xlink" x="0px" y="0px"
	 viewBox="0 0 77.3 77.3" style="enable-background:new 0 0 77.3 77.3;" xml:space="preserve">
<path d="M68.8,37.7C68.3,21.9,55.5,9.1,39.7,8.6V0.3h-2v8.3C21.9,9.1,9.1,21.9,8.6,37.7H0.3v2h8.3c0.5,15.8,13.3,28.6,29.1,29.1V77
	h2v-8.3c15.8-0.5,28.6-13.3,29.1-29.1H77v-2H68.8z M39.7,10.7c14.7,0.5,26.5,12.4,27,27h-9.8c-0.5-9.3-8-16.8-17.3-17.3L39.7,10.7
	L39.7,10.7z M37.7,10.7v9.8c-9.3,0.5-16.8,8-17.3,17.3h-9.7C11.2,23,23,11.2,37.7,10.7z M37.7,66.7c-14.7-0.5-26.5-12.4-27-27h9.8
	C21,49,28.5,56.5,37.8,57L37.7,66.7L37.7,66.7z M37.7,56.7v-17H20.6v-2h17.1v-17h2v17h17.2v2H39.7v17H37.7z M39.7,66.7v-9.8
	c9.3-0.5,16.8-8,17.3-17.3h9.7C66.2,54.4,54.4,66.2,39.7,66.7z"/>
</svg>
