<?xml version="1.0" encoding="utf-8"?>
<!-- Generator: Adobe Illustrator 21.1.0, SVG Export Plug-In . SVG Version: 6.00 Build 0)  -->
<svg version="1.1" id="Layer_1" xmlns="http://www.w3.org/2000/svg" xmlns:xlink="http://www.w3.org/1999/xlink" x="0px" y="0px"
	 viewBox="0 0 97.2 100.2" style="enable-background:new 0 0 97.2 100.2;" xml:space="preserve">
<g>
	<path d="M48.6,23.6c-14.6,0-26.5,11.9-26.5,26.5c0,14.6,11.9,26.5,26.5,26.5c14.6,0,26.5-11.9,26.5-26.5
		C75.1,35.5,63.2,23.6,48.6,23.6z"/>
	<path d="M88.3,37.2c-1.3-4-6.6-6-9-9.4c-2.5-3.4-2.8-9-6.1-11.5c-3.3-2.4-8.8-1-12.8-2.3c-3.9-1.3-7.4-5.7-11.7-5.7
		c-4.3,0-7.8,4.4-11.7,5.7c-4,1.3-9.5-0.1-12.8,2.3c-3.4,2.5-3.7,8.1-6.1,11.5c-2.4,3.3-7.7,5.4-9,9.4c-1.3,3.9,1.8,8.6,1.8,12.9
		c0,4.3-3.1,9-1.8,12.9c1.3,4,6.6,6,9,9.4c2.5,3.4,2.8,9,6.1,11.5c3.3,2.4,8.8,1,12.8,2.3c3.9,1.3,7.4,5.7,11.7,5.7
		c4.3,0,7.8-4.4,11.7-5.7c4-1.3,9.5,0.1,12.8-2.3c3.4-2.5,3.7-8.1,6.1-11.5c2.4-3.3,7.7-5.4,9-9.4c1.3-3.9-1.8-8.6-1.8-12.9
		C86.5,45.8,89.6,41.1,88.3,37.2z M48.6,80.1c-16.6,0-30-13.4-30-30c0-16.6,13.4-30,30-30c16.6,0,30,13.4,30,30
		C78.6,66.6,65.2,80.1,48.6,80.1z"/>
</g>
</svg>
