<?xml version="1.0" encoding="utf-8"?>
<!-- Generator: Adobe Illustrator 21.1.0, SVG Export Plug-In . SVG Version: 6.00 Build 0)  -->
<svg version="1.1" id="Layer_1" xmlns="http://www.w3.org/2000/svg" xmlns:xlink="http://www.w3.org/1999/xlink" x="0px" y="0px"
	 viewBox="0 0 95.7 95.2" style="enable-background:new 0 0 95.7 95.2;" xml:space="preserve">
<path d="M31,88.7c-13.5,0-24.5-11-24.5-24.5c0-10.3,6.5-19.5,16.3-23.1c3,7.1,8.8,12.6,16,15.2c-0.8,2.7-1.2,5.3-1.2,7.9
	c0,7.3,3,14.4,8.2,19.5C41.5,87,36.4,88.7,31,88.7z"/>
<path d="M47.8,82c-5-4.7-7.7-11-7.7-17.8c0-2.5,0.3-4.9,1-7.1c2.2,0.5,4.4,0.8,6.7,0.8c2.3,0,4.6-0.3,6.7-0.8c0.7,2.2,1,4.6,1,7.1
	C55.5,70.9,52.7,77.3,47.8,82z"/>
<path d="M47.8,43.2c-4.9-3.8-10.7-5.9-16.8-5.9c-2.3,0-4.5,0.3-6.7,0.8c-0.7-2.2-1-4.6-1-7.1c0-13.5,11-24.5,24.5-24.5
	c13.5,0,24.5,11,24.5,24.5c0,2.5-0.3,4.9-1,7.1c-2.2-0.5-4.4-0.8-6.7-0.8C58.4,37.3,52.6,39.3,47.8,43.2z"/>
<path d="M64.6,88.7c-5.4,0-10.5-1.7-14.8-5c5.3-5.2,8.2-12.1,8.2-19.5c0-2.6-0.4-5.2-1.2-7.9c7.3-2.6,13.1-8.1,16-15.2
	c9.8,3.5,16.3,12.7,16.3,23.1C89.1,77.7,78.1,88.7,64.6,88.7z"/>
<path d="M56,54.1c-1.3-3.4-3.5-6.5-6.2-9.2c4.4-3.3,9.5-5,14.8-5c2.2,0,4,0.2,5.7,0.6C67.6,46.8,62.5,51.7,56,54.1z"/>
<path d="M47.8,55.4c-2.3,0-4.1-0.2-5.8-0.6c1.4-3.1,3.3-5.9,5.8-8.3c2.4,2.2,4.4,5.1,5.8,8.3C51.6,55.2,49.7,55.4,47.8,55.4z"/>
<path d="M39.6,54c-6.4-2.3-11.6-7.1-14.3-13.5c1.8-0.4,3.7-0.7,5.7-0.8c5.3,0,10.4,1.7,14.8,5C43.2,47.3,41.1,50.5,39.6,54z"/>
</svg>
