<svg xmlns="http://www.w3.org/2000/svg" viewBox="0 0 139.307 163.9037"><title>icon-typeface-design</title><g id="Layer_2" data-name="Layer 2"><g id="Layer_1-2" data-name="Layer 1"><path d="M112.82,39.4486c2.292.3079,4.56.707,6.829,1.105,2.259.4351,4.524.8511,6.7721,1.3279,2.245.491,4.5029.9309,6.7369,1.4631,2.0574.468,4.1084.9561,6.1488,1.4854V14.2777a2.8074,2.8074,0,0,0-1.821-2.6282L106.8929.1786a2.8094,2.8094,0,0,0-1.3409-.156l-103.1,13.15A2.8074,2.8074,0,0,0,0,15.9564V70.5885c4.7609-.1836,9.5217-.3342,14.2865-.4214,4.3706-.1018,8.7438-.1538,13.1171-.2107-.16-3.9568-.2683-7.9136-.4043-11.8706-.0859-2.374-.115-4.748-.1749-7.123l-.135-7.1221a1.7317,1.7317,0,0,1,1.519-1.752l.0649-.0081,9.675-1.15,9.68-1.1021c6.46-.677,12.9131-1.416,19.3781-2.0339a1.9961,1.9961,0,0,1,1.385,3.5859l-.019.0142a48.4385,48.4385,0,0,0-4.283,3.6929c-1.389,1.335-2.759,2.7051-4.0541,4.1489a108.3658,108.3658,0,0,0-7.323,9.083c-2.213,3.2109-4.3949,6.4648-6.3059,9.8911-1.035,1.6709-1.8781,3.4448-2.8251,5.1709l-2.6,5.3062-.0179.0359a.7893.7893,0,0,1-1.4491-.6208c.6891-1.874,1.3361-3.7732,2.108-5.6221.816-1.8281,1.532-3.71,2.446-5.499l1.328-2.707,1.4519-2.645c.937-1.7842,2.046-3.469,3.1021-5.188a90.0817,90.0817,0,0,1,7.265-9.7051c.6589-.77,1.327-1.5339,2.0291-2.271.6354-.7026,1.3037-1.38,1.9829-2.0474-4.3938.4614-8.79.9065-13.184,1.3684l-9.698.93-2.5361.231c1.2992.5747,2.5782,1.2034,3.8712,1.7932l4.682,2.179c1.5551.7422,3.104,1.499,4.641,2.2881a.7942.7942,0,0,1-.559,1.4761c-1.674-.4282-3.3359-.8872-4.9919-1.3623l-4.95-1.4717c-1.646-.5022-3.3209-.9263-4.943-1.4893-.814-.2749-1.611-.5947-2.4-.9341a4.29,4.29,0,0,1-.991-.5146l-.0762,4.0508c-.0609,2.375-.09,4.749-.1759,7.123-.1361,3.988-.2451,7.9756-.4078,11.9636q4.6974.928,9.3839,1.9387a.9667.9667,0,0,1-.2579,1.91q-4.9054-.27-9.7961-.6392c-4.7737.44-9.5454.8906-14.3219,1.2822-1.0731.093-2.147.1726-3.22.26l28.5448,4.2717s-3.252,7.5889-6.234,14.6357-7.317,22.2241-7.317,22.2241l-12.8369.676a2.8053,2.8053,0,0,0-2.6581,2.7522l-.7169,40.1167a2.8058,2.8058,0,0,0,2.75,2.856l78.5079,1.57,31.1741-1.4961a2.8064,2.8064,0,0,0,2.672-2.8359l-.4862-42.1123c-.0225-.0015-.0469,0-.0684-.0017-4.546-.439-9.0941-.7258-13.6421-1.0869-2.2739-.1721-4.548-.2991-6.823-.4441q-3.4125-.1934-6.825-.3311a.79.79,0,0,1,.0339-1.5789c2.2771.009,4.5551-.0081,6.833-.0391,2.2781-.0481,4.557-.0789,6.8361-.1531.0536-.002.1073-.0034.1608-.0054.6279-2.6812,2.2345-9.1472,5.8818-22.0078C121.399,76.59,134.09,55.474,138.0842,49.0382c-1.9988-.5142-3.9877-1.0652-5.9711-1.6377-2.2129-.615-4.402-1.321-6.605-1.9771-2.199-.6689-4.382-1.4-6.57-2.1111-2.178-.749-4.3571-1.4958-6.512-2.335a.7949.7949,0,0,1,.3939-1.5288ZM52.04,14.8l-23.156,2.7971c-7.2018.8193-14.3982,1.6826-21.604,2.4692L6.8823,42.223C6.6543,50.1488,6.5052,58.0751,6.2032,66a.964.964,0,0,1-1.9269-.01c-.2191-7.928-.285-15.8538-.4291-23.782L3.67,18.4269a1.7932,1.7932,0,0,1,1.551-1.7908L5.27,16.63c7.7051-1.0479,15.422-1.9888,23.1331-2.9868l23.152-2.834c7.7211-.905,15.44-1.8369,23.1691-2.6831,7.724-.894,15.4619-1.6609,23.1959-2.4751l.051-.0049a1.509,1.509,0,0,1,1.658,1.343,1.6426,1.6426,0,0,1,.0071.197l-.1851,7.07-.244,7.07c-.1749,4.7129-.329,9.4258-.563,14.1389a.79.79,0,0,1-1.579-.0149c-.151-4.7163-.222-9.4312-.313-14.147l-.119-7.0723L96.5884,8.93c-7.1344.991-14.2659,2.01-21.411,2.92C67.4713,12.881,59.7543,13.827,52.04,14.8ZM54.757,69.6864l-1.512,2.3069-1.39,2.4011c-.9659,1.5737-1.744,3.2749-2.608,4.916a169.9119,169.9119,0,0,0-8.369,20.7979c-1.2119,3.55-2.313,7.1411-3.3479,10.752-1.0231,3.605-2.0281,7.2539-2.8711,10.865l-.0089.0371a1.9185,1.9185,0,0,1-1.817,1.48c-4.8691.1248-9.739.2151-14.61.3005l-.1584,6.8564-.2369,8.572c-.2,5.7141-.345,11.429-.6111,17.1428A.9642.9642,0,0,1,15.29,156.1c-.182-5.7178-.244-11.4336-.3611-17.15l-.1119-8.575-.073-8.5742a1.7311,1.7311,0,0,1,1.651-1.7429l.0549-.0029q7.3912-.3259,14.7841-.6121c1.6034-6.9976,3.56-13.834,5.827-20.6191,1.1819-3.6328,2.5609-7.2058,3.9889-10.76.712-1.7781,1.5121-3.5259,2.265-5.2891.832-1.7349,1.6431-3.4761,2.5381-5.1821.937-1.689,1.778-3.42,2.829-5.0547l1.512-2.48c.547-.804,1.125-1.592,1.686-2.387,2.2679-3.155,4.6489-6.0669,7.121-8.9951,2.4611-2.9138,5.011-5.76,7.713-8.4678a67.082,67.082,0,0,1,8.656-7.6353.7882.7882,0,0,1,.9709,1.2393l-.057.0488A80.7083,80.7083,0,0,0,68.49,51.8573c-2.45,2.843-4.808,5.77-7.103,8.748C59.1329,63.5912,56.787,66.6073,54.757,69.6864ZM83.2784,138.96l-.1379,4.1619-.226,4.1619c-.1891,2.7732-.4141,5.5474-.791,8.3223a.7966.7966,0,0,1-1.579,0c-.3771-2.7749-.6021-5.5491-.791-8.3223l-.2251-4.1619L79.39,138.96c-.1024-4.9385-.0773-9.8767.0347-14.8159-4.1949-.0879-8.391-.2393-12.5917-.6152a.9692.9692,0,0,1-.033-1.927c4.83-.6028,9.6659-.908,14.502-1.157a1.8074,1.8074,0,0,1,1.8979,1.7119l.001.0352.004.123C83.3545,127.8641,83.3945,133.4122,83.2784,138.96Zm24.15-99.8511-.0239.0479c-3.021,6.1162-5.948,12.312-8.7731,18.5332C95.7946,63.9071,93,70.1432,90.4435,76.4572,87.8375,82.75,85.5756,89.1254,83.4985,95.64c-1.0341,3.2461-2.063,6.4922-2.988,9.76-.7,2.4827-1.3949,5.0349-1.9526,7.5146l12.5066.1074.0491.001a1.791,1.791,0,0,1,1.777,1.8079v.0042l-.1119,10.0029-.13,10.0029c-.025,3.335-.1421,6.67-.2161,10.0039-.078,3.335-.165,6.67-.296,10.0049a.79.79,0,0,1-1.579.0112c-.179-3.333-.313-6.666-.437-9.999-.1219-3.333-.286-6.666-.3569-10l-.2721-10-.2068-8.1729-13.1261.1128-.0231.001a1.9216,1.9216,0,0,1-1.938-1.9048,2.0538,2.0538,0,0,1,.031-.3611c.6541-3.583,1.532-6.8511,2.449-10.2151.9291-3.332,1.913-6.6421,2.984-9.9189,2.105-6.543,4.439-13.0981,7.109-19.4629,5.3-12.6082,11.2839-24.8328,17.5939-36.9229l.0951-7.8643.167-8.2661.1681-8.2659.213-8.2671a.9638.9638,0,0,1,1.927,0l.2129,8.2671.167,8.2659.1681,8.2661.1,8.2661A1.5315,1.5315,0,0,1,107.4285,39.1093Z"/></g></g></svg>