<svg xmlns="http://www.w3.org/2000/svg" viewBox="0 0 185.5428 210.5899"><title>icon-web-design</title><g id="Layer_2" data-name="Layer 2"><g id="Layer_1-2" data-name="Layer 1"><path d="M89.1148,158.4381,88.2367,137.79c-.246-6.8833-.4829-13.7681-.6649-20.6533-.204-6.3237-.3167-12.6484-.449-18.9741q-.4189.1348-.8375.25a27.0139,27.0139,0,0,1-3.171.7231c-.4026.0659-.8051.1128-1.2074.1606l.5792,76.03a19.9942,19.9942,0,0,1,5.7767,1.3125,15.74,15.74,0,0,1,1.895.9092q-.2843-4.3938-.512-8.7891C89.4657,165.32,89.2457,161.88,89.1148,158.4381Z"/><path d="M182.1764,103.818,128.9555,90.421l.0073-.0122q-1.8967-.3948-3.7919-.7954-1.746-.3655-3.49-.7373a.7517.7517,0,0,1-.6706-.06.7414.7414,0,0,1-.1116-.106q-2.2814-.4885-4.5573-1-8.8156-1.9541-17.597-4.0547c-.5079-.1206-1.0141-.248-1.5217-.3691a25.2639,25.2639,0,0,1-.8528,5.8862,12.8644,12.8644,0,0,1-1.1508,2.7559l13.5322,3.5918,14.853,4.0947.043.0112a1.5849,1.5849,0,0,1,1.1591,1.6191l-.672,11.51-.7153,10.605q3.0279.9214,6.046,1.8784c.0779-.5693.1554-1.1387.254-1.708a.944.944,0,0,1,1.86,0,76.7439,76.7439,0,0,1,.8949,9.1465q.167,4.0371.075,8.0747c1.14.6675,2.2723,1.3506,3.384,2.0713a48.8338,48.8338,0,0,1,4.213,3.0659.7808.7808,0,0,1-.7019,1.354,48.9875,48.9875,0,0,1-4.9331-1.6763c-1.601-.6426-3.1749-1.3369-4.731-2.0659a1.7684,1.7684,0,0,1-1.016-1.5439l-.0031-.1328c-.0929-3.0493-.063-6.0981.0631-9.147.0961-1.8311.2189-3.6621.4082-5.4932-2.459-.6035-4.9188-1.2061-7.37-1.84a1.15,1.15,0,0,1-.8611-1.1357l.001-.0513.2411-11.53.3036-10.2012-13.7147-3.3887-14.079-3.623-2.846,1.9873c.1836,6.5459.3928,13.0923.504,19.64.156,6.8857.2581,13.7739.351,20.6621l.1381,20.666c.038,3.4438-.012,6.89-.022,10.335-.0134,3.2988-.0355,6.5972-.0951,9.896a13.5163,13.5163,0,0,1,2.3212,2.1367c.0834.0986.1489.21.2294.3115,6.0794.3735,12.149.8472,18.2236,1.2734l18.968,1.5229,9.483.7744,9.476.8389,17.0015,1.561q.16-1.9907.3263-3.9814l-56.2181-7.2275a.7938.7938,0,0,1,.17-1.5781l56.3686,4.9287q.627-7.4041,1.2822-14.8066c-.0284-.002-.0558.0024-.0844-.001s-.066-.0078-.095-.0132l-46.2611-7.5029a.7939.7939,0,0,1,.2151-1.5728l46.563,5.2134q.3452-3.9595.684-7.92.2988-3.3618.5815-6.7261a2.0465,2.0465,0,0,1-.3193-.0562l-12.5021-3.32a.7971.7971,0,0,1,.269-1.5649l12.8929,1.0439.004.001c.221-2.5239.4431-5.0479.6929-7.5684l.6449-6.791a1.94,1.94,0,0,1-.5411.0215,2.0942,2.0942,0,0,1-.3409-.07l-12.426-3.7539a.797.797,0,0,1,.322-1.5547L172.61,123.712a1.937,1.937,0,0,1,.4477.1118l.6779-7.1377-1.7232-2.7783c-4.46-.998-8.9037-2.0664-13.3561-3.0947q-6.993-1.623-13.973-3.3091a.91.91,0,0,1-.2224-.1045,12.2953,12.2953,0,0,1-.0291,1.5742,11.0619,11.0619,0,0,1-.884,3.627,10.4354,10.4354,0,0,1-2.043,3.0854,8.5476,8.5476,0,0,1-3.01,2.063.7684.7684,0,0,1-.8671-1.21l.082-.0962a12.3236,12.3236,0,0,0,2.598-4.9829,13.4163,13.4163,0,0,0,.2589-1.3281c.025-.457.082-.8989.0751-1.3589a13.06,13.06,0,0,0-.2311-2.65c-.4469-1.56-1.006-2.1411-2.808-2.3994a33.6673,33.6673,0,0,0-6.031.3813.9454.9454,0,0,1-.4989-1.79l.01-.0054a16.5036,16.5036,0,0,1,6.6089-2.0078,5.5537,5.5537,0,0,1,1.0011.0254,4.5663,4.5663,0,0,1,1.049.166,4.3773,4.3773,0,0,1,1.064.376l.5271.2529c.167.1069.3279.2266.49.3447a6.546,6.546,0,0,1,2.3579,3.74c.0516.2373.0883.4678.1261.6992a.9213.9213,0,0,1,.7645-.2217c4.7079.8652,9.4089,1.77,14.106,2.6846,4.2283.8281,8.463,1.6245,12.6863,2.4741a21.6437,21.6437,0,0,1-.5363-6,.7951.7951,0,0,1,1.588-.0117v.0117a19.6244,19.6244,0,0,0,1.069,5.6094,14.5264,14.5264,0,0,0,2.823,4.751,19.2222,19.2222,0,0,0,4.2629,3.5449,31.422,31.422,0,0,0,4.152,2.0732l.32-12.5732A4.4529,4.4529,0,0,0,182.1764,103.818Zm-42.0612,35.7388.767-8.66a3.465,3.465,0,0,1-.8989-2.4531c0-1.6348.913-2.959,2.0389-2.959s2.0381,1.3242,2.0381,2.959c0,1.3262-.385,2.2163-1.2141,2.5923l.425,8.916Zm-7.5862-20.979a11.0026,11.0026,0,0,1-1.1306-3.3179,11.6444,11.6444,0,0,1-.0039-4.0078,7.6827,7.6827,0,0,1,1.93-4.0562,4.9265,4.9265,0,0,1,4.323-1.5239.9733.9733,0,0,1,.311,1.8l-.08.0459a4.201,4.201,0,0,0-1.8761,1.8311,8.5772,8.5772,0,0,0-.772,2.5771c-.15,1.0039-.267,2.0781-.396,3.21-.069.562-.136,1.147-.241,1.7344-.0451.2813-.0892.5649-.1434.8516.1616-.0708.3217-.1455.4836-.2148a1.0722,1.0722,0,0,1,.62-.0693l.177.0332c2.24.4141,4.473.8579,6.694,1.3481,1.11.2466,2.2261.4688,3.3311.7358l3.32.7783a1.8514,1.8514,0,0,1,1.4291,1.7324l.002.0811c.064,1.749.0811,3.5.123,5.25.052,1.749.026,3.5.04,5.251.0111,1.75-.048,3.5024-.068,5.2534-.068,1.752-.105,3.5029-.2159,5.2549l-.014.2139a1.2753,1.2753,0,0,1-.729,1.0723c-2.109.9907-4.244,1.936-6.428,2.7905a.7688.7688,0,0,1-.741-1.3315c1.6217-1.209,3.2845-2.3442,4.9643-3.4482-.127-1.498-.2191-2.9971-.3254-4.4956-.0769-1.749-.193-3.498-.2369-5.248s-.125-3.499-.13-5.249c-.01-1.2788-.0291-2.5571-.0386-3.8354l-1.8624-.52c-1.097-.2969-2.182-.64-3.274-.957-2.0809-.6089-4.15-1.2617-6.2128-1.94q-2.184.6152-4.3961,1.1519a.9351.9351,0,0,1-.625-1.7515Q131.4291,119.0824,132.5291,118.5777Z"/><path d="M7.4087,76.4679a9.27,9.27,0,0,1,2.7319-.2539c-.1877-.5415-.3684-1.0845-.5442-1.6406a45.172,45.172,0,0,1-1.192-5.1172A47.0384,47.0384,0,0,1,7.75,59.0455,54.8535,54.8535,0,0,1,12.7014,39.04c2.861-6.1885,6.4561-12.1846,11.509-16.9526a29.9652,29.9652,0,0,1,8.537-5.8779,24.3625,24.3625,0,0,1,4.985-1.5811,16.6628,16.6628,0,0,1,5.309-.2778.7917.7917,0,0,1-.1649,1.5747l-.09-.0093a15.3794,15.3794,0,0,0-4.6981.4072,22.5343,22.5343,0,0,0-4.5559,1.59,27.999,27.999,0,0,0-7.811,5.7251c-4.627,4.6152-7.925,10.459-10.509,16.5054a51.823,51.823,0,0,0-4.1439,19.002,43.5787,43.5787,0,0,0,.882,9.64,41.8281,41.8281,0,0,0,1.224,4.6582c.271.749.52,1.5117.834,2.2349a20.8506,20.8506,0,0,0,.92,1.9966c.3232.1934.6356.3984.9338.6138a15.4365,15.4365,0,0,1,1.579,1.3589,16.9882,16.9882,0,0,1,1.308,1.5439c.051.0674.0955.1382.1451.2061,2.2144-4.3008,4.4821-8.5723,6.73-12.855,2.489-4.7622,5.0551-9.4819,7.589-14.2192L40.91,40.1666l6.84-12.4224-1.3713-.76a1.9291,1.9291,0,0,1-.754-2.623l.037-.064.0071-.0107,5.069-8.3071L55.85,7.6983l.0049-.0088a1.908,1.908,0,0,1,2.2421-.8008Q63.101,8.6041,68.088,10.37L62.5614,5.9874,50.6215.3009a3.0945,3.0945,0,0,0-3.807.9385L45.2854,3.277S24.96-3.498,8.7,30.7149C-4.03,57.5025.2664,73.2818,2.7317,78.8712A11.5092,11.5092,0,0,1,7.4087,76.4679Z"/><path d="M175.9944,187.8468a8.9186,8.9186,0,0,0-4.3719,1.8257,7.6654,7.6654,0,0,0-2.5031,4.0591,16.4853,16.4853,0,0,0-.42,5.2461l.001.0117a.7945.7945,0,0,1-1.577.1782,18.2955,18.2955,0,0,1-.121-5.8892,10.3925,10.3925,0,0,1,.6557-2.3911l-17.5263-1.7964-9.4609-1-9.454-1.0649-18.906-2.1548c-5.6-.6973-11.204-1.3584-16.801-2.09a17.3266,17.3266,0,0,1,1.8149,4.4434,23.1245,23.1245,0,0,1,.547,3.561c.0422.7466.0581,1.4609.0313,2.208,1.1552.0957,2.3111.1846,3.4661.2827l10.6731.9438c3.5569.3169,7.1129.646,10.6659,1.0093,3.5541.3457,7.108.7,10.6581,1.0938,3.552.3721,7.101.7783,10.6479,1.1982q10.6441,1.25,21.2581,2.8247a.763.763,0,0,1-.141,1.5171q-10.7236-.3911-21.4141-1.1387c-3.564-.2412-7.127-.4961-10.687-.7861-3.562-.2661-7.12-.5732-10.677-.8872q-5.3384-.4482-10.67-.9741l-10.6631-1.04q-10.593-1.07-21.17-2.293l-30.8746,3.0244-24.9573,2.376a1.9489,1.9489,0,0,1-.7686.17,1.9275,1.9275,0,0,1-.4593-.0532l-4.8727.4644a.9306.9306,0,0,1-.198-1.8506l3.5565-.4209c-.0011-.0225-.0073-.043-.0076-.0654a2.37,2.37,0,0,1,.015-.2651,17.4832,17.4832,0,0,0-.839-7.8979,10.0781,10.0781,0,0,0-4.897-5.9883l-.025-.0117a.7946.7946,0,0,1,.5591-1.4834,9.99,9.99,0,0,1,4.09,2.5166,15.1467,15.1467,0,0,1,2.783,3.8608,20.7375,20.7375,0,0,1,2.2078,8.8745l23.5392-2.7871,12.652-1.4629c-.0806-.4316-.13-.8237-.1765-1.252a16.7942,16.7942,0,0,1-.079-1.874,15.6936,15.6936,0,0,1,.483-3.7148,13.9321,13.9321,0,0,1,1.403-3.4888c.21-.3506.4267-.6792.6478-1-2.4458.4209-4.8936.8247-7.34,1.2363-3.4769.5928-6.964,1.1-10.4469,1.6411-3.488.5039-6.9711,1.0439-10.463,1.5166-3.4911.4751-6.9771.9893-10.473,1.4312a1.8964,1.8964,0,0,1-2.118-1.644l-.01-.0947-.001-.0244q-.624-8.7385-1.1479-17.4819c-.379-5.8276-.6731-11.6606-.999-17.4917-.286-5.833-.573-11.667-.801-17.5044-.129-2.918-.199-5.8389-.301-8.7588s-.19-5.84-.24-8.7622a.931.931,0,0,1,1.8561-.1191c.0444.4019.0831.8037.1261,1.2056l34.1669-6.3247a.7943.7943,0,0,1,.34,1.5508l-33.8781,8.6191a1.963,1.963,0,0,1-.2295.0347q.1783,1.8186.3484,3.6377c.2681,2.9082.57,5.8149.812,8.7251.0789.8916.1489,1.7832.2252,2.6748l39.92-6.6152a.7942.7942,0,0,1,.3031,1.5586l-39.9,8.897q.45,5.4741.8784,10.95.18,2.5181.3654,5.0352l32.678-4.0874a.7943.7943,0,0,1,.25,1.5679L24.9,160.1036q.311,4.322.5885,8.645.2743,4.0151.5207,8.0317l12.966-.7466a.7962.7962,0,0,1,.2161,1.5728l-12.9628,2.835q.1131,1.8984.223,3.7979c2.8289-.3291,5.6609-.6338,8.49-.9546,3.501-.4,7.01-.7329,10.515-1.1021,3.509-.332,7.014-.6968,10.5291-.9771,3.0621-.25,6.1218-.521,9.1877-.74a14.0727,14.0727,0,0,1,5.1279-3.6274c-.2988-3.1406-.5544-6.2827-.8118-9.4248q-.4363-5.127-.7959-10.2612-.741-10.2642-1.338-20.5347c-.427-6.8462-.751-13.6973-1.109-20.5464-.27-6.0776-.5726-12.1538-.8183-18.2319L55.84,100.35l-11.88,3.0376q-5.9445,1.5066-11.906,2.9453c-3.973.9648-7.943,1.9419-11.931,2.853a.931.931,0,0,1-.4879-1.7954c3.9-1.2314,7.819-2.3984,11.7339-3.5776q5.8682-1.7849,11.759-3.4858l11.7841-3.394L65.5416,93.94c-.0443-.0591-.0985-.11-.1417-.17a15.858,15.858,0,0,1-2.5549-5.832,23.4636,23.4636,0,0,1-.4307-2.68L53.9568,87.607l-10.23,2.7661q-5.118,1.3711-10.257,2.6748c-3.424.875-6.844,1.7632-10.283,2.584a.9312.9312,0,0,1-.517-1.7871c3.3469-1.1416,6.7119-2.2168,10.075-3.3047q5.0385-1.6472,10.101-3.2129l10.1281-3.1221,9.02-2.7124.0178-.1.131-.647.0861-.3613.064-.2275.05-.1533q.0509-.1377.114-.272a1.798,1.798,0,0,1,1.0229-.9277l.064-.022c2.8351-1.0029,5.733-1.9922,8.7791-2.748a31.6373,31.6373,0,0,1,4.7319-.8252,15.1209,15.1209,0,0,1,5.146.335l17.427,4.6152q8.7241,2.3071,17.4171,4.748c1.5315.4224,3.0571.8716,4.5851,1.3105,3.0384-5.5454,6.1461-11.05,9.22-16.5747,1.682-3.0288,3.422-6.0229,5.129-9.0347l4.1426-7.2671q-9.1376-2.7751-18.2456-5.6392l-20.1-6.3418c-6.704-2.1064-13.3771-4.3022-20.064-6.458L63.0758,28.8648c-2.6978,4.6973-5.4038,9.3911-8.1551,14.0591l-8.969,15.32q-4.4656,7.6729-9.031,15.2852c-3.026,5.0859-6.047,10.1748-9.12,15.2349a.9305.9305,0,0,1-1.615-.9233c2.798-5.2168,5.6489-10.4019,8.495-15.5918q4.2539-7.7908,8.584-15.54L51.91,41.2032c2.866-5.1768,5.7849-10.3252,8.7119-15.4668a1.84,1.84,0,0,1,2.155-.8452l.009.0039,20.09,6.377c6.694,2.1343,13.4,4.228,20.078,6.4141l20.04,6.5288q10.0155,3.2827,20.001,6.6543l.048.0161a1.5844,1.5844,0,0,1,.991,2.0088,1.702,1.702,0,0,1-.147.3149l-5.4039,8.874c-1.8081,2.9531-3.5851,5.9263-5.42,8.8643-3.27,5.2446-6.5081,10.5083-9.808,15.7349.8234.2388,1.6492.4663,2.472.707q2.1465.6218,4.2922,1.248L147.5864,59.17a3.6667,3.6667,0,0,0,4.329-1.3838l6.196-9.187a3.6682,3.6682,0,0,0-.928-5.0483l-10.1991-7.1855a2.9211,2.9211,0,0,0-3.4769.083l-1.34,1.042L74.0764,14.3526l-.5424,1.7412L80.95,18.7955l8.994,3.3271c3,1.103,5.98,2.2671,8.97,3.3979,2.99,1.1328,5.976,2.2778,8.949,3.458a.763.763,0,0,1-.498,1.4409c-3.0669-.9067-6.1219-1.853-9.173-2.8091-3.051-.958-6.1129-1.8828-9.1539-2.8682L79.91,21.8038l-9.113-2.9863a1.7174,1.7174,0,0,1-1.1169-2.106l.014-.0479.498-1.7275q-5.9418-1.9526-11.8713-3.9419l-4.2617,7.02L50.02,24.5895l1.2819.7153.0121.0059a1.9174,1.9174,0,0,1,.741,2.6079l-.006.01-7.928,14.0288L36.1184,55.9444c-2.7,4.645-5.368,9.3071-8.113,13.9272-2.6428,4.4663-5.2579,8.9487-7.9473,13.3892.233.4375.4521.8809.6467,1.333a.7761.7761,0,0,1-1.2421.875l-.0179-.0161a26.4644,26.4644,0,0,0-5.438-4.2749,9.8393,9.8393,0,0,0-1.1378-.53,1.9528,1.9528,0,0,1-.51-.1851,7.4491,7.4491,0,0,0-4.0566-.22,9.24,9.24,0,0,0-2.7461,1.1812,13.309,13.309,0,0,0-2.444,2.0547A15.4094,15.4094,0,0,0,1.59,85.4024a9.3228,9.3228,0,0,0,1.1446,8.0938l3.5951,5.3066v14.458a21.2709,21.2709,0,0,0,4.335-2.5674,16.9423,16.9423,0,0,0,3.8771-4.439,20.0368,20.0368,0,0,0,2.249-5.6382,45.4862,45.4862,0,0,0,.9419-6.2686.7942.7942,0,0,1,1.5841.0908v.0137a47.2419,47.2419,0,0,1-.4,6.5742,22.51,22.51,0,0,1-1.958,6.5254,19.989,19.989,0,0,1-4.1011,5.6348,21.5971,21.5971,0,0,1-2.444,1.9761l.146-.0083,3.172,67.2368-1.4611.0356a1.9245,1.9245,0,0,0-1.876,1.9233v17.4321l24.39,1.6938,3.387-2.71,60.297,5.42a4.5875,4.5875,0,0,0,3.57,2.7358l11.674,1.668,8.474-.9687a4.221,4.221,0,0,0,3.7211-3.7739l27.777-1.6929a2.56,2.56,0,0,0,2.705,2.5547l19.19-1.0937a4.4529,4.4529,0,0,0,4.1949-4.2593l.561-13.35a1.7087,1.7087,0,0,0-.0138-.2788A19.6513,19.6513,0,0,0,175.9944,187.8468ZM125.54,36.0919a.942.942,0,0,1,1-.5,101.1656,101.1656,0,0,1,9.933,2.3813c1.6229.4951,3.2579.9517,4.865,1.4961q1.89.6021,3.7609,1.2646c.288-.2676.57-.541.862-.8047l.136-.123a1.6963,1.6963,0,0,1,1.94-.231q1.8389.999,3.6119,2.1318a36.8011,36.8011,0,0,1,3.463,2.4443.7825.7825,0,0,1-.661,1.374,37.114,37.114,0,0,1-4.07-1.1782c-.8939-.3052-1.775-.6367-2.65-.981-.2762.2979-.5464.6011-.8308.89a1.8735,1.8735,0,0,1-1.8781.4814l-.069-.0215c-1.624-.4917-3.235-1.0234-4.837-1.583-1.611-.5288-3.193-1.1445-4.7889-1.7217a101.2909,101.2909,0,0,1-9.375-4.0542A.9416.9416,0,0,1,125.54,36.0919Z"/><path d="M176.6681,119.2667l-1.11,15.3936c-.4139,6.0737-.947,12.1387-1.422,18.209-.9153,11.1509-1.7617,22.3091-2.7209,33.4575a13.0384,13.0384,0,0,1,3.86-1.7212c.5233-.1387,1.0476-.25,1.5722-.3423l4.8981-61.0649c-.8768-.5308-1.7347-1.0981-2.5628-1.7183A24.5713,24.5713,0,0,1,176.6681,119.2667Z"/><path d="M91.0293,90.4093a9.3158,9.3158,0,0,0,.6539-2.34,24.9669,24.9669,0,0,0-.064-5.5684,2.8441,2.8441,0,0,1,.015-.5679q-5.2174-1.2825-10.4324-2.6313c-2.3141-.582-5.1991-.1758-7.968.4912-2.3314.5591-4.6614,1.33-7.0227,2.1157-.0039.0537-.0089.1074-.0171.16l-.002.0127a19.0953,19.0953,0,0,0-.0811,5.2622,12.9093,12.9093,0,0,0,1.575,4.9121,9.592,9.592,0,0,0,3.634,3.5469l1.19.5859,1.2859.4082a6.329,6.329,0,0,0,1.3311.3062l1.365.231.101.0171a.79.79,0,0,1-.1849,1.5679l-1.515-.1011a7.3918,7.3918,0,0,1-1.5179-.1929L71.8569,98.3l-1.479-.5488a11.9877,11.9877,0,0,1-1.1937-.6118c.3479,6.2471.6309,12.4976.9511,18.7451.297,6.853.627,13.7021.855,20.5581q.3884,10.281.626,20.5688.1335,5.1438.186,10.291c.0421,3.0078.0835,6.0151.0893,9.0244a30.4739,30.4739,0,0,1,6.14-.91.7945.7945,0,0,1,.18,1.5771l-.014.002a26.2024,26.2024,0,0,0-6.245,1.5347,11.3613,11.3613,0,0,0-4.713,3.6992,15.35,15.35,0,0,0-1.5919,2.5771,10.8051,10.8051,0,0,0-.8361,2.7871,12.28,12.28,0,0,0-.115,2.9258,12.9887,12.9887,0,0,0,.194,1.4551,9.5717,9.5717,0,0,0,.3361,1.314l.0021.0063,14.4644-1.6729a1.3968,1.3968,0,0,1,.2469-.0068l.063.0039c4.7127.3232,9.4215.6875,14.129,1.0659.0712-.5879.1177-1.2124.1315-1.8022a19.6993,19.6993,0,0,0-.192-2.9941,13.2272,13.2272,0,0,0-2.125-5.4609,12.139,12.139,0,0,0-4.567-3.812,18.2417,18.2417,0,0,0-5.9619-1.7759l-.06-.0059a.7934.7934,0,0,1-.696-.8794c.0008-.0063.0049-.0117.0058-.0181a.95.95,0,0,1-.097-.3809L78.01,99.3478a1.942,1.942,0,0,1,.9877-1.7515,1.1276,1.1276,0,0,1,.5131-.3218l.1071-.0283c.963-.2588,1.938-.4717,2.877-.7607a23.94,23.94,0,0,0,2.7211-1.0239,12.5233,12.5233,0,0,0,4.4579-3.0229,11.0492,11.0492,0,0,0,.764-.9771C90.6653,91.1241,90.8273,90.7511,91.0293,90.4093Z"/></g></g></svg>