<svg xmlns="http://www.w3.org/2000/svg" viewBox="0 0 206.9449 218.814"><title>icon-brand-strategy</title><g id="Layer_2" data-name="Layer 2"><g id="Layer_1-2" data-name="Layer 1"><path d="M12.9361,139.1912l.0007-.0277c-.0409.0027-.0811.0075-.1219.01C12.8894,139.1834,12.9361,139.1912,12.9361,139.1912Z"/><path d="M101.2542,114.6a32.8124,32.8124,0,0,0-5.9157-2.7,35.3228,35.3228,0,0,0-12.7926-1.8972,36.9169,36.9169,0,0,0-12.5792,2.7375,43.0432,43.0432,0,0,0-11.0031,6.8034,103.2815,103.2815,0,0,0-9.5789,9.158,73.4514,73.4514,0,0,0-8.0608,10.3741,46.9463,46.9463,0,0,0-5.4609,11.6846,26.3818,26.3818,0,0,0-.8263,12.4032A20.988,20.988,0,0,0,40.782,173.865a34.2917,34.2917,0,0,0,10.5043,7.1057,41.2492,41.2492,0,0,0,12.341,3.4752,20.9522,20.9522,0,0,0,3.1265.0935c1.0705-.0336,2.1448-.1172,3.2152-.241a51.4376,51.4376,0,0,0,6.3941-1.172,55.8709,55.8709,0,0,0,12.2062-4.6979,48.0362,48.0362,0,0,0,10.6686-7.524,33.7646,33.7646,0,0,0,4.3057-4.8485c1.27-1.8072,2.5261-3.66,3.6758-5.5576,1.1551-1.897,2.2436-3.8344,3.2214-5.8218.6625-1.33,1.2915-2.714,1.8155-4.0944a2.4478,2.4478,0,0,1-.18-.229,2.485,2.485,0,0,1-.2229-.4105l-.0427-.0979-.01-.0184-.0192-.0348-.1488-.2949-.2264-.3831c-.6863-1.092-1.5592-2.3633-2.2717-3.6746a28.3193,28.3193,0,0,1-1.869-4.1394,32.1813,32.1813,0,0,1-1.7791-8.84,40.7924,40.7924,0,0,1-.0043-4.4552c.0262-.7556.0718-1.4621.1217-2.1512l.1322-2.1084c.0927-1.4189.1566-2.8373.388-4.4174.0455-.2688.1008-.5508.1655-.8392A22.68,22.68,0,0,0,101.2542,114.6ZM76.2429,175.453a49.9863,49.9863,0,0,0,15.86-8.3312,68.09,68.09,0,0,0,12.85-12.98l.03-.04a.79.79,0,0,1,1.341.8212,43.69,43.69,0,0,1-5.2335,8.0705,53.26,53.26,0,0,1-6.7051,6.9392,48.0817,48.0817,0,0,1-12.3688,7.727,47.12,47.12,0,0,1-4.6276,1.6312,33.7132,33.7132,0,0,1-9.7794,1.446,43.1174,43.1174,0,0,1-9.7107-1.0562,49.5265,49.5265,0,0,1-9.1881-3,44.452,44.452,0,0,1-8.3828-4.7282.9651.9651,0,0,1,1.0373-1.6225l.0083.0039a55.7764,55.7764,0,0,0,17.1968,5.9193A38.2,38.2,0,0,0,76.2429,175.453Z"/><path d="M68.8721,43.5784C67.3294,46.4661,56.08,50.8523,49.5786,65.4276c-5.14,11.5216-.4358,25.9564,1.7613,31.5019a40.76,40.76,0,0,1,3.3009-4.5634,32.4038,32.4038,0,0,1,3.7785-3.8773,30.1,30.1,0,0,1,4.3891-3.223,34.0831,34.0831,0,0,1,4.8585-2.4641c1.7231-.6715,3.3291-1.2117,4.9381-1.8209,1.598-.607,3.2039-1.2426,4.6608-1.9573.1919-.0978.3828-.1977.5633-.2971a1.9642,1.9642,0,0,1,.1082-1.2808l-.0586-1.07a1.6806,1.6806,0,0,1,.32-1.0836l.0273-.0385,2.87-3.9428a1.7161,1.7161,0,0,1,.9311-.6452l.0482-.0139,2.37-.6568c-.1094-.1759-.2186-.3516-.3268-.5328a31.22,31.22,0,0,1-1.5419-2.9245,25.1317,25.1317,0,0,1-2.0093-6.4029,17.591,17.591,0,0,1,.1851-6.9379,17.0387,17.0387,0,0,1,1.2091-3.33c.5643-1.1059,1.07-1.9088,1.6105-2.836A78.5515,78.5515,0,0,1,99.4576,27.2766a50.8315,50.8315,0,0,1,10.7065-7.1127A47.4617,47.4617,0,0,1,122.37,16.2712a55.4345,55.4345,0,0,1,12.6425-1.1382,38.5169,38.5169,0,0,1,6.0773.6638c-.48-1.2277-1.0185-2.4817-1.5682-3.698-.3766-.8269-.77-1.6615-1.1677-2.47A15.3512,15.3512,0,0,0,137.08,7.4475a3.9948,3.9948,0,0,0-3.5857-2.0366,10.387,10.387,0,0,0-4.6456,1.8564l-.01.0065a.8233.8233,0,0,1-.96-1.3356,12.2038,12.2038,0,0,1,5.36-2.7564,5.7585,5.7585,0,0,1,3.407.4389,8.1717,8.1717,0,0,1,2.6261,2.02,18,18,0,0,1,1.8151,2.4426c.5138.808,1.0013,1.6088,1.4844,2.4255.9652,1.6462,1.8724,3.2643,2.7412,5.0506a2.0059,2.0059,0,0,1,.1142,1.4581,13.5107,13.5107,0,0,1,2.0825.9958.7871.7871,0,0,1-.7385,1.3883l-.0808-.0389a14.6955,14.6955,0,0,0-2.7352-.92c-.0284-.007-.0576-.0117-.0861-.0184a2.0159,2.0159,0,0,1-1.513-.3181c-.4445-.08-.8914-.1526-1.34-.2109a36.2271,36.2271,0,0,0-6.01-.2747,56.6289,56.6289,0,0,0-7.4886.7942,7.1816,7.1816,0,0,1,1.1795.9348,7.1042,7.1042,0,0,1,2.0681,4.6385,7.6461,7.6461,0,0,1-.2412,2.3656,6.96,6.96,0,0,1-.9334,2.1268.981.981,0,0,1-1.8-.4541l-.015-.1942a14.69,14.69,0,0,0-.517-3.3076,5.76,5.76,0,0,0-1.3954-2.3017,11.7573,11.7573,0,0,0-2.5124-1.6322c-.53-.2043-1.0629-.4759-1.6269-.7306-.112-.0433-.2271-.0926-.34-.1372a43.3606,43.3606,0,0,0-9.594,3.6666,45.8974,45.8974,0,0,0-7.97,5.291,16.5228,16.5228,0,0,0,3.467,2.4108,15.4463,15.4463,0,0,0,4.99,1.5355,23.2152,23.2152,0,0,0,5.457.03c1.8552-.1813,3.7168-.5346,5.6361-.8556a.8231.8231,0,0,1,.3636,1.6026l-.0176.0052c-3.6438,1.03-7.5176,2.1907-11.663,2.0508a18.6287,18.6287,0,0,1-6.1372-1.2143,20.5746,20.5746,0,0,1-5.109-2.9128,81.8032,81.8032,0,0,0-13.794,17.7553c-.5077.8579-1.0929,1.8154-1.4693,2.5547a13.128,13.128,0,0,0-.9142,2.4915,14.27,14.27,0,0,0-.1876,5.3956,24.342,24.342,0,0,0,4.0842,9.8152,55.104,55.104,0,0,1,8.9449,1.5323,98.6928,98.6928,0,0,1,9.8373,2.9964,109.7834,109.7834,0,0,1,18.5417,8.6807c2.9164,1.7624,5.801,3.6531,8.5191,5.6506,2.736,1.9827,5.4507,3.9947,8.1225,6.0693s5.3136,4.1921,7.8728,6.419a64.2707,64.2707,0,0,1,7.3018,7.19.8221.8221,0,0,1-1.2482,1.07l-.0184-.0212a63.0137,63.0137,0,0,0-7.3032-6.7294c-2.59-2.11-5.2716-4.1208-7.9828-6.09s-5.4716-3.8774-8.2494-5.7584c-2.7749-1.8985-5.5687-3.6332-8.4637-5.2719a106.6113,106.6113,0,0,0-18.22-7.921,95.07,95.07,0,0,0-9.5532-2.6234,47.599,47.599,0,0,0-9.5436-1.2337l-.0975,0a1.9984,1.9984,0,0,1-.45-.0556l-2.942.7622-2.039,2.5953a29.997,29.997,0,0,1,3.9729,1.309,37.0817,37.0817,0,0,1,4.72,2.5743.8279.8279,0,0,1-.6658,1.5044,34.89,34.89,0,0,0-4.871-1.3572,26.4716,26.4716,0,0,0-3.5277-.3166c-.0233.0372-.0432.0659-.0721.11l-.1258.1652-.078.0839a4.02,4.02,0,0,1-.8749.6707,13.74,13.74,0,0,1-1.3254.688c-1.6939.7665-3.3519,1.3575-5.0244,1.9378-1.6646.5736-3.3771,1.0924-4.9086,1.6554a32.258,32.258,0,0,0-4.5285,2.0843,27.3771,27.3771,0,0,0-4.1311,2.7886,30.056,30.056,0,0,0-3.64,3.4547,54.1169,54.1169,0,0,0-5.8083,7.9917,7.8794,7.8794,0,0,1,.3914,1.7349,10.8917,10.8917,0,0,1-.1366,3.1676,18.5146,18.5146,0,0,1-1.9677,5.4458,22.4462,22.4462,0,0,1-3.176,4.5592.99.99,0,0,1-1.6874-.9281l.0027-.0078c.4814-1.75,1.081-3.3931,1.6013-5.02a37.5123,37.5123,0,0,0,1.2514-4.74,7.8642,7.8642,0,0,0-.1331-3.972,4.1265,4.1265,0,0,0-1.0663-1.5209,9.8979,9.8979,0,0,0-1.7285-1.2241c-4.9275-.8151-13.5423.34-21.1141,9.2853-6.8643,8.1085-9.0091,20.2637-9.6734,26.4843a29.09,29.09,0,0,1,3.6894.594,26.9691,26.9691,0,0,1,9.1685,3.8749.9891.9891,0,0,1-.9849,1.709l-.0138-.0063a24.323,24.323,0,0,0-8.6883-2.2077,25.5416,25.5416,0,0,0-3.4639-.013l-.0007.0277s-.0468-.0078-.1212-.0175a17.3578,17.3578,0,0,0-4.8085.9763,10.6517,10.6517,0,0,0-1.9907,1.3174C3.652,143.4347.0771,147.0707,0,152.2009c-.0759,5.1285,24.6864,22.4192,45.1225,37.8869s50.4862,28.08,60.451,28.6892c9.9636.6113,20.271-6.3259,34.13-23.2706s13.3362-32.1715,12.2711-38.0383c8.2422-3.74,15.6759-11.2394,17.4-22.4262,1.2737-8.2658-3.9658-14.3745-6.79-17.0033a62.0563,62.0563,0,0,0-11.5964-4.8936,48.24,48.24,0,0,0-7.0827-1.5274,2.0154,2.0154,0,0,1-1.98-.2073c-.0091-.0065-.0164-.0141-.0253-.0207a38.6925,38.6925,0,0,0-7.0708-.0186,37.5313,37.5313,0,0,0-7.93,1.5822c-2.6467.8629-5.4315,1.7368-8.1695,2.4849l-4.0845,1.1222a16.5222,16.5222,0,0,0-3.4818,1.2581,1.7688,1.7688,0,0,0-.7037.706,4.9945,4.9945,0,0,0-.3878,1.4224c-.025.1725-.0438.3565-.0651.5364a7.2945,7.2945,0,0,1,.9924-.3265,8.3729,8.3729,0,0,1,1.9271-.2648,6.1923,6.1923,0,0,1,2.075.2949,1.154,1.154,0,0,1,.7271,1.46,1.1674,1.1674,0,0,1-.2338.4026,6.1975,6.1975,0,0,1-1.6571,1.2844,8.4083,8.4083,0,0,1-1.804.723,6.627,6.627,0,0,1-1.9266.266c-.1274-.0038-.2565-.0137-.3855-.024l-.1074,1.81c-.05.7211-.0926,1.426-.11,2.085-.0183.3094-.014.617-.0217.9256a7.6551,7.6551,0,0,1,1.39-.496,9.3056,9.3056,0,0,1,2.0178-.2763,6.6233,6.6233,0,0,1,2.1638.2846,1.1374,1.1374,0,0,1,.7392,1.4285,1.164,1.164,0,0,1-.2575.4374,6.6606,6.6606,0,0,1-1.7543,1.2966,9.1745,9.1745,0,0,1-1.8995.7363,7.2644,7.2644,0,0,1-2.0175.2776c-.099-.0023-.1994-.0105-.2992-.0163a28.4906,28.4906,0,0,0,1.009,5.8183,5.0054,5.0054,0,0,1,.7008-.7494,5.2008,5.2008,0,0,1,1.4772-.8734,6.5424,6.5424,0,0,1,1.6609-.4353,5.1017,5.1017,0,0,1,1.8841.0966,1.2022,1.2022,0,0,1,.8738,1.46,1.2291,1.2291,0,0,1-.131.3191,5.1248,5.1248,0,0,1-1.2542,1.4089,6.5525,6.5525,0,0,1-1.4778.8741,5.1708,5.1708,0,0,1-1.66.4382,4.8273,4.8273,0,0,1-1.2227-.0626,22.8766,22.8766,0,0,0,1.1471,2.4907c.6228,1.1847,1.32,2.2708,2.1109,3.59l.3.5388c.0517.0985.105.2114.1575.3279a6.8758,6.8758,0,0,0,1.2017.0633,36.03,36.03,0,0,0,3.99-.3989c5.5075-.7855,11.0748-2.0378,16.8959-2.4242a19.7714,19.7714,0,0,1,8.8763,1.3122,11.7125,11.7125,0,0,1,3.8549,2.5523,7.5359,7.5359,0,0,1,2.135,4.2123.79.79,0,0,1-1.5546.2743l-.0036-.0166a5.794,5.794,0,0,0-1.9234-3.0747,9.7688,9.7688,0,0,0-3.3115-1.8842,17.1282,17.1282,0,0,0-7.8329-.6181c-2.7158.3229-5.4608.8976-8.21,1.481-2.7559.5711-5.5155,1.198-8.3555,1.7206a35.5515,35.5515,0,0,1-4.4363.5628,8.0055,8.0055,0,0,1-2.742-.2587,59.6494,59.6494,0,0,1-4.5776,10.0832c-1.1016,2-2.2942,3.9275-3.5328,5.856a35.43,35.43,0,0,1-4.43,5.4184,51.0143,51.0143,0,0,1-11.1154,8.2875,59.1952,59.1952,0,0,1-12.8058,5.3128c-.5474.1513-1.1053.2687-1.6579.4044a7.6683,7.6683,0,0,0-.2786,2.217,4.8223,4.8223,0,0,0,.1963,1.06,2.8021,2.8021,0,0,0,.455.8069,3.2026,3.2026,0,0,0,1.6389.9386,7.9285,7.9285,0,0,0,1.1659.2279c.4417.0664.9547.131,1.489.2382a16.83,16.83,0,0,1,2.5795.7385,14.9837,14.9837,0,0,1,.5492-1.5809,17.7107,17.7107,0,0,1,1.5638-2.9278,21.6086,21.6086,0,0,1,2.0149-2.651,13.6372,13.6372,0,0,1,2.566-2.2769,1.0309,1.0309,0,0,1,1.568,1.1093l-.0051.0191a17.3485,17.3485,0,0,1-1.1689,3.1271,27.0334,27.0334,0,0,1-1.5759,2.8488,20.0919,20.0919,0,0,1-1.9368,2.63c-.2671.2989-.5478.59-.8387.8757.1742.0843.3528.1663.5248.2515,1.7959.8744,3.49,1.89,5.15,2.8956q2.774,1.6759,5.4407,3.527c.1693-.6059.37-1.1955.589-1.7759a24.5,24.5,0,0,1,1.7237-3.5439,27.7613,27.7613,0,0,1,2.2059-3.2786,17.7215,17.7215,0,0,1,2.7819-2.928,1.0121,1.0121,0,0,1,1.6157,1.039l-.0046.0182a24.4834,24.4834,0,0,1-1.3534,3.6985,37.0427,37.0427,0,0,1-1.7441,3.4592,29.1158,29.1158,0,0,1-2.11,3.2621c-.44.5754-.9041,1.139-1.41,1.6806.6385.4671,1.2756.9365,1.9041,1.4186,1.537,1.2015,3.0476,2.4438,4.493,3.78a26.1765,26.1765,0,0,1,4.016,4.461.7938.7938,0,0,1-1.1662,1.0516l-.0424-.0358a53.2191,53.2191,0,0,0-4.5537-3.2583q-2.3732-1.5648-4.7931-3.0866c-3.2079-2.0483-6.4537-4.0508-9.6931-6.0614-1.62-1.01-3.2379-1.9631-4.8549-2.873-.809-.4488-1.6226-.8682-2.4333-1.235a14.7288,14.7288,0,0,0-2.403-.9224c-1.4757-.3841-4.46-.781-5.927-3.22a5.6541,5.6541,0,0,1-.71-3.6407,7.8026,7.8026,0,0,1,.3726-1.5476c-.9256.18-1.8532.3535-2.7923.4744-1.1617.1509-2.3326.2586-3.51.3124a24.8792,24.8792,0,0,1-3.6155-.0571,39.652,39.652,0,0,1-6.9657-1.2769,45.3944,45.3944,0,0,1-6.63-2.3429,38.18,38.18,0,0,1-11.7644-7.89,24.5825,24.5825,0,0,1-6.845-12.7373,30.3836,30.3836,0,0,1,.9474-14.2845A48.7049,48.7049,0,0,1,38.03,136.9679,87.7455,87.7455,0,0,1,56.7357,116.84,46.3442,46.3442,0,0,1,68.76,109.74,38.4585,38.4585,0,0,1,82.4883,107.08a38.012,38.012,0,0,1,13.6946,2.4985,29.6381,29.6381,0,0,1,10.8639,6.9038,5.7632,5.7632,0,0,1,2.0879-2.0766,19.2562,19.2562,0,0,1,4.4805-1.6082l4.1151-1.0609c2.73-.7093,5.3586-1.4766,8.118-2.2836a41.0763,41.0763,0,0,1,8.72-1.5247c1.147-.0682,2.2935-.0734,3.4383-.0466a116.3873,116.3873,0,0,0-9.6328-7.5219l-.0059-.0038a.8243.8243,0,0,1,.8482-1.409,117.3869,117.3869,0,0,1,15.07,9.1763,2.0089,2.0089,0,0,1,.4365.4424A45.6823,45.6823,0,0,1,151.86,110.45a61.09,61.09,0,0,1,10.7493,5.0562c4.32-2.8309,15.6433-10.6464,20.5481-17.8379,6.1243-8.98,9.049-26.5371,9.2922-33.4267C199.8726,53.25,203.549,47.0592,206.386,34.6487s-5.4766-13.5711-17.1011-13.6145c-11.626-.0429-25.7345,5.7624-25.7345,5.7624a54.8242,54.8242,0,0,0-6.8518-4.426c-4.0634-2.23-6.0655-1.6348-6.0655-1.6348a23.6652,23.6652,0,0,0-2.1892-8.1368c-2.1065-4.756-4.9158-11.4316-12.62-12.5343s-17.6261,12.2537-17.6261,12.2537-12.039-8.4231-25.2247-7.5536S76.5591,17.1447,74.217,27.2853,70.4142,40.69,68.8721,43.5784Zm49.8363,151.58a28.1381,28.1381,0,0,0-4.3226-4.6315,55.2634,55.2634,0,0,0-5.174-3.9421l-.0726-.0516a1.98,1.98,0,0,1,2.2224-3.2764,40.3643,40.3643,0,0,1,5.6918,4.2885,26.8719,26.8719,0,0,1,4.7583,5.5032,19.4222,19.4222,0,0,1,2.7667,6.8578,18.6768,18.6768,0,0,1-.1145,7.232.97.97,0,0,1-1.9193-.1673,22.8543,22.8543,0,0,0-.9791-6.3207A18.6691,18.6691,0,0,0,118.7084,195.1581Zm-93.53-32.413a20.461,20.461,0,0,1,5.785,6.14.7951.7951,0,0,1-1.1692,1.03l-.0737-.0572a49.5055,49.5055,0,0,0-6.4448-4.107c-1.0789-.5838-2.343-1.2124-3.4975-1.8689-1.1715-.6541-2.3147-1.3319-3.4484-2.0261q-3.4142-2.0485-6.7565-4.1348c-2.24-1.3625-4.4661-2.74-6.7387-3.8861l-.047-.0231a.9718.9718,0,0,1,.5833-1.8281,22.0891,22.0891,0,0,1,3.9794,1.015A10.4965,10.4965,0,0,1,7.83,151.05a12.0592,12.0592,0,0,1,1.7193-3.1738,13.7291,13.7291,0,0,1,2.5027-2.5954,10.6033,10.6033,0,0,1,3.145-1.7541,1.0268,1.0268,0,0,1,1.219,1.48l-.013.0239c-.5742,1.003-1.1942,1.8726-1.796,2.73l-1.8033,2.5c-.5925.827-1.1849,1.65-1.8348,2.472-.3379.4226-.6811.8485-1.0538,1.2745q.6688.2877,1.33.5851a77.5034,77.5034,0,0,1,7.07,3.77,14.9523,14.9523,0,0,1,.4847-1.4406,16.9679,16.9679,0,0,1,1.54-2.9242,20.5044,20.5044,0,0,1,2.0176-2.635,12.918,12.918,0,0,1,2.5966-2.2284,1.03,1.03,0,0,1,1.5416,1.1409l-.0066.0231a17.9282,17.9282,0,0,1-1.188,3.0683,27.9606,27.9606,0,0,1-1.5592,2.8026,20.3652,20.3652,0,0,1-1.8983,2.6033c-.3328.378-.6815.7482-1.0556,1.1041.3374.211.6855.41,1.0188.6247C22.9326,161.2311,23.9943,161.9134,25.1785,162.7451Zm91.4933-62.0739a11.84,11.84,0,0,1-3.8177,2.8269,14.8348,14.8348,0,0,1-4.3994,1.1987,19.5609,19.5609,0,0,1-8.55-1.1721,27.699,27.699,0,0,1-7.3017-3.9784.9663.9663,0,0,1,1.0323-1.6258l.0133.0071a32.569,32.569,0,0,0,7.1154,2.79,23.8973,23.8973,0,0,0,3.657.6085,17.2141,17.2141,0,0,0,3.5614-.1447,9.5976,9.5976,0,0,0,5.7212-3.0331,6.8288,6.8288,0,0,0,1.36-5.7871,7.9191,7.9191,0,0,0-1.3-2.8159,8.7575,8.7575,0,0,0-2.3928-2.1694,15.5511,15.5511,0,0,0-1.4852-.8024c-.5549-.2192-1.1222-.4761-1.6917-.656a17.117,17.117,0,0,0-3.4694-.7754,12.7438,12.7438,0,0,0-6.8719,1.25,25.1955,25.1955,0,0,0-6.1352,4.4406l-.01.01a.7934.7934,0,0,1-1.1864-1.04,21.5493,21.5493,0,0,1,5.9551-5.8759,16.1685,16.1685,0,0,1,4.0189-1.8076,16.6548,16.6548,0,0,1,4.4473-.5284,18.9442,18.9442,0,0,1,4.36.717c.7082.1883,1.3745.4449,2.0669.6852l1.0433.4786a6.1694,6.1694,0,0,1,1.014.5515,12.7032,12.7032,0,0,1,3.54,3.1032,11.1359,11.1359,0,0,1,2.023,4.3746A10.51,10.51,0,0,1,116.6717,100.6712ZM180.0312,37.94a.9865.9865,0,0,1,1.0675.0191,24.6976,24.6976,0,0,1,4.6146,4.0891,26.8989,26.8989,0,0,1,3.6115,5.0891,22.9878,22.9878,0,0,1,1.9419,4.6588l1.3983-1.6521c.8134-1.0676,1.6894-2.1029,2.457-3.201a55.8055,55.8055,0,0,0,4.2764-6.7807,26.4667,26.4667,0,0,0,2.67-7.3753,12.87,12.87,0,0,0,.0956-3.7731,5.9945,5.9945,0,0,0-1.4625-3.2l-.0217-.0236a.8219.8219,0,0,1,1.14-1.1826,7.7543,7.7543,0,0,1,2.2513,4.0268,14.9445,14.9445,0,0,1,.2212,4.4456,28.9469,28.9469,0,0,1-2.3234,8.2946,59.0222,59.0222,0,0,1-3.9933,7.4885c-.7254,1.2134-1.5493,2.3469-2.3216,3.5277l-2.4812,3.4042a2.0017,2.0017,0,0,1-1.1513.7625,14.19,14.19,0,0,1-.1793,2.76.8159.8159,0,0,1-1.5682.1479l-.0048-.0165c-.6978-1.8685-1.3331-3.6348-2.0749-5.3521-.7344-1.716-1.5314-3.3868-2.4153-5.0317-.8806-1.6463-1.8693-3.2469-2.8841-4.8642-1.0265-1.6121-2.1246-3.202-3.1776-4.8966l-.0036-.0073A.9854.9854,0,0,1,180.0312,37.94Zm-34.3327-.7415a22.696,22.696,0,0,1,6.14-4.1429,18.0809,18.0809,0,0,1,7.4458-1.7275c.659.0377,1.3256.04,1.9848.1212l1.971.3914c.6341.2108,1.2575.4621,1.885.7a4.4564,4.4564,0,0,1,.9006.4341l.8664.4963.8641.5035.77.612c.507.413,1.0387.8137,1.5037,1.264a22.7119,22.7119,0,0,1,2.5139,2.942,18.6655,18.6655,0,0,1,3.1351,7.0725,37.2343,37.2343,0,0,1,.6951,7.3242,62.3686,62.3686,0,0,0,.2891,6.8083,16.1859,16.1859,0,0,0,2.0022,6.1945l.0094.0168a.7938.7938,0,0,1-1.2625.9426,15.0484,15.0484,0,0,1-3.5168-6.5977c-.0942-.3553-.1617-.71-.2385-1.0658a47.2335,47.2335,0,0,1-8.0881-1.98,39.2342,39.2342,0,0,1-7.7606-3.7084,32.3683,32.3683,0,0,1-6.6069-5.4595,25.3745,25.3745,0,0,1-4.757-7.1215.8226.8226,0,0,1,1.4877-.7l.0126.0247a23.5224,23.5224,0,0,0,4.8486,6.2167,29.8391,29.8391,0,0,0,6.4472,4.5861,36.0941,36.0941,0,0,0,7.3481,2.8763,39.7078,39.7078,0,0,0,6.4352,1.1571c-.0713-.6715-.137-1.3383-.2021-1.9936a43.1513,43.1513,0,0,0-.9675-6.6132,16.4556,16.4556,0,0,0-2.5905-5.6579,18.7052,18.7052,0,0,0-2.0227-2.41c-.3737-.3652-.7888-.6642-1.1687-1.0142l-.5826-.51-.645-.3966a11.255,11.255,0,0,0-5.6631-1.9113c-4.0971-.2644-8.5142,1.4262-12.2353,3.7938l-.0694.0447a.9633.9633,0,0,1-1.1788-1.5128Zm-6.5222-.8954a1.8938,1.8938,0,0,1-.59.5754l-.1429.0885a14.6845,14.6845,0,0,1-4.3611,1.6757,31.0577,31.0577,0,0,0-3.1832.8284l-4.712,7.29,3.2774,9.5571a.8274.8274,0,0,1-1.4917.6949l-4.9387-8.2039-8.3573,2.2659a.8277.8277,0,0,1-.61-1.5272l8.4779-4.58,5.0778-7.866a10.508,10.508,0,0,1-.1415-1.9608,11.7363,11.7363,0,0,1,.1807-1.78c.0516-.2881.1123-.57.1852-.847l.1183-.4485c.0178-.0754.0551-.1443.0776-.2178l.3351-.44a1.8039,1.8039,0,0,1,.3787-.3634.44.44,0,0,1,.2062-.0778l.3215-.0315a10.384,10.384,0,0,1,2.4826.0693,15.2213,15.2213,0,0,1,2.4136.541,18.1423,18.1423,0,0,1,4.4422,2.1243A1.9029,1.9029,0,0,1,139.1763,36.3026Zm-34.1319-22.086a8.1779,8.1779,0,0,1,1.7255-1.5655,5.5376,5.5376,0,0,1,2.317-.9017,1.0867,1.0867,0,0,1,1.1507,1.4548l-.0476.1253a10.9341,10.9341,0,0,1-.9076,1.8436,13.4618,13.4618,0,0,1-1.1081,1.59,9.3234,9.3234,0,0,1-1.3741,1.44,6.6939,6.6939,0,0,1-1.9237,1.1572l-.0817.0306a.9559.9559,0,0,1-1.2891-.815,5.3294,5.3294,0,0,1,.37-2.4063A7.0384,7.0384,0,0,1,105.0444,14.2166Zm-6.7586-3.8685a8.67,8.67,0,0,1,2.0416-1.7931A5.7192,5.7192,0,0,1,103.05,7.69a1.0509,1.0509,0,0,1,.9264,1.5994l-.0821.1327c-.4257.6978-.8155,1.2532-1.2228,1.8137-.3958.5741-.8148,1.1121-1.2549,1.6607a14.7029,14.7029,0,0,1-1.4444,1.6206,9.068,9.068,0,0,1-1.9482,1.4643l-.0992.054a.9155.9155,0,0,1-1.3393-.7059,5.8919,5.8919,0,0,1,.3729-2.7115A7.8476,7.8476,0,0,1,98.2858,10.3481Zm-9.694-1.6128a12.6274,12.6274,0,0,1,2.2336-1.8287A8.8843,8.8843,0,0,1,93.55,5.7117a1.05,1.05,0,0,1,1.182,1.493l-.0237.0478A15.2674,15.2674,0,0,1,93.205,9.5555c-.5386.701-1.1153,1.3487-1.7132,1.985a16.959,16.959,0,0,1-1.9426,1.7836,10.3972,10.3972,0,0,1-2.4254,1.4473l-.0608.0241a.8956.8956,0,0,1-1.1649-.4967.9113.9113,0,0,1-.0573-.4477,7.7483,7.7483,0,0,1,1-2.8412A10.9671,10.9671,0,0,1,88.5918,8.7353Z"/><path d="M133.27,34.7244a27.9922,27.9922,0,0,0-3.2626-1.716l.0289.4915a9.0632,9.0632,0,0,0,.2188,1.3917c.0684.2732.1663.5373.2552.804.8683-.3668,1.7362-.6558,2.53-.9019C133.12,34.77,133.1922,34.7477,133.27,34.7244Z"/><path d="M115.3421,148.4963s-.0087-.0271-.0133-.0385c-.0033-.0088-.0095-.016-.0135-.0247l.009.0207Z"/><path d="M114.9054,147.9762l.0012,0C114.8865,147.9675,114.886,147.9709,114.9054,147.9762Z"/><polygon points="78.048 79.47 78.048 79.469 78.048 79.474 78.048 79.47"/><path d="M78.0482,79.48v-.0032C78.0481,79.4712,78.0479,79.469,78.0482,79.48Z"/></g></g></svg>