<?xml version="1.0" encoding="utf-8"?>
<!-- Generator: Adobe Illustrator 21.1.0, SVG Export Plug-In . SVG Version: 6.00 Build 0)  -->
<svg version="1.1" id="Layer_1" xmlns="http://www.w3.org/2000/svg" xmlns:xlink="http://www.w3.org/1999/xlink" x="0px" y="0px"
	 viewBox="0 0 100 125" style="enable-background:new 0 0 100 125;" xml:space="preserve">
<polygon points="30,86.4 7,74.5 7,17.2 30,30.9 "/>
<polygon points="44,53.3 54.5,47.1 54.5,17.2 31.7,30.9 31.7,86.4 44,80 "/>
<polygon points="43.7,22 54.5,15.6 30.7,1.8 20.5,7.8 "/>
<polygon points="19.4,8.4 7,15.6 30.7,29.7 42.7,22.6 "/>
<polygon points="69.9,99 92.9,85.1 92.9,55.6 69.9,69.4 "/>
<polygon points="68.2,99 45.4,85.1 45.4,55.6 68.2,69.4 "/>
<polygon points="56.2,60.5 45.4,54.1 69.2,40.3 79.4,46.3 "/>
<polygon points="80.5,46.9 92.9,54.1 69.2,68.2 57.2,61.1 "/>
</svg>
