<svg xmlns="http://www.w3.org/2000/svg" viewBox="0 0 240.374 625.6253"><title>laurel-right</title><g id="Layer_2" data-name="Layer 2"><g id="Layer_1-2" data-name="Layer 1"><path d="M150.55,203.8122c.459.02.9183.0619,1.3769.055a3.0136,3.0136,0,0,1,2.6409,1.2757,10.4741,10.4741,0,0,0,3.9643,3.354,5.3339,5.3339,0,0,1,.9956,8.2909,37.93,37.93,0,0,1-3.3046,2.3906,6.1554,6.1554,0,0,0,2.4582,1.7195,6.8521,6.8521,0,0,1,2.43,2.21,2.8667,2.8667,0,0,1,.5328,2.3642,7.9643,7.9643,0,0,1-2.2941,4.0258,3.33,3.33,0,0,1-3.3623.7448c-1.3893-.4576-2.7233-1.0831-4.1969-1.6828.0721.5173.1746,1.0433.2131,1.5739a17.4982,17.4982,0,0,1,.1319,3.02,2.4435,2.4435,0,0,1-2.5718,2.3751,2.8242,2.8242,0,0,1-.8272-.0056,2.9832,2.9832,0,0,0-2.9563.9344,4.2869,4.2869,0,0,1-6.3153-.9751,8.4281,8.4281,0,0,1-1.05-2.2374c-.3159-.9567-.4923-1.9594-.7519-3.0374-.7856-.0028-1.1966.6917-1.7822,1.0263a12.8916,12.8916,0,0,0-1.5569,1.1367,3.8082,3.8082,0,0,1-5.937-.882c-.889-1.2821-1.6834-2.63-2.5919-4.0606a6.8086,6.8086,0,0,0-1.1234.6828c-3.2247,2.9075-6.8186,5.3643-10.1153,8.1616-3.6663,3.1109-7.6631,5.7556-11.3944,8.7621a80.232,80.232,0,0,0-6.7912,6.097,24.9342,24.9342,0,0,0-6.159,10.0426c-.42,1.315-.98,2.585-1.4133,3.896-.4621,1.3967-.8861,2.8087-1.25,4.2337a2.6263,2.6263,0,0,0,.1208,1.3325c.0595.1965.3959.3548.638.43.11.0343.3532-.14.4386-.2794a10.9958,10.9958,0,0,0,1.2211-3.9315,15.6029,15.6029,0,0,1,.6579-2.6662,2.7537,2.7537,0,0,1,2.9958-1.9553,6.7516,6.7516,0,0,1,1.095.1313,1.3086,1.3086,0,0,0,1.4463-.5673c1.299-1.7755,3.31-2.2464,5.2232-2.8992a3.7629,3.7629,0,0,1,.8144-.1494,2.7382,2.7382,0,0,1,3.2448,1.9425c.1378.3393.1927.7112.309,1.06a4.1162,4.1162,0,0,0,2.24,2.6577,13.1363,13.1363,0,0,1,2.0928,1.3362,7.5283,7.5283,0,0,1,3.5366,5.3726c1.3235,2.5255.5868,4.6936-.8734,6.957a10.4892,10.4892,0,0,1-5.4644,3.9861,5.2447,5.2447,0,0,0-2.7448,1.7366,3.1345,3.1345,0,0,0-.26.4776c-.0364.0811-.0727.2363-.0379.2623.1385.103.3274.2633.4578.2327.9825-.2308,1.9646-.4721,2.93-.7663a12.5025,12.5025,0,0,1,7.6065.2312c2.4006.7536,4.9721,4.3034,3.9333,7.0484a4.8442,4.8442,0,0,0,.0242,3.759,6.039,6.039,0,0,1,.2133,2.4439,3.53,3.53,0,0,1-2.0795,3.33c-.25.1187-.4825.2784-.7394.3767a1.6536,1.6536,0,0,0-1.039,1.7656c-.0019.4613.01.9241-.0218,1.3836-.0639.92-.1709,1.8363-.23,2.7561-.2356,3.6879-3.2118,4.4233-5.9971,3.2508a11.2381,11.2381,0,0,1-1.4477-.8062c-.3935-.24-.7687-.51-1.146-.7751a2.632,2.632,0,0,0-3.3322.0387c-1.0961.83-2.11,1.7734-3.1252,2.7045-1.4934,1.37-2.9429,2.7868-4.436,4.1566a7.916,7.916,0,0,1-5.7725,2.2567,13.1236,13.1236,0,0,0-1.9179.2512,3.1828,3.1828,0,0,1-3.317-1.5327,38.0544,38.0544,0,0,1-1.8827-3.6831c-.4215-.9051-.7438-1.8564-1.31-3.2934-.5979,3.2694-1.0574,6.0194-1.3558,8.795-.5321,4.9495-1.0916,9.8967-1.5486,14.8534a86.85,86.85,0,0,0-.0831,14.6505c.1762,2.29.6166,4.56.814,6.85.19,2.2029.2327,4.4191.3168,6.63.0421,1.1058.0131,2.2144.063,3.32a.9745.9745,0,0,0,.3863.5814c.0666.0548.3635-.0567.4624-.1722,1.62-1.8921,3.24-3.785,4.8137-5.7156a1.06,1.06,0,0,0,.0734-.9888,5.3734,5.3734,0,0,1-.4485-5.0363,3.4585,3.4585,0,0,0-.1167-2.4026,1.6931,1.6931,0,0,1,1.1354-2.3984,6.608,6.608,0,0,1,3.7863-.443,13.5814,13.5814,0,0,0,2.0185.1948c-.8981-.9373-1.5515-1.5639-2.14-2.2466-.84-.9752-1.6925-1.95-2.4306-3.0011-.8387-1.1945-.75-2.03.4319-2.8248A3.3756,3.3756,0,0,0,89.257,338.13a11.8622,11.8622,0,0,1,1.3167-3.0215,2.2972,2.2972,0,0,1,3.2871-1.0778,2.8541,2.8541,0,0,0,2.3729.2015,2.7936,2.7936,0,0,1,1.0918-.1166,2.1975,2.1975,0,0,1,2.315,2.2357,11.3733,11.3733,0,0,1-.44,2.41c-.24,1.074-.5557,2.1329-.7514,3.2141a2.3145,2.3145,0,0,0,.1595,1.3374c.18.374.5853.8346.9365.8759a1.3272,1.3272,0,0,0,1.077-.65c.5227-1.2693.9273-2.59,1.3335-3.9039.4073-1.3179.6535-2.696,1.1684-3.9674.7885-1.9473,2.1535-2.3655,3.9729-1.1884a4.6331,4.6331,0,0,0,2.58.7687,15.9877,15.9877,0,0,1,2.4821.1343c2.37.411,3.2216,1.7431,2.7347,4.1446-.0511.2519-.1087.5025-.1951.9a4.1058,4.1058,0,0,0,2.0724-.6819c.4972-.2374.9381-.6014,1.4451-.8086,2.3856-.9749,3.2581-3.1072,4.0842-5.2756a.5751.5751,0,0,0-.1128-.4877.504.504,0,0,0-.4572-.1178c-.7482.3536-1.4652.7741-2.2172,1.1185-1.8194.8328-2.8772.4442-3.6931-1.4781a2.1957,2.1957,0,0,0-.9956-1.2252,3.4053,3.4053,0,0,1-.6843-.4652,2.9635,2.9635,0,0,1,.526-5.07,13.3882,13.3882,0,0,1,2.5978-.887c.6768-.2158.8077-.5921.4571-1.2546a23.2526,23.2526,0,0,1-1.2211-2.4524,1.9621,1.9621,0,0,1,1.5466-2.7066,2.6128,2.6128,0,0,0,1.8354-1.0471,6.8025,6.8025,0,0,1,1.9921-1.4437c1.6418-.8057,2.7472-.2558,3.3281,1.5314a3.2194,3.2194,0,0,0,.2934.7608c.1483.2293.3811.3772.6453.0893a17.4015,17.4015,0,0,1,1.8835-2.0009,3.7531,3.7531,0,0,1,5.0251.0358,3.0835,3.0835,0,0,0,1.9539.8956c2.3972-.0427,3.6015,2.8262,2.3958,4.9622a22.2,22.2,0,0,1-1.6314,2.2167.6319.6319,0,0,0,.0619.961c.5.4067,1.0717.7339,1.5349,1.1765a1.665,1.665,0,0,0,2.2264.2347c2.675-1.4444,5.3876-2.82,8.1-4.1941a6.4393,6.4393,0,0,1,1.2743-.3491l-.0731-.0684a5.926,5.926,0,0,1-2.1029,2.1174c-2.2419,1.7744-4.4647,3.5729-6.7,5.356a2.3169,2.3169,0,0,0-1.0285,1.8636,2.17,2.17,0,0,1-.0745.5474,4.364,4.364,0,0,1-6.1908,3.1791c-.34-.1287-.6453-.46-.9752-.4723-.2863-.0109-.802.258-.84.4706-.1615.9029-.1605,1.8334-.26,2.7493a5.7134,5.7134,0,0,1-3.5807,4.8748c-1.9691.8841-3.3153.585-4.6363-1.0774-.343-.4316-.6085-.9261-.9633-1.3464a.6789.6789,0,0,0-.9647-.1744q-4.1149,2.8021-8.2218,5.6156c-.1172.0807-.1333.3081-.2167.5178.8046.2128,1.6176.38,2.3963.648a12.6372,12.6372,0,0,1,2.0135.8946,3.9561,3.9561,0,0,1-.0275,6.9918,11.5569,11.5569,0,0,0-2.9381,1.9676,2.66,2.66,0,0,1-2.8662.4742,11.9126,11.9126,0,0,1-2.4272-1.2834c-1.2057-.8463-2.328-1.8107-3.5-2.7066a.3989.3989,0,0,0-.6461.4264c.2933.7722.6011,1.5418.9574,2.2867a9.3142,9.3142,0,0,1,.612,5.9547,4.2567,4.2567,0,0,1-4.664,3.7758A5.7434,5.7434,0,0,0,98.4,366.6a3.3337,3.3337,0,0,1-4.7216-1.9913,8.3907,8.3907,0,0,1-.8732-4.5141c-.6116-.38-.9037.0452-1.2269.3113a33.84,33.84,0,0,0-8.158,9.319,12.5547,12.5547,0,0,0-1.6067,4.09c-.1248.7233-.41,1.4184-.5438,2.1408a7.5943,7.5943,0,0,0-.1569,1.8892c.212,3.0352.4622,6.0679.7167,9.1a131.7852,131.7852,0,0,0,1.7074,14.8266c1.1721,5.8707,2.0419,11.8125,3.8163,17.5538.1632.5281.3109,1.0626.5062,1.5788,2.0572,5.4377,3.7872,10.9838,5.3557,16.5763a4.4908,4.4908,0,0,0,2.4314,3.1272c1.5683.772,3.0725,1.6736,4.6354,2.4572a1.3,1.3,0,0,0,1.5526-.0486,1.3933,1.3933,0,0,0-.0152-1.788,13.2443,13.2443,0,0,0-1.2623-1.4551c-1.89-2.0215-3.8006-4.0233-5.6767-6.0572a14.6687,14.6687,0,0,1-2.5745-3.914,6.8411,6.8411,0,0,1-.5885-3.2308,2.5487,2.5487,0,0,1,.3169-1.3217c1.0366-1.4124,2.122-2.8916,3.9206-3.3125a3.1961,3.1961,0,0,0,2.5947-2.5248,14.6621,14.6621,0,0,1,.7362-2.0869c.97-2.19,2.4247-3.692,5.2-3.3315.1042-1.6153.3124-3.1285-.8736-4.4772a2.2888,2.2888,0,0,1-.3951-1.5665c.0861-.9773-.441-1.2868-1.2128-1.5456a5.532,5.532,0,0,1-1.4719-.7467,3.83,3.83,0,0,1-1.5056-4.1651,3.2755,3.2755,0,0,1,2.7556-2.76,40.1934,40.1934,0,0,1,4.3927-.4479c1.0107-.0646,2.031.03,3.044-.0139a3.9736,3.9736,0,0,0,1.3144-.3322.8757.8757,0,0,0,.2256-1.5479,14.4938,14.4938,0,0,0-1.98-.9215c-1.1087-.4522-2.2323-.8678-3.3472-1.3051-.2573-.1009-.5087-.2191-.7558-.3433a4.2306,4.2306,0,0,1-2.5843-3.948,3.9027,3.9027,0,0,1,2.6235-3.902c2.0454-.5736,2.7276-1.8082,3.0751-3.6567a5.3132,5.3132,0,0,1,1.12-2.1889,3.5575,3.5575,0,0,1,5.3673-.302,8.81,8.81,0,0,1,1.6391,2.21,15.1735,15.1735,0,0,1,2.0579,6.26,1.8593,1.8593,0,0,0,.1391.8079,2.2707,2.2707,0,0,0,.6968.781c.2762.1813.7463-.3627.7984-.91a39.8587,39.8587,0,0,1,.406-4.1206,4.2186,4.2186,0,0,1,6.8457-2.5866,8.8433,8.8433,0,0,1,1.8562,2.0288,8.6571,8.6571,0,0,0,2.9833,2.82,5.0618,5.0618,0,0,1,2.5775,3.4341,2.8784,2.8784,0,0,1-.6742,2.8258c-.3806.4019-.7873.78-1.1573,1.1908-.5687.632-.3748,1.2164.5506,1.2722,2.0145.1212,3.1084,1.3747,4.0681,2.927a6.34,6.34,0,0,1,.9742,5.2672,3.31,3.31,0,0,1-1.5717,2.1729c-.2424.1337-.4775.2809-.7233.4078a1.8211,1.8211,0,0,0-1.169,1.9812,3.5265,3.5265,0,0,1-.0528,1.0985,2.0061,2.0061,0,0,1-2.5142,1.5361,4.7355,4.7355,0,0,1-3.1089-2.5536c-.3477-.6474-.59-1.35-.92-2.0082a4.0316,4.0316,0,0,0-2.0383-2.1586,1.286,1.286,0,0,0-.9742.2463c-.1618.1082-.22.4872-.1931.73a1.6373,1.6373,0,0,0,.3384.7437,16.0791,16.0791,0,0,0,1.0634,1.2735,18.1093,18.1093,0,0,1,2.8376,4.4063,8.9948,8.9948,0,0,1,.9818,4.2772,4.4274,4.4274,0,0,1-5.32,4.5268,2.9955,2.9955,0,0,0-2.3249.423c-1.3352.9048-2.838.6873-4.2844.3637a2.86,2.86,0,0,1-1.3354-.8989,8.1313,8.1313,0,0,1-2.1107-4.1315c-.0743-.43-.2167-.8484-.3815-1.4765a29.4162,29.4162,0,0,1-2.8572,1.903,22.1728,22.1728,0,0,1-2.885,1.0228,23.6974,23.6974,0,0,0,2.3586,5.0814,16.6921,16.6921,0,0,1,2.63,6.6285,4.6163,4.6163,0,0,0,.4171,1.3061.9184.9184,0,0,0,.5905.47.8166.8166,0,0,0,.6846-.3009,24.35,24.35,0,0,0,1.0239-2.2591,9.9874,9.9874,0,0,1,7.321-6.1468c2.1911-.5353,3.726.1213,4.6016,2.04.153.3354.3545.65.493.99a11.6241,11.6241,0,0,0,4.4818,5.4809,11.6352,11.6352,0,0,1,1.8861,1.6178,3.2064,3.2064,0,0,1,.8728,3.0517c-.6138,3.0276-1.9093,5.5819-4.7519,7.106-1.1354.6088-2.29,1.1824-3.424,1.7932a21.4042,21.4042,0,0,0-2.1323,1.2446.871.871,0,0,0,.3793,1.5038,4.5687,4.5687,0,0,0,1.3526.1757c1.0131-.0433,2.0218-.1982,3.0348-.233a28.5037,28.5037,0,0,1,3.3151.0335,5.9864,5.9864,0,0,1,3.8941,1.903c2.0323,2.1094,2.0975,3.1776.89,5.1347a2.9785,2.9785,0,0,0-.0311,3.1337,13.355,13.355,0,0,1,.6566,9.4585,5.4294,5.4294,0,0,1-5.6123,4.3834,8.3512,8.3512,0,0,1-5.63-1.9472,28.2146,28.2146,0,0,1-5.6586-6.4076,9.7221,9.7221,0,0,0-2.7374-3.0784c-.3419-.222-.7308-.303-.9882.0115a1.8924,1.8924,0,0,0-.3559.9906,1.9824,1.9824,0,0,0,.2542.7779,23.5409,23.5409,0,0,1,1.3744,12.2244,12.4671,12.4671,0,0,0-.21,2.2025,7.99,7.99,0,0,1-1.5594,5.2029,2.158,2.158,0,0,0-.0177,2.7719c2.0336,3.2985,4.0143,6.63,6.0235,9.9431.861,1.42,1.784,2.8041,2.6079,4.245a168.8772,168.8772,0,0,0,13.04,19.23c4.0577,5.2616,8.0321,10.5888,12.1672,15.7886,2.87,3.6088,5.9418,7.0574,8.9471,10.5573a10.2654,10.2654,0,0,0,1.4672,1.13,34.8314,34.8314,0,0,0,.25-3.8621c-.3013-6.0146,1.1222-11.7177,3.0435-17.33a92.9706,92.9706,0,0,0,3.6735-13.3185c.5147-2.808.8933-5.6408,1.3491-8.46.3236-2.0013.6556-4.0016,1.0176-5.9961.4119-2.27.524-4.58.8471-6.8513a98.2609,98.2609,0,0,0,.4636-12.4261,49.6094,49.6094,0,0,0-1.4213-10.6686c-.8668-4.26-1.1981-8.5845-1.7723-12.8784a18.3326,18.3326,0,0,1,.1687-3.8463c.1118-1.3735.2887-2.7417.4966-4.6606.0477.9767.0954,1.4163.0867,1.8548a51.446,51.446,0,0,0,2.1015,14.1756,72.332,72.332,0,0,1,2.4568,13.8625,3.5247,3.5247,0,0,0,.3471,1.0183c.0142.0356.174.0174.266.0155.0859-.0017.2369.0059.2472-.0263a6.66,6.66,0,0,0,.2834-1.0384c.2825-1.9132.5775-3.8256.8075-5.7454.2181-1.82.3614-3.6494.5645-5.7537a27.3019,27.3019,0,0,1,.086,7.957,46.5318,46.5318,0,0,0-.3764,5.5129,26.3178,26.3178,0,0,1-.5467,6.3211,65.5539,65.5539,0,0,0-.9116,7.9633c-.188,1.6455-.3973,3.2886-.6,4.9324-.1914,1.5529-.3747,3.107-.5821,4.6579-.5986,4.4748-1.1167,8.9632-1.8411,13.4178a89.3346,89.3346,0,0,1-2.4028,10.7828c-.7754,2.648-1.3276,5.3624-1.9424,8.0557a8.6746,8.6746,0,0,0-.0965,1.6458c-.0024.0773.0839.22.1377.2246.1494.0117.3718.0235.4452-.0648,1.8278-2.1961,3.68-4.374,5.4407-6.6232a11.2093,11.2093,0,0,1,4.0834-3.2333c1.83-.8724,3.712-1.6355,5.5627-2.4653a17.0847,17.0847,0,0,0,4.0866-2.286c-.1751-.7357-.8236-.6787-1.27-.808-.9719-.2814-1.9875-.4079-2.9682-.6631-3.1574-.8216-4.51-3.1733-3.6119-6.293.2548-.8846.6281-1.7347.9309-2.6061a14.8664,14.8664,0,0,0,.4856-1.5837,1.5716,1.5716,0,0,0-.4256-1.5283,18.8235,18.8235,0,0,1-1.3646-1.3689,2.7807,2.7807,0,0,1,.6737-4.2732,5.4469,5.4469,0,0,1,4.2011-.9851c1.2519.283,2.4709.713,3.7028,1.0835.6129.1844,1.2144.4139,1.8357.5608.3764.0889.915-.5618.793-.935a8.3958,8.3958,0,0,0-.5185-1.2649c-.6378-1.2258-1.36-2.4111-1.9405-3.6624a7.0389,7.0389,0,0,1-.5564-5.3691,4.6258,4.6258,0,0,1,3.98-3.3743,4.7007,4.7007,0,0,1,.8272-.0668,4.8947,4.8947,0,0,0,3.5583-1.2616c1.4988-1.3253,3.0305-1.0759,4.5628-.0627.4616.3052.9048.6382,1.3585.9555a6.1315,6.1315,0,0,1,2.7173,5.45c-.0156.92-.063,1.8412-.0243,2.7589a.8337.8337,0,0,0,.4977.5694.824.824,0,0,0,.7265-.1615,7.3574,7.3574,0,0,0,.7362-1.15,4.7033,4.7033,0,0,1,6.148-2.1171,9.7839,9.7839,0,0,1,4.0872,3.2065,4.2412,4.2412,0,0,1,.9291,3.1114,4.8666,4.8666,0,0,0,.9123,3.12c.2931.47.5939.9351.8677,1.4158a5.76,5.76,0,0,1,.6534,3.4789,4.134,4.134,0,0,1-1.8936,3.21c-2.5665,1.7523-2.547,1.7809-.0739,3.7926.6435.5234,1.2425,1.1017,1.8608,1.6561a8.943,8.943,0,0,1,2.9587,5.7746,5.1126,5.1126,0,0,1-1.333,4.6,4.98,4.98,0,0,0-1.6048,3.6654,5.9575,5.9575,0,0,1-1.37,3.274,3.8947,3.8947,0,0,1-2.2672,1.4853,2.5321,2.5321,0,0,1-3.0788-1.2283,11.22,11.22,0,0,1-.9695-2.5689,15.7441,15.7441,0,0,0-2.3616-4.9684.822.822,0,0,0-.7014-.3057c-.3.1107-.72.4034-.7458.6548a6.9207,6.9207,0,0,0,.0768,2.1746,21.5107,21.5107,0,0,1,.38,6.6026,4.98,4.98,0,0,1-2.1292,3.7255,4.2559,4.2559,0,0,1-4.1662.78c-.1722-.064-.361-.0831-.5338-.146-2.4618-.896-2.3063-1.2916-5.0686.5083a3.8654,3.8654,0,0,1-6.01-1.6966,19.3055,19.3055,0,0,1-1.5414-4.71,20.6956,20.6956,0,0,1-.2009-7.9777,11.7694,11.7694,0,0,0,.018-2.0961,4.7435,4.7435,0,0,0-1.0452.4744,33.5129,33.5129,0,0,1-7.0317,4.359,18.1011,18.1011,0,0,0-6.8674,5.45c-1.0375,1.411-2.0757,2.8221-3.0823,4.2551a4.0309,4.0309,0,0,0-.582,1.2369c-.4581,1.6892-.8366,3.4-1.3166,5.0829a3.58,3.58,0,0,0,.1272,2.1516,55.4569,55.4569,0,0,0,6.2006,13.2284,6.8193,6.8193,0,0,1,.8516,1.4173,10.8328,10.8328,0,0,0,3.2532,4.3941,229.9017,229.9017,0,0,0,27.9692,23.0156c3.2633,2.2535,6.5648,4.452,9.8533,6.6691a6.4779,6.4779,0,0,0,1.42.8507,9.2014,9.2014,0,0,1,4.82,4.33,45.7988,45.7988,0,0,1,4.3426,8.631,40.6656,40.6656,0,0,0,1.5142,3.86,38.9376,38.9376,0,0,1,2.8475,10.6381c.5012,3.1145.5416,3.8983-2.8755,2.538a28.7661,28.7661,0,0,1-4.6979-2.3157,155.7841,155.7841,0,0,1-17.862-13.055c-1.4749-1.2481-3.1036-2.3125-4.63-3.5027-2.1818-1.7017-4.38-3.3872-6.4894-5.176-4.7152-3.9985-9.4155-8.0161-14.0488-12.1087-2.07-1.8289-4.0341-3.7925-5.9234-5.81-2.7109-2.8947-5.2944-5.9085-7.9656-8.8409-.7984-.8765-1.7147-1.645-2.5661-2.474a59.4,59.4,0,0,1-9.1263-11.0809c-3.32-5.3222-6.7733-10.5617-10.2077-15.8115a11.4219,11.4219,0,0,0-1.9679-2.2964,125.6337,125.6337,0,0,0-11.5532-9.03,44.1411,44.1411,0,0,0-11.0263-5.04c-1.131-.3915-2.2952-.6872-3.4447-1.0252-.6332-.1861-1.0648.141-.84.884a18.5871,18.5871,0,0,1,.3984,1.8957,8.5447,8.5447,0,0,1-1.2375,6.36c-.6891,1.0911-1.4767,2.1194-2.1932,3.194a5.4489,5.4489,0,0,1-5.3993,2.6605c-.2755-.0277-.5512-.0659-.8274-.0718-.84-.0181-1.007.1047-1.1261.8614-.0717.455-.0565.9275-.162,1.3728a5.6345,5.6345,0,0,1-8.192,3.8989,8.6571,8.6571,0,0,1-3.3624-2.8089c-.38-.5214-.6877-1.0991-1.0949-1.5966a5.3605,5.3605,0,0,0-1.1952-1.1227,1.57,1.57,0,0,0-1.59-.0743,1.273,1.273,0,0,0-.6421,1.3984,21.3008,21.3008,0,0,0,1.0029,5.4224,31.6267,31.6267,0,0,1,1.0047,3.73,5.2189,5.2189,0,0,1,.08,1.6444c-.4213,4.23-3.0993,6.4149-7.3526,6.016a7.0548,7.0548,0,0,1-4.0667-1.5624,1.8774,1.8774,0,0,0-2.5183-.1324,6.5771,6.5771,0,0,1-1.24.6075c-2.5.9874-4.3214.1995-5.2858-2.35a12.6639,12.6639,0,0,1-.8831-4.5926,23.7264,23.7264,0,0,1,1.0064-6.2613,28.3652,28.3652,0,0,0,.8121-3.7748c.207-1.51-.1554-1.8677-1.5967-1.7852-.92.0527-1.8425.1379-2.7533.2775a8.6721,8.6721,0,0,1-6.5112-1.7341,4.3668,4.3668,0,0,1-1.8435-4.8507,20.67,20.67,0,0,1,1.24-3.6637,8.3816,8.3816,0,0,0,.6528-4.8681,6.67,6.67,0,0,1,1.93-6.0476,8.2128,8.2128,0,0,1,6.5615-2.9855c1.3818.0478,2.759.218,4.14.3141a12.1733,12.1733,0,0,0,1.929.0512,1.5922,1.5922,0,0,0,1.3736-2.3987,7.2465,7.2465,0,0,0-2.162-2.8264c-1.0423-.9044-2.0641-1.8331-3.0775-2.77a6.7531,6.7531,0,0,1-2.3687-5.13,14.7883,14.7883,0,0,0-1.4528-5.8454,10.4714,10.4714,0,0,1-.7163-3.2106,1.9592,1.9592,0,0,1,2.6751-2.1739,9.3018,9.3018,0,0,1,3.0155,1.3112A20.8144,20.8144,0,0,1,79.21,498.772a24.176,24.176,0,0,1,4.3406,7.6454,5.652,5.652,0,0,0,.4181,1.0188c.2633.4842.5413.9753,1.2093.9831.4941.0057.9-.5819.9409-1.4822a9.0592,9.0592,0,0,0-.0593-1.6556,59.2269,59.2269,0,0,1-.3325-8.8445,10.2394,10.2394,0,0,1,.092-1.6569,6.2921,6.2921,0,0,1,4.0617-5.1752,10.1072,10.1072,0,0,1,5.4459-.4844,3.7475,3.7475,0,0,1,3.1565,2.75c.2154.7058.4373,1.41.6438,2.118a2.5073,2.5073,0,0,0,2.211,2.0707,5.0122,5.0122,0,0,1,3.8646,3.614,21.96,21.96,0,0,1,1.2645,9.245,7.8323,7.8323,0,0,1-2.4543,5.119c-.5318.511-1.0483,1.0419-1.5278,1.6013a1.9139,1.9139,0,0,0-.5122.9558,1.4874,1.4874,0,0,0,.3761.9606.788.788,0,0,0,.7353.183,9.856,9.856,0,0,0,2.0326-1.3983,3.3613,3.3613,0,0,1,3.5523-.8445,5.6093,5.6093,0,0,1,4.306,4.227,2.0539,2.0539,0,0,0,1.8373,1.7406c.7262.1116,1.4319.3512,2.1506.5175a71.4674,71.4674,0,0,1,16.8964,6.7745c.7973.4166,1.6.8234,2.4884,1.28,0-.3179.0618-.5117-.0087-.6021a307.4641,307.4641,0,0,1-18.3388-26.667,97.1913,97.1913,0,0,1-5.6843-10.1179c-1.25-2.6678-2.7945-5.1983-4.2255-7.78-.4813-.8684-.6594-.9106-1.5083-.5545-2.2665.9506-3.29.7853-4.8968-.9436a25.0789,25.0789,0,0,1-2.451-2.9984c-2.18-3.2316-3.0005-6.7677-1.7-10.5233a2.5561,2.5561,0,0,0-.7774-2.9378,1.5733,1.5733,0,0,0-1.4828-.5357,6.7893,6.7893,0,0,1-.8248.0955,5.5064,5.5064,0,0,1-5.8578-4.4039,6.148,6.148,0,0,0-.1891-1.0843c-.1864-.39-.4483-.8981-.8-1.0312-2.7232-1.03-4.036-3.2934-4.5944-5.84a16.1217,16.1217,0,0,0-4.0711-7.3969c-2.4551-2.7536-4.81-5.5962-7.2212-8.3893a34.1639,34.1639,0,0,0-8.1511-7.4225q-1.3047-.7771-2.6359-1.5093c-1.29-.7059-2.58-1.4133-3.892-2.0768a28.6767,28.6767,0,0,1-7.2142-5.5366c-1.25-1.2491-2.4712-1.8267-4.1483-.98-.1844.82.4847,1.3215.8131,1.9449a11.5028,11.5028,0,0,0,1.0736,1.6108,13.5537,13.5537,0,0,1,2.5028,5.7942,9.0009,9.0009,0,0,1,.0576,2.7383,2.6839,2.6839,0,0,1-2.0164,2.4058,31.3281,31.3281,0,0,0-4.84,1.9982,3.6907,3.6907,0,0,1-5.0848-1.9408,31.5165,31.5165,0,0,1-1.1808-3.6729c-.274-.8712-.51-1.7577-.8451-2.6048-.1686-.4259-.5771-.8313-1.0785-.5938a1.6527,1.6527,0,0,0-.89.9257,21.0994,21.0994,0,0,0-.1994,2.7411c-.0647,1.1-.0572,2.2115-.213,3.299a3.1234,3.1234,0,0,1-2.5042,2.65,3.4154,3.4154,0,0,1-3.5842-.8456c-.6932-.7247-1.1788-1.7606-2.0015-2.2152-.7265-.4014-1.8029-.1195-2.7038-.2673a4.2756,4.2756,0,0,1-3.0929-2.1129,8.9,8.9,0,0,1-.6415-8.9645c.1606-.3321.3356-.6572.4928-.9908.1422-.3016.2692-.61.5094-1.1593a11.6389,11.6389,0,0,0-1.2915.1882c-.71.1993-1.3953.4953-2.1125.6534a3.4248,3.4248,0,0,1-4.1546-1.9163,15.3614,15.3614,0,0,0-2.5548-3.88,4.8034,4.8034,0,0,1-.9762-4.9242,21.7277,21.7277,0,0,1,.7455-2.0777,5.1285,5.1285,0,0,1,3.4412-2.9709c.4335-.1119.8665-.226,1.244-.3245a37.9045,37.9045,0,0,1,.2141-3.9576c.2448-1.5638,1.1627-2.1687,2.7221-2.131a5.132,5.132,0,0,1,3.7057,1.5876c1.033,1.0541,2.0757,2.1041,3.1835,3.077a9.9792,9.9792,0,0,0,1.8632,1.1294c.2675.1456.829-.2129.8395-.5174a5.3388,5.3388,0,0,0-.03-1.36A10.58,10.58,0,0,0,25.4,400.3509c-.6936-.9782-1.4768-1.8967-2.12-2.9058a35.12,35.12,0,0,1-2.0285-3.6041,3.1843,3.1843,0,0,1,.0857-3.1936,15.281,15.281,0,0,1,4.769-4.9157,8.0507,8.0507,0,0,1,1.7742-.7619c1.9007-.6,2.99-.28,3.9515,1.48a3.1706,3.1706,0,0,0,2.2757,1.7527,3.7844,3.7844,0,0,1,2.4736,2.0779,28.89,28.89,0,0,1,1.4641,3.2788,6.0993,6.0993,0,0,1,.0172,4.594,9.3122,9.3122,0,0,0-.3682,1.0436c-.2651.9441-.1528,1.61.288,1.7485.6288.1977,1.052-.2107,1.4708-.5574a7.4975,7.4975,0,0,1,3.8267-1.4662,2.61,2.61,0,0,1,3.008,1.4515,3.0956,3.0956,0,0,0,2.1665,1.8582,6.249,6.249,0,0,1,3.2108,2.917,8.1265,8.1265,0,0,1,1.1979,4.4925,4.8064,4.8064,0,0,1-1.7112,3.661,2.5547,2.5547,0,0,0-.8686,2.7171c.1024.4424-.0063.9346.102,1.3745a2.5281,2.5281,0,0,0,.5709,1.1914,40.7979,40.7979,0,0,0,6.6453,5.4057,12.09,12.09,0,0,0,2.018.8824,68.133,68.133,0,0,1,9.23,4.3936,9.773,9.773,0,0,1,1.9929,1.4769c1.508,1.4926,2.9963,3.011,4.4048,4.597,2.5731,2.8976,5.0815,5.8529,7.6225,8.7792a1.6077,1.6077,0,0,0,.6134.5273.713.713,0,0,0,.6532-.2034,10.5985,10.5985,0,0,0,.4-1.3185,5.9588,5.9588,0,0,1,.7574-2.0527,3.4,3.4,0,0,0,.4513-3.8344c-.7081-1.9-1.2135-3.8749-1.9276-5.7719a128.4807,128.4807,0,0,1-5.7639-21.623c-.6479-3.443-1.34-6.8818-1.8425-10.3469-.6223-4.2878-1.0674-8.6013-1.5953-12.9029-.0328-.267-.12-.5274-.2219-.9637-1.0506.6809-2.0333,1.3216-3.02,1.9559a3.8842,3.8842,0,0,1-2.8882.7014,5.0851,5.0851,0,0,1-1.7964-.6592,2.2484,2.2484,0,0,0-2.5748-.1424,5.4043,5.4043,0,0,1-3.4786.647,3.1323,3.1323,0,0,1-1.4787-.62,6.2671,6.2671,0,0,1-2.2363-3.709,11.9236,11.9236,0,0,1,.154-6.0227,4.31,4.31,0,0,0-.2936-3.4777c-.5787-.0364-.6572.468-.8547.8228-.8518,1.5294-1.6795,3.0723-2.5387,4.5975a5.3792,5.3792,0,0,1-9.0766.1514,13.8022,13.8022,0,0,1-1.0244-1.6413,7.8029,7.8029,0,0,0-2.235-3.0863,2.8787,2.8787,0,0,1-.9946-3.0076,4.0783,4.0783,0,0,0-.8638-3.588,2.8217,2.8217,0,0,1,.2986-3.5781,4.6157,4.6157,0,0,1,2.8213-1.6085,37.0963,37.0963,0,0,1,7.17-.5,11.9338,11.9338,0,0,0,3.8273-.47c.4753-.1533.87-.3691.8939-.8995.023-.5174-.3452-.81-.7683-1.0444a14.2829,14.2829,0,0,0-5.57-1.4907c-.9154-.0953-1.8491-.014-2.7649-.1066a16.55,16.55,0,0,1-2.9916-.4957,2.7528,2.7528,0,0,1-2.0865-3.6263c.8-2.0374.1892-3.2043-1.4535-4.4067-2.39-1.75-2.0079-5.8885,1.1409-7.3166a54.4442,54.4442,0,0,1,5.2248-1.7763c.4212-.1412.8351-.3044,1.2938-.4727a26.2509,26.2509,0,0,0-9.9026-6.61c-.5536,1.0489-1.0707,2.104-1.6625,3.1154a1.4953,1.4953,0,0,0-.1161,1.3065,2.6527,2.6527,0,0,1-1.502,3.4439,1.3332,1.3332,0,0,0-.906,1.5,1.1168,1.1168,0,0,1,.0061.2764c-.2738,2.8253-2.4913,3.9855-4.9029,2.4661a21.3607,21.3607,0,0,1-2.7127-2.341c-.5292-.476-1.03-.9836-1.738-1.664a9.4523,9.4523,0,0,0,.7645,3.7612,13.9669,13.9669,0,0,1,.8274,4.6088,6.0375,6.0375,0,0,1-.7276,2.9232,3.1336,3.1336,0,0,1-3.714,1.6842,4.1273,4.1273,0,0,1-1.0455-.3481,1.2918,1.2918,0,0,0-1.3018.0243,3.4769,3.4769,0,0,1-3.6853-.0271,5.1927,5.1927,0,0,1-2.3291-3.31c-.2535-1.0726-.43-2.1632-.6471-3.2446a3.3722,3.3722,0,0,1,.5689-2.626c.6581-.9914,1.285-2.0034,1.9238-3.0039-.5816-.5249-.9064.0121-1.2538.2034a9.1057,9.1057,0,0,1-2.7236,1.3091,2.3349,2.3349,0,0,1-2.9437-1.3736,1.9441,1.9441,0,0,0-1.6873-1.1311c-2.6728-.4474-3.7048-2.2221-2.7838-4.809a16.1767,16.1767,0,0,1,1.4033-2.6855,1.9531,1.9531,0,0,0,.1576-1.8149c-1.0789-3.0756-.3329-4.187,2.9808-4.5214,1.1888-.12,2.3886-.1279,3.58-.23a9.115,9.115,0,0,0,1.9084-.3163c1.8131-.56,1.8978-.747.9769-2.21a10.6123,10.6123,0,0,1-1.6567-4.9355,1.9026,1.9026,0,0,1,1.46-2.3267,6.2764,6.2764,0,0,1,1.0565-.3282,1.648,1.648,0,0,0,1.1777-1.0475,18.9616,18.9616,0,0,1,1.3429-2.4139,3.5719,3.5719,0,0,1,5.0577-1.2363,4.3012,4.3012,0,0,0,2.3018.7,2.69,2.69,0,0,1,2.7878,2.2251c.2857,1.1458.4146,2.3305.6391,3.6514.5.026,1.0345.0883,1.5671.0753a4.3171,4.3171,0,0,1,4.3061,4.2118,11.7541,11.7541,0,0,1-.1781,3.0195c-.387,2.1462-.42,2.1138,1.5556,3.1193,2.2989,1.17,4.6067,2.33,6.8465,3.6066A52.01,52.01,0,0,1,45.676,336.34c1.7214,1.2271,3.3881,2.53,5.0973,3.7748a2.8465,2.8465,0,0,0,1.0048.3991c.1115.0269.41-.1957.3975-.2637a12.1776,12.1776,0,0,0-.39-1.6107c-.4838-1.488-1.1188-2.9394-1.4577-4.458-.31-1.3912-.7405-2.331-2.3692-2.5034a2.289,2.289,0,0,1-2.1268-1.9107,2.1214,2.1214,0,0,0-1.6384-1.9447,1.7869,1.7869,0,0,1-1.22-1.9549,1.8525,1.8525,0,0,1,1.0387-1.8042c.4162-.1987.8244-.415,1.246-.6009a1.7658,1.7658,0,0,0,1.1017-1.455,2.0982,2.0982,0,0,1,2.3367-1.9047,3.3166,3.3166,0,0,0,2.8662-1.2364,4.9556,4.9556,0,0,1,1.9194-1.0349,3.2013,3.2013,0,0,1,4.31,1.89,5.007,5.007,0,0,0,1.7732,2.334c1.2328.9352,2.213,2.2192,1.8029,3.788-.4811,1.84-1.0138,3.67-1.4737,5.5213a2.9154,2.9154,0,0,1-1.6339,1.8031,18.4706,18.4706,0,0,1-2.7772,1.2193,4.349,4.349,0,0,1-1.5967-.1506c-.46-.0518-.7581.187-.6776.6a25.3947,25.3947,0,0,0,.712,3.23c.4969,1.4811,1.12,2.9228,1.7455,4.3566a3.2149,3.2149,0,0,0,1.6487,1.7868c.6263.2731,1.0747.1372,1.2665-.5042.1319-.441.2332-.8912.3576-1.3346.8783-3.13,2.9787-3.3381,5.6513-2.6541,1.2019,1.171,2.7076.925,4.179.9451a26.34,26.34,0,0,1,2.7907.328,7.301,7.301,0,0,0,.0115-3.8317,51.1473,51.1473,0,0,0-1.6417-5.5622c-1.3-3.4517-2.6981-6.8685-4.1368-10.2653-.8618-2.0349-1.8676-4.0093-2.8289-6.0012-.4809-.9966-1.0479-1.9529-1.5055-2.9593A52.846,52.846,0,0,0,55.067,301.726a20.9268,20.9268,0,0,1-3.5707-6.8405,88.4387,88.4387,0,0,1-3.191-12.5946,48.7646,48.7646,0,0,1-.7485-8.26c.1216-4.6126.1816-9.2271.3309-13.8387a14.05,14.05,0,0,0-.537-4.6363,34.113,34.113,0,0,1-.8586-4.3359,8.026,8.026,0,0,0-.8914-2.8074c-.2819.9859-.53,1.7585-.7229,2.5447a20.5842,20.5842,0,0,1-6.649,10.6249,11.09,11.09,0,0,1-3.3338,1.9073,6.7945,6.7945,0,0,1-2.7116.2372,2.6358,2.6358,0,0,1-2.33-1.7084c-.1884-.4208-.3623-.85-.5106-1.2863a1.0855,1.0855,0,0,0-1.2628-.8126c-.4583.05-.9114.16-1.37.189a2.6429,2.6429,0,0,1-3.0571-1.8331c-1.3106-4.0356-1.4208-7.9952,1.3081-11.5863a8.3119,8.3119,0,0,1,4.217-3.0021c1.0568-.3281,2.12-.6492,3.144-1.0622a2.7791,2.7791,0,0,0,.998-.87c.1349-.1666.24-.6068-.1728-.6373a7.4906,7.4906,0,0,0-1.9053.0657c-.9954.1854-1.9606.5308-2.9551.7238-4.1942.8138-6.2355-2.9472-5.4319-5.8759.0731-.2663.1773-.5244.274-.7838a1.4906,1.4906,0,0,0-.1439-1.5707,5.9527,5.9527,0,0,1-1.0158-4.4743,19.66,19.66,0,0,1,1.6054-6.1228,2.7491,2.7491,0,0,1,2.5257-1.87,2.3085,2.3085,0,0,0,1.8724-.9707,6.3611,6.3611,0,0,1,.9876-.9652,3.9254,3.9254,0,0,1,5.7028.3281,41.7125,41.7125,0,0,1,3.0922,4.2335c.6321.9051,1.1807,1.8688,1.82,2.7686.2582.3635.71.7552,1.15.4142a1.5981,1.5981,0,0,0,.5709-1.1536,6.7135,6.7135,0,0,0-.4809-2.14A68.7316,68.7316,0,0,0,32.32,207.9456c-.4392-.5849-1.042-1.0475-1.4768-1.6349a6.7651,6.7651,0,0,1-.7074-1.4766c-.0173-.042.2738-.3026.34-.2739a9.835,9.835,0,0,1,3.4274,2.2362c1.566,1.692,3.1222,3.3932,4.6914,5.0824.2413.26.53.4752.7907.7057.2033-.1946.38-.292.4482-.44,1.2675-2.76,3.6217-3.1634,6.2415-2.7684a2.8524,2.8524,0,0,0,2.55-.6207,18.7889,18.7889,0,0,1,2.1625-1.7238c3.241-2.0936,5.3638.0764,5.7823,2.4949a17.7752,17.7752,0,0,1,.1123,3.2946c-.0267,1.6559-.2315,3.3165-.1505,4.9647a10.9491,10.9491,0,0,1-1.3362,6.1236,10.47,10.47,0,0,0-.6725,1.5088c-.04.1083.1005.3032.194.4321.0312.043.2046.0426.2628-.0025a25.6048,25.6048,0,0,0,2.7988-2.2308c2.1022-2.1669,4.6357-2.4663,7.41-1.9546a4.2966,4.2966,0,0,1,3.6943,4.746,6.0734,6.0734,0,0,1-.2188,1.084,3.7582,3.7582,0,0,0,.5382,3.17,7.5207,7.5207,0,0,1,.7107,1.186,4.5949,4.5949,0,0,1-.6428,5.1808,7.83,7.83,0,0,1-5.65,3.1228c-1.4741.0576-2.9492.09-4.4234.1456-.6312.0238-1.2614.0785-2.1816.1379a6.33,6.33,0,0,0,.8908.9222c.7811.49,1.644.86,2.3851,1.4a30.1183,30.1183,0,0,1,2.972,2.456,5.5646,5.5646,0,0,1,1.5822,3.7412,2.5292,2.5292,0,0,1-1.1575,2.6195c-.3141.1937-.6242.3939-.9358.5917a1.8987,1.8987,0,0,0-.9008,1.329c-.0952.5454-.2473,1.0831-.31,1.6316a11.2108,11.2108,0,0,1-3.5022,6.448,4.61,4.61,0,0,1-3.9963,1.505c-.4294-.0479-.8591-.0939-1.477-.1613a66.8583,66.8583,0,0,0,.1325,7.0518c.3092,4.3224.4471,8.6713,1.4907,12.9051,1.1689,4.7418,2.2152,9.5282,4.3947,13.9513a24.5033,24.5033,0,0,0,1.6044,2.8985,157.806,157.806,0,0,1,10.4461,17.9214,12.0038,12.0038,0,0,0,1.7562,2.9943,22.4042,22.4042,0,0,0,.4655-2.3674c.3054-3.7706.5619-7.5452.8568-11.3167a1.64,1.64,0,0,0-1.0452-1.9721,4.2767,4.2767,0,0,1-1.7193-1.7216,6.1586,6.1586,0,0,0-3.58-2.817c-3.9567-1.3116-6.3235-6.4625-4.9522-10.4139a4.0349,4.0349,0,0,1,2.6848-2.6c1.31-.4232,2.6712-.6948,4.0185-.9945.8081-.18,1.64-.2519,2.4462-.4393.4292-.1,1.0905-.2538,1.1842-.5367.2366-.7142-.5766-.7829-.9876-1.0691-2.0417-1.4216-4.1612-2.74-6.1343-4.25a7.8357,7.8357,0,0,1-3.2879-6.692,40.0607,40.0607,0,0,1,.2707-4.1419,7.9376,7.9376,0,0,1,.7563-2.3484,3.4227,3.4227,0,0,1,4.8493-1.7093c.8592.4976,1.12.3535,1.38-.5941.9824-3.5746,3.5547-5.4493,6.8422-6.6522a11.0077,11.0077,0,0,1,4.65-.3475c.7207.048,1.4332.2174,2.2966.3553.2341-.708.4971-1.3823.68-2.0776,1.2933-4.9021,2.4578-9.8413,3.878-14.7061A127.7609,127.7609,0,0,1,96.7468,218.27a9.8972,9.8972,0,0,0,.6726-1.5151c1.8579-5.8476,4.8557-11.1427,7.908-16.4144,2.588-4.47,5.2251-8.9136,7.7049-13.4432s4.8717-9.1112,7.1436-13.7477c1.2133-2.4762,2.1066-5.1108,3.1127-7.6862a1.7985,1.7985,0,0,0-.5376-2.2007,11.0152,11.0152,0,0,1-2.7708-6.7415c-.0014-2.3988.1265-4.7974.1507-7.1966.0158-1.5654-.0407-3.1321-.0928-4.6973a.551.551,0,0,0-.8283-.393,9.8328,9.8328,0,0,0-2.6856,2.7546c-1.1677,1.7713-2.367,3.5225-3.5,5.3154a10.2088,10.2088,0,0,1-4.0172,3.7052c-3.33,1.72-8.0776-.061-9.6295-2.609-.6688-1.0981-1.22-2.2707-1.7826-3.43-.8439-1.7389-1.6-3.522-2.4866-5.2382-1.059-2.05-.962-4.0034.6991-5.5234a18.8345,18.8345,0,0,1,7.8792-4.4318,10.853,10.853,0,0,1,2.2-.1178c.5192-.0267,1.0376-.0693,1.6856-.1136a4.9367,4.9367,0,0,0-2.874-1.8635c-3.0134-.8668-4.241-3.0584-4.491-5.9586a11.51,11.51,0,0,0-.4736-2.7028,6.23,6.23,0,0,1-.2517-2.1727,3.4453,3.4453,0,0,1,2.3507-3.4076c.7769-.2844,1.4983-.7272,2.2825-.9825a6.9373,6.9373,0,0,0,2.1362-1.1986,5.1519,5.1519,0,0,1,6.1575-.1232c.4546.3133.8962.6508,1.3748.9227a10.7462,10.7462,0,0,1,3.6527,3.3229,8.668,8.668,0,0,0,1.0941,1.235c.1.0988.4158.1466.4849.0752.168-.1737.3948-.4766.3415-.6475-.3017-.9667-.6948-1.9043-1.0266-2.8622a33.6444,33.6444,0,0,1-1.2789-3.9345,17.0607,17.0607,0,0,1-.3253-3.8368,3.5239,3.5239,0,0,1,2.2475-3.4925,5.4424,5.4424,0,0,0,2.6763-2.3068c1.4132-2.3681,5.7547-2.5272,7.7553-1.0911a4.1357,4.1357,0,0,1,1.8331,3.5344c0,2.3965-.01,4.7943-.0933,7.1889a2.624,2.624,0,0,0,.7341,2.2605c.3124.2846.7451.3068.9131-.0478.6706-1.4159,1.3637-2.8235,1.97-4.2674,1.3933-3.3207,3.0748-4.0592,6.5592-2.9069a7.966,7.966,0,0,1,5.492,10.68c-.2194.7526-.9609,1.4177-.4546,2.3183a.8323.8323,0,0,0,.2678-.1013c3.1325-2.8543,6.244-5.7321,9.4031-8.5566a12.4991,12.4991,0,0,1,2.4929-1.7135,30.7011,30.7011,0,0,0,9.4909-7.4986c1.2376-1.4863,2.6668-2.8115,3.9693-4.246.9918-1.0922,1.9711-2.203,2.8658-3.3745,1.2721-1.6658,1.2368-1.6928-.4358-2.881-3.301-2.3449-3.7587-6.2059-1.0924-9.34.89-1.046,1.8159-2.0613,2.7254-3.0906a1.1173,1.1173,0,0,0,.2364-.13c.0273-.0241.0018-.1079,0-.1646l-.1645.3572a2.3577,2.3577,0,0,0-1.8636.1769c-1.3858.4961-2.79.95-4.1467,1.5152a4.1557,4.1557,0,0,1-3.4711-.1747,2.9465,2.9465,0,0,1-1.88-3.3286,2.82,2.82,0,0,1,.1025-.5425,3.8512,3.8512,0,0,0-.75-4.0667,2.7486,2.7486,0,0,1,.7647-4.11,5.3516,5.3516,0,0,0,1.9993-2.1467c.5749-1.1791,1.2142-1.2978,2.5119-.9018a40.7275,40.7275,0,0,1,7.0484,2.3686,1.0285,1.0285,0,0,0,.5395.0757.7308.7308,0,0,0,.4825-.1807.5163.5163,0,0,0-.0455-.4756c-.82-1.1109-1.702-2.1785-2.4836-3.3152A12.281,12.281,0,0,1,173.4447,63.8a6.2278,6.2278,0,0,1-.2722-2.4317c.0588-1.0814.7229-1.567,1.8673-1.5634a3.9753,3.9753,0,0,1,.8234.0832,1.525,1.525,0,0,0,1.6823-.6394,11.825,11.825,0,0,1,1.2729-1.4511,8.7,8.7,0,0,1,1.512-1.1942c1.5742-.9367,2.579-.6976,3.6807.8862.3061.44.5747.6545,1.1085.4676a3.6884,3.6884,0,0,1,1.069-.238,2.269,2.269,0,0,1,2.5169,2.043,13.903,13.903,0,0,1-.1936,3.2808c-.1693,1.0866-.5444,2.14-.7709,3.2195a7.8878,7.8878,0,0,0-.0143,1.4564c.7777-.265,1.3669-.4856,1.9679-.6669a5.8567,5.8567,0,0,1,5.0653.3358c.7579.4762,1.1807.1317,1.5634-.5149.7022-1.1865,1.4243-2.37,2.01-3.6149,1.2913-2.745,2.5469-5.5087,3.7359-8.2994a52.43,52.43,0,0,0,3.5662-10.4229c.2313-1.181.3206-2.5662,1.4857-3.4014l-.0665-.0676c-.3507,2.0787-.6145,4.1769-1.0738,6.2313-.5809,2.5987-1.2614,5.1792-2.0051,7.7367a121.9113,121.9113,0,0,1-5.4968,14.4305c-.22.5064-.4992.9912-.6749,1.5116a4.3429,4.3429,0,0,0,.0608,3.2076c1.1276,2.7472.4438,4.6132-2.1013,5.982a24.4062,24.4062,0,0,1-3.5211,1.5734,4.4617,4.4617,0,0,0-2.8321,2.81,19.6958,19.6958,0,0,0-.6314,2.3907c-.2119.8931-.3275,1.8151-.6086,2.6844a5.8271,5.8271,0,0,1-3.4513,3.7228c-.4234.1759-.862.3189-1.3011.4523a5.5755,5.5755,0,0,0-2.8592,2.021c-1.2441,1.5924-2.6659,3.0449-3.9806,4.5839a16.0589,16.0589,0,0,0-1.0551,1.56l-.1418.18.0749-.2461a5.3515,5.3515,0,0,0,1.2936-.3149c2.0322-1.0748,4.0771-2.1338,6.049-3.3131,7.1122-4.2536,14.4551-8.068,21.8531-11.795,3.5252-1.7759,6.8646-3.9247,10.263-5.9469a84.39,84.39,0,0,1,11.1968-5.9607c.9921-.4039,1.9451-1.1018,3.1315-.826l-.0506-.05a4.2121,4.2121,0,0,1-.7723,1.0441c-1.9533,1.3878-3.9016,2.79-5.9276,4.0667Q215.705,83.08,208.84,87.2341c-2.0476,1.2435-4.1206,2.46-6.258,3.5378a112.916,112.916,0,0,0-10.5745,6.0172c-2.1665,1.4035-4.39,2.722-6.62,4.0238a80.436,80.436,0,0,0-10.3123,6.9583,15.1414,15.1414,0,0,1-3.2378,2.0883,74.6865,74.6865,0,0,0-16.1931,10.5159,36.3015,36.3015,0,0,0-6.126,5.8737c-.02.7289.6035.9217.9575,1.2949a4.27,4.27,0,0,1,1.0589,4.1036,5.8217,5.8217,0,0,1-2.334,3.9528,3.8212,3.8212,0,0,0-1.8556,3.4638,4.5857,4.5857,0,0,1-.132,1.0977c-.7292,2.6519-2.6171,4.8408-6.2178,3.6379-1.1367-.38-2.2655-.7839-3.4056-1.153-.5932-.192-1.0537.3137-.8714.9459a5.7538,5.7538,0,0,0,.3819,1.03c.294.5741.6253,1.13.9519,1.6865,2.84,4.8427.3182,9.476-3.438,11.56a21.1137,21.1137,0,0,1-3.4964,1.6312,2.0987,2.0987,0,0,0-1.5984,1.6667c-.2248.9872-.57,1.9467-.8007,2.9329a.9.9,0,0,0,.27.7279.7982.7982,0,0,0,.7235.1125,22.7455,22.7455,0,0,0,2.1263-1.2887,46.0839,46.0839,0,0,1,8.5217-4.4936,106.4988,106.4988,0,0,0,17.8024-8.8572,82.5166,82.5166,0,0,1,9.0328-5.3535A26.7965,26.7965,0,0,0,170.5382,143a80.8216,80.8216,0,0,1,9.9834-5.3552A21.1318,21.1318,0,0,1,183.11,136.7c.0976-.0325.275.1231.3883.2224.0324.0285-.0008.2029-.0552.2468a4.5194,4.5194,0,0,1-.6779.4733c-2.2711,1.2243-4.5324,2.4679-6.8252,3.65a28.7447,28.7447,0,0,0-6.0181,4.3978,60.1965,60.1965,0,0,1-8.125,6.2083c-3.5022,2.2234-7.02,4.428-10.6058,6.512-2.3878,1.3877-4.9246,2.5161-7.3621,3.8216a104.3438,104.3438,0,0,0-10.85,6.6378,35.239,35.239,0,0,0-7.2186,7.2152,85.7927,85.7927,0,0,0-9.3509,14.6712c-2.69,5.3558-5.3045,10.75-7.9918,16.1066-.9088,1.8115-1.8954,3.5878-2.9228,5.3353-2.3911,4.0665-4.0791,8.4712-6.03,12.7394-1.8337,4.0124-3.1758,8.256-4.6139,12.4392a14.0383,14.0383,0,0,0-.7554,5.45.84.84,0,0,0,1.3777.6721c1.516-1.2039,2.9668-2.4921,4.51-3.6594,2.2052-1.6686,4.4535-3.2817,6.7124-4.8775,2.3341-1.649,4.6816-3.2812,7.0631-4.8607,2.0747-1.3759,4.1921-2.6888,6.3134-3.9925a39.7474,39.7474,0,0,0,8.0176-6.7367c.0513-.0544.0291-.1783.0536-.3645-.6892-.1366-1.4-.2234-2.0788-.4217a4.3924,4.3924,0,0,1-2.4071-6.6517,23.9378,23.9378,0,0,0,3.1456-5.1713,2.1649,2.1649,0,0,1,1.41-1.2266,4.447,4.447,0,0,1,5.0777,1.0351,14.3737,14.3737,0,0,0,3.9749,2.3676,16.6385,16.6385,0,0,0-.2581-2.098,15.4778,15.4778,0,0,1-.3563-4.9465,7.045,7.045,0,0,1,.1722-1.37,2.9391,2.9391,0,0,1,2.6606-2.4551c2.6915-.2109,5.353-.215,7.5254,1.847.8506.8073.9028.73,1.8675.0734,2.8206-1.919,5.6033-3.8994,8.4933-5.7079a27.8,27.8,0,0,1,4.7284-2.2494c3.0933-1.1971,6.2351-2.2687,9.3546-3.3982a31.2352,31.2352,0,0,1,9.9276-1.686c-.437.3825-.6068.6317-.8366.7147q-1.4294.5162-2.89.9463a32.8776,32.8776,0,0,0-6.6062,2.7741c-1.441.7967-3.0542,1.2765-4.57,1.9437-2.3594,1.0383-4.7529,2.0163-7.039,3.2a35.3263,35.3263,0,0,0-8.7885,7.0732c-.0521.0532-.0311.1779-.0441.2692l-.1333.0878Zm73.7929,415.8064.2808-.3166c-.8012-1.6437-1.6413-3.27-2.3957-4.9347a47.8469,47.8469,0,0,1-3.1772-11.4012,10.0316,10.0316,0,0,1,.0313-4.6456,9.223,9.223,0,0,0,.1079-1.8011,5.8432,5.8432,0,0,0-2.8267,5.05,22.6868,22.6868,0,0,0,1.65,9.1791,38.7179,38.7179,0,0,0,4.5115,7.2288A10.9765,10.9765,0,0,0,224.3429,619.6186ZM73.569,377.5581a6.8649,6.8649,0,0,0,.153-1.1025c-.0416-1.5621-.12-3.1233-.1757-4.6851-.0591-1.6448-.1686-1.8034-1.93-2.0485a7.6416,7.6416,0,0,0-2.1793.2075c-.7829.1245-1.0556.6338-.8067,1.39A19.4691,19.4691,0,0,0,73.569,377.5581Zm-42.8641,39.46a2.62,2.62,0,0,0-3.06-2.8194,1.2393,1.2393,0,0,0-.7131.3568c-1.1194,1.3945-1.3171,3.5162.861,4.5794a1.8015,1.8015,0,0,0,2.3806-.74A9.32,9.32,0,0,0,30.7048,417.0182Zm83.46,24.4953a2.256,2.256,0,0,0-2.1164-2.5156,2.2287,2.2287,0,0,0-1.9926,2.2522,3.2846,3.2846,0,0,0,.2454,1.3241,2.0477,2.0477,0,0,0,1.8572,1.3933,2.31,2.31,0,0,0,1.9008-1.7566A6.3714,6.3714,0,0,0,114.1646,441.5135ZM92.2713,279.2176a3.154,3.154,0,0,0-.7086.2176,2.45,2.45,0,0,0-.9836,2.84,2.27,2.27,0,0,0,2.6528,1.3758,1.42,1.42,0,0,0,.7016-.3805,2.2872,2.2872,0,0,0,.4752-2.5244A2.3391,2.3391,0,0,0,92.2713,279.2176ZM203.2565,516.9019a13.9117,13.9117,0,0,0-1.2431-1.6259,1.6115,1.6115,0,0,0-2.7476.3278,1.786,1.786,0,0,0,.033,2.2821,11.0513,11.0513,0,0,0,1.2354,1.4559,1.1712,1.1712,0,0,0,1.0212.1035A3.2161,3.2161,0,0,0,203.2565,516.9019ZM97.7765,453.574c0-.093-.0021-.0008,0,.0911a1.927,1.927,0,0,0,1.3831,1.8563,1.65,1.65,0,0,0,1.8931-.7627,5.4064,5.4064,0,0,0,.6132-1.2292,2.012,2.012,0,0,0-.9751-2.3559,1.7245,1.7245,0,0,0-2.0359.2821A2.4813,2.4813,0,0,0,97.7765,453.574ZM74.328,531.9392a2.4659,2.4659,0,0,0,2.4647-2.4221,2.14,2.14,0,0,0-2.1375-1.7629,1.9559,1.9559,0,0,0-2.0729,1.7754C72.5273,530.7906,73.37,531.9539,74.328,531.9392ZM57.6889,351.7473a.5915.5915,0,0,0-.0006-.1345,1.77,1.77,0,0,0-1.1871-1.6624,1.4727,1.4727,0,0,0-1.6917.5444,8.7317,8.7317,0,0,0-.8341,1.0737,1.237,1.237,0,0,0,.3646,1.8783,1.7624,1.7624,0,0,0,2.0147.34A2.1742,2.1742,0,0,0,57.6889,351.7473Zm1.5338,13.8948a3.127,3.127,0,0,0-.37-.6906,1.98,1.98,0,0,0-2.2741-.4282,2.387,2.387,0,0,0-1.1974,2.02,2.2649,2.2649,0,0,0,1.8927,1.7547,1.2028,1.2028,0,0,0,.7732-.2182A3.3593,3.3593,0,0,0,59.2228,365.6421Zm-10.9234-135.05a6.6677,6.6677,0,0,0-.0629-.6662,1.47,1.47,0,0,0-2.666-.6417,4.7863,4.7863,0,0,0-.6883,1.4566,1.9447,1.9447,0,0,0,1.3595,2.078,1.9364,1.9364,0,0,0,1.875-1.2859A7.859,7.859,0,0,0,48.2994,230.5925Zm-26.8608,99.55c.0479.4321.0584.7051.1115.97a1.808,1.808,0,0,0,1.5945,1.2457,1.36,1.36,0,0,0,1.3633-.6991,1.581,1.581,0,0,0-.1281-1.9969,10.55,10.55,0,0,0-1.5181-1.11.8934.8934,0,0,0-1.13.4425C21.5928,329.4159,21.51,329.856,21.4386,330.1425Zm15.5673,87.8161a2.81,2.81,0,0,0-1.3722-2.27,1.1111,1.1111,0,0,0-.9872.0262,2.0759,2.0759,0,0,0-.7607,2.1806,2.0421,2.0421,0,0,0,1.4336,1.5042A1.3262,1.3262,0,0,0,37.0058,417.9586Zm160.7457,93.0455a1.8457,1.8457,0,0,0-1.6868-2.0721c-.7293-.1-1.482.6658-1.5349,1.5614a1.881,1.881,0,0,0,1.8724,1.8975A1.3353,1.3353,0,0,0,197.7515,511.0041ZM88.4132,523.93a1.5558,1.5558,0,0,0,.824,1.5758,1.4842,1.4842,0,0,0,2.0987-1.0515,1.7593,1.7593,0,0,0-.4427-1.9852,1.2879,1.2879,0,0,0-1.4872-.3165A1.7853,1.7853,0,0,0,88.4132,523.93Zm115.8811-20.1549c.0451-.7793-.6289-1.4335-1.6165-1.5688a1.6418,1.6418,0,0,0-1.6125,1.5226,1.8461,1.8461,0,0,0,1.773,1.4383A1.5385,1.5385,0,0,0,204.2943,503.7751ZM112.8526,128.0258a1.3439,1.3439,0,0,0-1.5025,1.2209,1.7617,1.7617,0,0,0,1.4978,1.9311c.5367.111,1.1854-.4682,1.2692-1.1332C114.26,128.91,113.7561,128.1058,112.8526,128.0258ZM93.12,292.5536a1.0948,1.0948,0,0,0-.267.0437,1.6525,1.6525,0,0,0-.7245,1.8522,1.5545,1.5545,0,0,0,1.6725,1.078,1.1327,1.1327,0,0,0,.4713-.256,1.6556,1.6556,0,0,0,.3272-1.7478A1.5552,1.5552,0,0,0,93.12,292.5536ZM15.7877,332.125a1.6373,1.6373,0,0,0-1.5607,1.8237,1.24,1.24,0,0,0,1.2434,1.1741,1.7361,1.7361,0,0,0,1.4153-1.9755A1.2186,1.2186,0,0,0,15.7877,332.125Zm171.8435-256.36a4.7759,4.7759,0,0,0-.9008-.9856,1.112,1.112,0,0,0-1.409.4556,4.1766,4.1766,0,0,0-.4047,1.254c-.0743.4565.0244.9891.4982,1.134a1.9412,1.9412,0,0,0,1.2534-.11A1.7637,1.7637,0,0,0,187.6312,75.7649ZM85.1,281.81a1.3248,1.3248,0,0,0-.98-1.4095,1.5116,1.5116,0,0,0-1.6,1.4442,1.1857,1.1857,0,0,0,1.1534,1.2317A1.2875,1.2875,0,0,0,85.1,281.81Zm60.2822-71.9929c-.004-.087.0268-.2023-.0174-.2568a20.1489,20.1489,0,0,0-1.3787-1.6133c-.0894-.0893-.511.04-.6872.1818a2.0206,2.0206,0,0,0-.4185.6787c-.58,1.1451-.1933,1.5551.89,2.0771C144.3456,211.1617,145.35,210.4483,145.3823,209.8171Zm-50.08,64.89c-.0322-.2979-.0393-.48-.0734-.657a1.1747,1.1747,0,0,0-1.17-.9316,1.19,1.19,0,0,0-1.097,1.018,1.85,1.85,0,0,0,.8325,1.8712.7982.7982,0,0,0,1.3125-.3522C95.2031,275.3087,95.2536,274.95,95.3024,274.7067Zm42.4293-56.6674a1.8036,1.8036,0,0,0,1.4753-1.7767.9825.9825,0,0,0-.4726-.6132,1.157,1.157,0,0,0-1.46.307,1.2623,1.2623,0,0,0-.1364,1.7156A2.129,2.129,0,0,0,137.7316,218.0394ZM22.4633,324.0548a1.3,1.3,0,0,0-1.096-1.343,1.47,1.47,0,0,0-1.3269,1.1659,1.45,1.45,0,0,0,1.2585,1.5113C21.8025,325.3914,22.3941,324.7136,22.4633,324.0548Zm18.503-87.2578a3.5015,3.5015,0,0,0-.7531-.8272c-.4466-.2748-1.0743.0669-1.3349.6339a1.5642,1.5642,0,0,0,.056,1.8113.994.994,0,0,0,1.2542.23C40.8755,238.3221,40.9578,237.676,40.9663,236.797Zm107.5421-20.2481a1.12,1.12,0,0,0-1.0856.9748,1.4663,1.4663,0,0,0,1.2879,1.4483,1.3234,1.3234,0,0,0,1.125-.9881A1.4965,1.4965,0,0,0,148.5084,216.5489Zm-41.4935,217.96a.9512.9512,0,0,0,.9907-1.0008,1.2134,1.2134,0,0,0-.7067-1.298c-.4749-.1839-1.1654.3615-1.327,1.0194A1.1541,1.1541,0,0,0,107.0149,434.5088ZM117.6982,132.971a1.0051,1.0051,0,0,0-.9337,1.1052c-.0161.6449.3862,1.1161.9233,1.0814a1.2292,1.2292,0,0,0,1.149-1.2505A1.1164,1.1164,0,0,0,117.6982,132.971ZM79.8108,535.6959c-.17.2427-.5189.5392-.5925.893-.1108.5332.3619.9693.9556,1.05.4349.0589.9977-.311,1.0139-.6664A1.4553,1.4553,0,0,0,79.8108,535.6959ZM183.7391,81.6213a2.3364,2.3364,0,0,0-.6246-.5936.7362.7362,0,0,0-.6955.2079,7.4144,7.4144,0,0,0-.5216,1.5287c-.02.0759.212.305.34.3164A1.4671,1.4671,0,0,0,183.7391,81.6213ZM71.7882,357.2779a5.7161,5.7161,0,0,0-.0349-2.91.4607.4607,0,0,0-.4151-.1539c-.588.1945-1.0688,1.0275-.803,1.4646A17.6676,17.6676,0,0,0,71.7882,357.2779Zm-38.1663,53.849a11.1368,11.1368,0,0,0-.5736-1.067.5418.5418,0,0,0-.4752-.112c-.1507.0385-.4.2568-.3789.315.208.58.4612,1.1435.7243,1.7011a1.1264,1.1264,0,0,0,.45-.2009A2.2445,2.2445,0,0,0,33.6219,411.1269Zm144.4793-336.16c-.1025-.238-.1255-.4423-.2375-.5227a.6108.6108,0,0,0-.9059.1394c-.2947.3644-.2721,1.0011.0551,1.15a.5321.5321,0,0,0,.4707-.0252A6.4269,6.4269,0,0,0,178.1011,74.9669ZM110.3,450.9615c-.6742.081-.7525.4238-.7191.7941.0374.4155.33.7.7114.5457a.9915.9915,0,0,0,.5513-.7357C110.83,451.3239,110.44,451.1042,110.3,450.9615ZM45.4657,237.0151c-.1675-.2806-.2539-.5573-.35-.5608a.9929.9929,0,0,0-.6973.1937,1.1085,1.1085,0,0,0-.25.7525,1.1462,1.1462,0,0,0,.3556.6349c.0436.0458.37-.0779.4651-.2017A6.3093,6.3093,0,0,0,45.4657,237.0151ZM105.0764,457.98a6.3,6.3,0,0,0,.389-.9744c.0279-.1219-.1824-.428-.249-.418-.2227.0337-.5355.12-.6165.2837a1.3513,1.3513,0,0,0-.0149.7937C104.6041,457.7639,104.8228,457.8245,105.0764,457.98Zm36.3928-237.986-.2756-.5078c-.1972.1084-.5079.18-.559.3359-.0491.15.17.3884.2717.5879Zm65.4766,289.34c-.2489-.1986-.4394-.4644-.6445-.4762-.1509-.0087-.4334.3058-.4484.493-.0127.1595.3055.5047.4188.4815C206.4978,509.7864,206.6835,509.5437,206.9459,509.3342ZM124.9386,130.2468c.5019.0039.7724-.1755.7086-.5928-.0291-.19-.2332-.4811-.3862-.5-.3637-.0454-.6865.15-.6366.5794C124.6471,129.9284,124.846,130.1034,124.9386,130.2468ZM59.9457,359.2815c-.1609.2175-.3047.4042-.4315.6018-.008.0126.1464.1716.174.1581a2.0644,2.0644,0,0,0,.5082-.33A2.2657,2.2657,0,0,0,59.9457,359.2815Zm3.9735,2.7717a5.15,5.15,0,0,0,.4625-.5871c.0208-.0345-.1589-.19-.246-.2892a2.3181,2.3181,0,0,0-.4146.4633C63.6835,361.7126,63.8318,361.8816,63.9192,362.0532ZM23.4112,335.396a2.5181,2.5181,0,0,0-.096.476c-.001.0617.1115.1251.1723.1878a1.2561,1.2561,0,0,0,.2091-.4137C23.7037,335.5753,23.5184,335.4849,23.4112,335.396Z"/><path d="M121.83,249.6513c-.8632-.5189-1.5942-.8976-2.26-1.369a4.6516,4.6516,0,0,1-.3645-7.732,30.2936,30.2936,0,0,1,3.3613-2.4027,4.7685,4.7685,0,0,1,6.1878,1.25c.5607.717.9905,1.5365,1.5258,2.3814a12.6871,12.6871,0,0,1,1.2943-1.0225,2.6818,2.6818,0,0,1,4.2427,1.7594,2.2866,2.2866,0,0,1,.0647.5473,1.054,1.054,0,0,0,.9836,1.1239,6.0077,6.0077,0,0,1,3.1078,1.6888,4.9472,4.9472,0,0,1,1.6,2.8393,3.7284,3.7284,0,0,1-.1354,2.1575,11.1651,11.1651,0,0,0-1.1742,4.428,4.5935,4.5935,0,0,1-2.9674,4.0116c-.4168.1728-.8189.3808-1.2722.5934.0623.694.1688,1.3225.1649,1.95a2.5989,2.5989,0,0,1-2.0817,2.8653,2.2242,2.2242,0,0,0-1.7954,1.4651,2.4937,2.4937,0,0,1-.289.4691,2.8934,2.8934,0,0,1-4.8951-.0411,4.8023,4.8023,0,0,1-.9223-2.5638c-.0487-.7262-.1019-1.4522-.1571-2.2359a5.8579,5.8579,0,0,0-3.178.763c-1.9749,1.2093-3.436.6252-4.4489-1.439a5.6209,5.6209,0,0,1-.3823-5.0332,2.2459,2.2459,0,0,0,.104-1.3195c-.4664-2.0646.4852-3.3454,2.2112-4.2539C120.8224,250.2852,121.2651,249.99,121.83,249.6513Z"/><path d="M128.4425,561.6959c-.6122-.2356-1.0253.264-1.5358.4057a20.4308,20.4308,0,0,1-3.21.78,4.0574,4.0574,0,0,1-4.4633-5.1009,5.8679,5.8679,0,0,1,.3293-1.0538,3.3148,3.3148,0,0,0,.2036-2.4075,2.1484,2.1484,0,0,1,.7705-2.6967,2.9833,2.9833,0,0,1,3.3835-.0208c.3926.2365.7312.5635,1.1265.7941.872.5089,1.7454,1.0244,2.6607,1.4448a1.1079,1.1079,0,0,0,.9909-.1479,1.3653,1.3653,0,0,0,.2714-.9857,3.6984,3.6984,0,0,0-1.1616-2.4394c-.4565-.45-.9646-.8493-1.4571-1.2623a9.4565,9.4565,0,0,1-1.27-1.0522c-1.4676-1.7637-1.2-3.2587,1.0565-3.9746a2.6607,2.6607,0,0,1,.8121-.1528,1.56,1.56,0,0,0,1.6848-1.1083,3.4242,3.4242,0,0,1,1.7241-1.7213,1.7824,1.7824,0,0,1,2.4571.4683c.4778.6659.659,1.6354,1.2589,2.0971.5864.4512,1.562.3588,2.3208.6325a3.21,3.21,0,0,1,1.6681,3.4825c-.0876.7113-.2923,1.4081-.4624,2.1971.6861.1883,1.2933.3758,1.9106.52a2.6651,2.6651,0,0,1,2.2376,2.4515c.1619,1.1355.2416,1.128,1.3757,1.1636.2755.0086.5536-.0419.8279-.0244a2.6906,2.6906,0,0,1,2.544,3.4366,7.7742,7.7742,0,0,1-1.0769,2.2123,1.8423,1.8423,0,0,0-.219,1.8082,7.66,7.66,0,0,1,.4956,1.8541,2.7543,2.7543,0,0,1-3.4292,3.1613,7.3648,7.3648,0,0,1-3.51-1.5168c-.3448-.2909-.7173-.5491-1.0192-.7782-.6432.1484-.4485.58-.4739.8863a7.8016,7.8016,0,0,0,.032,1.1033,5.2287,5.2287,0,0,1-.9366,3.3935,2.799,2.799,0,0,1-4.0719.9353,2.1164,2.1164,0,0,1-.4543-.3106,2.9018,2.9018,0,0,0-3.2217-.8351c-1.3675.4-2.2916-.4193-2.5187-1.8287a4.5742,4.5742,0,0,1,1-3.8737c.5079-.6025,1.4047-.9737,1.2982-1.9844.1784-.0521.5879.0191.1837-.3441Z"/><path d="M85.4676,202.6158c.8231-.9,1.4064-1.6069,2.0636-2.2364a3.8349,3.8349,0,0,1,2.1781-1.1109,3.2424,3.2424,0,0,1,3.7689,2.7921,12.6357,12.6357,0,0,1,.0112,1.6791,14.88,14.88,0,0,1,2.0146.2589,3.3549,3.3549,0,0,1,1.8738,5.2821,6.39,6.39,0,0,1-2.5785,2.02A2.3129,2.3129,0,0,0,93.5,212.6024c-1.0752,2.7167-1.8847,3.0972-4.8782,2.617-.09-.0145-.1839-.0095-.4421-.021a12.122,12.122,0,0,0-.1612,1.5111,7.8145,7.8145,0,0,1-.7168,3.2136,3.1093,3.1093,0,0,1-2.95,2.1147,3.6606,3.6606,0,0,1-3.2493-2.2183,13.3293,13.3293,0,0,1-.3473-1.3309c-.2079-.6978-.6249-.8974-1.2255-.5909a18.4315,18.4315,0,0,1-1.9513,1.0138,2.3683,2.3683,0,0,1-3.1364-1.4642,2.4017,2.4017,0,0,1-.2315-.7891,5.8611,5.8611,0,0,0-1.1326-3.0522,2.78,2.78,0,0,1,1.0766-4.2144,13.0924,13.0924,0,0,1,2.8478-.9543,1.8789,1.8789,0,0,0,1.2586-2.9607c-.78-1.1348-1.7162-2.1613-2.5691-3.2469a10.9265,10.9265,0,0,1-1.1174-1.5575,1.6657,1.6657,0,0,1,.4633-2.4441,4.0632,4.0632,0,0,0,1.3757-2.5728,2.8766,2.8766,0,0,1,4.8553-1.6839,5.559,5.559,0,0,0,2.5782,1.4087c1.8205.3763,2.3931,1.3069,2.22,3.1947-.0586.6407-.204,1.2731-.3,1.9108C85.6745,201.0966,85.5942,201.71,85.4676,202.6158Z"/><path d="M76.6269,465.0308c.37-.5541-.151-1.0208-.2017-1.5427-.08-.822-.1623-1.6458-.1855-2.47a1.4476,1.4476,0,0,1,1.0264-1.47c1.9918-.7941,3.3131-.0477,3.4472,2.0748.11,1.7435.069,3.4966.0921,5.2454.0059.4442.0009.8885.0009,1.4858.8-.2051,1.3963-.3956,2.0074-.5086a4.3114,4.3114,0,0,1,5.2507,4.2174,4.6626,4.6626,0,0,1-.114,1.3711,3.1582,3.1582,0,0,0,.2468,2.615,4.7181,4.7181,0,0,1,.492,2.1133,3.6455,3.6455,0,0,1-3.7785,3.85,2.769,2.769,0,0,1-2.2249-.9047c-.4911-.5466-.9568-1.1158-1.4368-1.6725-.5294-.6142-1.0621-1.2254-1.7463-2.0142a8.1991,8.1991,0,0,0-.8619,2.4167,11.6,11.6,0,0,1-2.6626,4.4686,5.2565,5.2565,0,0,1-1.5285,1.1465,2.1019,2.1019,0,0,1-2.9525-1.556,16.2836,16.2836,0,0,1-.05-2.2042,1.0176,1.0176,0,0,0-.6905-1.0607,4.76,4.76,0,0,1-.7609-.3268c-2.1938-1.297-2.4617-2.3108-1.71-4.8607a5.8289,5.8289,0,0,1,.5029-.98c.25-.479.6987-.9582.6993-1.4379.0009-.6685-.82-.5915-1.2771-.8154a2.41,2.41,0,0,1-1.3674-2.469c-.0137-2.3138,1.3219-3.9849,2.713-5.53a3.2947,3.2947,0,0,1,3.6065-.7555C74.3507,463.8794,75.47,464.4958,76.6269,465.0308Z"/><path d="M186.3695,470.4258c1.5135-1.8452,2.9785-3.733,4.5516-5.526a45.326,45.326,0,0,0,6.0139-9.2632,86.98,86.98,0,0,0,6.409-15.876c.5846-2.0343,1.0421-4.1083,1.4816-6.18.4966-2.341.8767-4.7068,1.3718-7.0482a15.7482,15.7482,0,0,1,.8561-2.6162,2.0969,2.0969,0,0,1,1.418-1.2236,1.3232,1.3232,0,0,1,1.632.6624c1.6354,3.4973,2.5211,7.09,1.71,10.9961-.5051,2.4313-.8427,4.8932-1.4065,7.3215a27.9466,27.9466,0,0,1-4.1878,9.2771,58.3586,58.3586,0,0,1-11.6843,12.86,39.7978,39.7978,0,0,0-3.8879,3.5234A10.4233,10.4233,0,0,1,186.3695,470.4258Z"/><path d="M143.4471,419.7455c-.2949-.8743-.4354-1.29-.575-1.7051a15.4306,15.4306,0,0,1-.5181-1.5748c-.3908-1.7825.058-3.2982,1.2671-3.9243a4.0207,4.0207,0,0,1,4.4441.2721,6.5953,6.5953,0,0,1,2.5031,6.5741c-.523,1.41-.0927,2.3179.8661,3.4129,1.72,1.9643,1.67,4.4356,1.1355,6.8338a2.8741,2.8741,0,0,1-2.6959,2.4177,2.0593,2.0593,0,0,0-2.052,1.4663,2.6156,2.6156,0,0,1-.7791,1.12,4.5726,4.5726,0,0,1-1.671.8694,1.7987,1.7987,0,0,1-2.25-1.5024,6.9826,6.9826,0,0,1,.026-3.2886,4.6688,4.6688,0,0,0,.2039-1.3469.7245.7245,0,0,0-.4889-.5111,5.9954,5.9954,0,0,0-1.08.1493c-1.0993.0928-2.1994.2045-3.3012.2318a2.6337,2.6337,0,0,1-2.6053-1.2244,4.9618,4.9618,0,0,1-.7014-4.2194.45.45,0,0,1,.1432-.2335c1.1472-.734,1.0536-1.4059.1075-2.336a2.1184,2.1184,0,0,1-.2246-2.8077,2.4757,2.4757,0,0,1,2.6769-1.0444,18.5105,18.5105,0,0,1,3.1546.9788A21.71,21.71,0,0,1,143.4471,419.7455Z"/><path d="M196.4246,59.0354a14.9007,14.9007,0,0,1-1.0287-1.4071,67.8179,67.8179,0,0,0-8.9049-13.6363c-1.67-1.9655-3.2088-4.0407-5.0633-5.8486a6.2434,6.2434,0,0,1-.8783-1.066c-2.3559-3.639-4.7326-7.2653-7.0221-10.9458a22.7939,22.7939,0,0,1-1.6163-3.51A1.9176,1.9176,0,0,1,172.25,20.31a2.1533,2.1533,0,0,1,2.5713-.3412c2.1014,1.15,4.2505,2.2333,5.6561,4.32a12.7485,12.7485,0,0,0,1.793,2.1043,37.7028,37.7028,0,0,1,6.3352,8.6848c1.1119,1.9075,2.4926,3.6647,3.2225,5.7887,1.2273,3.5715,2.5467,7.1134,3.68,10.7141a32.4515,32.4515,0,0,1,.9013,4.8809A21.4347,21.4347,0,0,1,196.4246,59.0354Z"/><path d="M163.2161,199.2992a15.004,15.004,0,0,1,1.8686-.2076,61.74,61.74,0,0,1,10.4412.9975c3.0559.6754,6.1271,1.289,9.1637,2.0425,5.1977,1.29,9.6537,4.0593,13.8356,7.2794a16.9,16.9,0,0,1,5.1,7.113,1.785,1.785,0,0,1-.3857,2.2626,1.99,1.99,0,0,1-2.5491.1234,11.0429,11.0429,0,0,1-1.541-1.1643,29.8246,29.8246,0,0,0-5.64-3.9675,72.1369,72.1369,0,0,0-12.7032-6.0246,38.596,38.596,0,0,1-8.0959-4.1558,31.0051,31.0051,0,0,0-8.59-3.6935A5.7033,5.7033,0,0,1,163.2161,199.2992Z"/><path d="M139.9667,338.57a18.06,18.06,0,0,1,2.0313-.0346c2.1.2528,4.1885.6426,6.2947.7914a40.87,40.87,0,0,0,5.23-.0641c3.4893-.2024,6.9737-.4878,10.4616-.7161a9.5559,9.5559,0,0,1,2.203.0252,23.2412,23.2412,0,0,0,7.4019-.3888,29.9193,29.9193,0,0,0,4.5772-.9957,16.0572,16.0572,0,0,1,5.2015-.3162,3.2646,3.2646,0,0,1,1.065.242c1.5391.5723,1.8476,1.9241.5642,2.9216a17.6789,17.6789,0,0,1-3.7268,2.3284,25.0856,25.0856,0,0,1-5.2281,1.66c-3.2452.6173-6.54.9672-9.8032,1.498a21.6463,21.6463,0,0,1-9.7874-.9538c-3.61-1.08-7.1883-2.265-10.7717-3.4309a29.729,29.729,0,0,1-2.8265-1.0957C142.0282,339.676,141.2409,339.2249,139.9667,338.57Z"/><path d="M105.7268,187.767c-1.1493-.0327-1.7469-.9467-2.457-1.6179-1.6049-1.5171-3.1785-3.0719-4.6933-4.6788a117.0123,117.0123,0,0,1-9.621-11.0042c-3.7752-5.1632-4.3676-10.774-2.983-16.7887a6.2287,6.2287,0,0,1,.5763-1.5455c1.1561-2.1414,2.792-2.5028,4.7818-1.0886a2.6268,2.6268,0,0,1,1.1607,2.091c.0745,1.2858.1355,2.5744.2741,3.854.2471,2.2815.5,4.5647.85,6.8317a13.0132,13.0132,0,0,0,.8386,2.6177c.562,1.4587,1.1075,2.93,1.78,4.3388,1.7025,3.5666,3.4052,7.1362,5.2444,10.6328a50.4406,50.4406,0,0,0,2.9315,4.34c.4493.6725.8372,1.386,1.2529,2.0809Z"/><path d="M136.0034,311.1525c-.1528-.1961-.2351-.2525-.2347-.3082a40.2769,40.2769,0,0,1,5.5491-20.5512c.5619-.9526,1.0825-1.9295,1.6383-2.8857a24.5312,24.5312,0,0,1,7.44-7.6913,6.8554,6.8554,0,0,1,3.8927-1.2226c1.8183-.0384,2.4843.8992,1.85,2.6771a7.0772,7.0772,0,0,1-.8851,1.7049c-.8,1.1258-1.628,2.2376-2.5166,3.2944a75.9024,75.9024,0,0,0-9.4679,13.9143c-1.2266,2.3681-2.6451,4.6448-4.094,6.8871C138.236,308.4252,137.0844,309.7422,136.0034,311.1525Z"/><path d="M101.2672,190.872a3.509,3.509,0,0,1-.7141-.183c-3.68-3.1052-8.1589-4.6239-12.5779-6.2-5.9017-2.1048-11.85-4.0834-17.8124-6.0106a12.22,12.22,0,0,1-5.405-3.6912,2.8871,2.8871,0,0,1,.1527-3.7656,1.942,1.942,0,0,1,1.2476-.49,13.6264,13.6264,0,0,1,3.006.36c2.3164.6042,4.6125,1.2922,6.8985,2.0049a13.2312,13.2312,0,0,1,3.0706,1.2212c3.2821,2.0422,6.98,3.3853,9.9626,5.9254,4.4858,2.528,7.9754,6.2269,11.5418,9.8337A7.3282,7.3282,0,0,1,101.2672,190.872Z"/><path d="M149.25,112.2647c-1.4695-3.4844-2.6786-6.5639-4.0654-9.5612a36.2986,36.2986,0,0,0-2.9828-5.2656A109.0718,109.0718,0,0,1,134.66,84.6062c-1.2756-2.5444-2.7173-5.005-4.0375-7.5278-.5526-1.056-1.0121-2.1642-1.4587-3.2709a1.3571,1.3571,0,0,1,.37-1.52,1.3336,1.3336,0,0,1,1.54-.2467,9.6129,9.6129,0,0,1,1.8644,1.1268c1.1586.9022,2.2858,1.8477,3.3866,2.82A18.18,18.18,0,0,1,137.83,77.59a32.5771,32.5771,0,0,1,6.8244,12.7839,57.314,57.314,0,0,1,2.2317,9.3681,27.5751,27.5751,0,0,0,1.3148,5.3369A15.9156,15.9156,0,0,1,149.25,112.2647Z"/><path d="M201.6554,43.2936c-.13-.52-.2835-1.0345-.3849-1.56a97.2916,97.2916,0,0,0-5.615-19.3173,26.88,26.88,0,0,1-1.8172-11.1027,14.01,14.01,0,0,1,1.1828-4.8052,2.657,2.657,0,0,1,1.73-1.67,1.83,1.83,0,0,1,2.34.9142,9.7953,9.7953,0,0,1,.7419,2.3626,65.1533,65.1533,0,0,0,2.3765,9.3588,20.8556,20.8556,0,0,1,.9005,5.1517,52.3686,52.3686,0,0,1-.63,12.6706,38.4514,38.4514,0,0,0-.3416,5.5056c-.0366.8123-.0062,1.6276-.0062,2.4415Z"/><path d="M166.575,487.661a77.3134,77.3134,0,0,1-4.0428-8.5359,21.8853,21.8853,0,0,0-4.7867-7.6873,4.5534,4.5534,0,0,1-.8022-1.1191,15.3824,15.3824,0,0,0-5.1894-5.2468,29.3652,29.3652,0,0,1-3.3671-2.8369,5.705,5.705,0,0,1-1.6648-5.3121c.3139-2.2152,1.7873-3.24,3.9256-2.6792a10.1748,10.1748,0,0,1,6.0092,4.1615c2.6259,3.8852,5.2263,7.79,6.3982,12.4491.6042,2.4025,1.5723,4.7139,2.1674,7.1181a38.2166,38.2166,0,0,1,1.3514,8.4257C166.5811,486.7625,166.575,487.1271,166.575,487.661Z"/><path d="M44.0767,482.916a3.1363,3.1363,0,0,1,1.0144.4979,21.1015,21.1015,0,0,1,2.4173,2.6418,50.5007,50.5007,0,0,1,3.333,5.0713,105.7369,105.7369,0,0,0,8.8047,13.0321,25.0519,25.0519,0,0,0,5.5965,5.2992q2.2652,1.58,4.4979,3.2049c.1569.1147.1853.4051.2733.614a1.973,1.973,0,0,1-.7766.0059,92.8468,92.8468,0,0,1-12.32-6.1944,44.718,44.718,0,0,1-10.4764-8.9279c-1.901-2.3023-3.3958-4.7973-3.4853-7.9366-.055-1.9273-.3387-3.8472-.4343-5.7747A1.5678,1.5678,0,0,1,44.0767,482.916Z"/><path d="M206.2755,93.1292c.6315,0,1.2665-.0442,1.8939.0069a28.9412,28.9412,0,0,0,15.4236-3.29,41.7176,41.7176,0,0,0,7.3808-4.8017c1.2967-1.0257,2.6623-1.9691,4.0386-2.8871a8.5982,8.5982,0,0,1,1.9809-.9558,2.3756,2.3756,0,0,1,3.15,2.6416,3.9978,3.9978,0,0,1-.84,1.9937,43.0843,43.0843,0,0,1-6.2975,6.166,26.259,26.259,0,0,1-8.5383,3.7615,36.2874,36.2874,0,0,1-5.1407.9913,13.4912,13.4912,0,0,1-4.6635-.2785A34.2343,34.2343,0,0,1,206.2755,93.1292Z"/><path d="M184.7822,189.3906a17.47,17.47,0,0,1,5.7885-1.5432,31.2245,31.2245,0,0,1,10.4361-.1845c.7176.1419,1.4688.1035,2.1983.197a14.6428,14.6428,0,0,1,7.9335,3.5458c1.107.9671,2.1467,2.0159,3.1664,3.0763a5.7458,5.7458,0,0,1,1.0969,1.5633,2.3624,2.3624,0,0,1-2.376,3.3374,12.2723,12.2723,0,0,1-3.6569-1.1388c-2.637-1.2986-5.2261-2.7025-7.781-4.1579a43.1712,43.1712,0,0,0-8.3256-3.6268,26.928,26.928,0,0,0-4.5946-.8129C187.58,189.5013,186.4741,189.4954,184.7822,189.3906Z"/><path d="M39.8312,283.0071a15.3164,15.3164,0,0,1-1.5328-.505c-3.53-1.5746-7.0216-3.24-10.5849-4.7348a32.4237,32.4237,0,0,0-9.4019-2.0426c-2.8376-.2865-5.6622-.7169-8.4832-1.1454a17.3758,17.3758,0,0,1-2.3827-.699c-.6443-.1961-1.1948-.4879-1.2969-1.2525a2.0685,2.0685,0,0,1,.6749-2.2353,5.8047,5.8047,0,0,1,3.281-1.3014,25.1956,25.1956,0,0,1,6.0519.4036,27.6865,27.6865,0,0,0,3.5361.6256,10.1172,10.1172,0,0,1,4.4121,1.4464c3.1613,1.8915,6.3729,3.7029,9.4839,5.6734a24.718,24.718,0,0,1,6.1716,5.8373Z"/><path d="M187.2374,459.0984c-.12-1.9523.5117-3.5324.6384-5.1687a31.1516,31.1516,0,0,0,.2476-3.2932c-.0954-3.2215-.3148-6.4393-.4151-9.6607a11.4338,11.4338,0,0,0-1.3126-5.0167c-1.1814-2.2857-2.1508-4.68-3.2475-7.0108a2.0749,2.0749,0,0,1,.22-2.557,2.5646,2.5646,0,0,1,2.7885-.6313,5.8014,5.8014,0,0,1,3.7161,3.0836,20.72,20.72,0,0,1,2.1449,6.537,42.4535,42.4535,0,0,1-.03,12.6682,19.6171,19.6171,0,0,1-1.2638,4.216c-.8063,1.9566-1.7809,3.8444-2.7044,5.7515A8.98,8.98,0,0,1,187.2374,459.0984Z"/><path d="M155.3514,104.5995a72.8115,72.8115,0,0,1-3.0211-15.24,80.6052,80.6052,0,0,0-1.5238-8.7117,16.803,16.803,0,0,1-.3079-5.5021,8.22,8.22,0,0,1,.5257-2.1336,1.7556,1.7556,0,0,1,2.9306-.7082A7.8313,7.8313,0,0,1,155.74,74.72a14.9053,14.9053,0,0,1,.9719,3.4388c.7879,4.2954.5685,8.6431.5979,12.9787a65.3127,65.3127,0,0,1-1.2307,10.9851A23.0136,23.0136,0,0,1,155.3514,104.5995Z"/><path d="M167.1972,140.1664a10.086,10.086,0,0,1,2.3029-4.0426c1.847-2.1769,3.7475-4.3256,5.7965-6.31,2.3829-2.3074,4.9192-4.4606,7.45-6.6083a32.8993,32.8993,0,0,1,3.3958-2.3732,15.7564,15.7564,0,0,1,8.7317-2.1982,3.574,3.574,0,0,1,1.7884.5767,1.41,1.41,0,0,1,.189,2.3469,17.73,17.73,0,0,1-4.7707,3.259c-2.6388,1.09-5.22,2.32-7.8351,3.468a55.1734,55.1734,0,0,0-12.8049,8.1212c-1.0646.8755-1.9921,1.9165-3,2.863-.38.3566-.6349.9379-1.3139.8315Z"/><path d="M168.8673,181.1744c.21-1.2612.4559-2.5177.6238-3.7845.339-2.5574.6467-5.1191.9476-7.6814a40.5094,40.5094,0,0,1,3.1-12.2686c.6474-1.4188,1.0464-2.9494,1.6042-4.4116a7.2622,7.2622,0,0,1,.7995-1.4274.8268.8268,0,0,1,1.2124.025,6.18,6.18,0,0,1,.6382,1.2021c.8806,2.3339.4762,4.7363.31,7.1169-.0769,1.0992-.2917,2.1893-.4547,3.2818a35.1171,35.1171,0,0,1-8.1525,17.5557c-.15.1794-.4536.23-.6856.3412Z"/><path d="M29.8409,212.158a12.282,12.282,0,0,1-1.7306-.72,26.3071,26.3071,0,0,0-7.5727-3.2248,1.2645,1.2645,0,0,1-.2646-.0761c-3.1373-1.5207-6.569-1.6314-9.9315-2.0471a15.7224,15.7224,0,0,0-4.938.27,17.3544,17.3544,0,0,1-3.56.3078c-1.598-.0263-2.2192-1.1551-1.6181-2.6785a3.7083,3.7083,0,0,1,2.1929-2.3424c1.2091-.4172,2.4605-.7138,3.6993-1.0411a3.4229,3.4229,0,0,1,.8244-.06c6.5613-.0783,5.3439-.768,12.1422,2.5681a27.7136,27.7136,0,0,1,7.9527,5.8376c.761.7993,1.5928,1.5316,2.3468,2.337a3.0932,3.0932,0,0,1,.4082.9251Z"/><path d="M61.5326,513.3974c-1.8245,0-3.1089.0288-4.3915-.0072a19.543,19.543,0,0,0-4.6559.4426,60.4171,60.4171,0,0,0-8.209,2.3718A71.4466,71.4466,0,0,1,33.6893,519.31c-.4513.09-.901.204-1.3571.25A2.144,2.144,0,0,1,30.1,516.5017a5.9815,5.9815,0,0,1,3.6655-3.5353,19.633,19.633,0,0,1,3.7239-1.0145,46.9221,46.9221,0,0,1,9.3593-.6179A91.3386,91.3386,0,0,1,60.2662,512.97C60.518,513.0258,60.7582,513.1336,61.5326,513.3974Z"/><path d="M37.4889,206.1366a58.7136,58.7136,0,0,1-7.4411-15.933,17.4111,17.4111,0,0,1-.1343-9.0017,7.2949,7.2949,0,0,1,1.4919-3.2225c1.049-1.186,2.4642-1.0442,3.0916.367a8.6138,8.6138,0,0,1,.8177,3.4672q.0253,4.28.0761,8.56c.0093.8279-.0048,1.6614.0863,2.4819.2331,2.0984.5545,4.1872.774,6.2868a28.5975,28.5975,0,0,0,1.2275,5.6453A6.8274,6.8274,0,0,1,37.4889,206.1366Z"/><path d="M160.86,320.9794c1.4165-1.1611,2.8083-2.3543,4.26-3.47a11.9683,11.9683,0,0,1,2.344-1.4312c3.8466-1.7328,7.6954-3.4651,11.5922-5.08a22.1507,22.1507,0,0,1,3.9946-.9851,3.3537,3.3537,0,0,1,1.3575.0416,2.11,2.11,0,0,1,1.2848,3.4217,5.06,5.06,0,0,1-1.9326,1.4776,51.439,51.439,0,0,1-5.4426,1.9152c-4.5842,1.3125-9.1981,2.5156-13.8728,3.4772-1.1446.2354-2.2531.6468-3.3781.9774Z"/><path d="M213.7086,46.5527a19.3864,19.3864,0,0,1,13.1492-7.7943,14.9644,14.9644,0,0,1,5.7452.4947,6.9482,6.9482,0,0,1,3.0446,1.836,34.02,34.02,0,0,1,3.401,3.619,8.3663,8.3663,0,0,1,1.2752,2.7117,1.1469,1.1469,0,0,1-1.5151,1.35,2.9352,2.9352,0,0,1-.9893-.4306c-.6668-.4866-1.3114-1.0082-1.93-1.5549A10.5066,10.5066,0,0,0,231.07,44.227a31.5581,31.5581,0,0,0-4.8468-1.02,20.8458,20.8458,0,0,0-11.0884,2.81c-.4739.2525-.8786.7072-1.5031.4672Z"/><path d="M58.1223,409.5188A25.1511,25.1511,0,0,1,60,400.65a6.545,6.545,0,0,1,2.7683-3.0016,3.437,3.437,0,0,1,2.394-.4324,1.7622,1.7622,0,0,1,1.64,2.35,33.6811,33.6811,0,0,1-1.4491,4.1566c-.9677,2.2887-2.0432,4.5317-3.0518,6.8035a17.2362,17.2362,0,0,0-.7737,2.0671,9.5194,9.5194,0,0,0-.0077,6.5013,5.1219,5.1219,0,0,1,.2709,1.3327c.0123.1064-.1757.2552-.2989.3485a.27.27,0,0,1-.26-.0306,3.37,3.37,0,0,1-.7276-.8165,13.3537,13.3537,0,0,1-1.2677-3.0427C58.7367,414.269,58.4284,411.6156,58.1223,409.5188Z"/><path d="M152.8783,316.5434a1.9939,1.9939,0,0,1,.088-.7459c3.0624-5.2833,4.2254-11.1651,5.4-17.0443a12.3652,12.3652,0,0,1,.4381-1.8809,4.747,4.747,0,0,1,4.05-3.2946,2.2948,2.2948,0,0,1,2.6946,2.66,10.5461,10.5461,0,0,1-.8025,2.6267,52.9586,52.9586,0,0,1-9.71,15.6711c-.6239.674-1.2406,1.3548-1.8682,2.0253C153.1389,316.5924,153.0353,316.5551,152.8783,316.5434Z"/><path d="M179.3958,182.8481c-.078-.7505.5129-1.1461.9069-1.6184,3.4155-4.0949,6.8591-8.1665,10.2733-12.2624.5261-.6313.9049-1.3847,1.4248-2.0221a26.99,26.99,0,0,1,2.2008-2.4364,1.0453,1.0453,0,0,1,1.7166.5731,5.5235,5.5235,0,0,1,.0761,1.9127c-.2965,1.5278-.6915,3.0383-1.1,4.5412a3.9712,3.9712,0,0,1-.6387,1.21,22.7121,22.7121,0,0,1-8.8018,7.7459c-1.5812.7387-3.1747,1.4534-4.7847,2.1262a5.112,5.112,0,0,1-1.3236.18Z"/><path d="M163.1379,502.3664c-.39-.8064-.731-1.1978-.7518-1.6055-.1309-2.57-1.6442-4.4765-3.1613-6.2871a31.6245,31.6245,0,0,0-4.599-4.3491,6.5211,6.5211,0,0,0-2.8138-.9792c-1.5337-.2861-3.1026-.377-4.6492-.6017-.9989-.145-1.9889-.3618-2.9746-.5836a1.0519,1.0519,0,0,1-.82-1.243,3.748,3.748,0,0,1,2.437-3.0934,7.0446,7.0446,0,0,1,6.3825.3418,16.6094,16.6094,0,0,1,4.7778,3.699,28.775,28.775,0,0,1,5.3852,8.6111A12.96,12.96,0,0,1,163.1379,502.3664Z"/><path d="M74.3188,447.408a17.9349,17.9349,0,0,1-2.1269.4952,20.8836,20.8836,0,0,0-7.2094,1.6255c-4.294.7478-7.7956,3.1223-11.2939,5.503-.1518.1032-.2872.231-.4409.331-.8984.5845-1.9369.6881-2.2607.1983-.47-.7111-.1347-1.406.1083-2.0941,1.01-2.86,3.2168-4.6243,5.6808-6.1242a13.8385,13.8385,0,0,1,7.1465-1.7109c1.8315-.0312,3.67.1151,5.499.26a20.6457,20.6457,0,0,1,3.251.52A7.3776,7.3776,0,0,1,74.3188,447.408Z"/><path d="M200.17,97.7521c.8382.3261,1.7.6015,2.51.9869a30.6126,30.6126,0,0,0,13.1453,2.6707c1.1072.0089,2.2147-.024,3.3219-.0127a16.6568,16.6568,0,0,1,2.2073.1065,2.4909,2.4909,0,0,1,1.9223,1.4181,1.3,1.3,0,0,1-.0943,1.5479,6.3478,6.3478,0,0,1-4.4527,2.4882,13.3091,13.3091,0,0,1-6.4839-1.0361,30.5185,30.5185,0,0,1-7.6752-4.3323c-.9031-.7782-1.974-1.3589-2.9458-2.0609-.5849-.4225-1.1263-.9054-1.6871-1.3612Z"/><path d="M214.2449,33.24a64.8814,64.8814,0,0,1,7.852-13.5945,23.1553,23.1553,0,0,1,7.4447-6.059,1.1534,1.1534,0,0,1,1.013-.0233,1.37,1.37,0,0,1,.29.986,5.18,5.18,0,0,1-.2251,1.3559,10.0908,10.0908,0,0,1-2.2923,4.3634c-1.4634,1.5253-2.9728,3.0146-4.5532,4.4171-1.6517,1.4658-3.4672,2.7481-5.1053,4.2276-1.2248,1.1063-2.2755,2.4044-3.4176,3.6039-.2934.3082-.4959.8044-1.0768.6554Z"/><path d="M235.8037,509.5058a4.5483,4.5483,0,0,1-2.401,3.87c-.2458.1214-.4973.231-.7445.35-1.5958.7669-2.0444.6443-3.1349-.9007a4.812,4.812,0,0,1-.8545-1.3845,4.406,4.406,0,0,1,3.3064-5.4873C233.7691,505.429,235.7865,507.2946,235.8037,509.5058Z"/><path d="M126.58,310.2433l-.1635.0761c-.24-1.0671-.5414-2.1249-.7072-3.2034-.251-1.6338-.3827-3.2857-.612-4.9232a18.9211,18.9211,0,0,1-.0334-4.9485,5.922,5.922,0,0,1,1.9868-3.8281,1.5837,1.5837,0,0,1,.97-.4138c.3018.0058.8222.2575.8606.47a8.7671,8.7671,0,0,1,.0787,4.3593c-1.3135,3.9586-1.6814,8.0825-2.2529,12.1729A.807.807,0,0,1,126.58,310.2433Z"/><path d="M44.2411,442.0275a11.9268,11.9268,0,0,1,1.908.6626,2.4467,2.4467,0,0,1,1.2614,2.79,11.5735,11.5735,0,0,1-1.096,2.788,2.6674,2.6674,0,0,1-2.7451,1.453,2.9747,2.9747,0,0,1-2.579-2.1762,5.171,5.171,0,0,1,.3766-3.9975A2.9311,2.9311,0,0,1,44.2411,442.0275Z"/><path d="M51.8821,557.9443a7.4994,7.4994,0,0,1,.9692-3.8843,2.3527,2.3527,0,0,1,3.3045-.9036,3.2406,3.2406,0,0,1,1.7589,3.6532,7.4419,7.4419,0,0,1-1.0621,2.4834,2.8188,2.8188,0,0,1-4.7487-.5166A3.8518,3.8518,0,0,1,51.8821,557.9443Z"/><path d="M65.9783,423.01c.1787-2.5205.6484-4.75,2.1986-6.5854a8.4323,8.4323,0,0,1,2.0548-1.7978,2.833,2.833,0,0,1,3.6967.8455,1.1661,1.1661,0,0,1-.1347,1.5055,4.18,4.18,0,0,1-.6865.4617,22.4841,22.4841,0,0,0-6.6029,5.3507C66.45,422.8512,66.3395,422.8623,65.9783,423.01Z"/><path d="M149.4754,368.9389c-.06,2.3714-2.0838,3.6658-3.8872,2.8842a5.687,5.687,0,0,1-.7424-.3513,2.5046,2.5046,0,0,1-.3946-4.1766,6.254,6.254,0,0,1,2.16-1.1164,1.9193,1.9193,0,0,1,2.29,1.0757A11.8138,11.8138,0,0,1,149.4754,368.9389Z"/><path d="M124.5184,276.564a3.3652,3.3652,0,0,1-1.8506,2.7219,2.4465,2.4465,0,0,1-2.5839-.1535,2.393,2.393,0,0,1-.2244-.1522,2.4379,2.4379,0,0,1-.6367-2.9653,2.9108,2.9108,0,0,1,2.8731-2.0835,2.7239,2.7239,0,0,1,2.35,1.9858A6.4333,6.4333,0,0,1,124.5184,276.564Z"/><path d="M214.98,2.8033c-.0331.221-.0618.5912-.1469.948a2.3447,2.3447,0,0,1-2.6652,1.8735,2.4037,2.4037,0,0,1-2.3746-2.2468,4.904,4.904,0,0,1,.0526-1.1009c.4-2.6279,2.75-2.61,4.1927-1.788C214.87.9622,214.97,1.8014,214.98,2.8033Z"/><path d="M159.9831,397.7761a2.5978,2.5978,0,0,1-1.3562,2.3277,2.74,2.74,0,0,1-3.0762-.4448c-.874-.6292-.7351-1.6137-.5654-2.5248a2.4127,2.4127,0,0,1,1.5229-2.1175A2.9286,2.9286,0,0,1,159.9831,397.7761Z"/><path d="M32.16,492.26a1.5394,1.5394,0,0,1-1.3813,1.8617,3.0581,3.0581,0,0,1-3.4624-2.0266,2.7735,2.7735,0,0,1,.7287-2.7624,1.0172,1.0172,0,0,1,.7132-.3364,9.5991,9.5991,0,0,1,2.1486.2742,1.6875,1.6875,0,0,1,1.2482,1.6241C32.1825,491.3483,32.16,491.8049,32.16,492.26Z"/><path d="M16.1351,241.7455a7.6865,7.6865,0,0,1-.7323,1.5885,2.0265,2.0265,0,0,1-3.4381-.0142,2.7437,2.7437,0,0,1,.0835-3.2912A2.1693,2.1693,0,0,1,14.7,239.253,2.282,2.282,0,0,1,16.1351,241.7455Z"/><path d="M232.6193,489.2368a2.648,2.648,0,0,1,2.4837,2.7133,2.2581,2.2581,0,0,1-2.1321,2.0856,2.6645,2.6645,0,0,1-2.7448-2.7384A2.1762,2.1762,0,0,1,232.6193,489.2368Z"/><path d="M37.479,310.877a1.9959,1.9959,0,0,1,1.7479,1.5329,2.6863,2.6863,0,0,1-1.0134,2.7023,2.0019,2.0019,0,0,1-3.0772-.5728,1.57,1.57,0,0,1-.1172-.2506C34.561,313.0648,36.1931,310.8022,37.479,310.877Z"/><path d="M166.9043,59.8223a2.3207,2.3207,0,0,1-1.6,2.19,2.442,2.442,0,0,1-2.5792-.48,1.2067,1.2067,0,0,1-.36-1.4881,9.4911,9.4911,0,0,1,.9922-1.6534,1.845,1.845,0,0,1,3.2978.5057A7.467,7.467,0,0,1,166.9043,59.8223Z"/><path d="M66.4278,212.1882a2.0833,2.0833,0,0,1-2.0562,2.32,2.4384,2.4384,0,0,1-2.0015-2.5394,2.5145,2.5145,0,0,1,1.3915-1.9177,1.7046,1.7046,0,0,1,2.32.79A8.0772,8.0772,0,0,1,66.4278,212.1882Z"/><path d="M107.025,99.9828c-.9187.0487-1.6941-.8369-1.7862-2.04a2.0505,2.0505,0,0,1,1.6554-2.1958,2.1342,2.1342,0,1,1,.1309,4.2359Z"/><path d="M33.6051,443.9494a6.4784,6.4784,0,0,1,.3768-1.1766,1.7615,1.7615,0,0,1,2.1868-.6257,1.4316,1.4316,0,0,1,.8956,1.5423,5.4826,5.4826,0,0,1-.5242,1.536,1.3956,1.3956,0,0,1-1.6189.7361A1.507,1.507,0,0,1,33.78,444.89,6.165,6.165,0,0,1,33.6051,443.9494Z"/><path d="M69.6555,571.7456a8.9212,8.9212,0,0,1-1.2756-.3175,1.65,1.65,0,0,1-.8613-2.0695,1.525,1.525,0,0,1,1.47-1.01,1.3172,1.3172,0,0,1,1.2687.8763,14.8367,14.8367,0,0,1,.5025,1.8466C70.8882,571.6124,70.5879,571.8759,69.6555,571.7456Z"/><path d="M218.2165,482.5391a12.2987,12.2987,0,0,1-.2,1.2356,1.5019,1.5019,0,0,1-2.2413.6833,2.01,2.01,0,0,1-.2739-2.48,1.6889,1.6889,0,0,1,2.1688-.4466A2.9269,2.9269,0,0,1,218.2165,482.5391Z"/><path d="M237.9732,62.8379a6.494,6.494,0,0,1-.91,1.18,1.4142,1.4142,0,0,1-1.9679-.1425,1.4732,1.4732,0,0,1,.5335-2.1114,1.5363,1.5363,0,0,1,2.1573.4168A3.5061,3.5061,0,0,1,237.9732,62.8379Z"/><path d="M110.1489,364.7817a1.5855,1.5855,0,0,1,1.63-1.5113,1.1276,1.1276,0,0,1,1.17,1.2235c-.0336,1.0171-.5927,1.6823-1.42,1.69A1.3833,1.3833,0,0,1,110.1489,364.7817Z"/><path d="M128.2209,196.3193a1.5038,1.5038,0,0,1-.1136-3.0029,1.4246,1.4246,0,0,1,1.3045,1.157A1.6786,1.6786,0,0,1,128.2209,196.3193Z"/><path d="M4.9965,320.29a1.4332,1.4332,0,0,1-1.224,1.5264A1.5744,1.5744,0,0,1,2.34,320.179a1.42,1.42,0,0,1,1.5531-1.1832A1.2052,1.2052,0,0,1,4.9965,320.29Z"/><path d="M26.446,503.9575a3.401,3.401,0,0,1,.8652.7222,1.7037,1.7037,0,0,1,.1242,1.0409c-.091.8278-.5964,1.3229-1.1651,1.2238a1.6041,1.6041,0,0,1-1.33-1.5022A1.5065,1.5065,0,0,1,26.446,503.9575Z"/><path d="M50.1,189.9231a3.5249,3.5249,0,0,1,.9084.3269,1.4834,1.4834,0,0,1,.4085,1.7558,1.4416,1.4416,0,0,1-1.2213.9822.9067.9067,0,0,1-.5149-.1263,1.2979,1.2979,0,0,1-.473-1.7034A5.5545,5.5545,0,0,1,50.1,189.9231Z"/><path d="M106.9187,108.0107c-.1574-.2069-.4617-.4454-.5431-.7447a1.4768,1.4768,0,0,1,.6841-1.8312,1.7238,1.7238,0,0,1,.996.0518c.13.03.2552.2485.3119.4066a1.5955,1.5955,0,0,1-.789,2.0345A2.4275,2.4275,0,0,1,106.9187,108.0107Z"/><path d="M220.67,5.2215a1.4223,1.4223,0,0,1,1.2068,1.2836,1.2785,1.2785,0,0,1-1.1893,1.251c-.6338-.0362-1.0318-.6109-.9646-1.3931C219.7786,5.7121,220.21,5.1926,220.67,5.2215Z"/><path d="M134.9313,186.6092a1.0826,1.0826,0,0,1,1.1686.8589,1.3561,1.3561,0,0,1-.9928,1.395.9967.9967,0,0,1-1.121-.884A1.148,1.148,0,0,1,134.9313,186.6092Z"/><path d="M6.0556,311.4227c.2.1926.641.43.7675.781A1.4235,1.4235,0,0,1,5.7766,313.85a.9128.9128,0,0,1-.9709-.7342A1.4426,1.4426,0,0,1,6.0556,311.4227Z"/><path d="M159.3364,238.7048a.8961.8961,0,0,1-.8634-.8643,1.239,1.239,0,0,1,1.2669-1.1682.6788.6788,0,0,1,.6768.7084A1.1927,1.1927,0,0,1,159.3364,238.7048Z"/><path d="M114.0846,102.9514a1.0775,1.0775,0,0,1-.9583,1.1308c-.4711-.0187-.8806-.5829-.8811-1.2139a.9136.9136,0,0,1,.7973-.9429A1.0234,1.0234,0,0,1,114.0846,102.9514Z"/><path d="M171.1885,54.68c.0641.8008-.3159,1.2867-.8593,1.3337a.8515.8515,0,0,1-.8817-.7868c.0047-.52.4869-1.2424.881-1.1521C170.6868,54.1565,170.98,54.5233,171.1885,54.68Z"/><path d="M240.3338,65.5218a6.21,6.21,0,0,1-1.0158.7709c-.3054.1294-.8519-.3085-.7362-.5568.1035-.2224.3342-.5074.5373-.5323A4.1343,4.1343,0,0,1,240.3338,65.5218Z"/><path d="M207.1211,41.1344l.1517-.6634c.0217.0615.08.1424.0587.181a4.5986,4.5986,0,0,1-.2769.4147Z"/><path d="M214.1741,33.1726l-.128.6476c-.0249-.06-.0874-.1392-.0682-.1757a4.28,4.28,0,0,1,.2669-.4044Z"/><path d="M168.81,181.1238a5.111,5.111,0,0,1-.0459.511.794.794,0,0,1-.1286.2262c-.0577-.1384-.1952-.3119-.1535-.4066.0552-.1256.25-.19.3853-.28Z"/><path d="M29.792,212.2122l.3094.1972c-.062-.0026-.1566.0184-.1794-.0128a.802.802,0,0,1-.0811-.2386Z"/><path d="M179.3452,182.7973l-.2029.3981c-.36-.44.06-.3108.2535-.3473Z"/><path d="M39.7605,283.0772l.24.1335-.1689-.2036Z"/><path d="M149.4109,321.8316l-.5184.5644.0731.0684c-.0959-.4343.1719-.533.517-.56Z"/><path d="M149.4826,321.9039l.2044-.28c-.0239.0374-.04.0869-.0735.1095a1.5278,1.5278,0,0,1-.2027.0986Z"/><path d="M167.1272,140.1008l-.0393.2688.1093-.2032Z"/><path d="M229.243,73.742l.2093-.41.2055.1733-.4654.1872Z"/><polygon points="106.219 188.443 106.398 188.515 106.297 188.365 106.219 188.443"/><path d="M105.6632,187.8305l.556.6121.0781-.0775-.5706-.5981Z"/><path d="M213.632,46.4836l-.1234.3529c.0026-.0459-.0126-.1076.0113-.1346a1.2485,1.2485,0,0,1,.1887-.1492Z"/></g></g></svg>