<svg xmlns="http://www.w3.org/2000/svg" viewBox="0 0 245.3385 625.1225"><title>laurel-left</title><g id="Layer_2" data-name="Layer 2"><g id="Layer_1-2" data-name="Layer 1"><path d="M39.1522,42.7844c.1884.2815.4912.5416.5482.8475.9051,4.8546,2.956,9.2938,4.9454,13.7558.6,1.3462,1.1609,2.7131,1.8291,4.0251.9187,1.8039,1.9016,3.5766,2.916,5.3286a.9847.9847,0,0,0,.9118.2955c2.3282-1.455,4.59-.9406,6.8564.1241a5.0708,5.0708,0,0,0,.5235.1815c.3916-.4042.18-.84.08-1.277-.3717-1.6172-.774-3.229-1.08-4.8586a5.1417,5.1417,0,0,1,.0264-1.907,2.3576,2.3576,0,0,1,2.7853-2.0618,3.224,3.224,0,0,1,.799.212c.5109.1832.7731.0172,1.0938-.448,1.1162-1.6192,2.1284-1.8877,3.6808-.8785a11.5092,11.5092,0,0,1,2.4494,2.2c.6462.7617,1.2275,1.3714,2.309,1.026A1.8893,1.8893,0,0,1,70.1,59.317c1.4819-.2369,2.2865.6344,2.2482,2.0706a5.8067,5.8067,0,0,1-.6974,2.6259c-.8171,1.4359-1.8435,2.7533-2.7928,4.113-.3563.51-.7405,1.0013-1.106,1.493a1.0929,1.0929,0,0,0,1.3871.1534c2.2174-1.2086,4.7151-1.5683,7.0611-2.3826a1.6186,1.6186,0,0,1,2.3.8908,5.622,5.622,0,0,0,1.9618,2.189,2.9525,2.9525,0,0,1,.7758,4.3585,4.2909,4.2909,0,0,1-.5207.6447,2.1233,2.1233,0,0,0-.445,2.0684c.1209.5385.329,1.0625.4011,1.6059a2.971,2.971,0,0,1-1.8243,3.3709,4.1891,4.1891,0,0,1-3.47.24c-2.0513-.7959-4.1427-1.4884-6.1815-2.2117-.1153.1506-.204.2208-.1919.26a.6258.6258,0,0,0,.161.2209c.8932.9336,1.7722,1.8815,2.6865,2.7941a6.6251,6.6251,0,0,1,1.8984,4.204,5.075,5.075,0,0,1-2.0275,4.871c-.5919.4373-1.2358.807-1.8055,1.27a.7657.7657,0,0,0-.1731.7161A13.2516,13.2516,0,0,0,71.2629,97.18c2.8478,3.1474,5.7081,6.2856,8.6427,9.3516a24.6363,24.6363,0,0,0,6.5377,4.6016,12.541,12.541,0,0,1,3.7414,2.7944,22.4086,22.4086,0,0,0,1.8368,1.6764q3.1685,2.8881,6.337,5.7764a5.4288,5.4288,0,0,0,.6695.4478c.5157-.7248.0171-1.2884-.2113-1.8234a8.712,8.712,0,0,1-.5387-4.609,7.1145,7.1145,0,0,1,5.0307-6.2989,7.6134,7.6134,0,0,1,3.742-.77,3.674,3.674,0,0,1,3.166,2.3212c.667,1.6184,1.4036,3.2087,2.1336,4.8a6.0656,6.0656,0,0,0,.5984.8763,2.1823,2.1823,0,0,0,1.3061-2.75,23.88,23.88,0,0,1-.099-7.167,4.4571,4.4571,0,0,1,4.5913-4.2867c2.1157-.1017,4.0544.299,5.2571,2.34a4.3053,4.3053,0,0,0,2.324,1.8887,3.6363,3.6363,0,0,1,2.366,3.1421,6.8728,6.8728,0,0,1-.0223,2.7361c-.44,1.8776-1.058,3.714-1.6179,5.5628-.2917.963-.6278,1.9127-.9094,2.8785a.5585.5585,0,0,0,.1982.4767.5068.5068,0,0,0,.49-.0172,10.6009,10.6009,0,0,0,1.2749-1.44c1.4558-2.1468,3.7042-3.3358,5.8168-4.5963a4.1828,4.1828,0,0,1,4.5.2205,28.9815,28.9815,0,0,0,4.88,2.4987c2.3412,1.0973,3.2495,2.9575,2.4921,5.3914a18.6952,18.6952,0,0,0-.6864,3.5075c-.29,2.5611-1.4682,4.5158-4.1,5.3543a5.0843,5.0843,0,0,0-3.1077,1.9779,17.4829,17.4829,0,0,0,2.0084.0917,6.9072,6.9072,0,0,1,3.75.7816c1.7882.9437,3.49,2.0538,5.2131,3.1175a4.8336,4.8336,0,0,1,1.8538,2.3595,3.3176,3.3176,0,0,1-.0672,3.19,37.173,37.173,0,0,0-3.1971,6.7376,18.2692,18.2692,0,0,1-.8666,1.731,7.9384,7.9384,0,0,1-13.44.8c-1.4526-1.9017-2.6851-3.9724-4.0027-5.976a11.4508,11.4508,0,0,0-2.7675-3.064c-.4234-.3087-.992-.1535-1.0179.3641-.0826,1.6492-.141,3.3032-.1091,4.9535.041,2.12.2462,4.2374.2585,6.3566a10.8011,10.8011,0,0,1-3.0713,7.4544,1.4764,1.4764,0,0,0-.4184,1.7161c1.0486,2.6579,1.9186,5.4039,3.1806,7.9562q3.8,7.6868,7.9631,15.1931c2.8561,5.1655,5.9745,10.1859,8.8314,15.3509a74.876,74.876,0,0,1,4.853,9.9362c1.2926,3.4687,2.9525,6.7488,4.3939,10.136a169.5742,169.5742,0,0,1,8.6653,26.5237c.565,2.33,1.1619,4.6516,1.7609,6.9727.1832.7094.3979.7786,1.2146.6828a17.859,17.859,0,0,1,3.566-.307c4.03.3535,7.21,2.1063,8.9676,5.9408.1919.4187.34.8576.503,1.2894a.7634.7634,0,0,0,1.0842.4985,1.5842,1.5842,0,0,0,.2578-.1,3.0162,3.0162,0,0,1,2.9158-.153,4.14,4.14,0,0,1,2.24,2.6963,17.0784,17.0784,0,0,1,.5927,7.1229,8.8558,8.8558,0,0,1-4.1749,5.9452c-2,1.3164-3.9655,2.6865-5.9348,4.0494a.5672.5672,0,0,0-.1724.4628.5346.5346,0,0,0,.2951.3822c.9822.2407,1.9742.4418,2.9617.6619,1.3477.3,2.7216.5191,4.035.93a4.377,4.377,0,0,1,3.2622,4.3,10.0134,10.0134,0,0,1-1.896,6.5031,5.0606,5.0606,0,0,1-3.0621,2.24,5.7637,5.7637,0,0,0-3.9937,3.123,3.1,3.1,0,0,1-1.8065,1.6337c-.9615.2778-.9753.96-.9117,1.7321.22,2.666.4254,5.3332.6589,7.998.1607,1.8341.3585,3.6649.5391,5.49.628.01.7957-.4224,1.0079-.8321,1.2724-2.4572,2.4645-4.9619,3.8547-7.351,2.3655-4.0652,4.7916-8.0989,7.3223-12.0628a29.1851,29.1851,0,0,0,3.4728-7.2052c1.2513-4.1426,2.6668-8.26,3.2157-12.5854.3134-2.47.6541-4.94.8359-7.4206.2158-2.9443.2815-5.9.3955-8.8513.0279-.722-.2882-1.1059-.9682-.9942-2.5322.4162-4.2169-.83-5.6736-2.6805a10.7121,10.7121,0,0,1-2.5059-5.751,3.1775,3.1775,0,0,0-1.7717-2.8868c-1.4729-.7426-1.7058-1.9968-1.3648-3.5278a7.9452,7.9452,0,0,1,3.7078-4.9629c1.0762-.7115,2.2182-1.3229,3.3033-2.0218.1777-.1146.2132-.45.3144-.6835a1.64,1.64,0,0,0-.5055-.2c-.7367-.0245-1.4754.0045-2.2121-.0209-1.1981-.0412-2.3958-.1028-3.5929-.168-2.5217-.1374-4.2854-1.6026-5.7532-3.45a4.2477,4.2477,0,0,1-.48-4.6959,6.3275,6.3275,0,0,1,.5535-.9566,3.9644,3.9644,0,0,0,.6867-3.8966,4.1433,4.1433,0,0,1,.1848-2.7149,3.6619,3.6619,0,0,1,2.65-2.5894,11.069,11.069,0,0,1,4.6653-.2538,5.7452,5.7452,0,0,1,2.6745,1.3751c1.1445.9308,2.2825,1.87,3.4394,2.7849a.4657.4657,0,0,0,.4561-.0323.5627.5627,0,0,0,.1155-.4935c-.2942-.6746-.6179-1.3376-.96-1.99a8.7286,8.7286,0,0,1-1.0325-5.3519,18.663,18.663,0,0,0-.0508-4.1346c-.08-1.0106-.111-2.0274-.107-3.0412a4.5805,4.5805,0,0,1,.21-1.6376c1.0774-2.7144,2.7436-3.56,5.1544-2.329a12.2294,12.2294,0,0,1,2.4334,1.8036,2.8983,2.8983,0,0,0,3.0241.7681c1.4864-.4539,2.9056.124,4.268.6752a2.7752,2.7752,0,0,1,1.01.9053c.3905.5.6994,1.0633,1.01,1.5474.709.1641.85-.3873,1.1323-.6876,1.39-1.4782,2.8119-2.93,4.1209-4.4779a14.1336,14.1336,0,0,1,3.5245-2.6346.5209.5209,0,0,1,.4811.0133.5062.5062,0,0,1,.1392.4638,6.7005,6.7005,0,0,1-.8121,1.4216,47.2516,47.2516,0,0,0-7.4651,11.8845c-.7221,1.6969-1.4749,3.3811-2.2293,5.064a4.5611,4.5611,0,0,0-.4362,2.9525.9456.9456,0,0,0,.4734.5968.81.81,0,0,0,.7389-.1158c.633-.7837,1.2152-1.61,1.7915-2.4378.9995-1.4354,1.9615-2.8974,2.9828-4.3168a4.8775,4.8775,0,0,1,1.1789-1.1564,3.7456,3.7456,0,0,1,4.4112-.16,9.7067,9.7067,0,0,1,1.6685,1.4357,2.2308,2.2308,0,0,0,1.6175.9046,3.1228,3.1228,0,0,1,2.9719,2.4772c.5288,1.57.95,3.18,1.355,4.7878a8.5451,8.5451,0,0,1,.0963,1.6535,6.2612,6.2612,0,0,1-1.4512,4.0812c.1894,1.4387.8323,2.8049.4585,4.3333a4.2483,4.2483,0,0,1-4.6332,3.4707c-1.0926-.1-2.1585-.469-3.2449-.67a20.4233,20.4233,0,0,0-2.178-.2562c-.125-.01-.33.1669-.3824.3022a.603.603,0,0,0,.0487.5154,2.2979,2.2979,0,0,0,.8046.7025c1.0317.3965,2.0992.6985,3.1422,1.0674,4.0157,1.4205,5.9959,4.4079,6.4306,8.5157a14.3,14.3,0,0,1-.49,5.2124c-.5862,2.1926-1.5077,2.8338-3.7944,2.6447-.2756-.0228-.55-.0655-.824-.103a1.1417,1.1417,0,0,0-1.3363.7168c-.1438.3386-.25.6929-.3778,1.0387a3.2242,3.2242,0,0,1-3.4951,2.15,8.0624,8.0624,0,0,1-5.1881-2.36,21.4,21.4,0,0,1-6.51-10.4171c-.1822-.6841-.403-1.3581-.6251-2.1009-.2861.1641-.4977.2137-.5228.3113-.2065.8028-.3847,1.613-.5593,2.4236-.3491,1.619-.73,3.2326-1.0194,4.8623a14.78,14.78,0,0,0-.2221,2.7426c.0535,4.6146.1622,9.2286.2236,13.8432A53.9247,53.9247,0,0,1,195.4443,289c-.3459,1.1473-.6521,2.3073-.9507,3.4681a26.4151,26.4151,0,0,1-4.785,9.5848,50.6776,50.6776,0,0,0-5.3953,9c-.28.5817-.4959,1.1989-.8215,1.7527-2.9624,5.0378-4.8272,10.56-7.067,15.9175a50.8266,50.8266,0,0,0-2.3672,6.784,17.4705,17.4705,0,0,0-.2611,5.02c.9131-.1414,1.6123-.2957,2.3189-.3463.7339-.0526,1.4753-.0176,2.2128.0028a2.99,2.99,0,0,0,1.8151-.5341,4.1968,4.1968,0,0,1,1.5057-.6185c2.682-.51,3.959.2625,4.8345,2.8562a4.6583,4.6583,0,0,0,.1343.5357c.2341.4852.4156,1.2845.7609,1.3679a1.8772,1.8772,0,0,0,1.83-.9889,1.3877,1.3877,0,0,0,.1592-.2262c1.1209-2.4209,2.3717-4.7961,2.713-7.4979.1364-1.08.0775-1.1112-1.2908-1.1108a3.1383,3.1383,0,0,1-1.0666-.1607c-.6032-.2222-1.1622-.5673-1.7687-.777a4.0755,4.0755,0,0,1-2.8588-3.7144,6.9044,6.9044,0,0,0-.7011-2.6252,3.65,3.65,0,0,1,.8244-4.545,6.2013,6.2013,0,0,1,1.0429-.905,3.4069,3.4069,0,0,0,1.273-1.73c.8845-2.1923,2.4632-2.8826,4.6409-2.1121a3.4228,3.4228,0,0,1,1.4387.7785,3.7261,3.7261,0,0,0,3.342,1.4392,1.8885,1.8885,0,0,1,2.0334,1.5667c.2016,1.3615,1.1268,1.805,2.1435,2.2432a2.0533,2.0533,0,0,1,1.3072,1.3214,1.9689,1.9689,0,0,1-1.144,2.5162,2.415,2.415,0,0,0-1.6583,1.928,2.7558,2.7558,0,0,1-2.6357,2.1066c-1.1127.136-1.5439.6851-1.7336,1.7538a23.5885,23.5885,0,0,1-.9828,3.1617c-.3163.9629-.6639,1.9161-.9561,2.886a2.33,2.33,0,0,0,.0414.7764c.3274-.0362.6595-.05.98-.1176a1.3327,1.3327,0,0,0,.4891-.2534c1.4029-1.0423,2.8282-2.0571,4.1943-3.1458a53.2783,53.2783,0,0,1,10.6333-6.4159c.5837-.2749,1.1718-.5416,1.7467-.834,1.4461-.7353,1.4258-.8508,1.1947-2.5582a16.013,16.013,0,0,1-.1381-3.8445,4.0189,4.0189,0,0,1,3.8416-3.6946c.5471-.0621,1.1115.0084,1.6524-.0788a.7762.7762,0,0,0,.4915-.5355c.1059-.8205.0913-1.6564.1917-2.478a3.0951,3.0951,0,0,1,3.1245-2.9092,3.3914,3.3914,0,0,0,2.0514-.62c2.0928-1.1766,3.8784-.69,5.2584,1.2945a4.0477,4.0477,0,0,1,.44.7035c.667,1.5812,1.5425,2.8417,3.45,3.1525.8731.1423,1.2379.9769,1.1306,1.9708a12.4073,12.4073,0,0,1-1.3569,4.47c-1.2092,2.3039-1.11,2.5454,1.3323,2.9688.9922.1719,2.01.1941,3.0151.294a25.8767,25.8767,0,0,1,3.2912.37,2.4628,2.4628,0,0,1,1.8507,3.4015,4.1816,4.1816,0,0,1-.465,1.0025,1.3146,1.3146,0,0,0,.1246,1.5364,13.1508,13.1508,0,0,1,1.1113,1.9074,7.3433,7.3433,0,0,1,.5768,2.3812c.0659,2.0866-.7262,2.9979-2.8281,3.35-.8461.1416-1.48.218-1.8715,1.2471a2.0782,2.0782,0,0,1-2.7273,1.259,12.05,12.05,0,0,1-2.2824-.9286,5.0165,5.0165,0,0,0-1.8831-.8487,17.5841,17.5841,0,0,0,1.8987,3.2242,3.2013,3.2013,0,0,1,.4859,3.1256,18.3291,18.3291,0,0,0-.3387,1.8876,13.3063,13.3063,0,0,1-.9433,2.5758,3.727,3.727,0,0,1-4.9289,1.8072,2.093,2.093,0,0,0-2.07.0051,3.1821,3.1821,0,0,1-2.16.2086,2.9119,2.9119,0,0,1-1.9735-1.383,6.0015,6.0015,0,0,1-.9225-4.232c.2739-1.3524.6033-2.6966.9789-4.0244a6.1438,6.1438,0,0,0,.408-3.1856c-.5232.4794-.9054.8238-1.2811,1.1751-.875.8184-1.7243,1.6658-2.6275,2.4516a3.4313,3.4313,0,0,1-2.3119.7823,2.7629,2.7629,0,0,1-2.9458-2.3662,3.9288,3.9288,0,0,1-.06-1.1007,1.2225,1.2225,0,0,0-.7769-1.3168,2.6626,2.6626,0,0,1-1.5892-3.18,2.7543,2.7543,0,0,0-.4212-2.0826,15.25,15.25,0,0,1-.9155-2.2787.6.6,0,0,0-.8959-.3383c-1.9257,1.0851-3.8573,2.1634-5.7377,3.3237a26.1018,26.1018,0,0,0-2.6417,2.0054c-.346.28-.8909.6706-.8687.9764.0475.6577.7771.6133,1.2928.7782,1.5785.5047,3.1717.98,4.7078,1.5959a4.3135,4.3135,0,0,1,2.901,4.8047,3.6689,3.6689,0,0,1-1.3144,2.6488c-.4958.4126-1.03.7795-1.5178,1.201a1.5134,1.5134,0,0,0-.4716,1.7422,9.53,9.53,0,0,1,.502,2.1379,2.63,2.63,0,0,1-2.03,2.92,17.9962,17.9962,0,0,1-3.8164.539,21.241,21.241,0,0,0-5.1981.6715,16.6342,16.6342,0,0,0-2.32.8693c-.4816.2225-1.0438.51-.8968,1.2111a1.061,1.061,0,0,0,1.0112.8012c1.1817.1618,2.363.3856,3.5506.4328a38.5058,38.5058,0,0,1,6.8927.4773,7.9738,7.9738,0,0,1,2.0871.6574,3.2279,3.2279,0,0,1,1.2428,4.9119,3.8015,3.8015,0,0,0-.6594,2.5883c.0312.3673.0257.7377.0447,1.1063a2.8865,2.8865,0,0,1-1.1217,2.69,6.6946,6.6946,0,0,0-1.9538,2.6243,12.5137,12.5137,0,0,1-1.6473,2.5442,5.2176,5.2176,0,0,1-8.1937-.2214,31.17,31.17,0,0,1-2.32-3.7609c-.409-.7106-.7209-1.477-1.1782-2.43a5.1322,5.1322,0,0,0-.6576,1.044,5.0572,5.0572,0,0,0,.1327,2.9951,11.3081,11.3081,0,0,1,.2428,4.6671,7.2217,7.2217,0,0,1-.5943,2.4054c-1.3363,2.7233-2.7957,3.6071-5.7715,2.7558a2.6408,2.6408,0,0,1-.7765-.2841,2.5048,2.5048,0,0,0-3.06.1565,3.9307,3.9307,0,0,1-4.4392-.1954c-.9306-.5879-1.8491-1.1949-2.9121-1.8836-.1587.8543-.344,1.632-.4431,2.4206-.46,3.6609-.8263,7.335-1.3625,10.9844-.4554,3.1-1.1,6.1712-1.6556,9.2563a147.6477,147.6477,0,0,1-3.82,16.4267c-.6637,2.2059-1.4732,4.3676-2.199,6.5551s-1.4318,4.3819-2.1427,6.5745a2.5554,2.5554,0,0,0,.3049,2.6035,8.8089,8.8089,0,0,1,1.3826,3.87.5666.5666,0,0,0,.8908.2263,4.6273,4.6273,0,0,0,.3992-.38c2.3626-2.7142,4.6994-5.4513,7.0908-8.14,1.594-1.7921,3.2167-3.5647,4.9233-5.248a12.193,12.193,0,0,1,2.6966-1.9081,65.7546,65.7546,0,0,1,9.2784-4.2816,18.2227,18.2227,0,0,0,4.8291-3.1879c.5794-.4546,1.0984-.9863,1.6458-1.4819,1.9815-1.7938,1.961-1.7964,2.3093-4.39a1.8031,1.8031,0,0,0-.5056-1.7592,4.1865,4.1865,0,0,1-.3875-.3954,6.6717,6.6717,0,0,1-.361-8.6127c.925-1.2281,1.9194-2.4917,3.6287-2.8172a2.49,2.49,0,0,0,1.0542-.7793,2.799,2.799,0,0,0,.387-.729,2.8649,2.8649,0,0,1,3.5-1.51,7.8464,7.8464,0,0,1,3.3166,1.3124,6.9174,6.9174,0,0,0,1.173.69c.2731.1372.84-.2417.81-.5562a5.3384,5.3384,0,0,0-.2779-1.602c-1.4376-3.2978-.14-6.1314,1.4845-8.8925a3.4711,3.4711,0,0,1,2.3716-1.7845,2.5742,2.5742,0,0,0,2.1845-1.8362,1.7932,1.7932,0,0,1,.293-.4667,2.6859,2.6859,0,0,1,2.6775-1.0849,7.5792,7.5792,0,0,1,1.85.5423c2.5606,1.1217,4.2319,3.204,5.6876,5.4711a2.9193,2.9193,0,0,1,.197,2.668,14.759,14.759,0,0,1-2.0831,3.8872,33.8373,33.8373,0,0,0-2.27,3.1368,31.04,31.04,0,0,0-1.6372,3.4917,3.5007,3.5007,0,0,0-.1984,1.0785.8957.8957,0,0,0,1.3148.8779,15.6182,15.6182,0,0,0,2.224-1.6174c.9643-.8574,1.8789-1.7765,2.7606-2.72a4.721,4.721,0,0,1,3.5-1.3849,2.4217,2.4217,0,0,1,2.7381,2.1737,19.4722,19.4722,0,0,1,.1,3.0326c.003.6493.2959.939.9206,1.1461a6.8294,6.8294,0,0,1,4.7562,7.2021,4.99,4.99,0,0,1-1.4415,3.2188,9.4915,9.4915,0,0,0-2.1144,3.1873,3.5185,3.5185,0,0,1-4.5146,2.1657c-.804-.193-1.5841-.4841-2.3841-.6965a.5661.5661,0,0,0-.4778.1585.558.558,0,0,0-.0309.4814c.3245.7633.7284,1.4955,1.0148,2.2718a8.9183,8.9183,0,0,1-1.1923,8.42,4.3357,4.3357,0,0,1-3.2513,1.8744c-.6353.08-1.2945-.0295-1.9294.052a1.6519,1.6519,0,0,0-.9215.4964c-.4357.4714-.768,1.0364-1.1726,1.5387a3.4751,3.4751,0,0,1-3.9859,1.146,3.3912,3.3912,0,0,1-2.5589-3.2513c-.0849-1.101-.0162-2.2132-.0445-3.32a9.27,9.27,0,0,0-.1766-2.1919,1.6091,1.6091,0,0,0-.9931-.8146c-.2339-.0782-.6739.1814-.8986.41a3.8947,3.8947,0,0,0-.8062,2.0182,27.1608,27.1608,0,0,1-1.1214,3.9862c-1.0536,2.6551-3.2871,3.4883-5.8516,2.1459a20.7232,20.7232,0,0,0-4.0725-1.6773,2.996,2.996,0,0,1-2.2854-3.0842,12.5441,12.5441,0,0,1,2.3328-7.5369c.7093-1.077,1.4064-2.1633,2.07-3.2687a.55.55,0,0,0-.3641-.8576c-1.0873-.3055-2.13-.5129-3.0361.5457-.6544.7648-1.5017,1.3614-2.2353,2.062a35.104,35.104,0,0,1-9.4595,6.1521,27.2352,27.2352,0,0,0-7.2357,5.0343c-1.1287,1.0853-2.166,2.2706-3.1944,3.4542-2.7231,3.1337-5.3818,6.324-8.1392,9.4269a12.772,12.772,0,0,0-3.4224,6.5,9.1475,9.1475,0,0,1-2.2457,4.3916c-.3548.4172-.7344.9659-1.2055,1.1041-1.69.4956-2.06,1.7792-2.4725,3.2709a5.3275,5.3275,0,0,1-5.65,3.9066c-.184-.0061-.3669-.0467-.5509-.0545a2.39,2.39,0,0,0-2.5817,3.1772,12.2559,12.2559,0,0,1-2.5345,11.9068c-.53.6393-1.0219,1.3147-1.5972,1.91-1.63,1.6856-2.7082,1.8633-4.921.9021-.2437-.1059-.5074-.1661-.8622-.28a11.63,11.63,0,0,0-.7636,1.1219q-2.8337,5.3852-5.6423,10.7836c-.4276.8171-.8123,1.6636-1.3114,2.4353-3.9583,6.1194-7.9494,12.2176-11.91,18.3353-2.8112,4.3417-5.93,8.4572-9.1122,12.5277-.0855.1095-.0329.327-.0457.5092.6.1823.998-.2634,1.4584-.4825,3.4964-1.6635,6.9275-3.4827,10.5-4.9621,2.541-1.0526,5.2689-1.6549,7.9153-2.4516a6.8144,6.8144,0,0,1,.813-.168,3.0187,3.0187,0,0,0,2.8219-2.48c.5232-2.1564,2.223-3.2859,4.3688-3.7667a3.2016,3.2016,0,0,1,3.0816.7171,12.74,12.74,0,0,0,1.9824,1.477,1.0427,1.0427,0,0,0,.9724-.107,1.1748,1.1748,0,0,0,.2939-.9777,2.9463,2.9463,0,0,0-.67-1.1709c-.5432-.6263-1.1638-1.1848-1.7308-1.7913a7.6851,7.6851,0,0,1-2.0407-4.7394,22.6635,22.6635,0,0,1,1.1235-8.731,5.5437,5.5437,0,0,1,4.3809-4.1669,1.9021,1.9021,0,0,0,1.7032-1.52c.279-.9743.6037-1.9371.9482-2.8906a3.6025,3.6025,0,0,1,2.8376-2.3814,9.9566,9.9566,0,0,1,5.192.3,6.1232,6.1232,0,0,1,4.4262,5.164,28.8071,28.8071,0,0,1,.1137,7.4431c-.166,1.5563-.2128,3.126-.2842,4.6909a2.8225,2.8225,0,0,0,.1517,1.085.9824.9824,0,0,0,.555.5371,1.0556,1.0556,0,0,0,.7562-.1442,1.5914,1.5914,0,0,0,.5341-.614,7.8681,7.8681,0,0,0,.5376-1.2692,23.8052,23.8052,0,0,1,4.3685-7.6329,19.7182,19.7182,0,0,1,4.71-4.2355,8.9548,8.9548,0,0,1,2.2575-1.0162c2.2643-.6844,3.6308.5753,3.1565,2.93a15.5693,15.5693,0,0,1-.9342,2.8887,12.8,12.8,0,0,0-1.1912,5.0595,7.0475,7.0475,0,0,1-2.4451,5.389c-1.0276.9231-2.0689,1.8335-3.0535,2.8011a11.6493,11.6493,0,0,0-1.7864,2.0864,4.3885,4.3885,0,0,0-.4444,1.8334,1.112,1.112,0,0,0,.958,1.1753,9.7911,9.7911,0,0,0,1.9175.0871c1.289-.0788,2.5748-.2151,3.86-.3437,4.0031-.4008,6.662,1.6809,8.684,4.805a6.1038,6.1038,0,0,1,.6724,2.3553,8.3165,8.3165,0,0,1-.05,1.9327,10.451,10.451,0,0,0,.8288,5.401,13.5865,13.5865,0,0,1,.9351,2.8878c.5264,2.5035-.1834,4.035-2.3271,5.3931A8.6965,8.6965,0,0,1,175.9329,541c-1.0941-.1558-2.2021-.231-3.3065-.2915a.9138.9138,0,0,0-1.0194,1.0274,26.1465,26.1465,0,0,0,.7094,3.7887,33.0982,33.0982,0,0,1,1.1537,5.9635,12.76,12.76,0,0,1-.9409,5.9532,3.5532,3.5532,0,0,1-4.9554,2.1225,5.7827,5.7827,0,0,1-1.0049-.4539,2.5325,2.5325,0,0,0-3.4808.228,6.8134,6.8134,0,0,1-4.7068,1.2736c-4.2356-.054-5.7931-2.911-6.1873-5.8171a9.5957,9.5957,0,0,1,.8156-4.8645,25.7682,25.7682,0,0,0,1.3241-6.2032,1.3191,1.3191,0,0,0-1.7605-1.4722,3.4707,3.4707,0,0,0-1.3761.8492c-.4464.4515-.7054,1.0835-1.13,1.5629a25.2579,25.2579,0,0,1-2.48,2.5733,5.7736,5.7736,0,0,1-4.4033,1.2635,5.0816,5.0816,0,0,1-4.8829-4.1482c-.1087-.4468-.1306-.9144-.228-1.3647-.0758-.3506-.2065-.6894-.3214-1.0612-.7868,0-1.5151-.0152-2.2426.003a4.997,4.997,0,0,1-4.3248-2.0541c-1.0011-1.3234-1.9616-2.6816-2.8681-4.0714a8.8958,8.8958,0,0,1-1.051-6.1464c.086-.7284.2925-1.4421.4283-2.1655a.5669.5669,0,0,0-.689-.611c-.09.0175-.1822.0289-.2707.0533a71.27,71.27,0,0,0-10.41,3.7069,20.4575,20.4575,0,0,0-2.4115,1.3439,103.1283,103.1283,0,0,0-12.9855,9.88A12.2705,12.2705,0,0,0,98.779,544.37c-3.5385,5.4027-7.0735,10.8088-10.5131,16.2747a53.4016,53.4016,0,0,1-7.2925,9.0231c-1.2265,1.2437-2.6085,2.3382-3.7942,3.6169-2.0677,2.23-4.0511,4.5385-6.0454,6.8353a78.8777,78.8777,0,0,1-8.1437,8.2869q-8.9341,7.6556-17.9033,15.2705a4.4435,4.4435,0,0,1-.4329.3448c-4.95,3.2474-9.2145,7.3836-14.02,10.8135-3.5279,2.518-7.1272,4.9367-10.7147,7.37a22.3049,22.3049,0,0,1-6.0108,2.7574,2.73,2.73,0,0,1-1.0691.15,1.16,1.16,0,0,1-.6275-.4563.739.739,0,0,1-.0822-.53c.5466-3.261.7956-6.5864,1.9757-9.7146,1.0737-2.8465,2.2206-5.6655,3.2887-8.5141a46.275,46.275,0,0,1,4.8023-8.7043,6.6139,6.6139,0,0,1,2.7354-2.28,88.7043,88.7043,0,0,0,10.745-6.7885c5.7938-3.9657,11.2952-8.3146,16.7168-12.7653,2.3514-1.93,4.6477-3.9311,6.9139-5.9613,2.1307-1.9089,4.1777-3.9109,6.2836-5.8481a12.4031,12.4031,0,0,0,2.7709-3.7408c1.0558-2.1452,2.3626-4.1676,3.5748-6.2349a48.8621,48.8621,0,0,0,3.7036-9.2184,3.7705,3.7705,0,0,0-.0557-1.9032c-.3155-1.4388-.6979-2.8655-1.115-4.2787a5.66,5.66,0,0,0-1.2643-2.4164,20.4133,20.4133,0,0,1-1.9163-2.7039,20.3183,20.3183,0,0,0-8.2621-6.73c-1.8909-.9334-3.638-2.16-5.4388-3.2727-.5335-.33-1.03-.72-1.7848-1.2536-.0152.9963-.0354,1.7053-.035,2.4142.0012,1.9357.0337,3.8717.0112,5.807a17.4392,17.4392,0,0,1-1.4212,5.8882,6.6081,6.6081,0,0,1-.7685,1.4648,3.8911,3.8911,0,0,1-5.1267,1.3089,9.7494,9.7494,0,0,1-1.6385-1.0265,2.41,2.41,0,0,0-2.5979-.2723c-.4255.1768-.8686.3113-1.2953.4855a5.05,5.05,0,0,1-6.8292-4.0493,29.0823,29.0823,0,0,1-.0027-4.9541c.0433-.9134.3255-1.813.4447-2.7261a4.9362,4.9362,0,0,0-.0356-1.3577c-.056-.3713-.2675-.7267-.7128-.6956a.9743.9743,0,0,0-.6987.3109c-.688,1.1935-1.3574,2.401-1.9584,3.64a11.4,11.4,0,0,0-.57,1.8443,7.8916,7.8916,0,0,1-.1926.8067c-.4612,1.1305-.9855,2.247-2.3405,2.5117a3.6528,3.6528,0,0,1-3.6262-1.5325,6.0208,6.0208,0,0,1-1.4663-3.5259,4.628,4.628,0,0,0-1.5051-3.4061,4.8912,4.8912,0,0,1-1.4013-4.3189,8.7413,8.7413,0,0,1,2.6022-5.6622c.9365-.8867,1.9512-1.69,2.9177-2.5461a5.5125,5.5125,0,0,0,.9506-.984.9407.9407,0,0,0-.1283-1.2636,11.0505,11.0505,0,0,0-1.3422-.9465,4.5815,4.5815,0,0,1-2.0132-5.2585,16.1607,16.1607,0,0,1,1.4473-2.9646,5.2414,5.2414,0,0,0,.9737-3.1045,4.8207,4.8207,0,0,1,1.9753-4.35,13.5265,13.5265,0,0,1,2.7362-1.8365c2.5876-1.2127,4.866-.4575,6.4,1.9861.1955.3115.3487.6525.567.9459.2331.3133.61.5174.94.2648a1.343,1.343,0,0,0,.5217-.8883c.01-.7311-.1931-1.4642-.1966-2.197a6.2987,6.2987,0,0,1,2.6774-5.486,25.5731,25.5731,0,0,1,2.5754-1.6043,2.6649,2.6649,0,0,1,2.8837.1905,10.5615,10.5615,0,0,1,.908.6316,4.23,4.23,0,0,0,2.8026,1.0108,6.6958,6.6958,0,0,1,.8289.05,5.1039,5.1039,0,0,1,4.6548,6.2446c-.3368,2.0622-1.4715,3.7585-2.3659,5.5694-.2848.5766-.6049,1.14-.8346,1.7375a.8256.8256,0,0,0,.1105.7472,1.3492,1.3492,0,0,0,.9646.3274c.6212-.1394,1.1924-.4864,1.8066-.6746,1.1419-.35,2.2868-.7113,3.4545-.9507a5.4491,5.4491,0,0,1,4.1862,1.04,2.7676,2.7676,0,0,1,.5581,4.3,6.6528,6.6528,0,0,1-.9823.9707,1.9735,1.9735,0,0,0-.57,2.4809c.406,1.1279.849,2.2474,1.1665,3.4007a6.5534,6.5534,0,0,1,.3227,2.4334,4.3194,4.3194,0,0,1-3.3892,3.9187c-.8015.214-1.6236.3492-2.4292.5489-.7966.1976-1.5842.4312-2.5653.7013a10.0824,10.0824,0,0,0,3.3691,2.1385q2.3873,1.0973,4.82,2.0946a13.32,13.32,0,0,1,6.6447,5.1928,5.9144,5.9144,0,0,0,.6879.8661c.8109.8842,1.6683,1.728,2.4434,2.6421.6929.8172,1.3,1.707,2.3073,3.0457a25.015,25.015,0,0,0-.2886-2.7546c-.8566-3.5822-1.7512-7.1553-2.6459-10.7284A73.7687,73.7687,0,0,1,72.35,510.02c-.1633-1.9234-.5546-3.8268-.8278-5.7415-.4549-3.1888-.8578-6.3857-1.3611-9.5668-.2889-1.8257-.4464-3.65-.5522-5.4945a63.93,63.93,0,0,0-.78-6.5868,41.5415,41.5415,0,0,1-.4874-5.4993c-.08-2.7588-.3579-5.514-.6124-8.2651a36.83,36.83,0,0,1-.0669-7.4187c.2917,2.0552.5349,3.5793.7194,5.11.32,2.6532.5986,5.3111.9086,7.9654a2.09,2.09,0,0,0,.2544.76.82.82,0,0,0,.4241.2628c.0479.0182.1829-.08.2149-.1527a2.97,2.97,0,0,0,.3818-1.0059c.1413-5.6748,1.693-11.0881,3.0053-16.5493a82.219,82.219,0,0,0,1.8274-11.17,30.0866,30.0866,0,0,1,.2394,8.1892c-.1782,1.8334-.4382,3.6614-.7314,5.4806-.4986,3.0937-1.0342,6.1818-1.5863,9.2665a65.8939,65.8939,0,0,0-.4607,17.3664c.53,6.1662,1.8661,12.1977,2.706,18.3078a80.9066,80.9066,0,0,0,2.3579,11.6453q.9656,3.3163,2.1155,6.5783a94.8231,94.8231,0,0,1,2.7465,10.7106,10.7277,10.7277,0,0,1,.1489,2.2044c.0218,1.569-.0074,3.1387.0184,4.7075.0136.8283.0728,1.6583.1678,2.4812a.9546.9546,0,0,0,.3973.6612.7611.7611,0,0,0,.6776-.19c1.0824-1.1341,2.1719-2.2655,3.1851-3.4606,6.3287-7.4652,12.2655-15.239,18.18-23.0334a198.3049,198.3049,0,0,0,13.7982-20.3888c2.173-3.7514,4.5193-7.4021,6.7771-11.1045.5764-.9451,1.1056-1.9187,1.6716-2.87a1.4625,1.4625,0,0,0-.029-1.787,10.332,10.332,0,0,1-1.8161-5.6824c-.1706-2.2019-.4629-4.393-.4211-6.6107a21.3045,21.3045,0,0,1,1.3608-7.3025,4.5659,4.5659,0,0,0,.3779-1.3129,1.2535,1.2535,0,0,0-.3494-.9709,1.12,1.12,0,0,0-.9811.11,8.853,8.853,0,0,0-2.5746,2.8554,30.0015,30.0015,0,0,1-5.4094,6.2662,8.54,8.54,0,0,1-6.3593,2.2138,5.3028,5.3028,0,0,1-5.1988-4.19,13.224,13.224,0,0,1,.3454-8.9519c.1483-.3376.2636-.69.4115-1.0278a3.0554,3.0554,0,0,0-.0918-2.6562c-1.2307-2.6943-1.0146-3.5417,1.1111-5.54a6.04,6.04,0,0,1,4.2685-1.6947c1.7494.0026,3.4979.1773,5.2483.2249a7.6278,7.6278,0,0,0,1.8907-.2.8581.8581,0,0,0,.3026-1.3687,20.2621,20.2621,0,0,0-2.0843-1.2955c-1.5191-.8635-3.0989-1.63-4.5671-2.5718-2.46-1.5778-3.2927-4.1131-3.7133-6.827a3.023,3.023,0,0,1,1.0389-2.74,15.311,15.311,0,0,1,2.1376-1.7511,10.9385,10.9385,0,0,0,3.9591-4.8688c.1928-.4184.4051-.8278.5962-1.247a3.5349,3.5349,0,0,1,4.5663-2.1,12.5721,12.5721,0,0,1,4.0054,1.7965,8.5866,8.5866,0,0,1,3.3721,4.2814,17.4809,17.4809,0,0,0,.9749,2.2874.8683.8683,0,0,0,.6781.3751.8575.8575,0,0,0,.6389-.4274,8.0507,8.0507,0,0,0,.55-1.8491,15.99,15.99,0,0,1,2.3187-5.8693c.9836-1.6571,1.7662-3.4335,2.7127-5.306a27.9941,27.9941,0,0,1-3.1464-1.1535,24.4278,24.4278,0,0,1-2.6376-1.7907c-.2291.6654-.41,1.26-.6374,1.8352a15.7611,15.7611,0,0,1-1.08,2.5156,4.5341,4.5341,0,0,1-6.4094,1.7749,4.0784,4.0784,0,0,0-2.5956-.4113,4.2738,4.2738,0,0,1-5.06-4.2029,8.7076,8.7076,0,0,1,.8481-4.5747,18.745,18.745,0,0,1,2.836-4.4089,14.47,14.47,0,0,0,1.3114-1.7692c.2618-.3982.126-1.1231-.2293-1.2244a1.5812,1.5812,0,0,0-1.0352.0178,4.23,4.23,0,0,0-1.8015,2.0374c-.3344.6559-.556,1.37-.9,2.02a4.9274,4.9274,0,0,1-2.8319,2.5,2.1274,2.1274,0,0,1-2.9154-1.6643,1.5272,1.5272,0,0,1-.0444-.5485,2.206,2.206,0,0,0-1.2961-2.4626,4.602,4.602,0,0,1-2.0426-5.7183,9.0722,9.0722,0,0,1,2.2721-3.7521,4.6691,4.6691,0,0,1,3.0066-1.2292.5959.5959,0,0,0,.4037-1.01c-.3024-.3472-.6473-.6576-.9469-1.0071a3.7428,3.7428,0,0,1-.51-4.5843,5,5,0,0,1,2.1338-2.11,7.5118,7.5118,0,0,0,2.8012-2.6027,10.4155,10.4155,0,0,1,1.824-2.0662,3.9948,3.9948,0,0,1,4.3932-.7274,4.12,4.12,0,0,1,2.7364,3.5237c.109,1.007.0777,2.0285.159,3.04a4.01,4.01,0,0,0,.3232,1.311c.0765.1693.4314.2608.6713.289a.5256.5256,0,0,0,.41-.2845,4.2756,4.2756,0,0,0,.2508-1.06,17.06,17.06,0,0,1,1.9363-6.0226,10.92,10.92,0,0,1,1.699-2.5048,3.5707,3.5707,0,0,1,5.722.4363,7.7972,7.7972,0,0,1,1.1454,2.7757,2.6542,2.6542,0,0,0,2.1835,2.4638,4.3756,4.3756,0,0,1,.8747,8.0785c-1.297.6855-2.7194,1.1336-4.0843,1.6911a15.53,15.53,0,0,0-2.0124.8678,1.1107,1.1107,0,0,0-.3988.9266,1.2655,1.2655,0,0,0,.64.81,3.3478,3.3478,0,0,0,1.3311.2688c1.0141.0307,2.0334-.058,3.0446.0028a38.1548,38.1548,0,0,1,4.1205.4149,3.4739,3.4739,0,0,1,2.9675,3.22,3.8607,3.8607,0,0,1-1.9422,3.9858,4.82,4.82,0,0,1-1.2631.5566,1.314,1.314,0,0,0-1.1116,1.35,3.23,3.23,0,0,1-.4756,1.8232c-.9454,1.1234-.6808,2.4467-.8632,3.6944a.5673.5673,0,0,0,.6371.696c2.3622-.3111,3.558,1.1662,4.4841,2.9581a17.4125,17.4125,0,0,1,1.0549,2.8524,2.5581,2.5581,0,0,0,2.053,1.9958c1.9825.3758,3.075,1.9338,4.2443,3.3364a2.3948,2.3948,0,0,1,.42,1.5564,10.46,10.46,0,0,1-.4963,2.6925,12.7123,12.7123,0,0,1-2.8043,4.4093c-1.803,1.9762-3.6707,3.8932-5.5071,5.839a7.9948,7.9948,0,0,0-1.2725,1.4441,2.918,2.918,0,0,0-.2829,1.5712c.0189.2483.4481.5473.7524.6635.2089.08.5344-.0882.7878-.1934a17.4,17.4,0,0,0,2.0172-.9008,21.49,21.49,0,0,0,4.21-2.6327c1.2124-1.1489,1.2118-3.0254,1.7262-4.5892,1.3534-4.1144,2.629-8.2564,4.079-12.3364a90.6576,90.6576,0,0,0,3.5554-13.9178c.2016-1.0881.3324-2.1936.6022-3.2642a95.8309,95.8309,0,0,0,2.1118-14.7624c.3449-3.7631.6382-7.5312,1.0188-11.2906a16.2887,16.2887,0,0,0-2.0253-9.3015,27.309,27.309,0,0,0-6.1649-7.7655c-.9581-.8534-1.9234-1.6986-2.86-2.5254-.7.2678-.4529.7894-.4689,1.1792a10.0026,10.0026,0,0,1-1.18,3.95,3.1066,3.1066,0,0,1-4.1442,1.7281,8.5917,8.5917,0,0,0-3.4567-.6677,3.9567,3.9567,0,0,1-3.9682-2.8747,7.9567,7.9567,0,0,1-.1854-5.4256c.2809-.8739.7076-1.7,1.0538-2.554.232-.5722.4385-1.1546.8388-2.2159-.7845.4921-1.1569.6858-1.4839.9382-1.0949.8455-2.1477,1.7479-3.269,2.5558a10.0132,10.0132,0,0,1-1.9446,1.0317,2.8837,2.8837,0,0,1-3.3423-.5581,8.603,8.603,0,0,0-2.485-1.6637,4.6833,4.6833,0,0,1-1.653-1.4184,3.6314,3.6314,0,0,1,.8662-5.3473,11.5751,11.5751,0,0,1,2.4588-1.2267,25.1339,25.1339,0,0,1,2.4466-.6981c-.1957-.2919-.2958-.5834-.5-.7242-2.5818-1.78-5.1775-3.54-7.7723-5.3015a.8016.8016,0,0,0-1.209.1456c-.3909.5111-.7113,1.0795-1.1281,1.5668a3.2273,3.2273,0,0,1-3.9785.9934,5.6642,5.6642,0,0,1-3.7159-3.817,14.8949,14.8949,0,0,1-.44-2.7146c-.1554-1.89-.1273-1.8921-1.994-1.2222a4.303,4.303,0,0,1-5.98-2.7945,5.5761,5.5761,0,0,1-.3022-1.3394,1.986,1.986,0,0,0-.7987-1.3905c-1.9193-1.5884-3.7712-3.2674-5.7714-4.746a34.8478,34.8478,0,0,1-4.0072-3.3687l-.0414.06a4.0221,4.0221,0,0,1,1.0547.2246c3.1055,1.6178,6.2067,3.2446,9.2852,4.913a1.527,1.527,0,0,0,1.9915-.2174c.61-.5494,1.29-1.021,1.895-1.4922.131-.7645-.5425-.9613-.8075-1.4095a12.6272,12.6272,0,0,1-1.3281-2.3845,2.9472,2.9472,0,0,1,2.4711-4.0768,4.458,4.458,0,0,0,2.2077-.9768,3.6438,3.6438,0,0,1,4.5723-.2775,9.5647,9.5647,0,0,1,1.5,1.2184,13.44,13.44,0,0,1,1.0368,1.2757c.766-.25.494-.9087.66-1.352a2.1745,2.1745,0,0,1,2.8467-1.4582,5.0336,5.0336,0,0,1,2.51,1.6488,2.8874,2.8874,0,0,0,1.8284,1.0749,1.72,1.72,0,0,1,1.5794,2.1708,6.3047,6.3047,0,0,1-.5091,1.8374,12.1214,12.1214,0,0,1-.892,1.3964c-.2756.4535-.0731.8426.5075.9817.4481.1073.92.136,1.3518.2845a7.022,7.022,0,0,1,1.5044.6865,3.01,3.01,0,0,1,.4007,4.9424c-.8037.7163-1.7351,1.1659-2.05,2.4335-.2761,1.11-1.6183,1.4755-2.7912,1.0152-.9394-.3687-1.8122-.905-2.7244-1.3466-.1529-.074-.4877-.1055-.5126-.0519a2.3152,2.3152,0,0,0-.156.7268c-.0082.0773.0791.1625.1154.2472,1.471,3.4264,1.9362,3.937,5.2513,5.6661.6472.3375,1.3231.62,1.9626.9175.7126-.5612.0563-1.0332-.0024-1.4945-.2215-1.7386.3808-2.94,2.0161-3.4368a12.169,12.169,0,0,1,2.7218-.3558,5.9615,5.9615,0,0,0,3.37-.9254c1.55-1.1016,2.9655-.5376,3.7392,1.2918a33.9408,33.9408,0,0,1,1.0663,3.4125c.4265,1.4083.7827,2.8433,1.31,4.2126a2.3039,2.3039,0,0,0,1.2114,1.0241c.3573.156,1.2382-1.0467,1.26-1.6484a2.98,2.98,0,0,0-.0657-.8227q-.37-1.4707-.7881-2.9291c-.1528-.5307-.4135-1.0356-.5213-1.5731a2.5456,2.5456,0,0,1,2.7768-3.1993,1.69,1.69,0,0,1,.5449.0833,3.1972,3.1972,0,0,0,2.6344-.2062,2.2563,2.2563,0,0,1,3.1029.9672,7.9965,7.9965,0,0,1,1.3859,3.2892,2.3332,2.3332,0,0,0,1.3413,1.9629,1.6988,1.6988,0,0,1,.44.3311,1.5306,1.5306,0,0,1,.3544,2.2136c-.78,1.1356-1.6515,2.2116-2.5329,3.2723-.5787.6965-1.244,1.3209-2.1061,2.2246a6.2569,6.2569,0,0,0,1.5884-.0192,6.3077,6.3077,0,0,1,3.8017.308,1.7508,1.7508,0,0,1,1.3252,2.5522,3.9188,3.9188,0,0,0-.0458,2.371c.379,1.7021.6711,3.4636-.5258,5.0581a1.0752,1.0752,0,0,0,.1558.9764c1.5847,1.9214,3.2109,3.8088,4.84,5.6928.0982.1136.3292.1121.6155.2.0519-.7444.1423-1.4609.1453-2.1778a108.1862,108.1862,0,0,1,1.3-15.9678,19.6767,19.6767,0,0,0,.21-2.4753,88.1518,88.1518,0,0,0-.8351-15.1733c-.3633-2.4592-.4519-4.9577-.73-7.431-.3915-3.4808-.833-6.9562-1.283-10.43a9.6332,9.6332,0,0,0-.5794-1.6176c-.57,1.4128-.9508,2.5008-1.4422,3.5362a25.8592,25.8592,0,0,1-1.72,3.1449,3.088,3.088,0,0,1-3.1165,1.3813c-1.1-.1223-2.202-.2191-3.3022-.336a7.1316,7.1316,0,0,1-3.7683-1.6005,35.33,35.33,0,0,1-4.893-4.4787,13.8528,13.8528,0,0,0-3.5178-3.0945,2.7249,2.7249,0,0,0-3.1142.041c-.6158.4071-1.2189.8336-1.8378,1.2359a5.85,5.85,0,0,1-3.4251.8906,3.0559,3.0559,0,0,1-2.9947-2.0443,6.9472,6.9472,0,0,1-.44-1.87c-.0938-.9161-.098-1.8429-.1084-2.7655-.02-1.7667.1624-2.5964-2.0015-3.4456a3.1285,3.1285,0,0,1-1.8974-3.1185,7.0442,7.0442,0,0,1,.3564-3.2665,2.8377,2.8377,0,0,0,.0719-2.1551,7.7533,7.7533,0,0,1-.2884-1.0672,5.9872,5.9872,0,0,1,3.9069-6.8182,11.4981,11.4981,0,0,1,7.5969-.2944c.88.2725,1.7617.5453,2.6549.7685a.9536.9536,0,0,0,.7468-.14c.096-.08.023-.5092-.1052-.6858a3.6954,3.6954,0,0,0-2.1718-1.61c-.2687-.06-.5238-.1783-.7873-.2633a11.0032,11.0032,0,0,1-6.6538-6.234,3.7472,3.7472,0,0,1-.2524-2.4341c.1148-.5387.4023-1.05.4625-1.5894.389-3.4886,2.563-5.66,5.4581-7.17a4.9027,4.9027,0,0,0,2.719-3.2625,6.2458,6.2458,0,0,1,.2413-.7941,2.5163,2.5163,0,0,1,3.0263-1.82c2.1028.3311,4.2045.86,5.7116,2.5114a2.7046,2.7046,0,0,0,2.6152,1.0312c2.0567-.241,2.8579.3394,3.5733,2.2555a9.6347,9.6347,0,0,1,.5247,2.4136,10.1468,10.1468,0,0,0,1.1108,3.6822c.0947.1844.4871.4182.5847.361.2922-.1713.68-.4543.714-.7323a3.95,3.95,0,0,0-.17-1.6239c-1.3648-4.2979-2.5818-8.6511-4.8509-12.6068a25.4164,25.4164,0,0,0-4.0926-5.2091,87.9377,87.9377,0,0,0-11.9383-9.8578c-1.4276-1.0067-2.7607-2.1483-4.1255-3.2426-.8633-.6922-1.6617-1.4731-2.5649-2.1063a99.0028,99.0028,0,0,1-9.0743-7.2608c-.3975-.3548-.8471-.6512-1.3472-1.0314-.9091,1.4137-1.7426,2.7349-2.602,4.0389a4.061,4.061,0,0,1-3.1474,2.008,3.3748,3.3748,0,0,1-2.5739-.7456c-1.0608-.8775-2.1841-1.6794-3.249-2.49-.6052.2106-.5883.7012-.7076,1.1383a19.87,19.87,0,0,1-1.0292,3.4223,4.3307,4.3307,0,0,1-5.5261,2.4023,6.0009,6.0009,0,0,1-1.8072-1.1958,1.8433,1.8433,0,0,0-1.5032-.4972,10.6621,10.6621,0,0,1-1.6539.1,2.4,2.4,0,0,1-2.593-2.3333,11.8016,11.8016,0,0,1-.0089-2.1928c.0247-.7334.09-1.4655.137-2.1981l.0816-.1683-.02.2246a5.2127,5.2127,0,0,0-1.0236.1736c-.9455.3578-1.8526.8262-2.8118,1.1366a3.6186,3.6186,0,0,1-4.3637-1.5113,21.7346,21.7346,0,0,1-1.4385-2.6714,2.2736,2.2736,0,0,1-.0235-1.8756A5.68,5.68,0,0,1,86.5,220.532c.9475-.5548,1.89-1.1189,2.9884-1.77-1.0762-.6823-2.0161-1.1806-2.8461-1.8214-3.3251-2.567-3.1763-6.7624.3447-8.9815a11.516,11.516,0,0,0,3.75-3.189,3.1016,3.1016,0,0,1,2.8568-1.401c.3564.0191.7148.0029,1.3615.0029a10.9276,10.9276,0,0,0-.8069-.9884c-.6758-.6283-1.4066-1.2-2.0608-1.8486a33.0491,33.0491,0,0,0-11.7206-7.1684,76.6843,76.6843,0,0,1-8.3376-3.6728,45.1826,45.1826,0,0,0-6.4934-2.327c-.428-.147-.9015-.2017-1.128-.8508a11.5828,11.5828,0,0,1,3.3251.22,26.7515,26.7515,0,0,1,6.9693,1.6635c2.6621,1.0353,5.3686,1.9579,8.0663,2.8995a23.036,23.036,0,0,1,5.2561,2.439q4.3758,2.912,8.7,5.9006c.524.36.9783.4984,1.45-.0123,1.8849-2.0416,4.3865-2.2033,6.8991-2.1733,2.1718.026,3.2437.92,3.59,3.0888a18.1,18.1,0,0,1,.0536,4.1177,24.5983,24.5983,0,0,1-.6136,2.9738.6342.6342,0,0,0,.1132.496.5.5,0,0,0,.4718.0856c1.24-.7846,2.6586-1.27,3.7055-2.3824,1.5023-1.5957,3.3372-1.3589,5.1185-.6357a2.7273,2.7273,0,0,1,1.24,1.3889,21.4987,21.4987,0,0,0,2.8883,4.6878,4.382,4.382,0,0,1-2.14,6.7471c-.758.2369-1.5567.3442-2.5674.56a45.7656,45.7656,0,0,0,7.9242,6.7285,95.7165,95.7165,0,0,1,9.6779,6.4246,12.6689,12.6689,0,0,0,1.3731.9335,98.39,98.39,0,0,1,13.3842,9.8024c.4742.4054.9414,1.0387,1.66.5655.52-.342.397-.9509.3709-1.5141a22.7046,22.7046,0,0,0-1.6341-7.2508c-.7716-1.9752-1.503-3.9665-2.2267-5.96a46.1118,46.1118,0,0,0-2.9233-6.8633,11.7319,11.7319,0,0,1-.9261-2.0083c-1.0227-3.09-2.7666-5.8251-4.2257-8.6994-1.9614-3.864-4.0219-7.6792-5.91-11.5784a174.3032,174.3032,0,0,0-8.55-16.1256A73.9278,73.9278,0,0,0,116.605,172a37.3038,37.3038,0,0,0-8.08-6.2458,128.0388,128.0388,0,0,0-12.5863-6.9533,34.9647,34.9647,0,0,1-3.6532-1.966c-4.9159-3.093-9.99-5.9534-14.4989-9.6557-1.568-1.2874-3.0558-2.6772-4.6681-3.9049a38.6251,38.6251,0,0,0-4.155-2.7188c-2.0765-1.1941-4.216-2.2785-6.322-3.422a2.93,2.93,0,0,1-.6134-.5053c-.0452-.0442-.0331-.1932.006-.2647s.16-.1647.22-.1491a9.4121,9.4121,0,0,1,1.5772.4665,79.977,79.977,0,0,1,10.0622,5.2064c1.3911.903,2.8472,1.7063,4.2782,2.5473,3.0181,1.7739,6.079,3.479,9.0487,5.33a79.9283,79.9283,0,0,0,10.71,5.7607c3.3854,1.4532,6.6688,3.1248,10.1626,4.3567,1.7862.63,3.3337,1.938,4.9867,2.9434.8658.5266,1.7143,1.0837,2.5993,1.5755a.8184.8184,0,0,0,.7436-.0453.8767.8767,0,0,0,.27-.7343c-.3236-1.2457-.6786-2.4861-1.1014-3.701a1.5319,1.5319,0,0,0-.7691-.717c-1.1578-.556-2.3428-1.0555-3.5174-1.5766a8.948,8.948,0,0,1-3.7388-3.2006,7.3478,7.3478,0,0,1-.7975-7.3588c.2781-.68.6714-1.3114,1.0023-1.97s.6815-1.3084.9528-1.99a.8783.8783,0,0,0-.137-.7472.8355.8355,0,0,0-.7-.2224c-.6253.15-1.23.3873-1.84.5971s-1.206.4721-1.8283.6341c-2.7545.717-4.46-.008-5.7415-2.8719a5.5081,5.5081,0,0,1-.4842-2.1446,3.5265,3.5265,0,0,0-1.7276-3.23,5.3243,5.3243,0,0,1-2.2157-3.4018c-.4738-2.0067-.35-3.8862,1.5093-5.2144.5277-.3769.4727-.7369.1181-1.1114a36.4611,36.4611,0,0,0-4.7608-4.6144c-2.0827-1.5254-4.074-3.1764-6.0959-4.7842a61.3231,61.3231,0,0,0-10.6882-6.3378,20.9405,20.9405,0,0,1-3.7351-2.34,80.3682,80.3682,0,0,0-10.3042-6.9753c-1.833-1.068-3.6686-2.1367-5.45-3.2873a131.6647,131.6647,0,0,0-12.976-7.3944c-2.06-1.021-3.9981-2.2938-5.9632-3.4985-1.4941-.9159-2.9287-1.9287-4.4222-2.8457a2.3547,2.3547,0,0,0-1.4905-.4937c-.7511.1862-.5407-.1889-.7228-.5968a2.9847,2.9847,0,0,0-1.2423-1.0331c-1.66-.9986-3.3656-1.9224-5.0092-2.9464-1.5644-.9747-3.0888-2.0167-4.6-3.0731-.9023-.6307-1.7456-1.346-2.6359-2.0392.4928-.5756.8653-.1544,1.22-.0353A68.686,68.686,0,0,1,29.8841,79.658c1.7443,1.0375,3.4631,2.1182,5.1894,3.1857,2.4344,1.5053,4.99,2.774,7.5454,4.0625,6.8349,3.4461,13.6513,6.938,20.1638,10.98a68.9019,68.9019,0,0,0,7.0124,3.7462c.3475-.5386-.06-.7572-.2633-.9923-1.69-1.9525-3.408-3.88-5.0975-5.833A3.738,3.738,0,0,0,62.6586,93.55c-.53-.1558-1.0522-.3418-1.5685-.539a6.3549,6.3549,0,0,1-4.1336-4.8222c-.2022-.9-.3258-1.8169-.512-2.7206a5.2453,5.2453,0,0,0-3.6993-4.4034,25.9153,25.9153,0,0,1-3.2642-1.4924c-2.1009-.994-3.3264-3.8154-1.9919-5.8281.8263-1.2462.486-2.4427-.0408-3.6771-1.2667-2.9679-2.5432-5.9329-3.7353-8.931a94.1906,94.1906,0,0,1-4.125-13.4717,14.549,14.549,0,0,1-.3718-4.9331ZM20.8661,618.7166c1.1342.1807,1.67-.6988,2.1818-1.3938,1.1383-1.5446,2.1832-3.1619,3.2031-4.7891,2.1741-3.4685,2.74-7.3969,2.8611-11.3551a6.2045,6.2045,0,0,0-2.2838-4.82.5945.5945,0,0,0-.5055-.0974.486.486,0,0,0-.1688.4356,14.7279,14.7279,0,0,1,.2019,6.02c-.1812,1.1766-.5365,2.3253-.7593,3.4969a38.4151,38.4151,0,0,1-4.4686,11.7839,3.0827,3.0827,0,0,0-.2013.7767.8512.8512,0,0,0-.2275.0834c-.0319.0229-.0206.1061-.0289.1621Zm129.71-336.5638a3.172,3.172,0,0,0,3.0886,3.1933,2.3422,2.3422,0,0,0,1.053-.2339,4.03,4.03,0,0,0,1.3959-4.83,2.9727,2.9727,0,0,0-.9361-.97A3.0967,3.0967,0,0,0,150.5759,282.1528Zm21.0872,94.859c.2742,0,.4026.04.4525-.0058a23.4771,23.4771,0,0,0,4.5157-5.829,3.19,3.19,0,0,0,.262-.7794c.1051-.4076-.0168-.7859-.4413-.848a16.3928,16.3928,0,0,0-2.9822-.2777c-1.1263.0441-1.3978.4113-1.4957,1.548-.1183,1.3711-.2249,2.7437-.304,4.1175C171.63,375.6279,171.663,376.3226,171.663,377.0118ZM126.019,130.82a2.1763,2.1763,0,0,0,1.6713,2.4686,1.915,1.915,0,0,0,2.3042-1.039,4.53,4.53,0,0,0,.5369-1.5372,1.9868,1.9868,0,0,0-1.5581-2.2708,2.0657,2.0657,0,0,0-2.5588,1.0492A7.197,7.197,0,0,0,126.019,130.82ZM194.16,228.8671a2.115,2.115,0,0,0,1.2114,2.1478,1.9814,1.9814,0,0,0,2.3585-.8511,3.64,3.64,0,0,0,.5255-1.23,1.9686,1.9686,0,0,0-1.6705-2.3774,1.8482,1.8482,0,0,0-2.2612,1.4384A7.632,7.632,0,0,0,194.16,228.8671Zm16.2726,178.9547a5.0361,5.0361,0,0,0-.5274-1.2267,1.9162,1.9162,0,0,0-2.87.233,4.8459,4.8459,0,0,0-.45,1.5661,1.98,1.98,0,0,0,1.5368,2.0139,1.6082,1.6082,0,0,0,1.7746-.9987A10.725,10.725,0,0,0,210.4324,407.8218ZM207.6662,418.48a1.81,1.81,0,0,0-1.6819-1.883,1.3878,1.3878,0,0,0-1.6577,1.0592,7.519,7.519,0,0,0-.5023,1.82,1.5015,1.5015,0,0,0,.9,1.5427,1.4137,1.4137,0,0,0,1.5379-.1335A2.7831,2.7831,0,0,0,207.6662,418.48ZM148.93,528.5164a1.6339,1.6339,0,0,0-1.9209-1.7877,3.3783,3.3783,0,0,0-1.2815.4662,1.4732,1.4732,0,0,0-.5877.8646,2.1387,2.1387,0,0,0,1.7959,2.6348C147.9492,530.8263,148.8937,529.7949,148.93,528.5164Zm8.28-235.18a1.7035,1.7035,0,0,0-1.1139-1.717,1.3562,1.3562,0,0,0-1.6274.6815,8.3667,8.3667,0,0,0-.4974,2.1123,1.2539,1.2539,0,0,0,1.7778,1.0684A2.3672,2.3672,0,0,0,157.21,293.336ZM36.5862,506.103a3.926,3.926,0,0,0,.44-.002,2.8381,2.8381,0,0,0,2.1854-3.046,1.2568,1.2568,0,0,0-1.16-.9925c-.4114.0256-1.0153.1984-1.1693.4948a9.4443,9.4443,0,0,0-.878,2.5523C35.9466,505.4124,36.4055,505.814,36.5862,506.103Zm118.8352,12.4523c-.1423.0615-.4854.0982-.6163.2842-.9528,1.3538-1.2106,2.4092.25,3.1846a1.2429,1.2429,0,0,0,1.8506-.4713,4.2955,4.2955,0,0,0,.2538-1.8409C157.1005,518.978,156.351,518.5194,155.4214,518.5553ZM101.2306,215.03c-.0208-.1821-.0363-.365-.0634-.5461a1.4518,1.4518,0,1,0-2.8987.161,3.2172,3.2172,0,0,0,.1072.8107,1.41,1.41,0,0,0,1.6274,1.12A1.3931,1.3931,0,0,0,101.2306,215.03ZM181.882,361.1216a2.0547,2.0547,0,0,0-2.0274-1.5009,1.4848,1.4848,0,0,0-1.1964,1.83,1.5583,1.5583,0,0,0,1.4349,1.4074A1.8848,1.8848,0,0,0,181.882,361.1216ZM121.04,437.2623a4.4028,4.4028,0,0,0,.2151,1.0846c.1471.3082.4391.7507.6845.7619a1.5509,1.5509,0,0,0,1.1617-.4589,5.1953,5.1953,0,0,0,.7737-1.6967,1.2067,1.2067,0,0,0-.96-1.4141,1.35,1.35,0,0,0-1.592.7026A9.6266,9.6266,0,0,0,121.04,437.2623ZM60.3455,73.583a4.9476,4.9476,0,0,0-.0952-.68.9535.9535,0,0,0-.9637-.7756,1.8426,1.8426,0,0,0-1.6354.7726,1.7108,1.7108,0,0,0-.0884,1.7917,1.5248,1.5248,0,0,0,1.6345.6555C59.8645,75.1725,60.2678,74.589,60.3455,73.583Zm56.3478,50.1941a4.5037,4.5037,0,0,0,.0026.46c.0428.4908.251.9451.7413,1.0347a1.7529,1.7529,0,0,0,1.2627-.1556,2.7064,2.7064,0,0,0,.8253-1.3416,1.4837,1.4837,0,0,0-1.0459-1.712,1.4479,1.4479,0,0,0-1.6625,1.086C116.763,123.322,116.745,123.5069,116.6933,123.7771ZM132.4551,449.95a1.54,1.54,0,0,0,1.5064-1.613,1.4649,1.4649,0,1,0-2.9026-.0886A1.5089,1.5089,0,0,0,132.4551,449.95Zm10.6715-162.0752c-.1565.0755-.4864.13-.6255.3231a7.0632,7.0632,0,0,0-.7927,1.43,1.2187,1.2187,0,0,0,.804,1.5342,1.0276,1.0276,0,0,0,1.4844-.7248,8.3878,8.3878,0,0,0,.327-1.5988A1.0547,1.0547,0,0,0,143.1266,287.8746Zm53.1419,61.6683a1.6337,1.6337,0,0,0-1.9013-1.47.8035.8035,0,0,0-.4522.2764,2.4892,2.4892,0,0,0-.3957,2.0551,1.2149,1.2149,0,0,0,1.5114.8007A2.0308,2.0308,0,0,0,196.2685,349.5429ZM164.9205,529.0662c.0185-.891-.3268-1.5-.9887-1.6556a2.211,2.211,0,0,0-1.2994.1166c-.4585.1978-.5654,1.0628-.2715,1.7462a2.9877,2.9877,0,0,0,.6128.8826,1.0737,1.0737,0,0,0,1.6418-.253A5.7232,5.7232,0,0,0,164.9205,529.0662ZM149.8836,505.49c-.692-.0084-1.1648.7656-1.1325,1.8538.02.6757.4829,1.0886,1.26,1.1243a1.4955,1.4955,0,0,0,1.5415-1.51A1.6839,1.6839,0,0,0,149.8836,505.49Zm10.3972,35.394a2.1428,2.1428,0,0,0,.5043-.1818,1.8118,1.8118,0,0,0,.672-2.1425,1.3877,1.3877,0,0,0-.767-.6708c-.7746-.2629-1.4508.3064-1.6631,1.3123a1.2825,1.2825,0,0,0,.9912,1.6423C160.1049,540.8611,160.1931,540.8708,160.2808,540.8843Zm-35.9554-90.278a1.2843,1.2843,0,1,0-2.5336.41,1.267,1.267,0,0,0,1.1516,1.2735A1.5534,1.5534,0,0,0,124.3254,450.6063Zm59.4655-97.6095a2.8088,2.8088,0,0,0-.7153.1661,1.8672,1.8672,0,0,0-.2681,2.4392,1.0873,1.0873,0,0,0,1.2649.1265,1.4629,1.4629,0,0,0,.64-1.6671C184.5447,353.62,184.0642,353.2981,183.7909,352.9969Zm28.0288-122.37c.7824-.0521,1.2183-.6754,1.2477-1.6267a1.1263,1.1263,0,0,0-1.0772-1.3048,1.3737,1.3737,0,0,0-.9407.4023,1.5129,1.5129,0,0,0,.77,2.5291ZM135.06,139.1211a1.36,1.36,0,0,0-1.3657-1.6414,1.0745,1.0745,0,0,0-1.0538,1.0243,1.3766,1.3766,0,0,0,1.39,1.6292A.9975.9975,0,0,0,135.06,139.1211Zm85.37,193.0851a1.3993,1.3993,0,0,0-1.2862,1.5062,1.192,1.192,0,0,0,1.2675,1.1427c.7085-.0442,1.145-.7,1.0828-1.6264A1.05,1.05,0,0,0,220.43,332.2062ZM70.1771,75.9426c.14-.1064.4675-.2262.5188-.4193a3.4522,3.4522,0,0,0,.0935-1.3144,1.1059,1.1059,0,0,0-1.1413-.9238,1.2253,1.2253,0,0,0-1.021,1.3438A1.5009,1.5009,0,0,0,70.1771,75.9426Zm30.0186,149.3567c-.0351-.2994.0162-.6223-.1178-.8189a1.6813,1.6813,0,0,0-.7814-.6275.85.85,0,0,0-.7225.2489,3.0711,3.0711,0,0,0-.4929.9519,1.1688,1.1688,0,0,0,1.3025,1.4864.6336.6336,0,0,0,.4358-.2552A7.9977,7.9977,0,0,0,100.1957,225.2993ZM185.12,366.256c-.1667.03-.2756.0184-.3422.0661a2.3655,2.3655,0,0,0-.91,1.8358c-.0277.2993.8189.7534,1.0947.6163a1.8179,1.8179,0,0,0,.7319-2.1017C185.5936,366.47,185.287,366.3709,185.12,366.256ZM147.2036,298.89c0-.5.0147-.7721-.0032-1.0422-.0332-.5034-.2679-.8845-.8012-.914a1.0155,1.0155,0,0,0-1.0236.736c-.2784.6755-.1641,1.112.5918,1.5654a1.4542,1.4542,0,0,0,.9927.1231C147.1173,299.3221,147.1895,298.9205,147.2036,298.89ZM140.551,428.05c-.3582.2145-.7288.31-.7726.4865a5.3434,5.3434,0,0,0-.1279,1.5573c.006.112.4183.2927.6336.28a1.858,1.858,0,0,0,.7384-.3269c.4339-.2533.7194-.6532.4545-1.1187A4.3481,4.3481,0,0,0,140.551,428.05ZM135.45,438.23a1.2687,1.2687,0,0,0-1.45,1.1311.8585.8585,0,0,0,.6012,1.04,1.1216,1.1216,0,0,0,1.3588-1.2265C135.95,438.8189,135.591,438.4743,135.45,438.23Zm68.3758-199.9286c.9015-.0934,1.3322-.6888,1.1839-1.3628-.0965-.4386-.6649-.8408-1.0187-.7208a1.2846,1.2846,0,0,0-.7829,1.5554C203.3047,238.0355,203.6906,238.1919,203.8263,238.3011ZM42.3535,515.8436a1.0313,1.0313,0,0,0-.9639-1.09,1.0872,1.0872,0,0,0-.9835,1.0878.9333.9333,0,0,0,.8278.9223A1.0039,1.0039,0,0,0,42.3535,515.8436Zm79.1038-118.4957c.3052-.1183.5109-.1357.6123-.2477a1.3844,1.3844,0,0,0-.1074-1.9245c-.317-.27-1.0631-.2556-1.1921.0907a1.9942,1.9942,0,0,0-.1225,1.2381C120.7711,396.8576,121.2058,397.1016,121.4573,397.3479ZM107.5291,217.1086a.9877.9877,0,0,0-.9765,1.0627,1.2128,1.2128,0,0,0,1.0363,1.0995c.4971.0847.9108-.4169.9039-1.0959A.96.96,0,0,0,107.5291,217.1086ZM173.466,356.8581a12.1391,12.1391,0,0,0,1.3473-1.5965c.31-.5466-.0333-1.0368-.4631-1.4094-.1039-.09-.4027-.1472-.4264-.1078a2.5556,2.5556,0,0,0-.4382.9392A21.67,21.67,0,0,0,173.466,356.8581Zm11.15-127.0952a5.2391,5.2391,0,0,0,.9969.4552.8658.8658,0,0,0,1.0855-.9074,1.3317,1.3317,0,0,0-.5018-.8531c-.12-.0987-.5531.0169-.715.1714A8.7625,8.7625,0,0,0,184.6159,229.7628Zm-67.86,97.13c.11-.0979.4107-.2372.4469-.4271a1.768,1.768,0,0,0-.0839-1.0582,1.1063,1.1063,0,0,0-.7739-.5836,1.0694,1.0694,0,0,0-.7389.6209C115.286,326.2935,115.7279,326.869,116.7555,326.8924Zm5.248-1.6084c-.223.093-.4322.1185-.5408.2366a1.21,1.21,0,0,0-.168,1.508.5043.5043,0,0,0,.4239.203,1.0844,1.0844,0,0,0,.83-1.4393C122.4587,325.5758,122.1771,325.4389,122.0036,325.284Zm92.5976,89.9807a4.7178,4.7178,0,0,0-.7061-.8685c-.328-.2437-.7589.0768-.9716.6454-.1325.3544-.237.7209.1026.991.1982.1577.6011.363.7006.2832A6.463,6.463,0,0,0,214.6012,415.2647ZM163.6238,282.46c.28-.1677.5165-.2316.5351-.3347a4.2169,4.2169,0,0,0,.09-1.2912c-.0206-.1522-.4042-.355-.6248-.3582a.8134.8134,0,0,0-.6685.9751A5.0251,5.0251,0,0,0,163.6238,282.46Zm61.5918,43.9a.78.78,0,0,0-.9714-.629.8146.8146,0,0,0-.6457.9916.649.649,0,0,0,.6761.66A.902.902,0,0,0,225.2156,326.36ZM117.4783,135.2569c-.3487.552-.6969.872-.7413,1.23-.06.4863.37.7754.8245.89.3937.0993.8179-.402.6812-.904A5.61,5.61,0,0,0,117.4783,135.2569ZM49.02,509.6922a.73.73,0,0,0,.5354-1.0083,1.2812,1.2812,0,0,0-.7207-.6253c-.3667-.1075-.7537.45-.705.9093A.7791.7791,0,0,0,49.02,509.6922ZM197.3572,238.2159a2.4284,2.4284,0,0,0-.7628-.4594c-.1238-.0239-.451.3433-.4618.545a2.3358,2.3358,0,0,0,.2542.9877.484.484,0,0,0,.41.23c.13-.0317.2545-.2282.3147-.3795A8.5013,8.5013,0,0,0,197.3572,238.2159ZM109.3741,124.3285c-.0965-.1105-.2217-.3669-.4218-.4573-.3319-.15-.9392.5762-.8371,1.06a.7506.7506,0,0,0,.565.393C109.1521,125.3651,109.4134,124.9938,109.3741,124.3285Zm32.1122,334.2157a9.52,9.52,0,0,0,.6309-1.1723.9292.9292,0,0,0-.5695-.3715.7817.7817,0,0,0-.7491.9236C140.864,458.1269,141.1544,458.2572,141.4863,458.5442ZM63.2379,65.3891c.5505-.0739.9137-.51.7923-.945a.7842.7842,0,0,0-.5116-.46c-.3844-.0739-.7129.3914-.6345.9143C62.9132,65.0916,63.1365,65.2556,63.2379,65.3891Zm.3981,10.3875a2.9148,2.9148,0,0,0,.4322.5513c.0581.0478.3477-.0541.4-.1552.1728-.3363-.0877-.7688-.4155-.7133C63.9207,75.4817,63.8113,75.6373,63.636,75.7766ZM228.11,334.9862l-.29-.6321a1.9119,1.9119,0,0,0-.2971.663c-.0051.1516.2348.3116.3652.4679Zm-60.1745-64.7869c-.2631.311-.4611.46-.5237.6525-.0353.1084.18.4247.2354.4136.2016-.0407.4894-.1417.5434-.2923C168.2468,270.8156,168.0714,270.5749,167.9352,270.1993Z"/><path d="M119.5015,261.5019a28.1293,28.1293,0,0,1-.4865,2.8835,5.3963,5.3963,0,0,1-.9351,1.9662,2.8306,2.8306,0,0,1-4.5447-.0189,5.5581,5.5581,0,0,1-.6881-1.19,1.523,1.523,0,0,0-1.0246-.8119c-2.2875-.7848-2.75-1.5155-2.5306-3.8321.1018-1.074.1309-1.149-.7068-1.4746a5.1866,5.1866,0,0,1-3.5226-5.3732,3.06,3.06,0,0,0-.4166-1.8425c-2.0107-3.0329-.3061-6.49,2.9586-7.8622a9.7711,9.7711,0,0,1,1.06-.3111,1.0428,1.0428,0,0,0,.8351-.9666,3.4343,3.4343,0,0,1,.0567-.55c.5516-2.1489,2.2524-2.9446,4.2066-1.9406a13.243,13.243,0,0,1,1.4244.9984c.4065-.6531.7186-1.1961,1.07-1.7124,1.8859-2.77,4.7033-3.2394,7.3749-1.2544.8118.6033,1.67,1.1441,2.48,1.75a4.7529,4.7529,0,0,1,.0049,7.5982c-.7458.5328-1.5594.9706-2.3689,1.4678.0473.6583.6527.7085,1.1072.91a3.58,3.58,0,0,1,2.4186,4.1609,4.2624,4.2624,0,0,0,.31,2.1526c.7126,2.056-.159,3.8128-1.2348,5.4457a2.5725,2.5725,0,0,1-3.7084.444,5.6167,5.6167,0,0,0-2.8437-.8491C119.7313,261.2843,119.6574,261.3861,119.5015,261.5019Zm-4.9275-9.4962a1.34,1.34,0,0,0,1.3165-1.6779c-.1837-.435-.5225-.8237-1.0262-.7219a1.2028,1.2028,0,0,0-.7982.6236,2.507,2.507,0,0,0-.0014,1.2928C114.11,251.73,114.4306,251.8778,114.574,252.0057Z"/><path d="M108.1257,563.3372c-.7035.516-1.2283.8689-1.7169,1.2663a7.0245,7.0245,0,0,1-3.2887,1.3488,2.897,2.897,0,0,1-3.3941-3.7173,3.41,3.41,0,0,1,.2846-.7774,2.11,2.11,0,0,0-.298-2.7465,3.4984,3.4984,0,0,1-.7856-2.85,2.4069,2.4069,0,0,1,2.5178-2.381c.55-.0283,1.1077.0369,1.651-.03a.8409.8409,0,0,0,.5363-.4754c.0964-.2386-.0051-.5489.0448-.8159a2.5389,2.5389,0,0,1,2.1314-2.2346,8.5494,8.5494,0,0,0,1.5934-.4418.7675.7675,0,0,0,.3116-.6447,21.8461,21.8461,0,0,1-.3781-2.1579,2.8263,2.8263,0,0,1,2.7031-3.19c.9355-.1215,1.5913-.3539,1.8367-1.3131a1.07,1.07,0,0,1,.12-.2483c1.22-2.1592,2.6887-2.3089,4.3137-.4212a4.8236,4.8236,0,0,1,.56.9438,1.5743,1.5743,0,0,0,1.3.8574,7.5634,7.5634,0,0,1,2.0846.6329,1.5788,1.5788,0,0,1,.8326,2.0972,5.936,5.936,0,0,1-1.1973,1.7936,16.5739,16.5739,0,0,1-1.7313,1.3656,5.2431,5.2431,0,0,0-1.8366,3.3026c-.0917.514.5776,1.1273,1.0768.9153a28.3585,28.3585,0,0,0,2.707-1.336c.5594-.3117,1.0358-.77,1.5884-1.097a2.9613,2.9613,0,0,1,2.6635-.1488,1.7816,1.7816,0,0,1,1.3388,1.8813,11.0924,11.0924,0,0,0,.4282,4.6112,4.4984,4.4984,0,0,1-.09,2.1785,3.6059,3.6059,0,0,1-4.0917,2.91,10.0687,10.0687,0,0,1-3.9662-1.0967c-.3134-.1623-.63-.3178-.93-.4687-.44.4155-.1236.7211.0893.98.4086.4964.9077.921,1.296,1.431a4.3247,4.3247,0,0,1,.8329,4.15,2.0332,2.0332,0,0,1-2.3344,1.4857,2.733,2.733,0,0,1-.8041-.1858,1.7245,1.7245,0,0,0-1.8013.3373c-.3724.2695-.7011.6055-1.0912.8431a3.0437,3.0437,0,0,1-4.4463-1.28,6.2747,6.2747,0,0,1-.6693-3.4713C108.171,564.6308,108.1257,564.1121,108.1257,563.3372Z"/><path d="M157.3771,214.6115c-.5639.1187-.9869.2166-1.4133.2959a3.0032,3.0032,0,0,1-3.6411-1.8228,5.3692,5.3692,0,0,0-2.72-2.8747,5.1523,5.1523,0,0,1-1.7407-1.7231,3.2777,3.2777,0,0,1,2.0837-5.0038,15.6584,15.6584,0,0,1,2.04-.2193c0-.5866.0017-1.1195,0-1.6524a3.2222,3.2222,0,0,1,4.7326-2.5525,6.6024,6.6024,0,0,1,1.5259,1.1758c.51.48.95,1.0332,1.6989,1.8622-.1227-.932-.1886-1.4641-.2637-1.9948-.103-.7286-.2779-1.4536-.3075-2.1847-.08-1.9779.3946-2.6277,2.3552-3.1052a3.46,3.46,0,0,0,2.1277-1.1211c.86-1.0736,2.1223-1.0034,3.3225-.8242a2.0763,2.0763,0,0,1,1.5809,1.4164,8.86,8.86,0,0,1,.4091,1.6045,2.9457,2.9457,0,0,0,.96,1.6177,2.2049,2.2049,0,0,1,.3184,3.3705c-.78,1.0259-1.6419,1.9894-2.4611,2.9859a11.29,11.29,0,0,0-.843,1.0957,1.8542,1.8542,0,0,0,1.247,2.9614,15.5579,15.5579,0,0,1,1.6111.37,6.7187,6.7187,0,0,1,1.6962.8963,2.7763,2.7763,0,0,1,.7552,3.711,8.8733,8.8733,0,0,0-1.35,3.5784,2.5684,2.5684,0,0,1-3.86,1.7452c-.6975-.35-1.3575-1.3337-2.1577-.783-.486.3345-.5163,1.3025-.8006,1.9648a3.5316,3.5316,0,0,1-3.3015,2.1237,2.81,2.81,0,0,1-2.6475-1.6972,8.1185,8.1185,0,0,1-.955-3.99C157.3754,215.49,157.3771,215.1415,157.3771,214.6115Z"/><path d="M164.6744,467.8646c-.0664-1.2987-.1746-2.3864-.1621-3.4727.0115-1.0088.1431-2.0169.2393-3.0236a7.5885,7.5885,0,0,1,.2062-1.3573,1.7848,1.7848,0,0,1,1.8969-1.282,5.99,5.99,0,0,1,1.33.3363,1.4614,1.4614,0,0,1,1.067,1.4538,17.5349,17.5349,0,0,1-.1962,2.1839c-.0725.5291-.219,1.048-.3194,1.5109.5006.5121.7188.0356.9849-.1019.3247-.1678.6037-.4249.93-.59a4.7787,4.7787,0,0,1,4.2414-.4019,2.9287,2.9287,0,0,1,1.1505.7253c1.2367,1.5883,2.4265,3.2143,2.5924,5.3349a2.2161,2.2161,0,0,1-1.124,2.327c-.4.2228-.8489.36-1.2421.5929a.6457.6457,0,0,0-.2294.9383c.45.9.9493,1.781,1.3171,2.7137a2.7765,2.7765,0,0,1-1.0019,3.4207,6.1222,6.1222,0,0,0-2.525,4.3813,2.0158,2.0158,0,0,1-2.7893,1.4132,6.5723,6.5723,0,0,1-1.92-1.5164,10.9905,10.9905,0,0,1-2.613-5.1032,6.1415,6.1415,0,0,0-.2289-.7911.4786.4786,0,0,0-.8559-.1569c-.8322.9806-1.6323,1.9888-2.4732,2.9617a2.9229,2.9229,0,0,1-2.1186,1.14,3.8393,3.8393,0,0,1-4.08-4.8594,2.5439,2.5439,0,0,1,.2993-.7681,3.3815,3.3815,0,0,0,.3712-3.1423,3.7834,3.7834,0,0,1-.0375-1.8991,4.3793,4.3793,0,0,1,5.3871-3.4589C163.3677,467.4953,163.9531,467.6767,164.6744,467.8646Z"/><path d="M102.3124,418.7846a21.4781,21.4781,0,0,1,1.97-.9064,23.274,23.274,0,0,1,3.4227-1.0185,2.3614,2.3614,0,0,1,2.59,1.1924,2.2707,2.2707,0,0,1-.1949,2.5928c-.1554.2265-.3552.422-.5223.6411-.1581.2076-.3.4276-.64.9173a4.2588,4.2588,0,0,1,.9221.5869,2.604,2.604,0,0,1,.524,2.8371c-.9568,2.4757-1.2623,3.203-4.1464,3.1143a20.6908,20.6908,0,0,1-2.7372-.2744c-1.564-.2591-1.6032-.2054-1.3859,1.2349a27.5781,27.5781,0,0,1,.2174,3.2852,1.8071,1.8071,0,0,1-.987,1.8367,2.1863,2.1863,0,0,1-2.5731-.3564,8.111,8.111,0,0,1-1.4183-1.9978,1.5822,1.5822,0,0,0-1.2745-.8666c-2.3463-.4444-3.2254-1.299-3.4769-3.5633a7.3246,7.3246,0,0,1,1.702-6.1867,2.1121,2.1121,0,0,0,.6184-2.46,5.7685,5.7685,0,0,1-.029-3.5318,6.1964,6.1964,0,0,1,2.6987-3.707,4.0561,4.0561,0,0,1,3.9668-.26,3.0348,3.0348,0,0,1,1.6371,3.2288c-.0942.7233-.3783,1.42-.5439,2.1366-.1206.5227-.1876,1.0579-.2784,1.5875l-.1526.1254Z"/><path d="M58.5914,469.7492a1.1727,1.1727,0,0,1-1.2184-.453c-2.9588-3.0443-6.3058-5.6624-9.3885-8.5658-2.0094-1.8926-3.84-3.9841-5.6615-6.065a33.628,33.628,0,0,1-6.0961-9.8282,52.83,52.83,0,0,1-2.0358-7.441c-.3513-1.52-.3188-3.133-.7114-4.6383a11.2752,11.2752,0,0,1,.23-5.4643,30.5327,30.5327,0,0,1,1.595-4.41,1.2774,1.2774,0,0,1,1.8449-.5961,3.4568,3.4568,0,0,1,1.31,1.3415,14.19,14.19,0,0,1,.8056,2.912,113.6728,113.6728,0,0,0,3.2569,14.27,87.7473,87.7473,0,0,0,8.828,19.3135,69.7267,69.7267,0,0,0,5.7521,7.4264c.5721.6791,1.4383,1.1927,1.4412,2.2455Z"/><path d="M49.25,58.0688a6.814,6.814,0,0,1-.1658-1.4363,33.0143,33.0143,0,0,1,.8255-5.7259c1.1315-3.6959,2.4635-7.3387,3.8852-10.9352,1.2242-3.0965,3.2733-5.7571,4.9858-8.5934a26.8811,26.8811,0,0,1,4.46-5.6142,9.4474,9.4474,0,0,0,1.46-1.66c1.3581-2.1077,3.4247-3.3057,5.5387-4.4536a3.759,3.759,0,0,1,1.0254-.3979,1.8413,1.8413,0,0,1,2.3141,1.994,6.7383,6.7383,0,0,1-.5637,2.1093,31.483,31.483,0,0,1-1.9238,3.67c-1.9163,3.043-3.9037,6.0412-5.87,9.0529a6.0238,6.0238,0,0,1-.8233,1.1083A82.1817,82.1817,0,0,0,58.2607,44.3a65.48,65.48,0,0,0-7.58,11.5371A6.1292,6.1292,0,0,1,49.25,58.0688Z"/><path d="M81.6141,198.8762c-.1168.21-.1624.427-.2708.465-1.2135.4254-2.4691.7466-3.6486,1.2482a35.739,35.739,0,0,0-4.1939,2.0731,60.34,60.34,0,0,1-11.6516,5.6247c-3.3322,1.103-6.3,3.0076-9.3779,4.655a32.33,32.33,0,0,0-6.3444,4.3887,10.4825,10.4825,0,0,1-1.5412,1.1586,1.99,1.99,0,0,1-2.7062-.5086,1.4625,1.4625,0,0,1-.2919-1.5446,18.8666,18.8666,0,0,1,6.42-8.4633,41.1264,41.1264,0,0,1,16.5147-7.32c1.63-.2876,3.2518-.6256,4.8708-.9708a59.7321,59.7321,0,0,1,11.5229-1.0746A2.1075,2.1075,0,0,1,81.6141,198.8762Z"/><path d="M104.9742,338.2014a15.3061,15.3061,0,0,1-3.9874,1.9672c-4.1,1.3574-8.1945,2.7375-12.33,3.9776a20.566,20.566,0,0,1-9.2459.9c-3.5366-.5652-7.1133-.9085-10.6244-1.5948a19.3637,19.3637,0,0,1-7.7733-3.4038,4.23,4.23,0,0,1-.4321-.3427c-.5332-.5105-1.1288-1.0062-.8837-1.8733a1.8786,1.8786,0,0,1,1.6205-1.3381,14.2053,14.2053,0,0,1,5.4773.0717,46.1547,46.1547,0,0,0,9.4994,1.6178,7.2629,7.2629,0,0,0,1.6468.0309,24.3612,24.3612,0,0,1,5.7843-.0941,70.3007,70.3007,0,0,1,7.1509.5644c3.8918.566,7.7062.0068,11.5375-.4752A4.2244,4.2244,0,0,1,104.9742,338.2014Z"/><path d="M139.3087,187.798c1.9076-2.9,3.7918-5.4145,5.3012-8.1368a109.4241,109.4241,0,0,0,6.6666-14.5252,11.596,11.596,0,0,0,.5514-2.1294,43.8374,43.8374,0,0,0,.949-8.4808,13.5783,13.5783,0,0,1,.09-1.9288,2.8109,2.8109,0,0,1,1.2356-2.0626c2.0172-1.3981,3.5743-1.05,4.7664,1.1231a6.5641,6.5641,0,0,1,.5532,1.5474,21.9433,21.9433,0,0,1,.4727,8.492,15.8369,15.8369,0,0,1-2.8294,7.39,70.0449,70.0449,0,0,1-6.4506,7.9034c-2.66,2.6757-5.2668,5.4038-7.9078,8.0983A13.9458,13.9458,0,0,1,139.3087,187.798Z"/><path d="M109.4313,310.5277a42.4624,42.4624,0,0,1-5.5021-7.68c-.6448-1.1143-1.273-2.24-1.8577-3.3867A71.8576,71.8576,0,0,0,93.14,286.22c-1.1156-1.3423-2.1908-2.7269-3.1709-4.1693a6.8584,6.8584,0,0,1-.8974-2.2762,1.41,1.41,0,0,1,1.3338-1.73,6.2167,6.2167,0,0,1,4.2211.9342,22.8427,22.8427,0,0,1,6.3073,5.7111c4.18,6.0435,7.3307,12.5322,8.357,19.9038a15.8191,15.8191,0,0,1,.1345,1.9228C109.4457,307.7881,109.4313,309.0608,109.4313,310.5277Z"/><path d="M181.3781,173.072a3.3307,3.3307,0,0,1-.41.8059,12.0526,12.0526,0,0,1-5.4835,4.0292q-8.2678,2.7073-16.4926,5.5443c-2.6945.9341-5.3415,2.0085-7.9923,3.0639a19.2547,19.2547,0,0,0-5.88,3.5585c-.1078.0975-.3069.0939-.4635.1374.0124-.2378-.0732-.57.0516-.6994a70.2916,70.2916,0,0,1,11.1862-9.8125c3.2237-2.1687,6.7026-3.841,9.9808-5.88a20.9474,20.9474,0,0,1,5.1464-1.9518c1.6731-.5085,3.3568-.9865,5.05-1.4227a13.9482,13.9482,0,0,1,2.4411-.4019C180.3389,169.9087,181.43,171.0163,181.3781,173.072Z"/><path d="M96.3945,111.1737a10.1072,10.1072,0,0,1,.5472-5.7446A57.257,57.257,0,0,0,98.7,97.9284a50.3246,50.3246,0,0,1,4.7745-14.9356,23.6254,23.6254,0,0,1,6.7006-8.3138c.8057-.6073,1.5-1.3614,2.2952-1.9841a7.8141,7.8141,0,0,1,1.8487-1.15,1.33,1.33,0,0,1,1.9117,1.5009,4.3533,4.3533,0,0,1-.2656,1.0661,15.6072,15.6072,0,0,1-1.0493,2.25c-2.3445,3.7553-4.1044,7.8174-6.21,11.6955-1.4469,2.6655-3.06,5.2522-4.7552,7.7683a40.9631,40.9631,0,0,0-4.727,8.7035C98.4344,106.6759,97.4374,108.7464,96.3945,111.1737Z"/><path d="M43.1465,43.4919c0-2.4539.059-4.3833-.02-6.307-.0562-1.37-.3254-2.73-.451-4.0988-.2514-2.74-.7737-5.4677-.4287-8.24a5.5877,5.5877,0,0,0,.0516-.826A26.68,26.68,0,0,1,44.0971,14.04a40.7377,40.7377,0,0,0,1.16-4.8145c.2725-1.1621.5114-2.3339.8356-3.4816a1.9083,1.9083,0,0,1,1.7622-1.52,2.2507,2.2507,0,0,1,2.1226,1.0542A9.518,9.518,0,0,1,51.44,9.9725a25.6546,25.6546,0,0,1-1.593,11.646,102.2738,102.2738,0,0,0-5.0052,16.0287c-.3471,1.4237-.4959,2.8949-.8023,4.33A7.2427,7.2427,0,0,1,43.1465,43.4919Z"/><path d="M175.1291,512.6836a9.1807,9.1807,0,0,1,.8-.7381c.8927-.65,1.7767-1.3175,2.7108-1.9036a33.3925,33.3925,0,0,0,9.5013-9.4975,114.0556,114.0556,0,0,0,6.7235-10.4348,45.9129,45.9129,0,0,1,3.2221-4.8118,25.1546,25.1546,0,0,1,2.0364-2.2425,1.5894,1.5894,0,0,1,1.724-.5658,1.6459,1.6459,0,0,1,1.1519,1.7,49.3241,49.3241,0,0,1-1.0658,8.4727,8.3939,8.3939,0,0,1-1.0437,2.2426,22.8387,22.8387,0,0,1-2.27,3.1175,44.768,44.768,0,0,1-12.9733,10.1308q-4.3139,2.1639-8.6555,4.2724C176.4438,512.6906,175.8881,513.1809,175.1291,512.6836Z"/><path d="M79.0773,485.8308c-.35-2.4331.34-4.76.8071-7.0916a97.3394,97.3394,0,0,1,3.7547-12.1147,13.3537,13.3537,0,0,1,1.1833-2.4885c1.1282-1.8992,2.3058-3.77,3.4871-5.6368A10.7832,10.7832,0,0,1,93.8,454.073a7.9321,7.9321,0,0,1,1.5888-.4424,2.5454,2.5454,0,0,1,3.02,1.8165,5.363,5.363,0,0,1-.9213,5.7018,20.893,20.893,0,0,1-3.6787,3.31,15.7615,15.7615,0,0,0-5.3833,5.4337,3.8068,3.8068,0,0,1-.6455.8936c-2.8039,2.8122-4.29,6.3871-5.807,9.95-.612,1.4369-1.2778,2.8513-1.9414,4.2655a1.08,1.08,0,0,1-1.02.7762Z"/><path d="M39.2744,92.9057c-2.0347.81-4.0477,1.6813-6.1091,2.4164a16.8338,16.8338,0,0,1-9.5137.5837c-3.7818-.8511-7.5042-1.8829-10.76-4.0915a38.5555,38.5555,0,0,1-6.9365-6.6809,3.1235,3.1235,0,0,1-.5362-2.88,2.19,2.19,0,0,1,2.7484-1.6368A8.9779,8.9779,0,0,1,10.41,81.6535a43.52,43.52,0,0,1,4.0256,2.9026,36.1281,36.1281,0,0,0,9.1053,5.667,27.7956,27.7956,0,0,0,13.1551,2.4528c.8139-.0665,1.6379-.0095,2.4572-.0095Z"/><path d="M60.295,188.8862c-1.6447.1211-3.2978.1741-4.9324.3767-3.9973.4954-7.559,2.2194-11.06,4.0785-2.6808,1.4235-5.3245,2.9189-8.03,4.2924a20.1731,20.1731,0,0,1-3.3627,1.2117,2.4809,2.4809,0,0,1-2.9382-3.3277,1.8722,1.8722,0,0,1,.2643-.4834c2.7847-3.234,5.6991-6.341,10.1017-7.267a41.89,41.89,0,0,1,6.8223-.9076A32.9836,32.9836,0,0,1,60.295,188.8862Z"/><path d="M90.1073,103.4511c-1.1493-2.2369-1.2018-4.6567-1.5765-7a61.4981,61.4981,0,0,1-.4852-12.3951,59.8623,59.8623,0,0,1,.9818-7.9273,12.8565,12.8565,0,0,1,1.4007-3.2631,3.496,3.496,0,0,1,.9137-1.0227,1.8885,1.8885,0,0,1,3.1328.7892,11.6253,11.6253,0,0,1,.44,5.9906c-.1256.8175-.3438,1.62-.4888,2.4354-.4827,2.7135-.9861,5.4241-1.4139,8.1464-.314,1.9979-.5186,4.0129-.778,6.02A52.2279,52.2279,0,0,1,90.1073,103.4511Z"/><path d="M206.4492,282.0162c-.0053-.0921-.0527-.2184-.01-.2712a21.5817,21.5817,0,0,1,5.1938-4.8745c3.3625-2.0915,6.8026-4.0582,10.2056-6.085a8.0494,8.0494,0,0,1,3.3794-1.0935,40.537,40.537,0,0,0,4.082-.7185,24.7809,24.7809,0,0,1,6.0552-.3768,5.941,5.941,0,0,1,2.5966.8332,2.3325,2.3325,0,0,1,1.2285,2.783,1.1179,1.1179,0,0,1-.8012,1.0031,28.9293,28.9293,0,0,1-3.1738.9332,62.7711,62.7711,0,0,1-7.1106,1.0078,35.8622,35.8622,0,0,0-13.5623,3.4153c-2.3255,1.112-4.6842,2.1548-7.0375,3.2074a5.3421,5.3421,0,0,1-1.0449.2378Z"/><path d="M58.0182,458.1172c-.1469-.0957-.366-.1572-.43-.2922-1.14-2.4074-2.2939-4.809-3.3759-7.2427a18.6664,18.6664,0,0,1-1.1212-6.209,41.6365,41.6365,0,0,1,.447-10.1745,20.9722,20.9722,0,0,1,1.9261-5.7276,5.828,5.828,0,0,1,4.1723-3.3066A2.2074,2.2074,0,0,1,62.379,428.07c-.4408,1.3-1.0647,2.54-1.6331,3.795a27.3834,27.3834,0,0,1-1.44,2.9715c-1.4489,2.3817-1.653,5.0372-1.7722,7.7-.1233,2.755-.1794,5.516-.1541,8.2734.0125,1.368.2994,2.7315.4139,4.101.0909,1.0879.1084,2.182.1585,3.2733Z"/><path d="M78.5193,140.0642c-2.4119-2.0977-4.5365-3.993-6.7125-5.8274a52.6091,52.6091,0,0,0-12.3287-7.2663c-2.0067-.9177-4.029-1.8064-6.0761-2.6289a16.7213,16.7213,0,0,1-4.7759-3.2265,1.4715,1.4715,0,0,1,.2853-2.5284,3.1647,3.1647,0,0,1,1.5462-.4605,16.8214,16.8214,0,0,1,8.7384,2.1363,42.0536,42.0536,0,0,1,5.9386,4.4852A84.066,84.066,0,0,1,75.323,134.8462,20.9577,20.9577,0,0,1,78.5193,140.0642Z"/><path d="M235.9981,199.8128c1.8609.2443,3.5984.4067,5.3067.7257a7.0683,7.0683,0,0,1,2.2766.9352,3.5181,3.5181,0,0,1,1.7541,2.961,1.4838,1.4838,0,0,1-1.4262,1.69,13.151,13.151,0,0,1-3.2918-.1456,17.3562,17.3562,0,0,0-7.3878-.1107,9.081,9.081,0,0,1-1.6491.1271,12.4274,12.4274,0,0,0-4.0413.7754c-1.3755.5064-2.7852.9214-4.1856,1.3581a32.9528,32.9528,0,0,0-7.4121,3.62c-.1117.0688-.307.0019-.4633-.0018.0128-.1637-.04-.393.048-.4816a51.3633,51.3633,0,0,1,7.0855-6.5352,36.1669,36.1669,0,0,1,8.8694-4.395A20.7889,20.7889,0,0,1,235.9981,199.8128Z"/><path d="M76.8479,181.18a22.8764,22.8764,0,0,1-4.3713-5.6314,42.7754,42.7754,0,0,1-3.7666-8.2961,37.9715,37.9715,0,0,1-1.1941-6.5162c-.2391-1.5475-.3166-3.12-.4616-4.682a8.8159,8.8159,0,0,1,.9238-4.5449c.1345-.292.567-.6793.8-.6414a2.0731,2.0731,0,0,1,1.0778.6919,3.2275,3.2275,0,0,1,.42,1.0078c.857,2.2374,1.7428,4.4644,2.5625,6.7155a49.6453,49.6453,0,0,1,2.292,10.798c.2685,2.1018.4008,4.2212.676,6.322.1429,1.0913.4723,2.1575.6994,3.2388.1116.5317.1823,1.0719.2715,1.6083Z"/><path d="M183.6488,512.9358a31.0981,31.0981,0,0,1,7.593-1.4792,92.3537,92.3537,0,0,1,10.1933-.6155,31.9018,31.9018,0,0,1,9.7939,1.4548,6.705,6.705,0,0,1,3.6181,2.8232,3.479,3.479,0,0,1,.5474,1.5311c.1681,1.7223-.7616,2.6591-2.4553,2.3774a39.0577,39.0577,0,0,1-5.1111-1.1592c-2.9872-.9224-5.9128-2.043-8.8974-2.9742-3.7784-1.1789-7.5732-2.3239-11.6244-1.9714C186.3055,513.01,185.2909,512.9358,183.6488,512.9358Z"/><path d="M207.5648,205.8866c.3439-1.3643.5105-2.1423.7374-2.9023a24.0354,24.0354,0,0,0,1.0146-5.6943c.0458-.9127.3058-1.8136.3683-2.7267.1317-1.9239.2844-3.8378.241-5.7832-.0654-2.942.1742-5.8949.3846-8.8361a7.0726,7.0726,0,0,1,.7442-2.3511,1.6316,1.6316,0,0,1,2.5727-.4972,5.6623,5.6623,0,0,1,1.6577,2.8184,17.2637,17.2637,0,0,1,.21,9.014,40.4938,40.4938,0,0,1-2.198,6.5309c-1.36,3.0161-2.9867,5.912-4.5224,8.8474A15.1717,15.1717,0,0,1,207.5648,205.8866Z"/><path d="M84.8708,320.7784a14.729,14.729,0,0,1-1.5365-.1769c-1.9552-.502-3.8923-1.08-5.8592-1.53-4.6606-1.0647-9.2736-2.2969-13.8132-3.7943a14.5946,14.5946,0,0,1-2.5235-1.0949,4.894,4.894,0,0,1-1.4428-1.2369A2.0209,2.0209,0,0,1,60.754,309.65a3.5691,3.5691,0,0,1,1.6229-.1193,20.5958,20.5958,0,0,1,4.0044.9758c3.825,1.57,7.6227,3.2164,11.3681,4.9673a21.9785,21.9785,0,0,1,3.6457,2.4536C82.4671,318.7252,83.4675,319.62,84.8708,320.7784Z"/><path d="M31.4039,46.08a27.2643,27.2643,0,0,0-7.6493-3.0341,14.9662,14.9662,0,0,0-7.37.1617c-.7044.2118-1.4244.3749-2.1428.536a11.127,11.127,0,0,0-4.8044,2.5894A14.8466,14.8466,0,0,1,7.03,48.146a2.2711,2.2711,0,0,1-1.5723-.0831c-.44-.1444-.5713-1.1607-.297-1.7494a7.0614,7.0614,0,0,1,.9059-1.7012,57.1748,57.1748,0,0,1,3.9488-4.2261c2.3488-2.1958,5.3417-2.3853,8.305-2.1364a15.7093,15.7093,0,0,1,8.4152,3.1651c1.0215.7862,2.1167,1.4862,3.0759,2.3406.71.6324,1.6971,1.1748,1.5281,2.4012Z"/><path d="M66.6037,182.5326c-.1362.0772-.24.18-.29.1581-2.5167-1.104-5.0709-2.1336-7.5308-3.3531-3.2089-1.5908-5.5144-4.2253-7.6061-7.0537a3.7413,3.7413,0,0,1-.6628-1.1992c-.4416-1.6817-.8351-3.3768-1.205-5.0759a2.5033,2.5033,0,0,1,.0622-1.09c.2721-1.1022,1.1815-1.5714,2.0213-.802a8.248,8.248,0,0,1,1.5236,1.5742,78.8747,78.8747,0,0,0,6.3016,7.99C61.6459,176.6544,64.1342,179.5785,66.6037,182.5326Z"/><path d="M183.95,420.3234a1.9193,1.9193,0,0,1-.0314-1.8715,9.8371,9.8371,0,0,0-.2856-7.0276c-1.15-2.81-2.4883-5.5438-3.6512-8.3495a24.3113,24.3113,0,0,1-1.3146-4.1943c-.2827-1.32.4529-2.0787,1.8109-2.2005a3.3977,3.3977,0,0,1,2.363.5882,7.699,7.699,0,0,1,2.8892,3.6037,21.0616,21.0616,0,0,1,1.2054,10.8688c-.3678,2.25-.3027,4.621-1.4879,6.6966a16.245,16.245,0,0,1-.8475,1.4149A2.5465,2.5465,0,0,1,183.95,420.3234Z"/><path d="M92.37,315.7862c-.2368-.1009-.5437-.1387-.7-.3121-3.7824-4.191-7.2794-8.5764-9.4518-13.8694-.7338-1.7879-1.5525-3.5407-2.3142-5.3174a2.1155,2.1155,0,0,1,.1264-1.8693,2.3247,2.3247,0,0,1,2.2146-1.3748,4.9882,4.9882,0,0,1,4.5248,3.8111c.54,2.4277,1.0884,4.8548,1.5651,7.2953a36.6341,36.6341,0,0,0,3.2222,9.38c.3548.7111,1.0205,1.3588.7808,2.2884Z"/><path d="M82.7757,500.9123a7.4193,7.4193,0,0,1,.3817-5.3888,29.7571,29.7571,0,0,1,5.0989-8.1317,17.1367,17.1367,0,0,1,4.7007-3.7839,7.1388,7.1388,0,0,1,6.6167-.5049,3.9927,3.9927,0,0,1,2.5,3.0707,1.1083,1.1083,0,0,1-.7863,1.2754c-1.988.3441-3.9824.6522-5.9767.9585-.7261.1116-1.4659.1417-2.1866.2775a6.0759,6.0759,0,0,0-3.1482,1.5579c-2.0132,1.8846-4.16,3.63-5.4927,6.12a19.0052,19.0052,0,0,0-1.15,2.1833A17.73,17.73,0,0,0,82.7757,500.9123Z"/><path d="M171.1837,447.0254a4.145,4.145,0,0,1,3.2937-1.5072c3.2111-.1312,6.4149-.5717,9.6486-.1679a11.71,11.71,0,0,1,4.1855,1.3188,12.1185,12.1185,0,0,1,6.1715,6.7641,2.3547,2.3547,0,0,1,.2251,1.06c-.0527.2953-.3622.7395-.5992.7671a3.35,3.35,0,0,1-1.5846-.2009,7.8918,7.8918,0,0,1-1.3617-.9368,30.098,30.098,0,0,0-6.9512-3.9555c-3.3742-1.1682-6.7271-2.5156-10.3724-2.7088A25.9122,25.9122,0,0,1,171.1837,447.0254Z"/><path d="M45.6172,97.5172c-.56.4642-1.0981.958-1.6838,1.3871-1.7052,1.2491-3.388,2.5357-5.1562,3.69a26.2206,26.2206,0,0,1-8.0132,3.58,14.9179,14.9179,0,0,1-4.6485.1856,6.0529,6.0529,0,0,1-3.7421-2.16,1.6874,1.6874,0,0,1-.0941-2.0495,2.4661,2.4661,0,0,1,1.7934-1.159,17.4313,17.4313,0,0,1,1.9242-.11c2.5722-.0662,5.1466-.08,7.7159-.2023a14.5886,14.5886,0,0,0,3.256-.5217,14.97,14.97,0,0,0,3.1037-.8317,54.2723,54.2723,0,0,1,5.3138-2.1308Z"/><path d="M31.1361,32.9382a55.4017,55.4017,0,0,0-8.8827-8.3175A55.4541,55.4541,0,0,1,17.4,20.1355a10.4546,10.4546,0,0,1-2.8434-6.1482,1.1546,1.1546,0,0,1,.291-.9493c.2407-.1551.686-.0216,1.0349.0327a1.4162,1.4162,0,0,1,.4911.244,25.596,25.596,0,0,1,7.2836,6.2326A66.3649,66.3649,0,0,1,31.1361,32.9382Z"/><path d="M120.5936,298.8965c-.021.4072-.0132.964-.0837,1.5108q-.5828,4.5258-1.207,9.046c-.0156.1136-.2149.31-.2577.2924-.1606-.0652-.3741-.1774-.4177-.3184a4.3136,4.3136,0,0,1-.1843-1.0854,38.7377,38.7377,0,0,0-1.7695-10.0425,11.4037,11.4037,0,0,1-.383-4.646,1.1784,1.1784,0,0,1,.6584-1.1214,1.3619,1.3619,0,0,1,1.4955.4086,6.7146,6.7146,0,0,1,1.9587,3.8814C120.5216,297.4536,120.5252,298.1066,120.5936,298.8965Z"/><path d="M94.2844,511.67a4.3351,4.3351,0,0,1-1.6934,3.3339,3.763,3.763,0,0,1-5.7-2.5221,5.6935,5.6935,0,0,1,.2065-2.17,2.5878,2.5878,0,0,1,2.92-1.9929,11.0259,11.0259,0,0,1,2.6419.709A2.6169,2.6169,0,0,1,94.2844,511.67Z"/><path d="M204.8381,445.7088a11.4217,11.4217,0,0,1-.73,2.0088,2.8152,2.8152,0,0,1-4.8087.3225,5.7764,5.7764,0,0,1-1.2793-3.5509,2.4289,2.4289,0,0,1,1.7025-2.5394,6.3378,6.3378,0,0,1,1.8569-.3883,2.51,2.51,0,0,1,2.5695,1.6889A23.7049,23.7049,0,0,1,204.8381,445.7088Z"/><path d="M29.5935,3.4845a9.744,9.744,0,0,1,.2051-1.1864A2.8309,2.8309,0,0,1,32.5387,0,3.118,3.118,0,0,1,35.65,2.2667a4.84,4.84,0,0,1-.7764,4.2013,1.788,1.788,0,0,1-2.2132.6174c-.5108-.2069-.99-.4895-1.4877-.7308A2.8363,2.8363,0,0,1,29.5935,3.4845Z"/><path d="M179.2164,422.5649a25.0321,25.0321,0,0,0-7.1315-5.7675,2.8056,2.8056,0,0,1-.6191-.5269.9309.9309,0,0,1-.0383-1.2435,2.9662,2.9662,0,0,1,4.14-.7015,7.6692,7.6692,0,0,1,2.6366,3.0965A8.3547,8.3547,0,0,1,179.2164,422.5649Z"/><path d="M98.3509,365.5522a4.433,4.433,0,0,1,3.0865,1.8061,2.5419,2.5419,0,0,1-.8272,3.5832c-1.732,1.1277-3.5487.7185-4.3719-.9848a3.4442,3.4442,0,0,1,.75-3.77A5.5307,5.5307,0,0,1,98.3509,365.5522Z"/><path d="M123.9479,279.0816a3.18,3.18,0,0,1-2.912-2.5062,2.5516,2.5516,0,0,1,4.2715-2.4037,3.5659,3.5659,0,0,1,1.115,2.4551A2.5206,2.5206,0,0,1,123.9479,279.0816Z"/><path d="M231.4961,238.5717a2.6972,2.6972,0,0,1,2.457,3.2469,2.6135,2.6135,0,0,1-1.5486,1.8,1.9553,1.9553,0,0,1-.7954.1452c-1.1563-.0332-2.3743-1.5255-2.4087-2.9206A2.3813,2.3813,0,0,1,231.4961,238.5717Z"/><path d="M28.52,477.6559c-1.4738-.0178-2.4894-.8052-2.543-1.9713a2.3605,2.3605,0,0,1,2.3943-2.4551,2.2929,2.2929,0,0,1,2.37,2.1711A2.1152,2.1152,0,0,1,28.52,477.6559Z"/><path d="M191.2019,555.1709a1.963,1.963,0,0,1-2.17-2.2056,2.4027,2.4027,0,0,1,2.6945-2.39,1.863,1.863,0,0,1,1.8992,1.8894A2.4566,2.4566,0,0,1,191.2019,555.1709Z"/><path d="M83.1632,60.2695a2.8357,2.8357,0,0,1-.3889.6572,2.49,2.49,0,0,1-3.4927.0917,2.2179,2.2179,0,0,1-.1838-3.21,1.8113,1.8113,0,0,1,1.9723-.6362A4.1806,4.1806,0,0,1,83.1632,60.2695Z"/><path d="M4.1138,26.72a6.82,6.82,0,0,1-.53,1.327,1.43,1.43,0,0,1-.88.5692A2.3477,2.3477,0,0,1,.03,25.97c.2215-1.3083.8884-2.0526,1.83-2.0421A2.3812,2.3812,0,0,1,4.1131,26.244C4.1188,26.3343,4.1138,26.4253,4.1138,26.72Z"/><path d="M210.4183,313.3157a2.0148,2.0148,0,0,1-2.0581,1.8c-1.669-.1828-2.84-2.46-1.9639-3.7866a1.7454,1.7454,0,0,1,2.8067-.4057A3.4066,3.4066,0,0,1,210.4183,313.3157Z"/><path d="M183.1351,211.6328a2.5344,2.5344,0,0,1-2.3611,2.3619,2.1118,2.1118,0,0,1-1.7688-2.6152c.2519-1.2405.75-1.8507,1.6168-1.9817a2.2719,2.2719,0,0,1,2.3465,1.5514A3.3871,3.3871,0,0,1,183.1351,211.6328Z"/><path d="M138.2819,99.4434A2.0514,2.0514,0,0,1,136.1,97.2077a2.0865,2.0865,0,0,1,2.1821-1.9792,1.8916,1.8916,0,0,1,1.8088,2.2472C140.0075,98.697,139.2917,99.4754,138.2819,99.4434Z"/><path d="M211.9182,443.5146a15.3953,15.3953,0,0,1-.7326,1.5808,1.1375,1.1375,0,0,1-.6952.3694c-.9885.222-1.7714-.4973-2.1655-1.95a1.5416,1.5416,0,0,1,1.0427-1.9184,1.7716,1.7716,0,0,1,2.2447.9993C211.7233,442.8381,211.7837,443.104,211.9182,443.5146Z"/><path d="M22.0774,4.0758c.37.2929.9121.5329,1.1481.9472A2.07,2.07,0,0,1,22.12,7.7263a1.0967,1.0967,0,0,1-1.2285-.3624,2.12,2.12,0,0,1,.3087-2.92A4.2189,4.2189,0,0,1,22.0774,4.0758Z"/><path d="M98.6144,505.4341a7.1364,7.1364,0,0,1,1.6409.488,1.52,1.52,0,0,1,.7135,1.0149,1.5979,1.5979,0,0,1-.5967,1.093,1.5766,1.5766,0,0,1-1.9857-.1969,1.3663,1.3663,0,0,1-.4351-1.68C98.0792,505.8584,98.4067,505.6506,98.6144,505.4341Z"/><path d="M195.13,189.4636a2.6783,2.6783,0,0,1,.6787.3482,1.9156,1.9156,0,0,1,.4331.6879,1.3584,1.3584,0,0,1-.5547,1.8833c-.6.31-1.36-.07-1.7466-.872a1.4444,1.4444,0,0,1,.6222-1.88A2.6265,2.6265,0,0,1,195.13,189.4636Z"/><path d="M8.6768,61.0187a1.5706,1.5706,0,0,1,1.81,1.5373,1.1054,1.1054,0,0,1-1.0712,1.2614,1.7533,1.7533,0,0,1-1.8607-1.5586A1.162,1.162,0,0,1,8.6768,61.0187Z"/><path d="M133.6929,362.7525a1.6375,1.6375,0,0,1,1.5836,1.5917,1.3709,1.3709,0,0,1-1.466,1.3256,1.6859,1.6859,0,0,1-1.4162-1.7512A1.2824,1.2824,0,0,1,133.6929,362.7525Z"/><path d="M17.4138,491.8832a1.7457,1.7457,0,0,1,1.875,2.0758.9424.9424,0,0,1-.9282.83,1.9873,1.9873,0,0,1-1.88-1.2872A1.18,1.18,0,0,1,17.4138,491.8832Z"/><path d="M117.1551,192.838a1.6325,1.6325,0,0,1,1.5963,1.5558,1.5435,1.5435,0,0,1-1.4753,1.3492,1.4871,1.4871,0,0,1-.1211-2.905Z"/><path d="M241.6813,321.33a1.574,1.574,0,0,1-1.3527-1.4582,1.38,1.38,0,0,1,1.3475-1.4028,1.4274,1.4274,0,0,1,1.3609,1.4083A1.5625,1.5625,0,0,1,241.6813,321.33Z"/><path d="M193.4065,535.5156a1.3632,1.3632,0,0,1-1.2893-1.21,1.8858,1.8858,0,0,1,.3749-1.2294,1.32,1.32,0,0,1,1.7546.0374c.5293.4687.2479,1,.1034,1.5224A1.0968,1.0968,0,0,1,193.4065,535.5156Z"/><path d="M138.0688,107.567a8.1025,8.1025,0,0,1-1.0213-1.0529,1.0677,1.0677,0,0,1,.2631-1.4783,1.1466,1.1466,0,0,1,1.0023-.127,1.6008,1.6008,0,0,1,.3919,2.3612C138.6016,107.39,138.3939,107.4205,138.0688,107.567Z"/><path d="M239.62,310.963a1.4653,1.4653,0,0,1,1.0668,1.662,1.0832,1.0832,0,0,1-1.0229.74,1.4244,1.4244,0,0,1-1.0517-1.6623A1.0166,1.0166,0,0,1,239.62,310.963Z"/><path d="M111.4451,187.2533a1.06,1.06,0,0,1-.9056,1.1252,1.235,1.235,0,0,1-1.2033-1.19,1.0052,1.0052,0,0,1,.9287-1.0883A1.1033,1.1033,0,0,1,111.4451,187.2533Z"/><path d="M133.2438,102.0347c.0565.9323-.4916,1.6085-1.049,1.5215a1.0985,1.0985,0,0,1-.92-.8774,1.0361,1.0361,0,0,1,1.0791-1.2382C132.7133,101.4941,133.0238,101.879,133.2438,102.0347Z"/><path d="M85.4246,236.2292a1.1672,1.1672,0,0,1,1.4275,1.1337.7437.7437,0,0,1-.5714.8116c-.6211.1514-1.1921-.3684-1.1755-1.1466A2.2615,2.2615,0,0,1,85.4246,236.2292Z"/><path d="M75.9482,54.6452a.8349.8349,0,0,1-.824.8684.9971.9971,0,0,1-.1841-1.9768A1.174,1.174,0,0,1,75.9482,54.6452Z"/><path d="M6.9549,65.3386c-.1523.13-.3625.4448-.5273.4226a3.1864,3.1864,0,0,1-.9127-.43c.1146-.2173.1753-.535.3548-.6311A.8426.8426,0,0,1,6.9549,65.3386Z"/><path d="M79.0125,485.777c-.0467.7553-.0934,1.5106-.1648,2.6672-.1763-1.169-.4611-1.95.23-2.6135Z"/><path d="M74.8726,444.322c.0443.0089.1249.0128.1269.0275a1.2239,1.2239,0,0,1,.0358.4834c-.0851.2832-.2039.265-.2245-.0334A2.35,2.35,0,0,1,74.8726,444.322Z"/><path d="M39.2163,42.7316c-.8431-.3344-.4153-1.0875-.5457-1.6567l-.08.0734c.71.3659.5546,1.0289.5619,1.6361Z"/><path d="M27.2877,82.5316l-.4779-.1437a2.1457,2.1457,0,0,1,.5627-.1912c.1295-.0078.2675.1238.4016.193Z"/><path d="M38.6705,41.075c-.1342-.1036-.3156-.1833-.3848-.32-.0406-.08.0974-.2507.155-.3805a1.8805,1.8805,0,0,1,.079.2512c.03.1731.0477.3483.0705.5226Z"/><path d="M76.7773,181.25l.2779.1714c-.0364-.019-.0846-.0291-.1069-.0588a1.3344,1.3344,0,0,1-.1-.183Z"/><path d="M206.4505,282.0175l-.5184.5632.0671.0716c-.1727-.44.0174-.624.45-.636Z"/><path d="M205.9321,282.5807c-.1279.1648.0732.021.0671.0716Z"/><polygon points="95.68 321.377 95.592 321.263 95.638 321.437 95.68 321.377"/><path d="M92.3378,315.8183l.4032.1967c-.3833.3447-.3846.07-.3709-.2288Z"/><path d="M31.3392,46.1568l.3875.11c-.052.0062-.1229.0366-.1521.0137a1.2088,1.2088,0,0,1-.1706-.2Z"/><polygon points="59.08 470.4 59.228 470.454 59.167 470.313 59.08 470.4"/><path d="M58.5432,469.7967c.4115-.0057.5012.275.5369.6036l.0871-.0876c-.33-.0473-.6074-.1472-.5757-.5635Z"/><path d="M57.9522,458.1841l.2382.0736-.1722-.14Z"/><path d="M155.8971,521.04l-.1623.14c-.0453-.0552-.13-.1142-.1251-.1646s.0975-.0947.1516-.1415Z"/><polygon points="163.508 529.422 163.446 529.25 163.613 529.272 163.508 529.422"/><path d="M149.9363,507.0857l.2267.0831a3.0014,3.0014,0,0,1-.3113.2023,1.1152,1.1152,0,0,1-.1252-.1655Z"/></g></g></svg>