<svg xmlns="http://www.w3.org/2000/svg" xmlns:xlink="http://www.w3.org/1999/xlink" version="1.1" x="0px" y="0px" viewBox="0 0 100 125" style="enable-background:new 0 0 100 100;" xml:space="preserve"><g><polygon points="90,22.7 41,71.7 41.2,81 90.3,32  "/><polygon points="77.3,10 68,9.7 19,58.8 28.3,59  "/><path d="M28.3,60.5l-10.8-0.3l-0.1,0.1l-4.1,16.1c0,0,0.1,0,0.1,0c0.1,0,0.2,0.1,0.4,0.1c0.2,0.1,0.4,0.1,0.6,0.2   c0.1,0,0.3,0.1,0.4,0.1c0.2,0.1,0.4,0.1,0.6,0.2c0.1,0.1,0.3,0.1,0.4,0.2c0.2,0.1,0.4,0.2,0.5,0.3c0.1,0.1,0.3,0.1,0.4,0.2   c0.2,0.1,0.3,0.2,0.5,0.3c0.1,0.1,0.2,0.1,0.4,0.2c0.2,0.1,0.3,0.2,0.5,0.4c0.1,0.1,0.2,0.2,0.3,0.2c0.2,0.1,0.4,0.3,0.5,0.4   c0.1,0.1,0.2,0.1,0.3,0.2c0.3,0.2,0.5,0.5,0.8,0.7c0.2,0.2,0.5,0.5,0.7,0.8c0.1,0.1,0.1,0.2,0.2,0.3c0.1,0.2,0.3,0.4,0.4,0.5   c0.1,0.1,0.2,0.2,0.2,0.3c0.1,0.2,0.2,0.3,0.4,0.5c0.1,0.1,0.1,0.2,0.2,0.4c0.1,0.2,0.2,0.3,0.3,0.5c0.1,0.1,0.1,0.2,0.2,0.4   c0.1,0.2,0.2,0.4,0.3,0.5c0.1,0.1,0.1,0.3,0.2,0.4c0.1,0.2,0.1,0.4,0.2,0.6c0,0.1,0.1,0.2,0.1,0.4c0.1,0.2,0.1,0.4,0.2,0.6   c0,0.1,0.1,0.2,0.1,0.3c0,0,0,0.1,0,0.1l16.1-4.1l0.1-0.1l-0.3-10.8L28.3,60.5z"/><rect x="24.7" y="32.8" transform="matrix(0.7071 -0.7071 0.7071 0.7071 -11.0503 54.0016)" width="69.9" height="15"/><path d="M22,86.6c0-0.2-0.1-0.3-0.2-0.5c0-0.1-0.1-0.2-0.1-0.3c-0.1-0.2-0.1-0.3-0.2-0.5c0-0.1-0.1-0.2-0.1-0.3   c-0.1-0.2-0.1-0.3-0.2-0.5c-0.1-0.1-0.1-0.2-0.2-0.3c-0.1-0.2-0.2-0.3-0.3-0.5c-0.1-0.1-0.1-0.2-0.2-0.3c-0.1-0.2-0.2-0.3-0.3-0.5   c-0.1-0.1-0.1-0.2-0.2-0.3c-0.1-0.2-0.3-0.3-0.4-0.5c-0.1-0.1-0.1-0.2-0.2-0.2c-0.2-0.2-0.4-0.5-0.6-0.7c-0.2-0.2-0.5-0.4-0.7-0.6   c-0.1-0.1-0.1-0.1-0.2-0.2c-0.2-0.1-0.3-0.3-0.5-0.4c-0.1-0.1-0.2-0.1-0.3-0.2c-0.2-0.1-0.3-0.2-0.5-0.3c-0.1-0.1-0.2-0.1-0.3-0.2   c-0.2-0.1-0.3-0.2-0.5-0.3c-0.1-0.1-0.2-0.1-0.3-0.2c-0.2-0.1-0.3-0.2-0.5-0.2c-0.1-0.1-0.2-0.1-0.3-0.1c-0.2-0.1-0.3-0.1-0.5-0.2   c-0.1,0-0.2-0.1-0.3-0.1c-0.2-0.1-0.3-0.1-0.5-0.2c-0.1,0-0.2-0.1-0.3-0.1c0,0-0.1,0-0.1,0L9.7,90.3l12.4-3.2c0,0,0-0.1,0-0.1   C22.1,86.9,22,86.8,22,86.6z"/></g><text x="0" y="115" fill="#000000" font-size="5px" font-weight="bold" font-family="'Helvetica Neue', Helvetica, Arial-Unicode, Arial, Sans-serif">Created by mikicon</text><text x="0" y="120" fill="#000000" font-size="5px" font-weight="bold" font-family="'Helvetica Neue', Helvetica, Arial-Unicode, Arial, Sans-serif">from the Noun Project</text></svg>