<svg xmlns="http://www.w3.org/2000/svg" xmlns:xlink="http://www.w3.org/1999/xlink" version="1.1" x="0px" y="0px" viewBox="0 0 100 125" enable-background="new 0 0 100 100" xml:space="preserve"><path d="M35.258,77.984L23.984,89.258c-3.645,3.645-9.583,3.655-13.242,0.001c-3.65-3.653-3.65-9.593,0-13.244  l11.273-11.273L35.258,77.984z"/><path d="M53.176,12.934C57.363,9.748,62.434,8,67.785,8c6.467,0,12.546,2.518,17.12,7.091  C89.482,19.669,92,25.748,92,32.215c0,5.351-1.748,10.422-4.934,14.608L53.176,12.934z"/><path d="M65,69.242L52.121,82.121c-1.172,1.172-3.07,1.172-4.242,0l-30-30c-1.172-1.172-1.172-3.07,0-4.242  L30.758,35L65,69.242z"/><path d="M35,30.758L48.758,17L83,51.242L69.242,65L35,30.758z"/><text x="0" y="115" fill="#000000" font-size="5px" font-weight="bold" font-family="'Helvetica Neue', Helvetica, Arial-Unicode, Arial, Sans-serif">Created by Ayub Irawan</text><text x="0" y="120" fill="#000000" font-size="5px" font-weight="bold" font-family="'Helvetica Neue', Helvetica, Arial-Unicode, Arial, Sans-serif">from the Noun Project</text></svg>