<svg xmlns="http://www.w3.org/2000/svg" xmlns:xlink="http://www.w3.org/1999/xlink" version="1.1" x="0px" y="0px" viewBox="0 0 100 125" enable-background="new 0 0 100 100" xml:space="preserve"><g><path d="M86.985,33.703c-1.299-0.109-2.808-0.028-4.359,0.265c-1.7,0.466-2.778-0.508-2.039-1.427   c2.283-2.392,1.164-5.21-1.837-5.589c-4.867-0.623-6.41,3.625-8.854,5.989c-0.706,0.685-1.751-0.279-1.823-1.261   c-0.215-2.831-2.878-3.839-4.954-1.572c-1.32,1.438-1.191,3.819-1.855,5.71c-0.401,1.256-2.386,1.542-2.597,0.322   c-0.316-1.838-3.186-1.763-4.096,2.103c-0.693,3.796-0.96,7.054-4.231,9.088c-2.069,1.276-0.878-12.875,2.354-16.988   c2.119-2.664,0.145-5.208-1.312-4.196c-0.972,0.672-2.105-0.867-1.52-1.98c0.838-1.721,2.549-3.226,2.639-5.086   c0.153-2.935-2.317-4.067-4.39-2.317c-0.711,0.608-2.069,0.545-2.076-0.391c-0.031-3.249,1.818-7.14-1.854-10.038   c-2.266-1.787-4.943-0.661-5.037,2.494C39.01,9.946,37.63,9.866,36.81,8.399c-0.833-1.245-1.798-2.33-2.74-3.144   c-4.114-3.584-10.078,0.792-5.438,5.232c0.932,0.89,2.399,1.527,3.126,2.614c0.789,1.197,0.832,2.115-0.861,2.292   c-3.022,0.32-3.761,2.975-2.692,5.042c0.702,1.345,2.223,2.567,4.501,3.019c1.18,0.245,3.216,0.721,4.379,0.961   c1.021,0.213,1.168,1.684,0.158,1.899c-4.033,0.868-3.694,5.307,0.487,5.178c1.068-0.028,1.871-0.27,2.844-0.348   c1.354-0.108,1.856,1.491,0.385,1.882c-2.291,0.618-1.811,4.147,1.202,3.937c2.463-0.164,4.829-0.401,5.197,2.136   c0.321,2.191,0.48,10.37-0.78,12.332c-0.75,1.167-7.897,3.431-11.051,4.448c-1.226,0.401-9.065,3.736-4.462,13.245l0.007-0.007   c-2.143,13.56,6.282,20.275,11.833,23.923c2.698,1.783,1.769,2.19,4.24,3.01c0.082,0.025,0.257,0.018,0.331-0.009   c2.487-0.766,1.498-1.259,4.162-3.112c5.211-3.612,12.939-10.076,11.496-22.367c0.004,0,0.009,0,0.009,0.006   c2.272-4.214,1.637-10.873-2.231-13.335c-3.872-2.466-10.618-3.389-11.272-5.594c-0.033-0.107,0.019-0.534,0.081-0.613   c0.645-1.201,1.067-2.067,2.23-2.364c2.609-0.663,3.73,0.356,5.414,2.312c2.061,2.398,5.056,0.17,3.82-2   c-0.788-1.389,0.778-2.185,1.697-1.096c0.653,0.783,1.063,1.559,1.821,2.379c2.992,3.215,6.549,0.204,4.228-3.44   c-0.583-0.91,0.629-1.888,1.54-1.28c1.035,0.691,2.886,1.856,3.932,2.568c2.013,1.364,4.048,1.598,5.564,1.136   c2.33-0.72,3.77-3.229,1.788-5.714c-1.121-1.401-0.4-2.049,1.072-2.331c1.349-0.259,2.903,0.372,4.245,0.41   C93.806,41.798,92.685,34.137,86.985,33.703z"/></g><text x="0" y="115" fill="#000000" font-size="5px" font-weight="bold" font-family="'Helvetica Neue', Helvetica, Arial-Unicode, Arial, Sans-serif">Created by Agne Alesiute</text><text x="0" y="120" fill="#000000" font-size="5px" font-weight="bold" font-family="'Helvetica Neue', Helvetica, Arial-Unicode, Arial, Sans-serif">from the Noun Project</text></svg>