<svg xmlns:dc="http://purl.org/dc/elements/1.1/" xmlns:cc="http://creativecommons.org/ns#" xmlns:rdf="http://www.w3.org/1999/02/22-rdf-syntax-ns#" xmlns:svg="http://www.w3.org/2000/svg" xmlns="http://www.w3.org/2000/svg" xmlns:sodipodi="http://sodipodi.sourceforge.net/DTD/sodipodi-0.dtd" xmlns:inkscape="http://www.inkscape.org/namespaces/inkscape" version="1.1" x="0px" y="0px" viewBox="0 0 100 125"><g transform="translate(0,-952.36218)"><path style="text-indent:0;text-transform:none;direction:ltr;block-progression:tb;baseline-shift:baseline;color:#000000;enable-background:accumulate;" d="m 71.288975,961.97175 -62.3129995,16.8125 c -0.233,0.062 -0.372,0.2748 -0.312,0.5 l 15.1559995,56.84365 0,-11.9687 -10.844,-40.78125 c -0.332,-1.242 0.396,-2.5669 1.656,-2.9062 l 9.188,-2.5 0,-0.5 c 0,-1.4271 1.2,-2.5938 2.625,-2.5938 l 9,0 31.75,-8.5624 0.03,0 c 0.108,-0.03 0.265,-0.078 0.406,-0.094 a 1.10011,1.10011 0 0 1 0.03,0 c 1.101,-0.068 2.146,0.6591 2.437,1.75 l 1.844,6.9062 3.156,0 -3.343,-12.5937 c -0.06,-0.2068 -0.214,-0.3125 -0.376,-0.3125 -0.01,0 -0.03,-3e-4 -0.03,0 l -0.06,0 z m -3.5,6.4688 -23.907,6.4374 25.782,0 -1.688,-6.3124 c -0.03,-0.102 -0.08,-0.125 -0.156,-0.125 0,0 -0.01,-0.01 -0.03,0 z m -41.344,8.625 c -0.245,0 -0.406,0.16 -0.406,0.4062 l 0,64.87495 c 0,0.061 0.01,0.1062 0.03,0.1562 0.06,0.149 0.192,0.25 0.375,0.25 l 64.5,0 c 0.247,0 0.406,-0.1598 0.406,-0.4062 l 0,-64.87495 c 0,-0.2463 -0.159,-0.4062 -0.406,-0.4062 l -14.031,0 a 1.10011,1.10011 0 0 1 -0.188,0.062 1.10011,1.10011 0 0 1 -0.437,-0.031 1.10011,1.10011 0 0 1 -0.125,-0.031 l -4.938,0 -0.344,0 -35.031,0 -0.09,0 a 1.10011,1.10011 0 0 1 -0.438,0 l -8.875,0 z m 5.031,3.0937 54.406,0 c 1.297,0 2.376,1.0787 2.376,2.375 l 0,44.87495 c 0,1.2961 -1.079,2.375 -2.376,2.375 l -54.406,0 c -1.297,0 -2.375,-1.0789 -2.375,-2.375 l 0,-44.87495 c 0,-1.2963 1.078,-2.375 2.375,-2.375 z m -7.656,0.094 -8.625,2.3438 c -0.09,0.026 -0.124,0.097 -0.09,0.2188 l 8.719,32.78115 0,-35.34375 z m 7.656,2.125 c -0.118,0 -0.187,0.041 -0.187,0.1563 l 0,26.49995 20.437,-11.87495 a 1.10011,1.10011 0 0 1 0.313,-0.125 1.10011,1.10011 0 0 1 1.031,0.3125 l 12.406,12.46875 11.469,-6.625 a 1.10011,1.10011 0 0 1 1.25,0.094 l 7.875,6.5313 0,-27.28125 c 0,-0.1153 -0.07,-0.1563 -0.188,-0.1563 l -54.406,0 z m 38.25,6.0626 c 3.394,0 6.156,2.8064 6.156,6.2187 0,3.4122 -2.762,6.18745 -6.156,6.18745 -3.393,0 -6.187,-2.77535 -6.187,-6.18745 0,-3.4123 2.794,-6.2187 6.187,-6.2187 z m 0,2.2187 c -2.207,0 -3.968,1.7799 -3.968,4 0,2.22 1.761,4 3.968,4 2.208,0 3.969,-1.78 3.969,-4 0,-2.2202 -1.761,-4 -3.969,-4 z m -17.625,8.8437 -20.812,12.06255 0,15.8437 c 0,0.1154 0.07,0.1875 0.187,0.1875 l 54.406,0 c 0.119,0 0.188,-0.072 0.188,-0.1875 l 0,-14.75 -8.688,-7.2187 -11.531,6.7187 a 1.10011,1.10011 0 0 1 -1.343,-0.1875 l -12.407,-12.46875 z" fill="#000000" fill-opacity="1" stroke="none" marker="none" visibility="visible" display="inline" overflow="visible"/></g><text x="0" y="115" fill="#000000" font-size="5px" font-weight="bold" font-family="'Helvetica Neue', Helvetica, Arial-Unicode, Arial, Sans-serif">Created by Artdabana@Design</text><text x="0" y="120" fill="#000000" font-size="5px" font-weight="bold" font-family="'Helvetica Neue', Helvetica, Arial-Unicode, Arial, Sans-serif">from the Noun Project</text></svg>