<svg xmlns="http://www.w3.org/2000/svg" data-name="Layer 2" viewBox="0 0 100 125" x="0px" y="0px"><title>f_fertilizer_2</title><rect x="18.49" y="11.6" width="63.02" height="7.88" rx="2.05" ry="2.05"/><path d="M20.54,78.92H79.46a3.61,3.61,0,0,1,.87.12,220.3,220.3,0,0,0,0-58.08,3.61,3.61,0,0,1-.87.12H20.54a3.61,3.61,0,0,1-.87-.12,220.3,220.3,0,0,0,0,58.08A3.61,3.61,0,0,1,20.54,78.92Zm36-32.38c4.29-4.24,10.86-4.85,12.62-4.94-.12,1.77-.86,8.38-5.15,12.62S53.2,59.07,51.44,59.16C51.56,57.39,52.3,50.78,56.59,46.54ZM41.73,43.33c4.15,4.3,5,10.56,5.1,12.34-1.78-.22-8-1.28-12.2-5.58s-5-10.56-5.1-12.34C31.31,38,37.58,39,41.73,43.33Z"/><rect x="18.49" y="80.52" width="63.02" height="7.88" rx="2.05" ry="2.05"/><text x="0" y="115" fill="#000000" font-size="5px" font-weight="bold" font-family="'Helvetica Neue', Helvetica, Arial-Unicode, Arial, Sans-serif">Created by Jae Deasigner</text><text x="0" y="120" fill="#000000" font-size="5px" font-weight="bold" font-family="'Helvetica Neue', Helvetica, Arial-Unicode, Arial, Sans-serif">from the Noun Project</text></svg>