<svg xmlns="http://www.w3.org/2000/svg" xmlns:xlink="http://www.w3.org/1999/xlink" version="1.1" x="0px" y="0px" viewBox="0 0 100 125" style="enable-background:new 0 0 100 100;" xml:space="preserve"><g><path d="M19.8896484,48.6591797h24.8564453v-7.3837891c0-0.2344971,0.0930176-0.4405518,0.2280273-0.6110229   c-3.1322021-1.8843384-5.2387695-5.3069458-5.2387695-9.2210083c0-5.9355469,4.8286133-10.7636719,10.7641602-10.7636719   c5.9350586,0,10.7636719,4.828125,10.7636719,10.7636719c0,3.7828369-1.9656982,7.1097412-4.9246826,9.0300903   c0.2016602,0.1828613,0.333374,0.4406128,0.333374,0.7345581v7.4511719h24.4370117V23.9384766   c0-5.3544922-4.3554688-9.7099609-9.7094727-9.7099609h-41.800293c-5.3540039,0-9.7094727,4.3554688-9.7094727,9.7099609   V48.6591797z M67.1601562,20.6796875h5.7421875c1.921875,0,3.4853516,1.5634766,3.4853516,3.4853516   c0,1.9228516-1.5634766,3.4863281-3.4853516,3.4863281h-5.7421875c-1.921875,0-3.4858398-1.5634766-3.4858398-3.4863281   C63.6743164,22.2431641,65.2382812,20.6796875,67.1601562,20.6796875z M30.6660156,35.03125   c2.4272461,0,4.4018555,1.9746094,4.4018555,4.4013672c0,2.4277344-1.9746094,4.4023438-4.4018555,4.4023438   s-4.4018555-1.9746094-4.4018555-4.4023438C26.2641602,37.0058594,28.2387695,35.03125,30.6660156,35.03125z"/><path d="M11.918457,64.4550781c-0.0060425,0-0.0109863-0.0032959-0.0170288-0.003418   c-0.0371704,0.2619629-0.0591431,0.5263672-0.0591431,0.7924805v7.7070312c0,1.9658203,1.5996094,3.5654297,3.5654297,3.5654297   h7.6182251l2.0025024-5.03125h-6.3580322c-0.5522461,0-1-0.4472656-1-1s0.4477539-1,1-1h7.8077393   c0.0029297-0.000061,0.0056152,0.000061,0.0085449,0h47.2965698c0.0028687,0.000061,0.0056763-0.000061,0.0085449,0h7.5377808   c0.5522461,0,1,0.4472656,1,1s-0.4477539,1-1,1h-6.0880127l2.0025024,5.03125h7.3482056   c1.9658203,0,3.5654297-1.5996094,3.5654297-3.5654297v-7.9052734c0-0.1973877-0.0142822-0.3945312-0.0350952-0.5908203H11.918457z   "/><polygon points="27.1813965,71.4853516 21.4951172,85.7714844 78.7749023,85.7714844 73.088623,71.4853516  "/><path d="M67.1601562,25.6513672h5.7421875c0.8188477,0,1.4853516-0.6669922,1.4853516-1.4863281   s-0.6665039-1.4853516-1.4853516-1.4853516h-5.7421875c-0.8193359,0-1.4858398,0.6660156-1.4858398,1.4853516   S66.3408203,25.6513672,67.1601562,25.6513672z"/><circle cx="30.6660156" cy="39.4328613" r="2.4018555"/><path d="M49.7089844,48.6591797v-6.4912109c-1.0357056-0.0758057-2.0285645-0.2993164-2.9628906-0.6486206v7.1398315H49.7089844z"/><path d="M59.2631836,31.4433594c0-4.8320312-3.9311523-8.7636719-8.7636719-8.7636719s-8.7641602,3.9316406-8.7641602,8.7636719   c0,4.8330078,3.9316406,8.7646484,8.7641602,8.7646484S59.2631836,36.2763672,59.2631836,31.4433594z M50.4995117,27.9462891   c-1.7744141,0-3.2680664,1.3261719-3.4741211,3.0849609c-0.0595703,0.5087891-0.4916992,0.8837891-0.9916992,0.8837891   c-0.0390625,0-0.078125-0.0019531-0.1176758-0.0068359c-0.5488281-0.0644531-0.9414062-0.5605469-0.8769531-1.109375   c0.3237305-2.7666016,2.6713867-4.8525391,5.4604492-4.8525391c0.5522461,0,1,0.4472656,1,1   S51.0517578,27.9462891,50.4995117,27.9462891z"/><path d="M12.5822144,62.4550781H87.529541l-5.9887085-11.7958984H19.4215088l-6.8165283,11.75   C12.5963745,62.4240112,12.5906982,62.4401855,12.5822144,62.4550781z"/><path d="M54.671875,48.6591797v-7.2935791c-0.9284058,0.3919678-1.9241333,0.6530151-2.9628906,0.7698364v6.5237427H54.671875z"/></g><text x="0" y="115" fill="#000000" font-size="5px" font-weight="bold" font-family="'Helvetica Neue', Helvetica, Arial-Unicode, Arial, Sans-serif">Created by Artem  Kovyazin</text><text x="0" y="120" fill="#000000" font-size="5px" font-weight="bold" font-family="'Helvetica Neue', Helvetica, Arial-Unicode, Arial, Sans-serif">from the Noun Project</text></svg>