<svg xmlns="http://www.w3.org/2000/svg" xmlns:xlink="http://www.w3.org/1999/xlink" version="1.1" x="0px" y="0px" viewBox="0 0 100 125" style="enable-background:new 0 0 100 100;" xml:space="preserve"><path d="M77,24.5v51c0,0.829-0.672,1.5-1.5,1.5h-51c-0.829,0-1.5-0.671-1.5-1.5v-51c0-0.829,0.671-1.5,1.5-1.5h51  C76.328,23,77,23.671,77,24.5z M75.5,11c-0.828,0-1.5,0.671-1.5,1.5v7c0,0.829,0.672,1.5,1.5,1.5s1.5-0.671,1.5-1.5v-7  C77,11.671,76.328,11,75.5,11z M80.5,26h7c0.828,0,1.5-0.671,1.5-1.5S88.328,23,87.5,23h-7c-0.828,0-1.5,0.671-1.5,1.5  S79.672,26,80.5,26z M87.5,74h-7c-0.828,0-1.5,0.671-1.5,1.5s0.672,1.5,1.5,1.5h7c0.828,0,1.5-0.671,1.5-1.5S88.328,74,87.5,74z   M75.5,79c-0.828,0-1.5,0.671-1.5,1.5v7c0,0.829,0.672,1.5,1.5,1.5s1.5-0.671,1.5-1.5v-7C77,79.671,76.328,79,75.5,79z M24.5,79  c-0.829,0-1.5,0.671-1.5,1.5v7c0,0.829,0.671,1.5,1.5,1.5s1.5-0.671,1.5-1.5v-7C26,79.671,25.329,79,24.5,79z M19.5,74h-7  c-0.829,0-1.5,0.671-1.5,1.5s0.671,1.5,1.5,1.5h7c0.829,0,1.5-0.671,1.5-1.5S20.329,74,19.5,74z M19.5,23h-7  c-0.829,0-1.5,0.671-1.5,1.5s0.671,1.5,1.5,1.5h7c0.829,0,1.5-0.671,1.5-1.5S20.329,23,19.5,23z M24.5,21c0.829,0,1.5-0.671,1.5-1.5  v-7c0-0.829-0.671-1.5-1.5-1.5S23,11.671,23,12.5v7C23,20.329,23.671,21,24.5,21z"/><text x="0" y="115" fill="#000000" font-size="5px" font-weight="bold" font-family="'Helvetica Neue', Helvetica, Arial-Unicode, Arial, Sans-serif">Created by Setyo Ari Wibowo</text><text x="0" y="120" fill="#000000" font-size="5px" font-weight="bold" font-family="'Helvetica Neue', Helvetica, Arial-Unicode, Arial, Sans-serif">from the Noun Project</text></svg>