<svg xmlns="http://www.w3.org/2000/svg" xmlns:xlink="http://www.w3.org/1999/xlink" version="1.1" x="0px" y="0px" viewBox="0 0 48 60" enable-background="new 0 0 48 48" xml:space="preserve"><g><path fill="#000000" d="M12.2,24.6h23.5c0.3,0,0.4-0.3,0.3-0.5l-4.2-8.3c-0.1-0.1-0.2-0.2-0.3-0.2H16.4c-0.1,0-0.3,0.1-0.3,0.2   l-4.2,8.3C11.8,24.3,12,24.6,12.2,24.6z"/><path fill="#000000" d="M42.1,36.1l-4.2-8.3c-0.1-0.1-0.2-0.2-0.3-0.2H10.4c-0.1,0-0.3,0.1-0.3,0.2l-4.2,8.3   c-0.1,0.2,0.1,0.5,0.3,0.5h35.5C42,36.6,42.2,36.3,42.1,36.1z"/><path fill="#000000" d="M30.1,12.1L24.3,0.6c-0.1-0.3-0.5-0.3-0.6,0l-5.8,11.5c-0.1,0.2,0.1,0.5,0.3,0.5h11.5   C30,12.6,30.2,12.3,30.1,12.1z"/><path fill="#000000" d="M4.1,39.8l-3.7,7.3c-0.1,0.2,0.1,0.5,0.3,0.5h46.5c0.3,0,0.4-0.3,0.3-0.5l-3.7-7.3   c-0.1-0.1-0.2-0.2-0.3-0.2H4.4C4.3,39.6,4.1,39.7,4.1,39.8z"/></g><text x="0" y="63" fill="#000000" font-size="5px" font-weight="bold" font-family="'Helvetica Neue', Helvetica, Arial-Unicode, Arial, Sans-serif">Created by Creative Stall</text><text x="0" y="68" fill="#000000" font-size="5px" font-weight="bold" font-family="'Helvetica Neue', Helvetica, Arial-Unicode, Arial, Sans-serif">from the Noun Project</text></svg>