<svg xmlns="http://www.w3.org/2000/svg" xmlns:xlink="http://www.w3.org/1999/xlink" version="1.1" x="0px" y="0px" viewBox="0 0 100 125" enable-background="new 0 0 100 100" xml:space="preserve"><path d="M31.8,23.8l0.6,0.7c3.1,3.2,7.4,5,11.9,5c4.5,0,8.7-1.8,11.9-5l0.6-0.7h0.9H59c-3.4-4.4-8.7-7.2-14.7-7.2  c-6,0-11.3,2.8-14.7,7.2h1.3H31.8z M48.6,24.2l2-3.4c0.1-0.1,0.3-0.2,0.4-0.1l2.6,1.5c0.1,0.1,0.2,0.3,0.1,0.4l-2,3.4  c-0.1,0.1-0.3,0.2-0.4,0.1l-2.6-1.5C48.6,24.6,48.5,24.4,48.6,24.2z M42.5,19.6c0-0.2,0.1-0.3,0.3-0.3h3c0.2,0,0.3,0.1,0.3,0.3v4  c0,0.2-0.1,0.3-0.3,0.3h-3c-0.2,0-0.3-0.1-0.3-0.3V19.6z M34.9,22.2l2.6-1.5c0.1-0.1,0.3,0,0.4,0.1l2,3.4c0.1,0.1,0,0.3-0.1,0.4  l-2.6,1.5c-0.1,0.1-0.3,0-0.4-0.1l-2-3.4C34.7,22.4,34.8,22.3,34.9,22.2z M96,34.3c0,3.3-2.7,6.1-6.1,6.1c-0.6,0-1.1-0.1-1.6-0.2  l-3.6,3.6v-1.8c0-1.8-0.9-3.4-2.2-4.4l1.6-1.6c-0.1-0.5-0.2-1.1-0.2-1.6c0-3.3,2.7-6.1,6.1-6.1C93.3,28.2,96,30.9,96,34.3z M72,29.8  c0.6,1.2,1.9,3.5,3.3,6.7H13.8c1.3-3.1,2.7-5.5,3.3-6.7c1.5-2.8,3.8-3.9,6.2-3.9h7.6c3.4,3.5,8.2,5.7,13.4,5.7  c5.3,0,10-2.2,13.4-5.7h8.1C68.2,25.9,70.5,27,72,29.8z M17,76.7c-0.9-1.7-3.3-5.9-5-11.4h65c-1.7,5.5-4.1,9.7-5,11.4  c-1.5,2.8-3.8,3.9-6.2,3.9H23.2C20.8,80.6,18.5,79.6,17,76.7z M82.5,60V41.9c0-1.8-1.4-3.2-3.2-3.2H9.2c-1.8,0-3.2,1.4-3.2,3.2V60  c0,1.8,1.4,3.2,3.2,3.2h70.1C81.1,63.2,82.5,61.8,82.5,60z M33.9,58H17.2c-0.6,0-1.1-0.5-1.1-1.1V45.6c0-0.6,0.5-1.1,1.1-1.1h16.7  c0.6,0,1.1,0.5,1.1,1.1v11.3C35,57.5,34.5,58,33.9,58z M71.1,56.9c0,0.6-0.5,1.1-1.1,1.1H53.3c-0.6,0-1.1-0.5-1.1-1.1V45.6  c0-0.6,0.5-1.1,1.1-1.1H70c0.6,0,1.1,0.5,1.1,1.1V56.9z"/><text x="0" y="115" fill="#000000" font-size="5px" font-weight="bold" font-family="'Helvetica Neue', Helvetica, Arial-Unicode, Arial, Sans-serif">Created by Andrew Nolte</text><text x="0" y="120" fill="#000000" font-size="5px" font-weight="bold" font-family="'Helvetica Neue', Helvetica, Arial-Unicode, Arial, Sans-serif">from the Noun Project</text></svg>