<svg xmlns="http://www.w3.org/2000/svg" xmlns:xlink="http://www.w3.org/1999/xlink" version="1.1" x="0px" y="0px" viewBox="0 0 100 125" style="enable-background:new 0 0 100 100;" xml:space="preserve"><g><path d="M62.6376953,75.1611328c7.4804688-4.7929688,7.0527344-16.2246094,6.8227539-22.3662109   c-0.0341797-0.9150391-0.0634766-1.7119141-0.0634766-2.355957c0-1.4542236,0.1548462-2.6143188,0.3944702-3.5424805H30.2559204   c0.2120972,0.9187622,0.3471069,2.0745239,0.3471069,3.5424805c0,0.644043-0.0292969,1.440918-0.0634766,2.355957   c-0.2299805,6.1416016-0.6577148,17.5732422,6.8227539,22.3662109c5.7822266,3.7050781,10.0356445,7.3623047,12.2993164,10.5751953   C49.7636719,85.8808594,49.9174805,85.9023438,50,85.9023438s0.2363281-0.0214844,0.3383789-0.1660156   C52.6020508,82.5234375,56.8554688,78.8662109,62.6376953,75.1611328z M38.9316406,70.2460938   c-0.2670898,0.1953125-0.5776367,0.2900391-0.8857422,0.2900391c-0.4614258,0-0.9169922-0.2119141-1.2104492-0.6132812   c-3.0708008-4.1875-2.84375-8.4355469-2.8325195-8.6142578c0.0517578-0.8271484,0.7578125-1.4560547,1.5908203-1.4033203   c0.824707,0.0517578,1.4516602,0.7597656,1.4038086,1.5839844c-0.0039062,0.0859375-0.1264648,3.4091797,2.2568359,6.6601562   C39.7446289,68.8173828,39.6000977,69.7558594,38.9316406,70.2460938z M45.1796875,74.3984375   c-0.2607422,0.5302734-0.793457,0.8378906-1.347168,0.8378906c-0.222168,0-0.4477539-0.0488281-0.6606445-0.1542969   c-0.6162109-0.3027344-1.206543-0.6298828-1.7548828-0.9716797C40.7138672,73.671875,40.5,72.7470703,40.9384766,72.0439453   c0.4389648-0.703125,1.3642578-0.9169922,2.0664062-0.4785156c0.4628906,0.2890625,0.9643555,0.5664062,1.4902344,0.8251953   C45.2387695,72.7558594,45.5449219,73.6542969,45.1796875,74.3984375z"/><path d="M63.9267578,28.3120117c-9.2167969-2.4365234-11.0791016-9.0986328-11.3691406-12.8530273   c-0.0546875-0.7060547-0.6279297-1.2729492-1.3339844-1.3188477C50.8266602,14.1142578,50.4111328,14.097168,50,14.097168   s-0.8266602,0.0170898-1.2236328,0.0429688c-0.7060547,0.0458984-1.2792969,0.612793-1.3339844,1.3193359   c-0.2900391,3.7539062-2.1523438,10.4160156-11.3691406,12.8525391c-6.9624023,1.8408203-8.6367188,8.4301758-8.8154297,13.6337891   c-0.0175781,0.5141602,0.1699219,1.0014648,0.527832,1.371582c0.0950317,0.0983887,0.199585,0.1834106,0.3103027,0.2577515   c0.1053467,0.0450439,0.2179565,0.104248,0.3361206,0.178833c0.225708,0.0921631,0.4691772,0.1425171,0.7217407,0.1425171   h41.6923828c0.2890625,0,0.5643311-0.0690308,0.8162842-0.1889038c0.1420288-0.1066284,0.2722168-0.1890259,0.3878784-0.2512207   c0.0552368-0.0456543,0.1134644-0.0866699,0.1640015-0.1389771c0.3579102-0.3701172,0.5454102-0.8574219,0.527832-1.371582   C72.5634766,36.7421875,70.8891602,30.152832,63.9267578,28.3120117z M37.199707,35.9599609   c-0.0698242,0.0698242-0.1499023,0.1298828-0.2299805,0.1899414C36.8896484,36.199707,36.7998047,36.25,36.7099609,36.2900391   c-0.090332,0.0297852-0.1801758,0.0595703-0.2802734,0.0795898s-0.1899414,0.0302734-0.2900391,0.0302734   c-0.0996094,0-0.199707-0.0102539-0.2900391-0.0302734C35.75,36.3496094,35.659668,36.3198242,35.5600586,36.2900391   c-0.090332-0.0400391-0.1704102-0.090332-0.25-0.1401367c-0.090332-0.0600586-0.1601562-0.1201172-0.2304688-0.1899414   c-0.2797852-0.2802734-0.4399414-0.6601562-0.4399414-1.0600586c0-0.0898438,0.0102539-0.1899414,0.0302734-0.2900391   S34.7099609,34.4199219,34.75,34.3295898c0.0400391-0.0898438,0.0898438-0.1796875,0.1396484-0.2597656   c0.050293-0.0800781,0.1201172-0.1601562,0.1899414-0.2299805c0.0703125-0.0698242,0.1401367-0.1298828,0.2304688-0.1801758   c0.0795898-0.0600586,0.159668-0.0996094,0.25-0.1396484c0.0996094-0.0400391,0.1899414-0.0703125,0.2895508-0.090332   c0.1904297-0.0400391,0.3901367-0.0400391,0.5800781,0c0.1000977,0.0200195,0.1899414,0.050293,0.2802734,0.090332   c0.0898438,0.0400391,0.1796875,0.0795898,0.2597656,0.1396484c0.0800781,0.050293,0.1601562,0.1103516,0.2299805,0.1801758   c0.0703125,0.0698242,0.1298828,0.1499023,0.1899414,0.2299805c0.050293,0.0800781,0.1000977,0.1699219,0.1303711,0.2597656   c0.0400391,0.090332,0.0698242,0.1801758,0.0898438,0.2802734s0.0297852,0.2001953,0.0297852,0.2900391   C37.6396484,35.2998047,37.4799805,35.6796875,37.199707,35.9599609z M40.5600586,40.0498047   C40.2797852,40.3295898,39.8999023,40.4897461,39.5,40.4897461c-0.3901367,0-0.7802734-0.1601562-1.0600586-0.4399414   C38.159668,39.7700195,38,39.3896484,38,38.9897461c0-0.3901367,0.159668-0.7797852,0.4399414-1.0600586   C39,37.3696289,40,37.3696289,40.5600586,37.9296875C40.8398438,38.2099609,41,38.5996094,41,38.9897461   C41,39.3896484,40.8398438,39.7700195,40.5600586,40.0498047z M44.199707,35.9599609   c-0.2797852,0.2797852-0.6699219,0.4399414-1.0600586,0.4399414c-0.0996094,0-0.199707-0.0102539-0.2900391-0.0302734   C42.75,36.3496094,42.659668,36.3198242,42.5600586,36.2900391c-0.090332-0.0400391-0.1704102-0.090332-0.25-0.1401367   c-0.090332-0.0600586-0.1601562-0.1201172-0.2304688-0.1899414c-0.2797852-0.2802734-0.4399414-0.6601562-0.4399414-1.0600586   c0-0.0898438,0.0102539-0.1899414,0.0302734-0.2900391S41.7197266,34.4199219,41.75,34.3295898   c0.0400391-0.0898438,0.0898438-0.1796875,0.1396484-0.2597656c0.0600586-0.0800781,0.1201172-0.1601562,0.1899414-0.2299805   c0.0703125-0.0698242,0.1401367-0.1298828,0.2304688-0.1801758c0.0795898-0.0600586,0.159668-0.0996094,0.25-0.1396484   c0.0996094-0.0400391,0.1899414-0.0703125,0.2895508-0.090332c0.4799805-0.1000977,1,0.0600586,1.3500977,0.4101562   c0.0703125,0.0698242,0.1298828,0.1499023,0.1899414,0.2299805c0.050293,0.0800781,0.1000977,0.1699219,0.1303711,0.2597656   c0.0400391,0.090332,0.0698242,0.1801758,0.0898438,0.2802734s0.0297852,0.2001953,0.0297852,0.2900391   C44.6396484,35.2998047,44.4799805,35.6796875,44.199707,35.9599609z M47.5600586,40.0498047   C47.2797852,40.3295898,46.8999023,40.4897461,46.5,40.4897461c-0.1000977,0-0.2001953-0.0097656-0.2900391-0.0297852   c-0.1000977-0.0200195-0.1899414-0.050293-0.2802734-0.0800781c-0.0898438-0.0400391-0.1796875-0.0898438-0.2597656-0.1401367   c-0.090332-0.0600586-0.1601562-0.1201172-0.2299805-0.1899414C45.159668,39.7700195,45,39.3896484,45,38.9897461   c0-0.3901367,0.159668-0.7797852,0.4399414-1.0600586c0.0698242-0.0698242,0.1396484-0.1298828,0.2299805-0.1899414   c0.0800781-0.0498047,0.1699219-0.1000977,0.2597656-0.1298828c0.090332-0.0400391,0.1801758-0.0698242,0.2802734-0.0898438   c0.4799805-0.1000977,1,0.0595703,1.3500977,0.409668C47.8398438,38.2099609,48,38.5996094,48,38.9897461   C48,39.3896484,47.8398438,39.7700195,47.5600586,40.0498047z M51.199707,35.9599609   c-0.2797852,0.2797852-0.6699219,0.4399414-1.0600586,0.4399414c-0.0996094,0-0.199707-0.0102539-0.2900391-0.0302734   c-0.0996094-0.0200195-0.199707-0.0498047-0.2895508-0.0795898c-0.090332-0.0400391-0.1704102-0.090332-0.25-0.1401367   c-0.090332-0.0600586-0.1601562-0.1201172-0.2304688-0.1899414c-0.2797852-0.2802734-0.4399414-0.6601562-0.4399414-1.0600586   c0-0.0898438,0.0102539-0.1899414,0.0302734-0.2900391S48.7197266,34.4199219,48.75,34.3295898   c0.0400391-0.0898438,0.0898438-0.1796875,0.1396484-0.2597656c0.0600586-0.0800781,0.1201172-0.1601562,0.1899414-0.2299805   c0.0703125-0.0698242,0.1401367-0.1298828,0.2304688-0.1801758c0.0795898-0.0600586,0.159668-0.0996094,0.25-0.1396484   c0.0898438-0.0400391,0.1899414-0.0703125,0.2895508-0.090332c0.4799805-0.1000977,1,0.0600586,1.3500977,0.4101562   c0.0703125,0.0698242,0.1298828,0.1499023,0.1899414,0.2299805c0.050293,0.0800781,0.1000977,0.1699219,0.1303711,0.2597656   c0.0400391,0.090332,0.0698242,0.1801758,0.0898438,0.2802734s0.0297852,0.2001953,0.0297852,0.2900391   C51.6396484,35.2998047,51.4799805,35.6899414,51.199707,35.9599609z M54.5600586,40.0498047   C54.2797852,40.3295898,53.8896484,40.4897461,53.5,40.4897461c-0.4003906,0-0.7802734-0.1601562-1.0600586-0.4399414   C52.159668,39.7700195,52,39.3896484,52,38.9897461c0-0.1000977,0.0097656-0.199707,0.0297852-0.2900391   c0.0200195-0.1000977,0.0498047-0.1899414,0.0898438-0.2797852c0.0302734-0.090332,0.0800781-0.1801758,0.1303711-0.2602539   C52.3100586,38.0795898,52.3696289,38,52.4399414,37.9296875C53,37.3696289,54,37.3696289,54.5600586,37.9296875   C54.8398438,38.2099609,55,38.5996094,55,38.9897461C55,39.3896484,54.8398438,39.7700195,54.5600586,40.0498047z    M58.199707,35.9599609c-0.2797852,0.2797852-0.6699219,0.4399414-1.0600586,0.4399414   c-0.0996094,0-0.199707-0.0102539-0.2900391-0.0302734c-0.0996094-0.0200195-0.199707-0.0498047-0.2895508-0.0795898   c-0.090332-0.0400391-0.1704102-0.090332-0.25-0.1401367c-0.090332-0.0600586-0.1601562-0.1201172-0.2304688-0.1899414   c-0.2797852-0.2802734-0.4399414-0.6601562-0.4399414-1.0600586c0-0.0898438,0.0102539-0.1899414,0.0302734-0.2900391   S55.7197266,34.4199219,55.75,34.3295898c0.0400391-0.0898438,0.0898438-0.1796875,0.1396484-0.2597656   c0.0600586-0.0800781,0.1201172-0.1601562,0.1899414-0.2299805c0.0703125-0.0698242,0.1401367-0.1298828,0.2304688-0.1801758   c0.0795898-0.0600586,0.159668-0.0996094,0.25-0.1396484c0.0898438-0.0400391,0.1899414-0.0703125,0.2895508-0.090332   c0.4799805-0.0898438,1,0.0600586,1.3500977,0.4101562c0.0703125,0.0698242,0.1298828,0.1499023,0.1801758,0.2299805   c0.0600586,0.0800781,0.1098633,0.1699219,0.1401367,0.2597656c0.0400391,0.090332,0.0698242,0.1801758,0.0898438,0.2802734   s0.0297852,0.2001953,0.0297852,0.2900391C58.6396484,35.2998047,58.4799805,35.6796875,58.199707,35.9599609z    M61.5600586,40.0498047C61.2797852,40.3295898,60.8896484,40.4897461,60.5,40.4897461   c-0.3901367,0-0.7802734-0.1601562-1.0600586-0.4399414C59.159668,39.7700195,59,39.3896484,59,38.9897461   c0-0.3901367,0.159668-0.7797852,0.4399414-1.0600586C60,37.3696289,61,37.3696289,61.5600586,37.9296875   C61.8398438,38.2099609,62,38.5996094,62,38.9897461C62,39.3896484,61.8398438,39.7700195,61.5600586,40.0498047z    M64.9199219,35.9599609c-0.0703125,0.0698242-0.1401367,0.1298828-0.2299805,0.1899414   c-0.0800781,0.0498047-0.1601562,0.1000977-0.25,0.1401367c-0.1000977,0.0297852-0.1899414,0.0595703-0.2900391,0.0795898   c-0.0898438,0.0200195-0.1899414,0.0302734-0.2900391,0.0302734s-0.1899414-0.0102539-0.2900391-0.0302734   s-0.1899414-0.0498047-0.2797852-0.0795898c-0.090332-0.0400391-0.1801758-0.090332-0.2602539-0.1401367   c-0.0800781-0.0600586-0.1601562-0.1201172-0.2299805-0.1899414c-0.2797852-0.2802734-0.4399414-0.6601562-0.4399414-1.0600586   c0-0.0898438,0.0097656-0.1899414,0.0297852-0.2900391s0.050293-0.1899414,0.090332-0.2802734   c0.0297852-0.0898438,0.0800781-0.1796875,0.1298828-0.2597656c0.0600586-0.0800781,0.1201172-0.1601562,0.1899414-0.2299805   s0.1499023-0.1298828,0.2299805-0.1801758c0.0800781-0.0600586,0.1699219-0.0996094,0.2602539-0.1396484   c0.0898438-0.0400391,0.1796875-0.0703125,0.2797852-0.090332c0.1899414-0.0400391,0.3901367-0.0400391,0.5800781,0   c0.1000977,0.0200195,0.1899414,0.050293,0.2900391,0.090332c0.0898438,0.0400391,0.1699219,0.0795898,0.25,0.1396484   c0.0898438,0.050293,0.159668,0.1103516,0.2299805,0.1801758c0.0698242,0.0698242,0.1401367,0.1499023,0.1899414,0.2299805   S65.2099609,34.2397461,65.25,34.3295898c0.0400391,0.090332,0.0600586,0.1801758,0.0795898,0.2802734   c0.0200195,0.1000977,0.0302734,0.2001953,0.0302734,0.2900391C65.3598633,35.2998047,65.199707,35.6796875,64.9199219,35.9599609z   "/></g><text x="0" y="115" fill="#000000" font-size="5px" font-weight="bold" font-family="'Helvetica Neue', Helvetica, Arial-Unicode, Arial, Sans-serif">Created by Artem  Kovyazin</text><text x="0" y="120" fill="#000000" font-size="5px" font-weight="bold" font-family="'Helvetica Neue', Helvetica, Arial-Unicode, Arial, Sans-serif">from the Noun Project</text></svg>